<svg xmlns="http://www.w3.org/2000/svg" xmlns:xlink="http://www.w3.org/1999/xlink" id="Layer_1" x="0px" y="0px" viewBox="0 0 894.2 113.3" style="enable-background:new 0 0 894.2 113.3;" xml:space="preserve"><style type="text/css">	.st0{fill:#5A5A5C;}	.st1{fill:#7F1416;}</style><g id="primary">	<rect x="503.3" y="9.6" width="1.5" height="91.6"></rect>	<path class="st0" d="M525.5,24.2L525.5,24.2c-0.1-7.5,6-13.6,13.4-13.7c0.1,0,0.3,0,0.4,0c3.8-0.2,7.5,1.1,10.3,3.6l-3.7,4.4  c-1.9-1.8-4.3-2.7-6.9-2.7c-4.2,0-7.6,3.7-7.6,8.2v0.1c0,4.8,3.3,8.3,8,8.3c1.9,0.1,3.8-0.5,5.5-1.6v-3.8h-5.8v-5h11.4v11.4  c-3.1,2.7-7.1,4.2-11.3,4.2C531.1,37.8,525.5,32,525.5,24.2z"></path>	<path class="st0" d="M556.9,11h12c2.8-0.2,5.6,0.8,7.7,2.7c1.5,1.6,2.3,3.8,2.2,6v0.1c0.2,3.7-2.1,7-5.5,8.2l6.4,9.4H573l-5.6-8.4  h-4.5v8.4h-5.8V11z M568.6,23.8c2.8,0,4.4-1.5,4.4-3.7V20c0-2.5-1.7-3.8-4.5-3.8h-5.8v7.6H568.6z"></path>	<path class="st0" d="M594.3,10.8h5.3L611,37.4h-6.1l-2.4-5.9h-11.1l-2.4,5.9h-5.9L594.3,10.8z M600.4,26.3l-3.5-8.5l-3.5,8.5H600.4  z"></path>	<path class="st0" d="M615.3,11h5.8v10.4h10.7V11h5.8v26.3h-5.8V26.7h-10.7v10.6h-5.8V11z"></path>	<path class="st0" d="M653.1,10.8h5.4l11.3,26.6h-6.1l-2.4-5.9h-11.2l-2.4,5.9h-5.9L653.1,10.8z M659.2,26.3l-3.5-8.5l-3.5,8.5  H659.2z"></path>	<path class="st0" d="M674.1,11h6.2l7,11.1l6.9-11.1h6.2v26.3h-5.8V20.1l-7.3,11.2h-0.2l-7.3-11.1v17.1h-5.7L674.1,11z"></path>	<path class="st0" d="M717.4,33.5l3.4-4.1c2.1,2,4.9,3.1,7.9,3.2c2.4,0,3.8-0.9,3.8-2.5V30c0-1.5-0.9-2.2-5.3-3.3  c-5.3-1.4-8.7-2.8-8.7-8v-0.1c0-4.8,3.8-7.9,9.2-7.9c3.5-0.1,7,1.1,9.8,3.3l-3,4.4c-2-1.5-4.4-2.4-6.9-2.6c-2.2,0-3.4,1-3.4,2.3  v0.1c0,1.7,1.1,2.3,5.7,3.5c5.3,1.4,8.4,3.3,8.4,7.9v0.1c0,5.2-4,8.2-9.7,8.2C724.4,37.8,720.4,36.2,717.4,33.5z"></path>	<path class="st0" d="M742.2,24.2L742.2,24.2c-0.1-7.5,5.7-13.6,13.1-13.7c0.2,0,0.4,0,0.6,0c3.9-0.2,7.7,1.3,10.4,4.1l-3.8,4.2  c-1.7-1.8-4.1-2.9-6.6-3c-4.4,0-7.6,3.7-7.6,8.2v0.1c0,4.5,3.1,8.3,7.6,8.3c3,0,4.9-1.2,6.9-3.1l3.7,3.7c-2.7,3.1-6.7,4.9-10.8,4.7  c-7.3,0.2-13.4-5.7-13.6-13C742.2,24.6,742.2,24.4,742.2,24.2z"></path>	<path class="st0" d="M771.2,11h5.8v10.4h10.7V11h5.8v26.3h-5.8V26.7h-10.7v10.6h-5.8L771.2,11z"></path>	<path class="st0" d="M799.2,24.2L799.2,24.2c0-7.6,6.1-13.7,13.6-13.7c0.1,0,0.3,0,0.4,0c8.1,0,14,6.1,14,13.5v0.1  c-0.3,7.7-6.8,13.8-14.5,13.5C805.4,37.4,799.5,31.5,799.2,24.2z M821.1,24.2L821.1,24.2c0.2-4.5-3.3-8.2-7.7-8.3  c-0.1,0-0.2,0-0.3,0c-4.3,0-7.9,3.5-7.9,7.8c0,0.1,0,0.2,0,0.4v0.1c-0.2,4.4,3.3,8.1,7.7,8.3c0.1,0,0.2,0,0.2,0  c4.4,0,7.9-3.5,7.9-7.9C821.1,24.5,821.1,24.3,821.1,24.2z"></path>	<path class="st0" d="M831.5,24.2L831.5,24.2c0.2-7.8,6.6-13.9,14.3-13.7c7.4,0.2,13.4,6.1,13.6,13.6v0.1  c-0.2,7.7-6.6,13.8-14.4,13.6C837.7,37.6,831.7,31.6,831.5,24.2z M853.4,24.2L853.4,24.2c0.2-4.5-3.3-8.2-7.7-8.3  c-0.1,0-0.2,0-0.3,0c-4.4,0-7.9,3.5-7.9,7.9c0,0.1,0,0.2,0,0.3v0.1c-0.2,4.4,3.3,8.1,7.7,8.3c0.1,0,0.2,0,0.3,0  c4.4,0,7.9-3.5,7.9-7.9C853.4,24.5,853.4,24.3,853.4,24.2z"></path>	<path class="st0" d="M865.1,11h5.8v21H884v5.3h-18.9V11z"></path>	<path class="st0" d="M525.3,59.7L525.3,59.7c-0.1-6.1,4.7-11.2,10.8-11.3c0.1,0,0.3,0,0.4,0c3.2-0.1,6.3,1.1,8.5,3.4l-2.4,2.8  c-1.6-1.7-3.8-2.6-6.1-2.7c-4.2,0-7.1,3.4-7.1,7.6v0.1c0,4.2,3,7.7,7.1,7.7c2.7,0,4.4-1.1,6.2-2.8l2.4,2.5c-2.2,2.5-5.4,4-8.8,3.9  c-6,0.1-11-4.8-11-10.8C525.3,60,525.3,59.9,525.3,59.7z"></path>	<path class="st0" d="M548.2,62.4L548.2,62.4c0-4.9,3.9-8.8,8.7-8.8s8.7,3.9,8.7,8.7l0,0c0,4.7-3.8,8.5-8.6,8.5c-0.1,0-0.1,0-0.2,0  c-4.7,0.1-8.6-3.6-8.7-8.3C548.2,62.6,548.2,62.5,548.2,62.4z M561.8,62.4L561.8,62.4c0.1-2.9-2.1-5.2-4.9-5.3c0,0-0.1,0-0.1,0  c-2.7,0-4.9,2.2-4.9,4.9c0,0.1,0,0.2,0,0.3l0,0c-0.1,2.8,2.1,5.2,4.9,5.3c0,0,0.1,0,0.1,0c2.7,0,4.9-2.2,5-4.9  C561.9,62.6,561.9,62.5,561.8,62.4z"></path>	<path class="st0" d="M570,54.2h3.8v2.5c1.1-1.8,3-2.9,5.1-2.9c3.7,0,5.8,2.5,5.8,6.3v10.4h-3.8v-9.3c0-2.5-1.3-4-3.5-4  s-3.7,1.5-3.7,4.1v9.2H570V54.2z"></path>	<path class="st0" d="M590.5,66v-8.6h-2.1v-3.2h2.1v-4.5h3.8v4.5h4.4v3.2h-4.4v8c-0.1,1,0.5,1.9,1.5,2c0.2,0,0.3,0,0.5,0  c0.8,0,1.6-0.2,2.3-0.6V70c-1,0.6-2.2,0.8-3.3,0.8C592.4,70.8,590.5,69.6,590.5,66z"></path>	<path class="st0" d="M602.8,48.1h4v3.5h-4V48.1z M603,54.2h3.7v16.4H603V54.2z"></path>	<path class="st0" d="M612.2,54.2h3.7v2.5c1.1-1.8,3-2.9,5.1-2.9c3.7,0,5.8,2.5,5.8,6.3v10.4h-3.8v-9.3c0-2.5-1.3-4-3.5-4  s-3.7,1.5-3.7,4.1v9.2h-3.7L612.2,54.2z"></path>	<path class="st0" d="M632,64.6V54.2h3.7v9.3c0,2.5,1.3,4,3.5,4s3.7-1.5,3.7-4.1v-9.2h3.8v16.4h-3.8V68c-1.1,1.8-3,2.9-5.1,2.9  C634.1,70.9,632,68.4,632,64.6z"></path>	<path class="st0" d="M652,48.1h4v3.5h-4V48.1z M652.1,54.2h3.8v16.4h-3.8V54.2z"></path>	<path class="st0" d="M661.3,54.2h3.7v2.5c1.1-1.8,3-2.9,5.1-2.9c3.7,0,5.8,2.5,5.8,6.3v10.4h-3.8v-9.3c0-2.5-1.3-4-3.5-4  s-3.7,1.5-3.7,4.1v9.2h-3.7V54.2z"></path>	<path class="st0" d="M681.1,73.6l1.4-2.8c1.7,1.1,3.8,1.7,5.8,1.7c3.3,0,5.2-1.7,5.2-5v-1.3c-1.3,1.9-3.5,3-5.8,3  c-4.1,0.1-7.4-3.2-7.4-7.3c0-0.1,0-0.3,0-0.4v-0.1c-0.2-4.1,3-7.5,7.1-7.7c0.1,0,0.3,0,0.4,0c2.2,0,4.4,1,5.7,2.8v-2.4h3.8v13  c0.2,2.3-0.6,4.5-2.1,6.2c-1.5,1.5-3.8,2.2-6.7,2.2C685.9,75.6,683.3,74.9,681.1,73.6z M693.5,61.6L693.5,61.6  c0-2.6-2.1-4.6-4.6-4.6c-0.1,0-0.1,0-0.2,0c-2.4-0.1-4.5,1.8-4.6,4.2c0,0.1,0,0.2,0,0.3v0.1c-0.1,2.4,1.9,4.5,4.3,4.5  c0.1,0,0.2,0,0.3,0c2.5,0.1,4.7-1.8,4.8-4.4C693.5,61.7,693.5,61.6,693.5,61.6z"></path>	<path class="st0" d="M713.2,48.8h3.8v18.3h11.4v3.5h-15.2V48.8z"></path>	<path class="st0" d="M732.3,48.1h4v3.5h-4V48.1z M732.5,54.2h3.8v16.4h-3.8V54.2z"></path>	<path class="st0" d="M745.4,68v2.5h-3.8V47.9h3.8v9c1.2-1.9,3.3-3.1,5.5-3.1c3.9,0,7.6,3.1,7.6,8.5l0,0c0,5.4-3.7,8.5-7.6,8.5  C748.8,70.8,746.7,69.8,745.4,68z M754.8,62.4L754.8,62.4c0-3.2-2.1-5.2-4.7-5.2c-2.7,0.1-4.9,2.3-4.8,5.1c0,0.1,0,0.1,0,0.2l0,0  c-0.2,2.7,1.9,5.1,4.6,5.2c0.1,0,0.1,0,0.2,0C752.7,67.6,754.8,65.6,754.8,62.4z"></path>	<path class="st0" d="M762.2,62.4L762.2,62.4c0-4.7,3.3-8.5,8-8.5c5.2,0,7.8,4.1,7.8,8.9c0,0.3,0,0.7-0.1,1.1h-12  c0.2,2.4,2.3,4.2,4.7,4.2c1.7,0,3.3-0.7,4.4-1.9l2.2,1.9c-1.6,2-4.1,3.1-6.6,3.1c-4.5,0.2-8.3-3.4-8.5-7.9  C762.2,62.9,762.2,62.7,762.2,62.4z M774.3,61.2c-0.2-2.4-1.7-4.3-4.2-4.3c-2.3,0-3.9,1.8-4.2,4.3H774.3z"></path>	<path class="st0" d="M782.5,54.2h3.7v3.7c0.8-2.5,3.2-4.2,5.8-4v4h-0.2c-3.3,0-5.5,2.1-5.5,6.5v6.2h-3.8V54.2z"></path>	<path class="st0" d="M805.6,70.5v-2c-1.3,1.6-3.3,2.4-5.3,2.4c-3.1,0-5.8-1.8-5.8-5.1l0,0c0-3.6,2.8-5.4,6.6-5.4  c1.5,0,3.1,0.2,4.5,0.7v-0.3c0-2.2-1.4-3.5-4-3.5c-1.6,0-3.2,0.3-4.7,0.9l-1-3c1.9-0.9,4.1-1.4,6.2-1.4c4.8,0,7.2,2.5,7.2,6.9v9.7  L805.6,70.5z M805.7,63.7c-1.2-0.4-2.5-0.7-3.8-0.7c-2.4,0-3.8,1-3.8,2.5v0.1c0,1.5,1.4,2.4,3.2,2.4c2.5,0,4.3-1.4,4.3-3.4  L805.7,63.7z"></path>	<path class="st0" d="M814.6,47.9h3.8v22.6h-3.8V47.9z"></path>	<path class="st0" d="M844.1,70.5v-2c-1.3,1.6-3.3,2.4-5.3,2.4c-3.1,0-5.8-1.8-5.8-5.1l0,0c0-3.6,2.8-5.4,6.6-5.4  c1.5,0,3.1,0.2,4.5,0.7v-0.3c0-2.2-1.4-3.5-4-3.5c-1.6,0-3.2,0.4-4.7,1l-1-3c1.9-0.9,4.1-1.4,6.2-1.4c4.8,0,7.2,2.5,7.2,6.9v9.7  L844.1,70.5z M844.2,63.7c-1.2-0.4-2.5-0.7-3.8-0.7c-2.4,0-3.7,1-3.7,2.5v0.1c0,1.5,1.4,2.4,3.2,2.4c2.5,0,4.3-1.4,4.3-3.4  L844.2,63.7z"></path>	<path class="st0" d="M853,54.2h3.8v2.5c1.1-1.8,3-2.9,5.1-2.9c3.7,0,5.8,2.5,5.8,6.3v10.4H864v-9.3c0-2.5-1.3-4-3.5-4  s-3.7,1.5-3.7,4.1v9.2H853V54.2z"></path>	<path class="st0" d="M872.1,62.4L872.1,62.4c0-5.4,3.7-8.5,7.6-8.5c2.2,0,4.3,1.1,5.5,2.9v-8.9h3.8v22.6h-3.8v-2.7  c-1.2,1.9-3.3,3.1-5.5,3.1C875.8,70.9,872.1,67.8,872.1,62.4z M885.4,62.4L885.4,62.4c0.2-2.7-1.9-5-4.6-5.2c-0.1,0-0.1,0-0.2,0  c-2.6,0-4.7,2-4.7,5.2l0,0c0,3.2,2.2,5.2,4.7,5.2C883.4,67.5,885.5,65.1,885.4,62.4C885.3,62.4,885.3,62.4,885.4,62.4L885.4,62.4z"></path>	<path class="st0" d="M526.2,79.8h8.6c5,0,8.2,2.9,8.2,7.2v0.1c0,4.9-3.9,7.4-8.7,7.4h-4.3v7h-3.8L526.2,79.8z M534.5,91.1  c2.9,0,4.7-1.6,4.7-3.9v-0.1c0-2.5-1.8-3.9-4.7-3.9h-4.4v7.8H534.5z"></path>	<path class="st0" d="M547,85.1h3.8v3.7c0.8-2.5,3.2-4.1,5.8-4v4h-0.2c-3.3,0-5.5,2.1-5.5,6.5v6.2h-3.8L547,85.1z"></path>	<path class="st0" d="M559.2,93.4L559.2,93.4c0.2-4.9,4.2-8.7,9-8.5c4.6,0.2,8.3,3.8,8.4,8.4l0,0c0,4.7-3.8,8.5-8.6,8.5  c-0.1,0-0.1,0-0.2,0c-4.7,0.1-8.6-3.6-8.7-8.3C559.2,93.6,559.2,93.5,559.2,93.4z M572.9,93.4L572.9,93.4c0.1-2.9-2.1-5.2-4.9-5.3  c0,0-0.1,0-0.1,0c-2.7,0-4.9,2.2-4.9,4.9c0,0.1,0,0.2,0,0.3l0,0c-0.1,2.8,2.1,5.2,4.9,5.3c0,0,0.1,0,0.1,0c2.7,0,4.9-2.2,5-4.9  C572.9,93.6,572.9,93.5,572.9,93.4z"></path>	<path class="st0" d="M581.6,88.4h-2.1v-3.1h2.1v-1.2c-0.1-1.5,0.4-2.9,1.3-4.1c1-0.9,2.3-1.4,3.7-1.3c1,0,2,0.1,3,0.4v3.2  c-0.7-0.3-1.5-0.4-2.2-0.4c-1.4,0-2.2,0.8-2.2,2.5v0.9h4.3v3.1h-4.3v13.1h-3.8L581.6,88.4z"></path>	<path class="st0" d="M592,93.4L592,93.4c0-4.7,3.3-8.5,8-8.5c5.2,0,7.8,4.1,7.8,8.9c0,0.3,0,0.7-0.1,1.1h-12  c0.2,2.4,2.3,4.2,4.7,4.2c1.7,0,3.3-0.7,4.4-1.9l2.2,1.9c-1.6,2-4.1,3.1-6.6,3.1c-4.5,0.2-8.3-3.4-8.5-7.9  C592,93.9,592,93.6,592,93.4z M604.2,92.2c-0.3-2.4-1.7-4.3-4.2-4.3c-2.3,0-3.9,1.8-4.2,4.3H604.2z"></path>	<path class="st0" d="M610.9,99.4l1.7-2.5c1.5,1.2,3.4,1.9,5.4,2c1.6,0,2.5-0.7,2.5-1.8V97c0-1.3-1.7-1.7-3.7-2.3  c-2.4-0.7-5.1-1.7-5.1-4.8v-0.1c0-3.1,2.6-5,5.8-5c2.1,0,4.2,0.7,6,1.9l-1.5,2.7c-1.4-0.9-3-1.4-4.6-1.5c-1.5,0-2.3,0.7-2.3,1.6  v0.1c0,1.2,1.8,1.7,3.7,2.3c2.4,0.7,5.1,1.8,5.1,4.8l0,0c0,3.4-2.7,5.1-6.1,5.1C615.3,101.7,612.9,100.9,610.9,99.4z"></path>	<path class="st0" d="M627,99.4l1.7-2.5c1.5,1.2,3.4,1.9,5.4,2c1.6,0,2.5-0.7,2.5-1.8V97c0-1.3-1.7-1.7-3.7-2.3  c-2.4-0.7-5.1-1.7-5.1-4.8v-0.1c0-3.1,2.6-5,5.8-5c2.1,0,4.2,0.7,6,1.9l-1.5,2.7c-1.4-0.9-3-1.4-4.6-1.5c-1.5,0-2.3,0.7-2.3,1.6  v0.1c0,1.2,1.8,1.7,3.7,2.3c2.4,0.7,5.1,1.8,5.1,4.8l0,0c0,3.4-2.7,5.1-6.1,5.1C631.4,101.7,629,100.9,627,99.4z"></path>	<path class="st0" d="M644.4,79.1h4v3.5h-4V79.1z M644.5,85.1h3.8v16.4h-3.8V85.1z"></path>	<path class="st0" d="M652.8,93.4L652.8,93.4c0.2-4.9,4.2-8.7,9-8.5c4.6,0.2,8.3,3.8,8.4,8.4l0,0c0,4.7-3.8,8.5-8.6,8.5  c-0.1,0-0.1,0-0.2,0c-4.7,0.1-8.6-3.6-8.7-8.3C652.8,93.5,652.8,93.5,652.8,93.4z M666.5,93.4L666.5,93.4c0.1-2.9-2.1-5.2-4.9-5.3  c-0.1,0-0.1,0-0.2,0c-2.7,0-4.9,2.2-4.9,4.9c0,0.1,0,0.2,0,0.3l0,0c-0.1,2.8,2.1,5.2,4.9,5.3c0,0,0.1,0,0.1,0c2.7,0,4.9-2.2,5-4.9  C666.5,93.6,666.5,93.5,666.5,93.4z"></path>	<path class="st0" d="M674.7,85.1h3.8v2.5c1.1-1.8,3-2.9,5.1-2.9c3.7,0,5.8,2.5,5.8,6.3v10.4h-3.8v-9.3c0-2.5-1.3-4-3.5-4  s-3.7,1.5-3.7,4.1v9.2h-3.8L674.7,85.1z"></path>	<path class="st0" d="M704.6,101.5v-2c-1.3,1.6-3.3,2.4-5.3,2.4c-3.1,0-5.8-1.8-5.8-5.1l0,0c0-3.6,2.8-5.4,6.6-5.4  c1.5,0,3.1,0.2,4.5,0.7v-0.3c0-2.2-1.4-3.5-4-3.5c-1.6,0-3.2,0.4-4.7,1l-1-3c1.9-0.9,4.1-1.4,6.2-1.4c4.8,0,7.2,2.5,7.2,6.9v9.7  L704.6,101.5z M704.7,94.6c-1.2-0.4-2.5-0.7-3.8-0.7c-2.4,0-3.8,1-3.8,2.5v0.1c0,1.5,1.4,2.4,3.2,2.4c2.5,0,4.3-1.4,4.3-3.4  L704.7,94.6z"></path>	<path class="st0" d="M713.6,78.9h3.8v22.6h-3.8V78.9z"></path>	<path class="st0" d="M732.1,98.3l2.3-2.7c1.8,1.8,4.3,2.8,6.9,2.8c2.4,0,3.8-1.1,3.8-2.7l0,0c0-1.5-0.9-2.4-4.9-3.3  c-4.6-1.1-7.2-2.5-7.2-6.5v-0.1c0-3.7,3.1-6.3,7.4-6.3c2.9-0.1,5.7,0.9,7.9,2.7l-2,2.9c-1.7-1.4-3.7-2.1-5.9-2.2  c-2.2,0-3.5,1.1-3.5,2.6l0,0c0,1.7,1,2.4,5.1,3.4c4.6,1.1,7,2.8,7,6.4v0.1c0,4.1-3.2,6.5-7.7,6.5  C737.8,101.8,734.6,100.6,732.1,98.3z"></path>	<path class="st0" d="M754,97v-8.6h-2.1v-3.2h2.1v-4.5h3.8v4.5h4.4v3.2h-4.4v8c-0.2,1,0.5,1.9,1.5,2c0.2,0,0.4,0,0.5,0  c0.8,0,1.6-0.2,2.3-0.6v3.1c-1,0.6-2.2,0.9-3.4,0.8C755.9,101.8,754,100.6,754,97z"></path>	<path class="st0" d="M766.2,95.5V85.1h3.8v9.3c0,2.5,1.3,4,3.5,4c2.2,0,3.7-1.5,3.7-4.1v-9.2h3.8v16.4h-3.8V99  c-1.1,1.8-3,2.9-5.1,2.9C768.3,101.8,766.2,99.4,766.2,95.5z"></path>	<path class="st0" d="M785.5,93.3L785.5,93.3c0-5.4,3.7-8.5,7.6-8.5c2.2,0,4.3,1.1,5.5,2.9v-8.8h3.8v22.6h-3.8v-2.7  c-1.2,1.9-3.3,3.1-5.5,3.1C789.2,101.8,785.5,98.8,785.5,93.3z M798.7,93.3L798.7,93.3c0.2-2.7-1.9-5-4.6-5.2c-0.1,0-0.1,0-0.2,0  c-2.6,0-4.7,2-4.7,5.2l0,0c0,3.2,2.2,5.2,4.7,5.2C796.7,98.5,798.8,96.2,798.7,93.3C798.7,93.4,798.7,93.4,798.7,93.3L798.7,93.3z"></path>	<path class="st0" d="M807.7,79.1h4v3.5h-4V79.1z M807.9,85.1h3.7v16.4h-3.7V85.1z"></path>	<path class="st0" d="M816.1,93.4L816.1,93.4c0-4.7,3.3-8.5,8-8.5c5.2,0,7.8,4.1,7.8,8.9c0,0.3,0,0.7-0.1,1.1h-12  c0.2,2.4,2.3,4.2,4.7,4.2c1.7,0,3.3-0.7,4.4-1.9l2.2,1.9c-1.6,2-4.1,3.1-6.6,3.1c-4.5,0.2-8.3-3.4-8.5-7.9  C816.1,93.9,816.1,93.6,816.1,93.4z M828.3,92.2c-0.3-2.4-1.7-4.3-4.2-4.3c-2.3,0-3.9,1.8-4.2,4.3H828.3z"></path>	<path class="st0" d="M835,99.4l1.7-2.5c1.5,1.2,3.4,1.9,5.4,2c1.6,0,2.5-0.7,2.5-1.8V97c0-1.3-1.7-1.7-3.7-2.3  c-2.4-0.7-5.1-1.7-5.1-4.8v-0.1c0-3.1,2.6-5,5.8-5c2.1,0,4.2,0.7,6,1.9l-1.5,2.7c-1.4-0.9-3-1.4-4.6-1.5c-1.5,0-2.3,0.7-2.3,1.6  v0.1c0,1.2,1.8,1.7,3.7,2.3c2.4,0.7,5.1,1.8,5.1,4.8l0,0c0,3.4-2.7,5.1-6.1,5.1C839.4,101.7,837,100.9,835,99.4z"></path>	<path class="st1" d="M481.5,14.5L481.5,14.5v-0.1c0-1.2-0.1-2.7-0.1-4.2V9.9l-0.3,0.1c-0.4,0.1-2.4,0.1-4.3,0.1h-5.9  c-1.2,0-2.3,0-3.7-0.1h-0.1H467c-0.3,0.1-0.3,0.5-0.3,0.6c0,0.2,0,0.5,0.2,0.6l0.6,0.1c1.7,0.2,1.7,0.4,1.7,3.8v11.6  c0,3.4-0.1,3.6-1.7,3.8l-0.9,0.1h-0.1c-0.2,0.2-0.2,0.4-0.2,0.7c0,0.2,0.1,0.4,0.3,0.5h0.1h0.1c1.5,0,2.6-0.1,4-0.1s2.4,0,4.3,0.1  h0.1h0.1c0.2-0.1,0.3-0.4,0.3-0.6c0-0.2,0-0.5-0.2-0.6l-1.2-0.1c-1.6-0.1-1.7-0.4-1.7-3.8v-4.4c0-0.6,0-0.6,0.8-0.6h2.2  c0.8,0,1.6,0,2.4,0.2c0.5,0.2,0.8,0.6,0.9,1l0.3,1.3h0.1c0.3,0.3,0.8,0.3,1.2,0V24v-0.1c0-0.3,0-0.8-0.1-1.2  c-0.1-0.5-0.1-1.2-0.1-1.9s0-1.3,0.1-1.9c0.1-0.6,0.1-1,0.1-1.3v-0.1v-0.1c-0.2-0.2-0.4-0.3-0.6-0.3c-0.2,0-0.5,0.1-0.6,0.2  l-0.3,1.4c-0.2,0.8-0.4,0.9-0.6,1c-0.9,0.2-1.8,0.2-2.6,0.2h-2.2c-0.8,0-0.8,0-0.8-0.6v-6.8c0-1,0-1,0.7-1h2c1-0.1,2,0,3.1,0.2  c1.4,0.4,1.8,1.3,2.1,2.9v0.1h0.1C480.6,14.9,481.1,14.8,481.5,14.5L481.5,14.5z M459.9,20.8c0-5.4-3.6-11.3-11.4-11.3  c-6.3-0.2-11.5,4.8-11.7,11.1c0,0.2,0,0.3,0,0.5c0,5.5,4,11.1,11.7,11.1c6.2,0.1,11.3-4.8,11.4-11  C459.9,21.1,459.9,20.9,459.9,20.8L459.9,20.8z M456.2,21.8c0,6.6-3.9,9-7.3,9c-6.6,0-8.4-6.7-8.4-10.7c0-6.6,4-9.1,7.4-9.1  C454,11,456.2,16.8,456.2,21.8z M428,76.6c0,13.9,10.3,26.1,27.4,26.1c14.9,0,26.7-11.3,26.7-26.9c0-13.6-8.9-26.4-26.7-26.4  C439.5,49.4,428,61.2,428,76.6z M435.7,74.2c0-16.9,10.4-22.3,18.4-22.3c14.7,0,20.3,13.7,20.3,26.4c0,15.2-8.8,22.1-18,22.1  C441.3,100.4,435.7,85.6,435.7,74.2L435.7,74.2z M420.6,11.2c0.2-0.2,0.3-0.4,0.2-0.6c0-0.2-0.1-0.5-0.3-0.6h-0.1h-0.1  c-2,0.1-4,0.1-6,0h-0.1h-0.1c-0.2,0.1-0.3,0.3-0.3,0.5c-0.1,0.3,0,0.5,0.2,0.7l0.1,0.1l0.7,0.1c0.4,0,0.8,0.1,1.1,0.3  c-0.6,1.3-1.2,2.6-1.9,3.8l-0.1,0.3c-0.8,1.5-1.7,3.1-2.8,5c-0.9-1.5-1.7-3.2-2.5-4.8c-0.3-0.6-0.6-1.3-0.9-1.9  c-0.4-0.8-0.7-1.5-1-2.4c0-0.1,0.1-0.2,1.1-0.3l0.5-0.1l0.1-0.1c0.2-0.2,0.2-0.5,0.2-0.8c0-0.2-0.2-0.4-0.4-0.4H408  c-0.8,0.1-1.9,0.1-3.4,0.1s-2.7,0-3.7-0.1h-0.1h-0.1c-0.2,0.1-0.3,0.3-0.3,0.5c0,0.2,0,0.5,0.2,0.7l0.1,0.1l1,0.2  c0.9,0.1,1.3,0.2,2.4,2.3l3.8,7.4c0.8,1.1,1.1,2.5,1,3.9v1.6c0,3.5-0.1,3.7-1.7,3.8l-1.1,0.1l-0.1,0.1c-0.2,0.2-0.2,0.5-0.2,0.7  c0,0.2,0.1,0.4,0.3,0.5h0.1h0.1c1.7,0,2.9-0.1,4.2-0.1c1.3,0,2.5,0,4.4,0.1h0.1l0,0c0.2-0.1,0.3-0.3,0.3-0.5c0.1-0.2,0-0.5-0.2-0.7  l-0.1-0.1l-1.3-0.1c-1.5-0.1-1.7-0.4-1.7-3.8v-1.7c0-2.4,0.1-2.6,1.5-5.1l2-3.5c0.2-0.3,0.4-0.6,0.5-0.9c1.3-2.2,2.2-3.8,3.5-4  l1-0.2h0.1L420.6,11.2z M408.2,50.5c-3.2-0.7-6.5-1.1-9.8-1.1c-11.6,0-19.3,3.6-24.4,9c-4.6,5-7,11.5-6.9,18.3  c-0.1,6.5,2.5,12.8,7.1,17.4c5.9,6,14.4,8.6,23.5,8.6c4.7-0.1,9.3-0.8,13.8-2c1.2-0.4,2.5-0.6,3.8-0.7c0.3-0.2,0.3-0.6,0.1-0.9  c0,0,0,0,0,0c-1.4-0.5-1.8-2.4-1.8-5.5v-4.3c0-3.9,0.1-6.1,3.3-6.5l1.2-0.2c0.5-0.6,0.5-1.4-0.1-1.9c0,0,0,0,0,0  c-2.5,0.2-5.2,0.2-8.2,0.2c-4.5,0-8.8-0.1-11-0.2c-0.5,0.5-0.6,1.3-0.1,1.8c0,0,0.1,0.1,0.1,0.1l3.4,0.4c4.8,0.5,5,1,5,7.5v3.1  c0,2.5-0.4,3.9-0.8,4.4c-0.9,1.3-3.7,2.3-8.5,2.3c-15.5,0-23.1-11.6-23.1-26.4c0-11.6,6.6-22.3,21.5-22.3c7.9,0,13.6,2.6,15.8,10.9  c0.5,0.5,1.8,0.4,2.1-0.2c-0.6-3.7-1-7.4-1.1-11.2C411.4,51.1,409.8,50.9,408.2,50.5L408.2,50.5z M396.2,9.5L396.2,9.5V9.4  c-0.1-0.2-0.5-0.3-0.6-0.3c-0.1,0-0.2,0-0.3,0h-0.1v0.1c-0.4,0.7-0.6,0.8-2.3,0.8h-13.3c-1.4,0-2.1-0.1-2.2-0.8V9.1h-0.1  c-0.1-0.1-0.3-0.1-0.4-0.1c-0.2,0-0.3,0-0.5,0.1l-0.1,0.1v0.1c-0.3,1.6-0.7,3.2-1.2,4.7v0.1v0.1c0.3,0.4,0.8,0.5,1.2,0.3h0.1v-0.1  c0.3-0.8,0.8-1.5,1.4-2.1c0.7-0.7,2.3-0.7,3.8-0.7h1.8c0.7,0,0.7,0,0.7,0.8v14.4c0,3.5-0.2,3.6-1.8,3.8l-1.1,0.1h-0.1  c-0.2,0.1-0.3,0.4-0.3,0.6c0,0.2,0.1,0.5,0.3,0.6l0,0h0.1c2-0.1,3.2-0.1,4.4-0.1c1.3,0,2.3,0,4.2,0.1h0.1h0.1  c0.2-0.1,0.3-0.4,0.3-0.6c0-0.2,0-0.5-0.2-0.6l-1.1-0.1c-1.6-0.1-1.7-0.4-1.7-3.8V12.3c0-0.2,0-0.5,0.1-0.7c0.2,0,0.4,0,0.6,0h2.3  c1.2-0.1,2.5,0.1,3.6,0.8c0.5,0.6,0.7,1.4,0.7,2.2v0.1l0.1,0.1c0.1,0.2,0.4,0.2,0.6,0.2c0.3,0,0.5-0.1,0.7-0.3v-0.1v-0.1  C395.7,12.8,395.9,11.1,396.2,9.5z M367,26.6V15.1c0-3.5,0.1-3.7,1.7-3.9l0.9-0.1h0.1c0.2-0.1,0.3-0.4,0.2-0.6  c0-0.2-0.1-0.5-0.3-0.6h-0.1h-0.1c-1.5,0-2.7,0.1-4,0.1c-1.3,0-2.5,0-4-0.1l0,0h-0.1c-0.3,0.1-0.3,0.5-0.3,0.6c0,0.2,0,0.5,0.2,0.6  h0.1l0.9,0.1c1.6,0.1,1.7,0.4,1.7,3.9v11.4c0,3.5-0.1,3.6-1.7,3.8l-0.9,0.1h-0.1c-0.2,0.2-0.2,0.4-0.2,0.7c0,0.2,0.1,0.4,0.3,0.5  h0.1l0,0c1.6,0,2.7-0.1,4-0.1s2.3,0,4,0.1h0.1h0.1c0.2-0.1,0.3-0.4,0.3-0.6c0-0.2,0-0.4-0.2-0.5l-0.9-0.1  C367.1,30.2,367,30.1,367,26.6L367,26.6z M360.5,99.5c-3.3-0.4-4.3-1.5-6.5-8.2l-10.6-31c-1.2-3.4-2.4-6.9-3.4-10.3  c-0.2-0.4-0.6-0.7-1.1-0.7c-1,1.3-2.4,2.4-4,2.9c0.2,1.2-0.2,2.7-1.3,5.5l-7.9,20.8c-3.2,8.6-5.4,13.6-6.8,17.2  c-1.1,2.8-2.8,3.6-4.6,3.8l-2.5,0.2c-0.4,0.6-0.4,1.4,0.2,1.9c2.1-0.1,4.9-0.2,7.4-0.2c3.6,0.1,6,0.1,8,0.2  c0.6-0.4,0.7-1.2,0.3-1.7c0-0.1-0.1-0.1-0.2-0.2l-2.5-0.2c-1.8-0.2-2.2-0.6-2.2-1.5c0.3-2.2,0.9-4.3,1.7-6.4l2.7-8.1  c0.5-1.6,1-1.8,2.9-1.8h11.6c2.3,0,2.6,0.2,3.2,1.9l3.4,10.5c0.5,1.3,0.9,2.7,1,4.1c0,0.8-1.1,1.2-2.7,1.4l-2.2,0.2  c-0.5,0.5-0.5,1.3,0,1.8c0,0,0.1,0.1,0.1,0.1c2.2-0.1,5.2-0.2,8.9-0.2c3.5,0,6.2,0.1,9.3,0.2c0.5-0.6,0.5-1.4,0-1.9L360.5,99.5  L360.5,99.5z M340.6,78.5h-9.5c-2.2,0-2.2-0.1-1.6-1.8l4.9-13.4c0.5-1.5,1.2-3.1,1.8-4.5h0.2c0.7,1.6,1.3,3.2,1.8,4.8l4.2,12.6  C343,78.2,342.8,78.5,340.6,78.5L340.6,78.5z M344.9,14.3c0-1.2,0.5-3.3,3.6-3.3c2.8,0,3.7,1.8,4.1,3.4l0.1,0.1  c0.1,0.1,0.3,0.2,0.5,0.2c0.3,0,0.5-0.1,0.7-0.3v-0.1v-0.1c0-1.4-0.2-2.7-0.6-4l-0.1-0.2h-0.1c-0.4,0-0.7-0.1-1.1-0.2  c-1-0.3-2-0.4-3-0.4c-4.1,0-6.8,2.3-6.8,5.8c0,2.9,2.2,4.9,3.6,5.7l3.1,2c1.6,0.8,2.6,2.5,2.6,4.3c0,1.9-1.5,3.5-3.3,3.5  c-0.2,0-0.3,0-0.5,0c-3.3,0-4.7-2.5-5.3-4.6V26c-0.1-0.2-0.3-0.2-0.5-0.2c-0.3,0-0.5,0.1-0.7,0.3v0.1v0.1c0.1,1.6,0.4,3.1,0.9,4.6  V31h0.1c1.6,0.8,3.3,1.3,5.1,1.2c4.2,0,7.1-2.5,7.1-6.2c0-2.6-1.4-4.6-4.1-6.4l-2.6-1.6C346.6,17.4,344.9,16.2,344.9,14.3  L344.9,14.3z M336.8,31.8c0.2-0.1,0.2-0.3,0.2-0.5c0-0.2-0.1-0.3-0.3-0.4h-0.1c-0.8-0.1-1.5-0.3-2.1-0.8c-2.2-1.8-4-4.6-6.4-8.5  c-0.1-0.1-0.2-0.3-0.2-0.5c1.1-0.4,4.1-2,4.1-5.5c0.1-2-1-3.8-2.8-4.7c-1.7-0.8-3.6-1.1-5.5-1c-2.9,0-5.2,0.1-7.2,0.3h-0.1  c-0.2,0.1-0.3,0.3-0.3,0.6c0,0.3,0.1,0.5,0.3,0.7h0.1l1.1,0.1c1,0.1,1.2,0.4,1.2,3.5v11.6c0,3.4-0.1,3.6-1.7,3.8l-0.9,0.1l-0.1,0.1  c-0.2,0.2-0.2,0.5-0.2,0.7c0,0.2,0.1,0.3,0.3,0.4h0.1h0.1c1.4,0,2.6-0.1,4-0.1s2.4,0,3.8,0.1h0.1h0.1c0.2-0.1,0.3-0.3,0.3-0.6  c0-0.2,0-0.5-0.2-0.7l0,0l-0.7-0.1c-1.6-0.2-1.7-0.4-1.7-3.8v-4.1c0-0.5,0-0.5,1.3-0.5c1.3,0,1.6,0.3,2.1,0.9  c0.4,0.6,1.1,1.6,1.6,2.5s1.1,1.8,1.5,2.4c2.2,3.1,3.9,4.2,6.9,4.2C335.9,32.1,336.4,32,336.8,31.8L336.8,31.8L336.8,31.8z   M327.1,19.9c-0.9,0.6-2,0.9-3.2,0.8c-0.7,0-1.4,0-2-0.1c0-0.3,0-0.6,0-0.9v-7.5c0-0.7,0-0.8,1.8-0.8c2.5-0.3,4.7,1.5,4.9,4  c0,0.2,0,0.5,0,0.7C328.9,17.5,328.3,18.9,327.1,19.9L327.1,19.9z M310.5,27.1L310.5,27.1V27c-0.1-0.3-0.4-0.5-0.8-0.4  c-0.1,0-0.3,0-0.4,0.1l-0.1,0.1c-0.5,1.2-1.2,2.2-2.2,3c-0.7,0.3-1.7,0.5-4,0.5c-2.7,0-3.3-0.3-3.7-0.7s-0.5-1.5-0.5-3.2v-4.5  c0-0.6,0-0.6,0.8-0.6h1.9c0.8,0,1.6,0,2.4,0.2c0.4,0.1,0.7,0.4,0.8,1l0.3,1.3v0.1c0.2,0.2,0.4,0.2,0.6,0.2c0.2,0,0.5-0.1,0.6-0.3  l0,0v-0.1c0-0.3,0-0.7,0-1.2c0-0.5-0.1-1.3-0.1-1.9s0-1.4,0.1-2c0.1-0.6,0-0.9,0-1.3l0,0v-0.1c-0.1-0.2-0.4-0.3-0.6-0.3  c-0.2,0-0.4,0.1-0.6,0.2l-0.3,1.4c-0.1,0.7-0.3,0.8-0.6,0.9c-0.9,0.2-1.8,0.2-2.6,0.2h-1.9c-0.8,0-0.8,0-0.8-0.7v-6.4  c0-1,0-1,0.7-1h2.3c1,0,2,0,3.1,0.2c1.5,0.4,1.8,1.3,2.2,2.7v0.2l0.1,0.1c0.1,0.1,0.3,0.2,0.5,0.2c0.3,0,0.5-0.1,0.7-0.3v-0.1v-0.5  c-0.1-1.3-0.2-2.6-0.5-3.9l-0.1-0.2l-0.2,0.1c-0.4,0.1-2.3,0.1-4.3,0.1h-5.9c-1.2,0-2.3,0-3.8-0.1h-0.1h-0.1  c-0.3,0.1-0.3,0.5-0.3,0.6c0,0.2,0,0.5,0.2,0.6l0.6,0.1c1.6,0.2,1.7,0.4,1.7,3.8v11.5c0,3.5-0.2,3.6-1.8,3.8l-1.1,0.1l-0.1,0.1  c-0.2,0.2-0.2,0.4-0.2,0.7c0,0.2,0.1,0.4,0.3,0.5h0.1h0.1c1.9-0.1,3-0.1,4.4-0.1h2.9c2.8,0,5.6,0,8.6,0.1h0.2l0.1-0.1  C309.8,30.2,310.3,28.6,310.5,27.1L310.5,27.1z M288.5,11.1c0.2-0.2,0.2-0.4,0.2-0.7c0-0.2-0.1-0.4-0.3-0.5h-0.1h-0.1  c-1.1,0.1-2.1,0.1-3.1,0.1c-1.3,0-2.5,0-3.3-0.1h-0.1h-0.1c-0.2,0.1-0.3,0.3-0.3,0.6c0,0.2,0.1,0.5,0.2,0.6h0.1l0.6,0.1  c1.1,0.1,1.2,0.4,1.2,0.4c0,0.4,0,0.9-0.2,1.3c-0.6,1.4-2.1,5.1-3,7.2l-0.9,2c-0.6,1.4-1.4,3.2-2,4.6c-1.5-3.5-2.9-7-4.3-10.6  c-0.6-1.4-1.1-2.9-1.6-4.4c0.1-0.1,0.3-0.2,1.3-0.4l0.6-0.1h0.1c0.2-0.2,0.3-0.4,0.2-0.6c0-0.2-0.1-0.4-0.3-0.6h-0.1h-0.1  c-1.4,0.1-2.5,0.1-3.9,0.1c-1.3,0-2.4,0-3.3-0.1H266h-0.1c-0.2,0.1-0.3,0.4-0.3,0.6c0,0.2,0.1,0.5,0.2,0.6h0.1l0.7,0.1  c1.3,0.1,1.7,0.7,2.4,2.5l5.6,13.9c0.6,1.4,1.1,2.8,1.5,4.2v0.1h0.1c0.2,0.1,0.4,0.1,0.6,0.1c0.2,0,0.3,0,0.5-0.1h0.1v-0.1  c0.5-1.7,2.1-5.5,3.3-8.4l1.7-4c1.1-2.5,2.3-5,3.6-7.3c0.3-0.6,0.8-1,1.5-1L288.5,11.1L288.5,11.1L288.5,11.1z M267.6,55.8  c-6.2,4.9-9.8,12.5-9.7,20.4c-0.2,8.5,3.9,16.5,10.9,21.2c5.6,3.8,12.3,5.2,19.2,5.2c4.1,0,8.2-0.6,12.2-1.8  c0.9-0.3,1.8-0.6,2.7-0.8c1.2-1.5,3.2-6.6,3.7-10.6c-0.5-0.6-1.3-0.7-2-0.3c-1.8,4.5-6.2,11.1-16.1,11.1  c-12.6,0-22.9-8.9-22.9-25.1c0-15.9,10-23.4,21.8-23.4c11.2,0,14.6,6,15.8,11.3c0.6,0.5,1.5,0.4,2.1-0.2c-0.6-4.7-1-9.6-1.1-11.3  c-0.7,0-1.5-0.1-2.1-0.3c-4.5-1.1-9-1.8-13.6-1.9C280.4,49.3,273.2,51.5,267.6,55.8L267.6,55.8z M257.8,26.6V15.1  c0-3.5,0.1-3.7,1.7-3.9l0.9-0.1h0.1c0.2-0.2,0.3-0.4,0.2-0.6c0-0.1,0-0.5-0.3-0.6h-0.1h-0.1c-1.5,0-2.7,0.1-4,0.1  c-1.3,0-2.5,0-4-0.1h-0.1h-0.1c-0.3,0.1-0.3,0.5-0.3,0.6c0,0.2,0,0.5,0.2,0.6h0.1l0.9,0.1c1.6,0.1,1.7,0.4,1.7,3.9v11.4  c0,3.5-0.1,3.6-1.7,3.8l-0.9,0.1h-0.1c-0.2,0.2-0.2,0.5-0.2,0.7c0,0.2,0.1,0.4,0.3,0.5h0.1h0.1c1.6,0,2.7-0.1,4-0.1  c1.3,0,2.4,0,4,0.1h0.1h0.1c0.3-0.1,0.3-0.5,0.3-0.6c0-0.2-0.1-0.5-0.2-0.6l-0.9-0.1C257.8,30.2,257.8,30,257.8,26.6L257.8,26.6z   M241.6,89.7V62.2c0-8.2,0.2-9.5,4.7-9.9l1.9-0.2c0.5-0.3,0.3-1.7-0.2-1.9c-3.9,0.2-6.5,0.2-9.6,0.2s-5.9-0.1-9.7-0.2  c-0.5,0.2-0.6,1.6-0.2,1.9l1.9,0.2c4.5,0.4,4.7,1.7,4.7,9.9v27.4c0,8.2-0.2,9.2-4.7,9.8l-1.9,0.2c-0.4,0.6-0.4,1.4,0.2,1.9  c3.9-0.2,6.5-0.2,9.7-0.2c3.2,0,5.7,0.1,9.6,0.2c0.5-0.2,0.6-1.6,0.2-1.9l-1.9-0.2C241.8,98.9,241.6,97.8,241.6,89.7L241.6,89.7z   M245.6,11.1c0.2-0.2,0.2-0.4,0.2-0.7c0-0.2-0.1-0.4-0.3-0.5h-0.1h-0.1c-1.1,0.1-1.9,0.1-3.3,0.1c-1.1,0-2.2,0-3.8-0.1h-0.1  c-0.2,0.1-0.3,0.3-0.4,0.5c-0.1,0.3,0,0.5,0.2,0.7h0.1l0.6,0.1c1.1,0.1,1.7,0.3,1.8,0.5c0.4,0.6,0.6,3,0.6,6.5v6.9  c0,0.3,0,0.7,0,0.9c-1.1-1.1-2.3-2.5-3.7-4.1l-4.4-5c-3.2-3.6-5-5.9-5.4-7l-0.1-0.2h-0.2c-0.5,0.1-1,0.1-1.4,0.1  c-0.6,0-2.3,0-3.6-0.1h-0.1h-0.1c-0.2,0.1-0.3,0.3-0.3,0.5c0,0.3,0,0.5,0.2,0.7l0.1,0.1l0.6,0.1c0.7,0,1.3,0.3,1.8,0.7  c0.5,0.6,0.7,1.4,0.6,2.1v9.6c0,1.5,0,5.2-0.4,6.2c-0.1,0.2-0.3,0.4-1.2,0.5l-1,0.1l-0.1,0.2c-0.1,0.2-0.2,0.4-0.2,0.6  c0,0.2,0.1,0.4,0.3,0.6h0.1h0.1c1.1,0,2-0.1,3.3-0.1c1.1,0,2.2,0,3.7,0.1h0.1h0.1c0.2-0.1,0.3-0.3,0.3-0.5c0-0.2,0-0.5-0.2-0.7  l-0.1-0.1l-1.1-0.1c-0.8-0.1-1.3-0.2-1.4-0.5c-0.3-0.6-0.5-3-0.5-6.5v-7c0-0.5,0-1.1,0.1-1.6c0.5,0.6,1.4,1.6,2.1,2.5l1.3,1.6  l7.5,8.4c2.5,2.8,3.7,4.2,4.1,4.8l0.1,0.1h0.1c0.4,0,0.7-0.2,0.8-0.5v-0.1l0,0c0-0.4-0.1-1.6-0.1-5.6v-8.1c0-1.6,0-5.1,0.5-6.1  c0-0.1,0.4-0.4,1.6-0.5l0.5-0.1L245.6,11.1L245.6,11.1z M216.8,11.1c0.2-0.2,0.2-0.4,0.2-0.7c0-0.2-0.1-0.4-0.3-0.5h-0.1h-0.1  c-1.1,0.1-2,0.1-3.3,0.1s-2.4,0-3.6-0.1h-0.1h-0.1c-0.2,0.1-0.3,0.3-0.3,0.5c0,0.2,0,0.5,0.2,0.6l0.1,0.1l0.9,0.1  c0.7,0.1,1.2,0.3,1.4,0.6c0.4,0.7,0.6,3,0.6,6.5V22c0,3.8-1.1,8.3-6.2,8.3c-4.3,0-6.3-2.6-6.3-8.3v-6.9c0-3.4,0.1-3.7,1.7-3.8  l0.8-0.1h0.1c0.2-0.1,0.3-0.4,0.2-0.6c0-0.2-0.1-0.5-0.3-0.6h-0.1h-0.1c-1.5,0.1-2.6,0.1-3.9,0.1c-1.3,0-2.5,0-4-0.1h-0.1h-0.1  c-0.2,0.1-0.3,0.4-0.3,0.6c0,0.2,0,0.4,0.2,0.6h0.1l0.9,0.1c1.6,0.1,1.7,0.4,1.7,3.8v7.6c0,3.9,0.8,6.3,2.6,7.7  c1.8,1.3,4,2,6.2,1.8c2.3,0.1,4.6-0.8,6.3-2.4c1.5-1.7,2.3-4.2,2.3-7.8v-3.6c0-1.6,0-5.4,0.4-6.5c0.3-0.4,0.9-0.6,1.4-0.6  L216.8,11.1L216.8,11.1L216.8,11.1z M179.9,52.2c0.5-0.3,0.3-1.7-0.2-1.9c-3.3,0.2-5.9,0.2-8.9,0.2c-3.3,0-5.9-0.2-9.7-0.2  c-0.5,0.2-0.6,1.6-0.2,1.9l2,0.2c4,0.3,4.5,1.6,4.5,9.7v27.7c0,8.1-0.2,8.9-4.4,9.6l-1.3,0.2c-0.4,0.6-0.4,1.4,0.2,1.9  c3-0.1,5.6-0.2,8.9-0.2c3,0,5.6,0.1,9.8,0.2c0.5-0.2,0.6-1.6,0.2-1.9l-2.2-0.2c-4.3-0.5-4.7-1.5-4.7-9.6V79c0-2.3,0.2-2.5,3.9-2.5  h22c3.7,0,3.9,0.2,3.9,2.5v10.9c0,8.1,0,8.9-4.7,9.6l-1.5,0.2c-0.4,0.6-0.4,1.4,0.1,1.9c3.4-0.2,6.2-0.2,9.3-0.2  c3.2,0,5.6,0.1,9.3,0.2c0.5-0.2,0.6-1.6,0.2-1.9l-1.8-0.2c-4.4-0.5-4.6-1.5-4.6-9.6V62.1c0-8.1,0.2-9.2,4.6-9.7l1.6-0.2  c0.5-0.3,0.3-1.7-0.1-1.9c-3.5,0.2-6.1,0.2-9.1,0.2c-3,0-5.8-0.1-9.3-0.2c-0.5,0.2-0.6,1.6-0.1,1.9l1.5,0.2  c4.5,0.5,4.7,1.6,4.7,9.7v8.9c0,2.4-0.2,2.5-3.9,2.5h-22.1c-3.7,0-3.9-0.1-3.9-2.5v-8.9c0-8.1,0.2-9.2,4.6-9.7L179.9,52.2z   M176.8,27.1L176.8,27.1V27c-0.2-0.3-0.4-0.5-0.8-0.4c-0.1,0-0.3,0-0.4,0.1l-0.1,0.1c-0.5,1.2-1.2,2.2-2.2,3  c-0.7,0.3-1.7,0.5-4,0.5c-2.7,0-3.3-0.3-3.7-0.7c-0.4-0.3-0.5-1.5-0.5-3.2v-4.5c0-0.6,0-0.6,0.8-0.6h1.9c0.8,0,1.6,0,2.4,0.2  c0.5,0.1,0.7,0.4,0.8,1l0.3,1.3l0.1,0.1c0.2,0.2,0.4,0.2,0.6,0.2c0.3,0,0.5-0.1,0.6-0.3l0,0v-0.1c0-0.3,0-0.7-0.1-1.2  c-0.1-0.5-0.1-1.3-0.1-1.9s0-1.4,0.1-2c0.1-0.6,0.1-0.9,0.1-1.3l0,0v-0.1c-0.1-0.2-0.4-0.3-0.6-0.3c-0.2,0-0.4,0.1-0.6,0.2  l-0.3,1.4c-0.1,0.7-0.3,0.8-0.6,0.9c-0.9,0.2-1.8,0.2-2.7,0.2h-1.8c-0.8,0-0.8,0-0.8-0.7v-6.4c0-1,0-1,0.7-1h2.3c1,0,2,0,3.1,0.2  c1.5,0.4,1.8,1.3,2.2,2.7l0.1,0.2v0.1c0.1,0.1,0.3,0.2,0.5,0.2c0.3,0,0.5-0.1,0.7-0.3v-0.1v-0.5c-0.1-1.3-0.2-2.6-0.5-3.9l-0.1-0.2  l-0.2,0.1c-0.4,0.1-2.3,0.1-4.3,0.1h-6c-1.2,0-2.3,0-3.8-0.1h-0.1h-0.1c-0.2,0.1-0.3,0.4-0.3,0.6c0,0.2,0,0.5,0.2,0.6l0.6,0.1  c1.6,0.2,1.7,0.4,1.7,3.8v11.5c0,3.5-0.2,3.6-1.8,3.8l-1.1,0.1l-0.1,0.1c-0.2,0.2-0.2,0.5-0.2,0.7c0,0.2,0.1,0.4,0.3,0.5l0,0h0.1  c1.9-0.1,3-0.1,4.4-0.1h2.9c2.8,0,5.6,0,8.6,0.1h0.2l0.1-0.1C175.9,30.2,176.4,28.6,176.8,27.1L176.8,27.1z M150,26.6V15.1  c0-3.4,0.1-3.6,1.7-3.8l0.7-0.1h0.1c0.2-0.1,0.3-0.4,0.2-0.6c0-0.1-0.1-0.5-0.3-0.6l0,0h-0.1c-1.5,0.1-2.6,0.1-3.8,0.1  c-1.4,0-2.5,0-3.9-0.1h-0.1h-0.1c-0.2,0.1-0.3,0.4-0.3,0.6c0,0.2,0,0.5,0.2,0.6l0.7,0.1c1.6,0.2,1.7,0.4,1.7,3.8v3.7  c0,0.8,0,0.8-1.4,0.8h-9.2c-1.4,0-1.4,0-1.4-0.8v-3.7c0-3.4,0.1-3.6,1.7-3.8l0.6-0.1h0.1c0.2-0.1,0.3-0.4,0.2-0.6  c0-0.2-0.1-0.5-0.3-0.6h-0.1l0,0c-1.5,0.1-2.5,0.1-3.7,0.1c-0.8,0-1.6,0-2.4,0h-1.7l0,0h-0.1c-0.3,0.1-0.3,0.5-0.3,0.6  c0,0.2,0,0.5,0.2,0.6h0.1l0.9,0.1c1.4,0.1,1.7,0.4,1.7,3.8v11.5c0,3.3,0,3.5-1.7,3.8l-0.8,0.2l0,0c-0.2,0.2-0.2,0.5-0.2,0.7  c0,0.2,0.1,0.4,0.3,0.5l0,0h0.1h1.3c0.8,0,1.5,0,2.4,0c1.2,0,2.2,0,4.1,0.1h0.1h0.1c0.2-0.1,0.3-0.4,0.3-0.6c0-0.2,0-0.5-0.2-0.6  l-1-0.1c-1.5-0.2-1.7-0.3-1.7-3.8v-4.5c0-0.8,0-0.8,1.4-0.8h9.2c1.4,0,1.4,0,1.4,0.8v4.5c0,3.4,0,3.5-1.7,3.8l-0.7,0.1h-0.1  c-0.2,0.2-0.2,0.5-0.2,0.7c0,0.2,0.1,0.4,0.3,0.5h0.1h0.1c1.5-0.1,2.6-0.1,3.9-0.1c1.2,0,2.4,0,3.9,0.1h0.1l0,0  c0.2-0.1,0.3-0.4,0.3-0.6c0-0.2,0-0.5-0.2-0.6l-0.9-0.1C150,30.2,149.9,30,150,26.6L150,26.6z M123.6,9.5L123.6,9.5V9.4  c-0.1-0.2-0.5-0.3-0.6-0.3c-0.1,0-0.2,0-0.3,0h-0.1v0.1c-0.4,0.7-0.6,0.8-2.3,0.8H107c-1.4,0-2.1-0.1-2.2-0.8V9.1h-0.1  c-0.1-0.1-0.3-0.1-0.4-0.1c-0.2,0-0.3,0-0.5,0.1l-0.1,0.1v0.1c-0.3,1.6-0.7,3.2-1.3,4.7v0.1v0.1c0.3,0.4,0.8,0.5,1.2,0.3h0.1v-0.1  c0.3-0.8,0.8-1.6,1.5-2.2c0.7-0.7,2.3-0.7,3.8-0.7h1.7c0.7,0,0.7,0,0.7,0.8v14.4c0,3.5-0.2,3.6-1.8,3.8l-1.2,0.1h-0.1  c-0.3,0.3-0.4,0.8-0.1,1.1c0,0,0.1,0.1,0.1,0.1l0,0h0.1c2-0.1,3.2-0.1,4.4-0.1c1.3,0,2.3,0,4.2,0.1h0.1h0.1  c0.2-0.1,0.3-0.4,0.3-0.6c0-0.2-0.1-0.4-0.2-0.6l-1.1-0.1c-1.6-0.1-1.7-0.4-1.7-3.8V12.3c0-0.2,0-0.5,0-0.7c0.2,0,0.4,0,0.6,0h2.3  c1.2-0.1,2.5,0.1,3.6,0.8c0.5,0.6,0.7,1.4,0.7,2.2v0.1v0.1c0.2,0.2,0.4,0.2,0.6,0.2c0.3,0,0.5-0.1,0.7-0.3v-0.1v-0.1  c0-1.6,0.1-3.2,0.5-4.8L123.6,9.5z M101.7,76.3c-0.2,8.5,3.9,16.5,10.9,21.2c5.6,3.8,12.3,5.2,19.2,5.2c4.1,0,8.2-0.6,12.2-1.8  c0.9-0.3,1.8-0.6,2.7-0.8c1.1-1.5,3.2-6.6,3.7-10.6c-0.5-0.6-1.3-0.7-2-0.3c-1.8,4.5-6.2,11.1-16.1,11.1  c-12.6,0-22.9-8.9-22.9-25.1c0-15.9,10-23.4,21.8-23.4c11.2,0,14.6,6,15.8,11.3c0.6,0.5,1.5,0.4,2.1-0.2c-0.6-4.7-1-9.6-1.1-11.3  c-0.7,0-1.5-0.1-2.1-0.3c-4.5-1.1-9-1.8-13.6-1.9c-8,0-15.2,2.2-20.8,6.6C105.2,60.8,101.6,68.4,101.7,76.3L101.7,76.3z M81.7,63.3  V9.5C38.5,5.4,6,9.5,6,9.5v53.7c3.4,36.4,37.5,40.7,37.8,40.6C49.9,102.7,78.5,97,81.7,63.3L81.7,63.3z M18.2,76.7  c0.7,0.4,1.4,0.7,2.2,1c0.9,2.4,0,4.8-0.5,3.8C19.1,79.9,18.5,78.3,18.2,76.7L18.2,76.7z M18.2,50.3L18.2,50.3  c-0.1,0-4.8,3-7.9,1.5c2.3-1.3,10.2-6.3,12.4-7.7c0.6,0.2,1.3,0,1.8-0.4c-0.8,0-3.6,0.5-2.2-2c0.5,2.2,4.4,0.2,5.8-0.1  c3.8-0.9,3.8,3.2,3.5,4.9c-0.1,0.6,1.2,1.1,1.8,1c-1.1,2.7-3,0.2-3.2,1.2c-0.1,0.4-1.4,0.8-1.4,1.8c0,1.4,0.6,0.6,0.6,1.7  c0.1,1.1-0.5,0.2-0.3,1.4c0.2,1.8,3.2-0.2,4.4,0.3c0.6,0.3,1.1,0.8,1.7,0.7c0.2-0.2,0.1-0.9,0.1-1.1c-0.1-0.6-1.1-0.7-1.6-1.4  c-0.5-0.8,0.5-2.8,1-3.4c0.7,3.5,4,2.4,4.4,6c0.3,1-1.1,2.2,0,3.8c-0.9,0.8-1.9,4.8-0.1,6.6c-0.6,1.4-0.2,2.9,0.9,3.9  c-0.5,1.3-0.5,2.7,0,4c-1,0-0.8-5.5-6.7-5.7c-0.1,0-0.2,0.6,0,0.9c0.7,1.3,1.7,1.2,1.5,4.1c-0.1,1-0.7-0.2-1-0.5  c-0.9-0.6-1.4-1.7-1.4-2.8c-1.7,1.2-2.5,3.3-2,5.3c0,0-0.5-1.4-1.1-2.9c0-0.1,2.4-3.1,2.8-3.8c5-9-3.2,2.9-3.3,2.9  c-0.3-0.8-0.7-1.5-1.1-2.2c0.8-0.9,1.5-1.9,2.1-3c3.9-8.1-2.3,2.7-2.5,2.5c-0.5-0.4-0.9-1-1.1-0.8c-0.1,1.2-0.4,1.1-0.3,2.3  c-0.9,1.1-1.9,2.1-3,2.9c0,0-0.2-2.2-0.2-2.3c0.5-0.6,2.4-2.6,2.8-3.2c6.3-10-3,2.4-3,2.3c-0.2-0.6-0.6-1.2-1.1-1.6  c0.9-1.2,1.8-2.5,2.6-3.8c3.9-7.9-3.1,3.5-3.2,3.5c-0.1-0.1-0.2-0.1-0.4-0.2c0-1.2,0.2-2.4,0.5-3.6c0.5-2.6-0.9-0.5-1.3,3.7  c-0.5,0-1.1,0.2-1.6,0.5c0.2,1.1,0.5,0.3,1,1.3c0.6,1.3-0.8,3.4,0.4,4.9c0.4,0.6,0.5,0.5,0.4,0.9c-0.7,0-1.1-0.1-1.6,0.6  c-0.8-3.3-1-6.7-0.6-10c0.1-1.9,0.7-4.7,0.4-4.7s-4.4,10.8-5.5,12.9c-1.8-0.6,1.1-10,4.8-14.5c0.3-1.4-1.9,1.4-3.3,2.6  c-1.4,1.2-2.8,2.4-4.5,2c2.2-2.3,7.2-6.6,7.7-7.7c0.5-1.1-3.4,2.9-7.5,1.5C12,55.6,18.1,52.5,18.2,50.3L18.2,50.3z M25.6,70.7  c-0.1,0.9,0,1.8,0.2,2.7c0.5,1.5,0.2,1.1-0.4,0.5c-0.5-0.5-0.9-1-1.2-1.7C24.1,71.8,24.5,71.7,25.6,70.7z M35.5,46.2  c-0.6-1,0.7-2,0.7-2c0,2.9,3.7,0.9,5.5,1.8c0.5,0.2,0.8,0.6,1,1.1C40.7,45.7,36.9,48.6,35.5,46.2L35.5,46.2z M13.9,23.2  c-3.3,0-3.2-4.9,0-4.9c1.4,0.1,2.4,1.3,2.3,2.6C16.1,22.1,15.1,23.1,13.9,23.2z M13.9,33.1c-1.4,0-2.5-1.1-2.5-2.5  c0-1.4,1.1-2.5,2.5-2.5c0,0,0,0,0,0c1.4,0,2.5,1.1,2.5,2.5C16.4,32,15.3,33.1,13.9,33.1z M20.1,22.4h-2.9v-2.8h2.9V22.4z   M20.1,32.2h-2.9v-2.8h2.9V32.2L20.1,32.2z M43.3,37.1c-2-1-4.2-1.7-6.5-1.9c-3.4-0.2-10.3,2.5-15.6,2.1V14.1c0,0,6,0.8,8.5-0.2  c8.4-3.3,13.6,0.4,13.6,0.4V37.1z M49.1,40.9c0.1,0.5-0.2,1-0.7,1.1c0.8,0.3,1.7-0.1,2.1-0.9c0.5,2-1.5,2.1-2.2,2.2  c0,0,1,0.3,1.1,1c0.1,1.7,1.2,1.6,1.5,1.4c0,0.2-0.4,1.2-1.6,0.3c-0.2,0.2,0.3,0.5,0.4,1.4c0.1,1.1,0.1,2.1,1.3,2.7  c-0.8,0.6-1.6-1-1.7-0.8s1.1,0.8-0.2,3.8c-0.6-0.3-0.2-0.3-0.9-1.1c-0.5-0.4-0.7-0.5-0.3,0.2c0.7,1.1,0.9,2.4,0.7,3.6  c-0.6-0.3-0.5-0.8-1.2-1.4c0,0.9,0.4,1.7,1,2.4c0.9,0.7,1.5,1.7,1.8,2.8c0,1.3-0.1,2.6-0.3,3.9c-0.6-0.1-1.1-1.8-1.3-1.7  c0,1.1,0.5,2.1,1.3,2.8c0.6,1.6,0.3,2.5,0.2,2.6s-0.8-1.7-1.2-1.4c1.7,4.2,0.5,5.7,0.1,7c-0.3-1.3-0.5-2.3-0.9-3.8  c-0.9,0.7-1.1,1.8-2.2,2.7c0-1.7-1-5.9-1.8-6.8c0,0-1.4,3.7-2.1,5.4c-0.9,2.2-0.9,4.7,0,7c-2-2.9-2.3-8.3-0.5-9.1  c0.2-0.4-0.1-1.7-0.5-1.5c0,0.6-0.2,1.2-0.6,1.8c-1.4-0.4-0.7-2-0.6-2.6c1.8-2.1,0.7-2.6,0.6-2.5c-0.2,0.5-0.4,1.1-0.9,1.3  c-1.1-1.9-0.4-5,1.7-7.2c0.1-0.9-1,0.6-1.6,0.6c-0.2-1.6,0.4-4.4,3.4-4.6c-0.6-0.2-0.9-0.3-1-0.8c0.9-0.1,3.8-0.4,3.3-2.6  c-0.3,0.4-0.7,0.8-1.1,1.1c-0.5,0.3-1.1,0.3-1.3-0.1c1.3-0.4,0.9-2.1-0.9-1.6c-0.7,0.1-1.3-0.3-1.4-1c0.4,0.4,1.2,0.1,1.6-0.2  c1.1-0.7,2.5-0.4,3.2,0.7c0.1,0.1,0.1,0.2,0.2,0.3c0.1,0,0.9-1.8-1.9-2.3c-0.4-1.2-1.5-1.9-2.7-1.7c-0.6-2.2-2.5-1.1-2.4-0.1  c-2-1.5,0-3.3,0.8-3.6c0.6,0,0.4,1.8,1.4,1.5c0.2-0.1-0.8-1.2-0.4-1.7c0.9-0.5,0.9,0.7,1.3,0.2c0.3-0.7,1-1.2,1.8-1.3  C45.6,39.7,47.2,42,49.1,40.9L49.1,40.9z M67.5,37.5c-4.4,0.3-13.6-2.2-15.9-2.2c-4.8,0-7.1,1.9-7.1,1.9s0-21.9,0-22.7  c0,0,6.3-3,10.9-1.3c3.9,1.2,8.1,1.6,12.2,1.1L67.5,37.5L67.5,37.5z M73.3,28.5c2.4-0.4,2.8,2.5,2.8,2.5l0,0  c-0.8-0.6-1.8-0.6-2.6-0.2c-1.5,1-3.3,1.6-5.2,1.8v-4.4C68.3,28.2,68.8,29.1,73.3,28.5L73.3,28.5z M76.2,22.5c0-0.1,0-0.3-0.1-0.6  c-0.1-0.3-1.3-0.7-2.2-0.3c-1.3,0.5-4.4,2.3-5.5,2v-4.4c2.8,1.2,3.9,0.1,4.8,0.1c1.5-0.1,2.8,1.1,2.9,2.6  C76.1,22.1,76.1,22.3,76.2,22.5L76.2,22.5z M73.1,68.1c-0.8,0.2-3,1.1-3.5,1.9c0.1-3.5-0.4-7.1-1.7-10.4c-0.9-2.2,0.4,5,0.5,6.7  c0,0.1-7.7-10-3.1-2.2c0.8,1.3,1.9,2.4,3.1,3.3c0.1,1.1,0,2.2-0.3,3.2c-0.5,0.4-10.6-13.5-5-3.9c0.7,1.2,4.8,4.8,4.7,4.9  c-0.3,0.7-0.8,1.4-1.4,1.9c-0.1-0.1-2.3-1.7-2.3-1.8c-0.2-1.1-0.2-2.1-1.5-1.3c0,0-5-5.8-2.7-1.7c0.5,0.9,1.1,1.7,1.9,2.3  c-0.5,0.7-0.8,1.4-1,2.2c-0.1,0.4-4.3-4.7-2.7-1.5c0.5,1,2.5,2.2,2.4,2.2c-0.2,0.6-0.4,1.2-0.6,1.7c-1.2,1.2-2.6,2.4-4,3.5  c0.4-1.3,1.2-2.6,2.3-3.5c0.5-0.3,1-0.6,1.5-0.9c0-0.5-0.3-0.9-0.8-1.1c-0.8-0.1-1.5,0-2.3,0.1c0.2-0.9-0.6-2.8-0.6-4.9  c-0.9,0.3-1.6,0.9-2.1,1.7c-0.2,3.4-1,2.4-1.6,4.9c-0.8-1,0-2.5-0.7-3.5c-0.9-1.1-1.3-2.5-1.3-3.9c0.2-0.1,1.3-1.3,0.3-3.7  c-0.2-3.8,1.5-5.3-1.5-7.9c0.3-0.1,0.4-2,0.4-2c2.2,1.2,1.8-1.4,2.7-1.9c1.4-0.8,1.1-1.6,0.5-2.7c4,1.1-0.2,3.9,1.6,3.9  c1.1,0.2,2.1-0.3,2.7-1.2c0.6-0.9-0.1-1.5,1.6-3c0.2-0.1,0.6-1.1-0.7-1.4c-0.3-0.1,0-1.2,0-1.2c-1.1,0.9-1.4,2.2-3.1,1.4  c-0.6-0.3-1.3-0.2-1.8,0.2c-0.1-0.4,0.1-0.8,0.6-1c1.9-0.6,2.3-1.4,2.2-1.8c-0.3-1-0.3,0-0.3-1c0.2-0.5,0.5-1,0.9-1.4  c1.3-1.5,2.2-1,2.5-0.8c0.5-0.4,1-0.6,1.6-0.8c1.2-0.5,3.8,0.3,5.2,1c0.7,0.4,1.5,0.5,2.3,0.3c0,0.4-0.2,0.7-0.6,0.7  c-0.5,0.1-1,0-1,0.3c0,0.3,0.6,0.2,1,0.3c2.1,0.6,4.9,2.5,3.1,2.1c-0.2,0,1.3,1.1,2.5,2.7l4.1,3.9c-0.2,0.2-1.6,0-6.1-4.2  c-0.6,0.6,5.5,5.2,8,10.1c-1.7-0.4-3.2-1.1-4.5-2.2c-1.7-1.8-3.8-6.4-4.6-5.7c-0.1,0,3.3,5.4,5,8.5c0.9,1.7,1.5,3.6,1.6,5.6  c0.3,8.5-1,7.9-1,7.9c-2-6.7-2.9-14.5-5.8-18.1C68.6,53.4,72.9,61.1,73.1,68.1L73.1,68.1z M64.2,75.7c-0.9,0.8-1.5,1.1-1.3,0.7  c0.2-0.4,0.4-0.7,0.5-1.1C63.4,75.2,64.2,75.8,64.2,75.7L64.2,75.7z M63.6,74.6c0.1-0.6,0.2-1.2,0.3-1.8c0-0.2,0-0.3,0-0.5  c0-0.1,1.9,1.6,2.1,1.7c-0.4,0.5-0.9,0.9-1.4,1.3C64.3,75,63.5,74.7,63.6,74.6L63.6,74.6z M70,76.8c-2.7,2.7-6.8,1.7-10,3.1  c-2.9,1.1-5,3.7-8,4.4c-0.9,0.3-1,0.7-0.5,0.7c0.3,0,2.2,1.9,5.1,0.4c1-0.5,4.1-2.2,4.6-2.3c-1.7,1.6-2.5,3-4,3.8  c-2.6,1.2-5.5,1.6-8.3,1.1c-1.6-0.3-2.9,1.2-2.5,1.1c0.9-0.3,1.9,0,2.4,0.7c1.1,0.8,2.6,1.9,4,0.3c1.3-1.1,3.3-1,4.5,0.3  c0,0,0,0.1,0.1,0.1c-2.1-0.1-1.9,3.7-5.9,3.3c-1.5,0-4.8-3.4-5.7-2.4c-1.7,1.9,3.6,3.6,1.3,6c-2,2.1-4.4-1.7-4.4-1.7  c1.3,0.5,3.6,0.9,2.6-1.2c-0.7-0.9-1.1-2-1.2-3.1c-0.2-0.8-4.9,6-7.9,3c-1.2-1.2-3.7-3.8-5.9-4.8c5.9-0.5,6.8,1.9,7.1,2.2  c1.9,2.5,3.6,0,4-0.5c0.6-0.7,1.5-1.7,1.2-1.8c-2.1-1.1-4.6-1.3-6.9-0.4c4.2-5.7,7.4-0.4,7.4-0.4c0.5,0.3-0.1-3.4-4.2-3.6  c-2.6-0.1-4.9,2.2-6.6,2.2c-1.4,0-5.8-3-6.9-5.6c2.6,1.9,5.8,3,7.8,1.8c3.8-2.3,8.6,1.1,8.9,0.7c-1.1-0.8-3.5-4.1-10.1-2.2  c-2.5,1.5-3.6-1.1-5.2-1.1c2.7-2.4,4.5-1.1,5.4-1.1c0.2,0-1.1-1.1-2-1.2c-4.1-0.4-8-1.3-11.8-2.8c0,0,0.6-1.5,3.7-0.4  c0,0-2.8-1.7-2.8-3.9c0.1-1.4,0.7-2.8-0.3-3.9c4.2-0.2,1.2,5.7,4.2,7.2c-0.5-0.8-0.3-1.9,0.5-2.5c0.5,1.4,1.7,2.5,3.2,2.9  c0.2-0.2,0.4-0.4,0.6-0.7c-1-2-1.4-4.2-1-6.4l0,0c0.2,0,0.7,0.8,0.9,1.5c0.6,1.3,0.6,3.2,1.8,4.8c0.5,0.8,1,1.5,1.7,2.1  c0.2-0.6,0.2-1.3,0-1.9c-0.1-1-0.8-2.7,0.9-4.3c0.8,2.3,1.9,1.6,2,2.7c0.2,0.8,0.2,1.7,0,2.5c0.1,1.6,1.6,2.1,2.9,3.1  c3,1.6,4.9,2.5,6.2,4.6c0.6-3.5-8.9-4.2-7.6-10.9c-0.1-2.7,0.3-2.9-1.6-4.6c3.8,0.1,5.9,6.3,6.1,7.5c0.4,2.1,1.6,2.2,3.4,4.9  c0.3,0.1-3.1-7.2,0.9-13.5c0,0,1.4,3.3,0.7,5.4c-0.2,1.2-0.2,2.4,0,3.5c0.1,0.8-0.2-3,2.7-4.9c0.2,1.4,1.6,3.7,0.3,6.1  c-1.6,2.9-1.7,1.9-1.7,5.4c0.1-0.1,0.6-2.5,1.6-3.8c2.3-2.9,0.7-4.4,2.9-6.9c0.2,1.3,0.5,0.8,0.6,1.9c0.3,2.5-2.3,5.2-1.7,5.1  c0.6-0.1,1.7-0.7,2.1-2.6c0,0,1,1.7,0.1,2.3c-1.3,0.6-2,2-1.7,3.4c1.3-1.5,3-3.2,2.7-5.4c0.1-1.3,1.6-1.8,1.8-4.9  c0.1-0.6,0.5-1.1,1.1-1.4c-0.2,1.7,1.1,3.5-0.4,5.5c0.3,0.2,1.6-1.6,3.5-1c-3.7,0.7-2.7,4.7-5.5,6.6c-0.9,0.6-0.7,1.2-1,1.3  c2.6-0.1,4.5-3.2,4.9-3.4c2.6-1.7,3.1-2,4.2-4.8c0.4-1.1,0.1-1.5,1.5-3c0.6,1.4-0.3,4.4-0.5,5c-0.5,1.4-2.1,2.5-1.7,2.5  c6.9-3,6.8-5.1,8.5-7.3c1-1.1,2.4-2,3.9-2.4c-0.2,0.5-1.2,1.2-1.2,2c-0.1,1.3-0.6,2.6-1.4,3.7c0.4,0.5,1.3-1,2.1-0.2  C71.2,74.9,70.7,76.1,70,76.8L70,76.8z M71.1,76.4c-0.4,2-1.2,3.9-2.3,5.6c-0.8,1.2-1.2-1.2-0.5-3.5C69.4,78.1,70.3,77.4,71.1,76.4  z M65.8,25.5c-0.2-0.1-0.5-0.1-0.7-0.1c-0.2,0-0.3,0.3,0,0.4c0.3,0.1,0.5,0.1,0.8,0.1C66.1,25.9,66,25.6,65.8,25.5L65.8,25.5z   M65,26.5c0.3,0.1,0.5,0.1,0.8,0.1c0.2,0,0.1-0.3,0-0.4c-0.2-0.1-0.5-0.1-0.7-0.1c-0.1,0-0.2,0.1-0.2,0.2  C64.9,26.4,65,26.5,65,26.5L65,26.5z M65,30.9c-0.3-0.3-0.6-0.6-0.9-0.8c-0.3,0.2-0.6,0.5-0.9,0.6c-0.3-0.3-0.6-0.6-0.9-0.9  c-0.3,0.2-1,0.8-1.3,1c0.4,0,1.1,0.2,1.1,0.6c0,0.4,0,2.4,0,2.8c0.3,0,0.7,0,1,0c0-0.3,0-2.7,0-3c0.1-0.1,0.3-0.1,0.4-0.2  c0.3,0.3,0.6,0.5,0.9,0.8c0.2-0.1,0.7-0.6,0.9-0.8S65.2,30.7,65,30.9L65,30.9z M63.8,27.4c0.3-0.5,0.5-1.1,0.6-1.7  c0-0.9-0.6-1.7-1.5-2.1c-1.1,0.4-1.9,1.4-2,2.5c0,0.7,0.6,2.1,1.8,2.2c0.4-0.4,0.8-0.7,1.2-1L63.8,27.4z M63,27.7  c-0.5-0.3-1-0.8-1.3-1.3c-0.4-0.7-0.2-1.5,0.5-1.9c0.6,0.2,1.2,0.8,1.3,1.3C63.6,26.5,63.4,27.1,63,27.7z M63,22.3l0.9-1  c-0.2-0.2-0.5-0.4-0.7-0.6c0-0.8,0-1.6,0.1-2.3c-0.4-0.4-0.9-0.7-1.5-0.7c-0.6,0.1-1.1,0.8-1.3,1.1c-0.1,0.2-0.1,0.4,0,0.5  c0.1,0.1,0.3,0.2,0.4,0.3h-0.1c-0.4,0.4-0.6,0.9-0.6,1.4c0.1,0.6,0.3,1.1,0.7,1.5c0.4-0.4,1-0.7,1.5-0.8C62.6,22,62.8,22.2,63,22.3  L63,22.3z M62.5,20c-0.6-0.2-1.1-0.5-1.7-0.9c-0.1-0.1-0.1-0.1,0-0.3s0.4-0.6,0.6-0.6c0.2,0,1.1,0.5,1,0.7  C62.5,19.4,62.5,19.7,62.5,20L62.5,20z M62.5,21.4c-0.3,0-0.5,0.1-0.7,0.2c-0.6-0.4-0.7-1.2-0.4-1.8l-0.2-0.1  c0.4,0.2,0.9,0.4,1.4,0.6c0,0.3,0,0.7,0,0.8S62.5,21.3,62.5,21.4L62.5,21.4z M59.8,17.1c-0.6,0-1.1,0-1.7,0  c-0.1-0.4-0.1-0.9,0.1-1.2c0.1-0.3-0.1-0.4-0.2-0.1c-0.3,0.6-0.9,1.2-1.5,1.5c-0.4,0.1,0.5,0.5,0.4,0.5c0,1,0.1,2,0.3,3  c0.1,0.3,0.5,0.9,0.8,0.7s0.6-0.9,0.7-1c0.1-0.1,0-0.5-0.2-0.3s-0.4-0.1-0.4-0.3C58,19.3,58,18.5,58,17.7c0,0,1.7-0.2,1.9-0.2  C60,17.5,60,17.1,59.8,17.1L59.8,17.1z M55.1,21.1l0.7-0.9c-0.4,0-0.8-0.2-1.1-0.6v-2.3l-0.7-0.7h-0.2l-1.1,1  c-0.1,0.2,0.2,0.2,0.3,0l0.8,0.5v2.2c0.1,0.3,0.3,0.6,0.6,0.9L55.1,21.1z M54.5,16l0.4-0.4v-0.6l-0.5-0.5L53.8,15v0.6l0.3,0.3  L54.5,16z M52.6,15.3c-0.6,0-1.1,0-1.7,0.1c-0.4,0-0.4,0.2-0.1,0.3s0.4,0.1,0.5,0.5c-0.1,0.9-0.4,1.9-0.8,2.7  c-0.4-0.7-0.7-1.4-1-2.2c0-0.2,0.3-0.3,0.5-0.4c0.1,0,0.3-0.3,0.1-0.3c-0.6-0.1-2.7-0.3-3.1-0.3c-0.4,0-0.4,0.3-0.1,0.3  c0.4-0.1,0.9,0.1,1.1,0.5c0.9,1.5,1.6,3.1,2.1,4.7c0.2-0.3,1.5-4.2,1.6-4.6c0.1-0.4,0.4-0.8,0.8-0.9C53,15.5,53,15.4,52.6,15.3  L52.6,15.3z M46.2,24.7c-0.2,1,0.4,1.9,1.4,2.2c0.9,0.3,1.9,0.4,2.8,0.1c0.3-0.1,0.5-0.1,0.5,0.2c0,0.3,0.3,0.1,0.3,0s0-1.5,0-1.6  c0-0.2-0.2-0.1-0.2,0c0,0.2-0.1,0.5-0.2,0.6c-0.7,0.8-1.8,0.8-2.6,0.2c-0.1-0.1-0.3-0.3-0.4-0.4c-0.3-0.4-0.5-0.9-0.2-1  c0.7,0,1.3,0,1.9,0.2c0.5,0,0.9,0.1,1.4,0.2c0.1,0.1,0.3,0.2,0.3,0v-1.1c0-0.2-0.1-0.1-0.3,0c-0.5,0.1-1,0.2-1.4,0.3  c-0.6,0.1-1.3,0.1-1.9,0.1c-0.3-0.1-0.2-0.7,0.1-1.1c0.7-0.9,1.9-1.1,2.8-0.4c0.1,0.1,0.2,0.2,0.3,0.3c0.1,0.2,0.2,0.4,0.2,0.6  c0,0.1,0.2,0.2,0.2,0c0-0.2,0-1.8,0-1.9c0-0.1-0.2-0.2-0.2,0c0,0.2-0.3,0.2-0.5,0.1c-0.9-0.1-1.9,0-2.7,0.4  C46.9,23.1,46.3,23.9,46.2,24.7L46.2,24.7z M46.5,27.6c0,0.5,0.2,4.4,0.1,5c0,0.3,0.4,0.7,0.8,0.9c0.3-0.4,0.6-0.8,0.9-1.1  c0.2-0.2,0-0.3-0.1-0.2c-0.1,0.1-0.6,0-0.6-0.3c0-0.3,0-3.8,0-4.3C47.4,27.6,46.7,27.6,46.5,27.6L46.5,27.6z M49.8,30.9  c-0.4,0.4-0.6,0.9-0.7,1.4c0,0.5,0.2,0.9,0.5,1.2c0.5-0.5,1-0.8,1.6-1.1c0.1,0.4,0.4,0.4,0.7,0.7c0.2-0.2,0.9-1,1-1.2  c0.2-0.2,0.1-0.3-0.2-0.1c-0.2,0.1-0.4,0-0.7-0.3c0-0.7,0-1.4,0-2c-0.3-0.4-0.6-0.8-1-0.8c-0.6,0-1.3,1-1.5,1.3  c-0.1,0.3-0.1,0.7,0.1,1L49.8,30.9L49.8,30.9z M50.2,31.2c0.3,0.2,0.5,0.1,1,0c0,0.3,0,0.6,0,0.7c-0.2,0.2-0.5,0.3-0.8,0.4  C50.2,32.1,49.8,32,50.2,31.2L50.2,31.2z M50,29.8c0.2-0.3,0.3-0.4,0.5-0.4s0.7,0.4,0.7,0.7c0,0.3,0,0.5,0,0.9  c-0.4,0.1-0.9,0-1.2-0.3C49.9,30.4,49.9,30.1,50,29.8L50,29.8z M53.4,29.1c-0.4,0.2,0.5,0.5,0.4,0.5c0,1-0.2,2.5,0.1,3  c0.2,0.3,0.6,0.5,1,0.4c0.3-0.1,0.7-0.7,0.8-0.8s0-0.3-0.2-0.2c-0.2,0.1-0.6,0.1-0.8-0.1c-0.1-0.8-0.1-1.6,0-2.3h0.8  c0.1,0,0.1-0.4,0-0.4s-0.7,0-0.7-0.1c0-0.4,0-0.8,0.1-1.1c0.1-0.3-0.1-0.4-0.2-0.1C54.5,28.4,54,28.9,53.4,29.1L53.4,29.1z   M53.6,24.7c0,0.9-0.3,1.7-1,2.3c0.9-0.2,1-0.8,1.5-1.4c0.3,0.4,0.7,0.8,1.1,1.1c0.4-0.3,0.8-0.7,1.1-1.1c-0.7-0.2-1.4-0.6-1.8-1.2  c-0.2-0.3-0.2-0.7,0-1c0.2,0.2,1.4,0.8,2-0.2c-0.5-0.2-1-0.5-1.3-0.9c-0.3,0.3-0.7,0.6-1,0.9c-0.2-0.4-0.5-0.7-1-0.8  c-0.5,0.4-1,0.8-1.5,1.1c-0.1,0.1-0.1,0.4,0.1,0.3c0.2-0.1,0.5-0.3,0.8-0.5c0.6,0.2,0.9,0.8,0.9,1.4L53.6,24.7z M57.9,24.9  c0.1-0.4,0.3-0.7,0.7-0.9c0.2,0.3,0.5,0.6,0.9,0.6c0.3,0,0.6-0.1,0.9-0.3c-0.3-0.3-1-1-1.1-1.1c-0.3,0.2-1.9,1-2,1.9  c-0.2,0.9,0.1,1.8,0.8,2.4c0.3,0.3,0.7,0.5,1.1,0.4c0.5-0.4,0.9-0.8,1.4-1.3c0.1-0.1,0-0.2-0.2-0.1c-0.2,0.1-0.1,0.2-0.2,0.2  c-0.4,0.1-0.8,0.1-1.3-0.1C58.2,26.2,57.8,25.6,57.9,24.9L57.9,24.9z M57.1,29.2c-0.2,0.2-0.6,0.5-1,0.9c0.3,0,0.6,0.1,0.7,0.4  c0.1,0.7,0.1,1.3,0,2c0,0.5,0.3,0.6,0.7,0.9c0.6-0.2,1.2-0.4,1.7-0.7c0,0.4,0.5,0.8,0.7,0.9c0.2-0.2,0.4-0.3,0.7-0.6  c-0.3-0.2-0.2-0.2-0.3-0.6c0-0.7,0-1.5,0-2.2c-0.3-0.4-0.6-0.7-0.9-1c-0.3,0.2-0.6,0.5-1,1c0.3,0,0.9,0.1,0.9,0.3  c0.1,0.5,0.1,1.1,0,1.6c-0.1,0.6-1.6,0.3-1.6-0.1s0.1-1.5,0.1-2C57.6,29.7,57.3,29.4,57.1,29.2L57.1,29.2z M47.2,42.7L47.2,42.7  c-0.8-0.3-1.6-0.6-2.3-1.1c-0.8-0.2-1.6,0-2.2,0.6c0,0.3,0.3,0.4,1.2-0.1c-0.4,0.4-0.4,1,0,1.4c0,0,0,0,0.1,0.1  c-0.3,0-0.7-0.1-1-0.3c0,0.3,0.4,0.4,0.5,0.5C45,44.4,45.9,43,47.2,42.7L47.2,42.7z M44.7,43.5c0.2-0.2,0.3-0.4,0.4-0.7  c0-0.3-0.2-0.5-0.4-0.7c0.5,0.2,1,0.4,1.4,0.7L44.7,43.5z M36.6,32.3l0.4-0.5c-0.5-0.1-0.3-0.1-0.5-0.3v-1.9l-0.6-0.9h-0.2l-1,0.9  c-0.3,0.2,0,0.3,0.3,0.1l0.6,0.3v2c0,0.3,0.3,0.3,0.6,0.6L36.6,32.3L36.6,32.3z M36.8,25.6c0.2,0.7,0.9,1.2,1.7,1.3  c0.2-0.4,0.4-0.7,0.7-1c0.3-0.3,0-0.5-0.2-0.2s-0.9,0-1.1-0.3c-0.2-0.3-0.6-1.2-0.3-1.5c0.3-0.3,0.7-0.2,1.3-0.2  c0.4,0,0.4-0.3,0.5-0.5c-0.3-0.1-0.5-0.3-0.8-0.4c-0.4,0.3-0.8,0.6-1.1,0.9C36.9,24.1,36.7,24.9,36.8,25.6L36.8,25.6z M38.2,30.7  c-0.3,0.3-0.6,0.8-0.6,1.3c0,0.5,0.2,0.9,0.7,1.1c0.4-0.4,1-0.6,1.5-0.8c0.3,0.3,0.6,0.5,0.9,0.7c0.2-0.2,0.7-0.6,0.8-0.8  c0.1-0.1,0-0.3-0.1-0.2s-0.5,0-0.6-0.1s-0.2-2.3-0.1-2.4c-0.3-0.3-0.8-1.1-1.2-1.1c-0.6,0.2-1.1,0.6-1.5,1c-0.1,0.4,0,0.8,0.1,1.1  h0.1L38.2,30.7z M39.6,30.9c-0.4,0-0.8-0.2-1.1-0.5c-0.1-0.2-0.1-0.5-0.1-0.7c0.2-0.3,0.2-0.4,0.4-0.4c0.2,0,0.9,0.5,0.9,0.7  C39.7,30.3,39.7,30.6,39.6,30.9L39.6,30.9z M38.6,30.9c0.3,0.2,0.7,0.3,1,0.2c0,0.2,0,0.5,0,0.6c0,0.1,0,0.2,0.1,0.3  c-0.3,0.1-0.5,0.2-0.8,0.3C38.7,32,37.9,31.5,38.6,30.9L38.6,30.9z M41.5,26.9l0.4-0.5c-0.5-0.1-0.5,0-0.7-0.3v-2.3l-0.4-0.6h-0.2  l-1,0.9c-0.3,0.2,0,0.4,0.3,0.1l0.5,0.3v2.1c0,0.3,0.3,0.3,0.6,0.7L41.5,26.9L41.5,26.9z M40.8,19.1c-0.2,0-0.5,0.4,0.7,0.5  C41.6,19.6,41.9,19.2,40.8,19.1z M40.8,18.4c-0.2,0-0.5,0.5,0.7,0.5C41.6,18.9,41.8,18.5,40.8,18.4z M41,21.9l-0.5-0.5L40,21.9v0.6  l0.3,0.3h0.3l0.4-0.3L41,21.9L41,21.9z M40,17.1c-0.4-0.5-0.9-0.7-1.5-0.8c-0.8,0.1-1.6,0.5-2.1,1.2c-0.4,0.6,0.1,1.1,0.6,1.6  c-0.3,0.3-0.8,0.7-1.2,1.1c0.5,0.3,1,0.6,1.6,0.6c0.7,0,1.4-0.3,2-0.8c0.8-0.7,0.5-1.4-0.3-1.8c-0.1,0-0.2-0.1-0.2-0.1  C39.3,17.8,39.6,17.5,40,17.1L40,17.1z M37.9,18.9c0.3,0.1,0.6,0.3,0.9,0.4c0.5,0.3,0.2,0.7-0.3,1s-1.4-0.4-1.5-0.7  C37.2,19.4,37.5,19.2,37.9,18.9z M38.8,17.7l-0.5,0.4c-0.1,0-0.3,0-0.4,0c-0.3-0.1-0.6-0.3-0.8-0.6c-0.2-0.3,0.3-0.5,0.6-0.5  C38,17.2,38.4,17.4,38.8,17.7L38.8,17.7z M35.3,19.5c-0.8,0.2-1.6-0.2-1.9-0.9c0.5-0.5,1.3-1.3,1.8-1.8c-0.3-0.3-0.5-0.8-1.1-0.9  c-1.1,0.2-1.9,1.1-2,2.2c-0.1,1.2,0.9,2.3,2.1,2.3c0.1,0,0.2,0,0.2,0c0.4,0,0.8-0.5,1.1-0.6C36.1,19.7,35.9,19.4,35.3,19.5  L35.3,19.5z M33.3,18.3c-0.3-1-0.2-1.3,0.4-1.8c0.2,0.3,0.4,0.5,0.7,0.7C34.1,17.5,33.5,18.1,33.3,18.3L33.3,18.3z M31.9,17.4  c0.2-0.2,0-0.4-0.2-0.2c-0.1-0.2-0.5-0.5-0.7-0.8c-0.3,0.2-0.6,0.4-0.9,0.6c-0.2-0.2-0.5-0.2-0.9-0.5c-0.4,0.3-0.7,0.5-1,0.9  c0.5,0.1,0.8,0.2,0.9,0.6c0,0.4,0,2.3,0,2.7c0.3,0,0.6,0,0.9,0c0-0.3,0-2.8,0-3.1c0.1-0.1,0.2-0.1,0.3-0.2c0.1,0.1,0.4,0.5,0.7,0.7  C31.4,17.8,31.6,17.6,31.9,17.4L31.9,17.4z M28,22.6c-0.7,0.2-1.2,0.6-1.5,1.2c-0.1,0.4,0,0.8,0.1,1.1l0.2,0.2  c-0.4,0.3-0.7,0.6-0.7,1.1c0.1,0.5,0.4,0.9,0.9,1.1c0.3-0.4,0.7-0.6,1.1-0.7c0,0.3,0.1,0.6,0.4,0.8c0.2-0.2,0.9-0.8,1-0.9  s0-0.3-0.1-0.1s-0.4,0-0.4-0.2c0-0.8,0-1.6,0.1-2.4C28.7,23.4,28.4,22.6,28,22.6L28,22.6z M28,24.8c-0.6,0.4-0.8,0.4-1.2-0.1  c-0.2-0.2-0.2-0.6-0.1-0.8c0.2-0.3,0.5-0.6,0.7-0.6c0.3,0.2,0.5,0.5,0.6,0.9C28,24.3,28,24.6,28,24.8L28,24.8z M28,25.9v0.2  c-0.1,0-0.3,0.1-0.4,0.1c-0.2-0.2-1.3-0.5-0.6-1.1c0.4,0.2,0.6,0,1-0.2v0.8V25.9z M27.6,21.4c-0.1-0.1-0.2-0.3-0.2-0.4  c0-0.1,0-1.4,0-1.6c0-0.2-0.3-0.1-0.3,0c0,0.3,0,0.6-0.2,0.9c-0.6,0.9-1.6,1.2-2.4,0.2c-0.5-0.8-0.5-1.8,0-2.5  c0.4-0.6,1.3-0.8,1.9-0.4c0.2,0.1,0.4,0.3,0.5,0.6c0.1,0.3,0.1,0.7,0.1,1c0,0.1,0.3,0.1,0.3,0c0-0.1,0-2.1,0-2.2s-0.3-0.2-0.3,0  s-0.2,0.3-0.4,0.3c-0.7-0.3-1.5-0.3-2.2,0c-0.8,0.4-1.3,1.2-1.4,2c-0.1,0.9,0.4,1.8,1.3,2.1c0.8,0.3,1.6,0.2,2.4-0.1  c0.3-0.1,0.4,0.1,0.5,0.4C27.4,21.9,27.7,21.8,27.6,21.4L27.6,21.4z M23.2,23.6c-0.7,0.9-0.7,2.1,0.1,2.9c0.4,0.5,1.1,0.7,1.7,0.5  c0.1-0.3,0.3-0.6,0.6-0.9c-0.5,0.1-1.1,0-1.6-0.4c-0.7-0.6-0.9-1.6-0.4-2.3c0.5-0.8,1.2,0.3,1.4,0.5c0.2-0.3,0.5-0.5,0.7-0.7  c-0.3-0.4-0.5-0.7-0.7-0.9C24.4,22.6,23.8,23,23.2,23.6L23.2,23.6z M23.6,30.8c-0.2,1.5,1.2,2.4,1.9,2.7c0.2-0.5,0.5-0.9,0.9-1.3  c0.3-0.3,0-0.4-0.3-0.2c-0.3,0.2-1.3,0-1.5-0.4c0.5-0.3,1.6-1.3,2.1-1.7c-0.4-0.4-0.8-1-0.9-1.6C25.3,28.6,23.8,29.3,23.6,30.8  L23.6,30.8z M25,29.2c0.2,0.4,0.4,0.8,0.8,1.1c-0.4,0.4-0.9,0.8-1.4,1.1C24,30.9,23.8,30,25,29.2z M28.1,28.7  c-0.3,0.3-0.6,0.6-1,0.9c0.2,0.2,0.5,0.5,0.6,0.9s0,2.2,0,2.7c0.3,0,0.5,0,0.8,0c0-0.3,0-2.7,0-3.1c0.1-0.1,0.3-0.3,0.5-0.4  c0.2,0.2,0.6,0.2,0.6,0.5c0,0.6,0,1.2,0,1.8c-0.1,0.5,0,1,0.2,1.4c0.4-0.3,0.7-0.6,1.1-0.9c0.2-0.1,0.1-0.3-0.1-0.2  c-0.2,0.1-0.3,0.1-0.3,0c0-0.1-0.1-1.5-0.1-2.3c0-0.5-0.2-0.9-0.6-1.1c-0.2,0.3-0.7,0.6-1,0.8C28.4,29.4,28.2,29.1,28.1,28.7  L28.1,28.7z M31.4,26.7c0.2-0.2,0.4-0.4,0.6-0.7c0.2-0.2,0-0.3-0.1-0.2s-0.5-0.2-0.5-0.2c-0.2-0.7-0.2-1.3-0.2-2  c0,0,1.1-0.1,1.3-0.1c0.2,0,0.1-0.4,0-0.4c-0.1,0-1.1,0.1-1.1,0c-0.1-0.5,0-1,0.2-1.4c0.1-0.3,0-0.5-0.1-0.2  c-0.3,0.6-0.8,1.2-1.3,1.6c-0.4,0.2-0.3,0.2-0.1,0.3c0.2,0,0.3,0.1,0.4,0.3c-0.1,0.9-0.1,1.7,0.2,2.6  C30.7,26.5,31.2,26.9,31.4,26.7L31.4,26.7z M35.4,27.2c-0.2,0.3-0.5,0.6-0.8,0.7c0.3,0.2,0.5,0.5,0.8,0.7c0.3-0.3,0.5-0.5,0.8-0.8  C35.8,27.7,35.5,27.5,35.4,27.2z M33.5,26.1c0.4,0,1,0.2,1.6,0.1c0.7-0.1,1.4-1.3,1.1-2.2s-1.3-0.7-2-1c-0.7-0.2-0.9-0.6-0.2-1  c0.7-0.4,1.8,0.3,1.9,0.5c0.1,0.2,0.3,0.3,0.3-0.1c0-0.8,0-0.3-0.1-1c0-0.3-0.2-0.3-0.2,0c0,0.3-0.3,0.2-0.5,0.2  c-0.5-0.1-1,0-1.5,0.2c-0.4,0.2-1.2,0.9-0.7,1.6c0.3,0.5,1.9,0.8,2.3,1.1c0.4,0.3,0.5,0.8,0.2,1.1c0,0-0.1,0.1-0.1,0.1  c-0.6,0.3-1.4,0.2-2-0.2c-0.2-0.2-0.4-0.5-0.4-0.9c0-0.4-0.3-0.3-0.3,0c0,0.5,0.1,1.1,0.1,1.6c0,0.3,0.3,0.2,0.3,0  C33.3,26.3,33.4,26.2,33.5,26.1L33.5,26.1z M31.9,29.4c-0.3,0.2,0.4,0.6,0.3,0.5c0,0.9-0.1,1.9,0.2,2.4c0.2,0.3,0.8,0.5,1,0.2  c0.2-0.4,0.4-0.7,0.7-1c0.2-0.2,0-0.3-0.1-0.2c-0.3,0.4-0.5,0.2-0.8,0c-0.1-0.5-0.2-1-0.1-1.5c0,0,0.6-0.1,0.8-0.1  c0.2,0,0.1-0.4,0-0.4c-0.1,0-0.8,0-0.8-0.1c0-0.5,0.1-1,0.1-1.5c0-0.3-0.1-0.4-0.2-0.1C32.7,28.4,32.3,29,31.9,29.4L31.9,29.4z"></path></g></svg>