<svg width="253" height="32" viewBox="0 0 253 32" fill="none" xmlns="http://www.w3.org/2000/svg">
<path d="M142.424 2.71143H142.001V28.5826H142.424V2.71143Z" fill="white"/>
<path d="M148.265 6.83501C148.237 4.71674 149.958 2.99388 152.045 2.96564C152.074 2.96564 152.13 2.96564 152.158 2.96564C153.23 2.90915 154.274 3.27631 155.064 3.9824L154.02 5.22512C153.484 4.71674 152.807 4.46255 152.074 4.46255C150.889 4.46255 149.929 5.50756 149.929 6.77852V6.80676C149.929 8.16246 150.86 9.15098 152.187 9.15098C152.723 9.17923 153.259 9.00977 153.738 8.69909V7.62583H152.102V6.21365H155.318V9.43342C154.444 10.196 153.315 10.6197 152.13 10.6197C149.845 10.6761 148.265 9.03801 148.265 6.83501Z" fill="white"/>
<path d="M157.124 3.10672H160.51C161.3 3.05023 162.09 3.33267 162.682 3.8693C163.105 4.32119 163.331 4.94255 163.303 5.56391V5.59216C163.359 6.63717 162.71 7.56921 161.751 7.90813L163.557 10.563H161.666L160.086 8.19057H158.817V10.563H157.18V3.10672H157.124ZM160.425 6.7219C161.215 6.7219 161.666 6.29825 161.666 5.67689V5.64864C161.666 4.94255 161.187 4.57539 160.397 4.57539H158.76V6.7219H160.425V6.7219Z" fill="white"/>
<path d="M167.676 3.05029H169.171L172.388 10.5631H170.667L169.99 8.89672H166.858L166.181 10.5631H164.516L167.676 3.05029ZM169.397 7.42805L168.41 5.02734L167.422 7.42805H169.397Z" fill="white"/>
<path d="M173.601 3.10669H175.237V6.04402H178.256V3.10669H179.893V10.5348H178.256V7.54094H175.237V10.5348H173.601V3.10669Z" fill="white"/>
<path d="M184.266 3.05029H185.789L188.978 10.5631H187.257L186.579 8.89672H183.419L182.742 10.5631H181.078L184.266 3.05029ZM185.987 7.42805L184.999 5.02734L184.012 7.42805H185.987Z" fill="white"/>
<path d="M190.191 3.10669H191.94L193.915 6.24173L195.862 3.10669H197.611V10.5348H195.975V5.67686L193.915 8.84014H193.859L191.799 5.7051V10.5348H190.191V3.10669Z" fill="white"/>
<path d="M202.407 9.46168L203.367 8.30369C203.959 8.86857 204.749 9.17925 205.596 9.20749C206.273 9.20749 206.668 8.9533 206.668 8.5014V8.47316C206.668 8.0495 206.414 7.8518 205.172 7.54112C203.677 7.14571 202.718 6.7503 202.718 5.28163V5.25339C202.718 3.89769 203.79 3.02214 205.314 3.02214C206.301 2.9939 207.288 3.33282 208.078 3.95418L207.232 5.1969C206.668 4.77325 205.991 4.51905 205.285 4.46257C204.665 4.46257 204.326 4.745 204.326 5.11217V5.14041C204.326 5.62055 204.636 5.79001 205.934 6.12894C207.43 6.52435 208.304 7.06098 208.304 8.36018V8.38843C208.304 9.85709 207.176 10.7044 205.567 10.7044C204.382 10.6762 203.254 10.2243 202.407 9.46168Z" fill="white"/>
<path d="M209.405 6.83483C209.376 4.71656 211.013 2.9937 213.101 2.96546C213.157 2.96546 213.213 2.96546 213.27 2.96546C214.37 2.90897 215.442 3.33262 216.204 4.12344L215.132 5.30968C214.652 4.80129 213.975 4.49061 213.27 4.46237C212.028 4.46237 211.126 5.50738 211.126 6.77834V6.80659C211.126 8.07755 212 9.15081 213.27 9.15081C214.116 9.15081 214.652 8.81188 215.217 8.27525L216.261 9.32027C215.499 10.1958 214.37 10.7042 213.213 10.6477C211.154 10.7042 209.433 9.03783 209.376 6.97605C209.405 6.9478 209.405 6.89132 209.405 6.83483Z" fill="white"/>
<path d="M217.587 3.10669H219.223V6.04402H222.242V3.10669H223.878V10.5348H222.242V7.54094H219.223V10.5348H217.587V3.10669Z" fill="white"/>
<path d="M225.487 6.83495C225.487 4.68844 227.208 2.96558 229.324 2.96558C229.352 2.96558 229.408 2.96558 229.437 2.96558C231.722 2.96558 233.387 4.68844 233.387 6.77846V6.80671C233.302 8.98146 231.468 10.7043 229.295 10.6196C227.236 10.5631 225.571 8.89673 225.487 6.83495ZM231.665 6.83495C231.722 5.56399 230.734 4.51897 229.493 4.49073C229.465 4.49073 229.437 4.49073 229.408 4.49073C228.195 4.49073 227.179 5.47926 227.179 6.69373C227.179 6.72198 227.179 6.75022 227.179 6.80671V6.83495C227.123 8.07767 228.11 9.12268 229.352 9.17917C229.38 9.17917 229.408 9.17917 229.408 9.17917C230.65 9.17917 231.637 8.19064 231.637 6.94792C231.665 6.91968 231.665 6.86319 231.665 6.83495Z" fill="white"/>
<path d="M234.6 6.83484C234.656 4.63183 236.462 2.90897 238.634 2.96546C240.722 3.02195 242.415 4.68832 242.471 6.80659V6.83484C242.415 9.00959 240.609 10.7325 238.409 10.676C236.349 10.6195 234.656 8.92486 234.6 6.83484ZM240.779 6.83484C240.835 5.56387 239.847 4.51886 238.606 4.49062C238.578 4.49062 238.55 4.49062 238.521 4.49062C237.28 4.49062 236.293 5.47914 236.293 6.72186C236.293 6.7501 236.293 6.77835 236.293 6.80659V6.83484C236.236 8.07755 237.224 9.12257 238.465 9.17905C238.493 9.17905 238.521 9.17905 238.55 9.17905C239.791 9.17905 240.779 8.19053 240.779 6.94781C240.779 6.91957 240.779 6.86308 240.779 6.83484Z" fill="white"/>
<path d="M244.08 3.10669H245.716V9.03785H249.412V10.5348H244.08V3.10669Z" fill="white"/>
<path d="M148.208 16.8614C148.18 15.1385 149.534 13.6981 151.255 13.6698C151.284 13.6698 151.34 13.6698 151.368 13.6698C152.271 13.6416 153.146 13.9805 153.766 14.6301L153.089 15.4209C152.638 14.9408 152.017 14.6866 151.368 14.6584C150.183 14.6584 149.365 15.6187 149.365 16.8049V16.8331C149.365 18.0194 150.212 19.0079 151.368 19.0079C152.13 19.0079 152.61 18.6972 153.118 18.2171L153.795 18.9232C153.174 19.6292 152.271 20.0529 151.312 20.0247C149.619 20.0529 148.208 18.669 148.208 16.9743C148.208 16.9461 148.208 16.9179 148.208 16.8614Z" fill="white"/>
<path d="M154.669 17.6239C154.669 16.2399 155.77 15.1384 157.124 15.1384C158.478 15.1384 159.579 16.2399 159.579 17.5956C159.579 18.9231 158.506 19.9963 157.152 19.9963C157.124 19.9963 157.124 19.9963 157.096 19.9963C155.77 20.0246 154.669 18.9796 154.641 17.6521C154.669 17.6804 154.669 17.6521 154.669 17.6239ZM158.506 17.6239C158.535 16.8048 157.914 16.1552 157.124 16.127H157.096C156.334 16.127 155.713 16.7483 155.713 17.5109C155.713 17.5391 155.713 17.5674 155.713 17.5956C155.685 18.3864 156.306 19.0643 157.096 19.0925H157.124C157.886 19.0925 158.506 18.4712 158.535 17.7086C158.535 17.6804 158.535 17.6521 158.506 17.6239Z" fill="white"/>
<path d="M160.82 15.308H161.892V16.0141C162.202 15.5057 162.739 15.1951 163.331 15.1951C164.375 15.1951 164.967 15.9012 164.967 16.9744V19.9117H163.895V17.2851C163.895 16.579 163.528 16.1554 162.908 16.1554C162.287 16.1554 161.864 16.579 161.864 17.3133V19.9117H160.82V15.308Z" fill="white"/>
<path d="M166.604 18.6408V16.2119H166.011V15.3081H166.604V14.0371H167.676V15.3081H168.917V16.2119H167.676V18.4714C167.648 18.7538 167.817 19.008 168.099 19.0362C168.156 19.0362 168.184 19.0362 168.24 19.0362C168.466 19.0362 168.692 18.9797 168.889 18.8668V19.7706C168.607 19.94 168.268 19.9965 167.958 19.9965C167.14 19.9965 166.604 19.6576 166.604 18.6408Z" fill="white"/>
<path d="M170.074 13.5852H171.203V14.5737H170.074V13.5852ZM170.131 15.3081H171.175V19.94H170.131V15.3081Z" fill="white"/>
<path d="M172.726 15.308H173.77V16.0141C174.081 15.5057 174.617 15.1951 175.209 15.1951C176.253 15.1951 176.846 15.9012 176.846 16.9744V19.9117H175.773V17.2851C175.773 16.579 175.407 16.1554 174.786 16.1554C174.165 16.1554 173.742 16.579 173.742 17.3133V19.9117H172.698L172.726 15.308Z" fill="white"/>
<path d="M178.313 18.2454V15.3081H179.357V17.9348C179.357 18.6409 179.723 19.0645 180.344 19.0645C180.965 19.0645 181.388 18.6409 181.388 17.9065V15.3081H182.46V19.9401H181.388V19.2057C181.078 19.7141 180.542 20.0248 179.949 20.0248C178.905 20.0248 178.313 19.3187 178.313 18.2454Z" fill="white"/>
<path d="M183.956 13.5852H185.084V14.5737H183.956V13.5852ZM183.984 15.3081H185.056V19.94H183.984V15.3081Z" fill="white"/>
<path d="M186.579 15.308H187.623V16.0141C187.934 15.5057 188.47 15.1951 189.062 15.1951C190.106 15.1951 190.699 15.9012 190.699 16.9744V19.9117H189.627V17.2851C189.627 16.579 189.26 16.1554 188.639 16.1554C188.018 16.1554 187.595 16.579 187.595 17.3133V19.9117H186.551V15.308H186.579Z" fill="white"/>
<path d="M192.166 20.7872L192.561 19.9964C193.04 20.3071 193.633 20.4765 194.197 20.4765C195.128 20.4765 195.664 19.9964 195.664 19.0644V18.6972C195.297 19.2338 194.677 19.5445 194.028 19.5445C192.871 19.5727 191.94 18.6407 191.94 17.4827C191.94 17.4545 191.94 17.398 191.94 17.3697V17.3415C191.884 16.1835 192.786 15.2232 193.943 15.1667C193.971 15.1667 194.028 15.1667 194.056 15.1667C194.677 15.1667 195.297 15.4492 195.664 15.9576V15.2797H196.736V18.9514C196.793 19.601 196.567 20.2224 196.144 20.7025C195.721 21.1261 195.072 21.3239 194.254 21.3239C193.52 21.3521 192.786 21.1544 192.166 20.7872ZM195.664 17.398C195.664 16.6637 195.072 16.0988 194.366 16.0988C194.338 16.0988 194.338 16.0988 194.31 16.0988C193.633 16.0705 193.04 16.6072 193.012 17.285C193.012 17.3133 193.012 17.3415 193.012 17.3697V17.398C192.984 18.0758 193.548 18.669 194.225 18.669C194.254 18.669 194.282 18.669 194.31 18.669C195.015 18.6972 195.636 18.1606 195.664 17.4262C195.664 17.4262 195.664 17.398 195.664 17.398Z" fill="white"/>
<path d="M201.222 13.783H202.295V18.9515H205.511V19.9401H201.222V13.783V13.783Z" fill="white"/>
<path d="M206.611 13.5852H207.74V14.5737H206.611V13.5852ZM206.668 15.3081H207.74V19.94H206.668V15.3081Z" fill="white"/>
<path d="M210.307 19.2055V19.9116H209.235V13.5286H210.307V16.0705C210.646 15.5339 211.238 15.1949 211.859 15.1949C212.959 15.1949 214.003 16.0705 214.003 17.5956C214.003 19.1208 212.959 19.9963 211.859 19.9963C211.267 19.9963 210.674 19.7139 210.307 19.2055ZM212.959 17.6239C212.959 16.7201 212.367 16.1552 211.633 16.1552C210.872 16.1835 210.251 16.8048 210.279 17.5956C210.279 17.6239 210.279 17.6239 210.279 17.6521C210.223 18.4147 210.815 19.0926 211.577 19.1208C211.605 19.1208 211.605 19.1208 211.633 19.1208C212.367 19.0926 212.959 18.5277 212.959 17.6239Z" fill="white"/>
<path d="M215.047 17.6241C215.047 16.2966 215.978 15.2234 217.305 15.2234C218.772 15.2234 219.505 16.3814 219.505 17.7371C219.505 17.8218 219.505 17.9348 219.477 18.0477H216.091C216.148 18.7256 216.74 19.234 217.417 19.234C217.897 19.234 218.348 19.0363 218.659 18.6973L219.279 19.234C218.828 19.7989 218.123 20.1095 217.417 20.1095C216.148 20.166 215.076 19.1492 215.019 17.8783C215.047 17.7653 215.047 17.7088 215.047 17.6241ZM218.461 17.2852C218.405 16.6073 217.982 16.0707 217.276 16.0707C216.627 16.0707 216.176 16.5791 216.091 17.2852H218.461Z" fill="white"/>
<path d="M220.775 15.308H221.819V16.353C222.044 15.6469 222.722 15.1668 223.455 15.2233V16.353H223.399C222.468 16.353 221.847 16.9461 221.847 18.1888V19.9399H220.775V15.308Z" fill="white"/>
<path d="M227.292 19.9117V19.3469C226.925 19.7988 226.361 20.0247 225.797 20.0247C224.922 20.0247 224.16 19.5163 224.16 18.5843C224.16 17.5675 224.95 17.0591 226.023 17.0591C226.446 17.0591 226.897 17.1156 227.292 17.2569V17.1721C227.292 16.5508 226.897 16.1836 226.164 16.1836C225.712 16.1836 225.261 16.2683 224.838 16.4378L224.555 15.5905C225.092 15.3363 225.712 15.1951 226.305 15.1951C227.659 15.1951 228.336 15.9012 228.336 17.1439V19.8835L227.292 19.9117ZM227.32 17.9912C226.982 17.8782 226.615 17.7935 226.248 17.7935C225.571 17.7935 225.176 18.0759 225.176 18.4996V18.5278C225.176 18.9515 225.571 19.2057 226.079 19.2057C226.784 19.2057 227.292 18.8102 227.292 18.2454L227.32 17.9912Z" fill="white"/>
<path d="M229.831 13.5286H230.904V19.9116H229.831V13.5286Z" fill="white"/>
<path d="M238.155 19.9118V19.347C237.788 19.7989 237.224 20.0248 236.659 20.0248C235.785 20.0248 235.023 19.5164 235.023 18.5844C235.023 17.5676 235.813 17.0592 236.885 17.0592C237.308 17.0592 237.76 17.1157 238.155 17.2569V17.1722C238.155 16.5508 237.76 16.1837 237.026 16.1837C236.575 16.1837 236.123 16.2966 235.7 16.4661L235.418 15.6188C235.954 15.3646 236.575 15.2234 237.167 15.2234C238.521 15.2234 239.199 15.9295 239.199 17.1722V19.9118H238.155ZM238.183 17.9913C237.844 17.8783 237.478 17.7936 237.111 17.7936C236.434 17.7936 236.067 18.076 236.067 18.4996V18.5279C236.067 18.9515 236.462 19.2057 236.97 19.2057C237.675 19.2057 238.183 18.8103 238.183 18.2455V17.9913Z" fill="white"/>
<path d="M240.666 15.308H241.738V16.0141C242.048 15.5057 242.584 15.1951 243.177 15.1951C244.221 15.1951 244.813 15.9012 244.813 16.9744V19.9117H243.769V17.2851C243.769 16.579 243.402 16.1554 242.782 16.1554C242.161 16.1554 241.738 16.579 241.738 17.3133V19.9117H240.666V15.308Z" fill="white"/>
<path d="M246.055 17.6239C246.055 16.0987 247.098 15.2232 248.199 15.2232C248.82 15.2232 249.412 15.5339 249.751 16.0422V13.5286H250.823V19.9116H249.751V19.149C249.412 19.6857 248.82 20.0246 248.199 20.0246C247.098 20.0246 246.055 19.149 246.055 17.6239ZM249.807 17.6239C249.863 16.8613 249.271 16.2117 248.509 16.1552C248.481 16.1552 248.481 16.1552 248.453 16.1552C247.719 16.1552 247.127 16.7201 247.127 17.6239C247.127 18.5277 247.747 19.0926 248.453 19.0926C249.243 19.0643 249.835 18.3865 249.807 17.6239C249.779 17.6239 249.779 17.6239 249.807 17.6239Z" fill="white"/>
<path d="M148.462 22.5383H150.889C152.299 22.5383 153.202 23.3574 153.202 24.5719V24.6001C153.202 25.984 152.102 26.6901 150.748 26.6901H149.534V28.6672H148.462V22.5383ZM150.804 25.7299C151.622 25.7299 152.13 25.278 152.13 24.6284V24.6001C152.13 23.894 151.622 23.4986 150.804 23.4986H149.563V25.7016H150.804V25.7299Z" fill="white"/>
<path d="M154.331 24.0352H155.403V25.0802C155.629 24.3741 156.306 23.9222 157.039 23.9505V25.0802H156.983C156.052 25.0802 155.431 25.6733 155.431 26.916V28.6672H154.359L154.331 24.0352Z" fill="white"/>
<path d="M157.773 26.3794C157.829 24.9955 158.958 23.9222 160.312 23.9787C161.61 24.0352 162.654 25.052 162.682 26.3512C162.682 27.6786 161.61 28.7519 160.256 28.7519C160.227 28.7519 160.227 28.7519 160.199 28.7519C158.873 28.7801 157.773 27.7351 157.745 26.4076C157.773 26.4359 157.773 26.4076 157.773 26.3794ZM161.638 26.3794C161.666 25.5603 161.046 24.9107 160.256 24.8825H160.227C159.466 24.8825 158.845 25.5038 158.845 26.2664C158.845 26.2947 158.845 26.3229 158.845 26.3512C158.817 27.142 159.437 27.8198 160.227 27.8481H160.256C161.017 27.8481 161.638 27.2267 161.666 26.4641C161.638 26.4359 161.638 26.4076 161.638 26.3794Z" fill="white"/>
<path d="M164.093 24.9673H163.5V24.0918H164.093V23.7528C164.065 23.3292 164.206 22.9338 164.46 22.5949C164.742 22.3407 165.108 22.1994 165.503 22.2277C165.786 22.2277 166.068 22.2559 166.35 22.3407V23.2445C166.152 23.1597 165.927 23.1315 165.729 23.1315C165.334 23.1315 165.109 23.3574 165.109 23.8376V24.0918H166.322V24.9673H165.109V28.6672H164.036L164.093 24.9673Z" fill="white"/>
<path d="M167.027 26.3795C167.027 25.052 167.958 23.9788 169.284 23.9788C170.751 23.9788 171.485 25.1367 171.485 26.4924C171.485 26.5772 171.485 26.6901 171.457 26.8031H168.071C168.127 27.481 168.72 27.9893 169.397 27.9893C169.877 27.9893 170.328 27.7916 170.638 27.4527L171.259 27.9893C170.808 28.5542 170.102 28.8649 169.397 28.8649C168.127 28.9214 167.055 27.9046 166.999 26.6337C167.027 26.5207 167.027 26.436 167.027 26.3795ZM170.469 26.0405C170.385 25.3627 169.99 24.8261 169.284 24.8261C168.635 24.8261 168.184 25.3345 168.099 26.0405H170.469Z" fill="white"/>
<path d="M172.359 28.074L172.839 27.3679C173.262 27.7068 173.798 27.9045 174.363 27.9328C174.814 27.9328 175.068 27.7351 175.068 27.4244V27.3962C175.068 27.029 174.588 26.916 174.024 26.7466C173.347 26.5488 172.585 26.2664 172.585 25.3909V25.3626C172.585 24.4871 173.319 23.9504 174.222 23.9504C174.814 23.9504 175.407 24.1481 175.914 24.4871L175.491 25.2496C175.096 24.9955 174.645 24.8542 174.193 24.826C173.77 24.826 173.544 25.0237 173.544 25.2779V25.3061C173.544 25.6451 174.052 25.7863 174.588 25.9557C175.266 26.1534 176.027 26.4641 176.027 27.3114C176.027 28.2717 175.266 28.7519 174.306 28.7519C173.601 28.7236 172.924 28.4977 172.359 28.074Z" fill="white"/>
<path d="M176.902 28.074L177.382 27.3679C177.805 27.7068 178.341 27.9045 178.905 27.9328C179.357 27.9328 179.611 27.7351 179.611 27.4244V27.3962C179.611 27.029 179.131 26.916 178.567 26.7466C177.889 26.5488 177.128 26.2664 177.128 25.3909V25.3626C177.128 24.4871 177.861 23.9504 178.764 23.9504C179.357 23.9504 179.949 24.1481 180.457 24.4871L180.034 25.2496C179.639 24.9955 179.187 24.8542 178.736 24.826C178.313 24.826 178.087 25.0237 178.087 25.2779V25.3061C178.087 25.6451 178.595 25.7863 179.131 25.9557C179.808 26.1534 180.57 26.4641 180.57 27.3114C180.57 28.2717 179.808 28.7519 178.849 28.7519C178.143 28.7236 177.466 28.4977 176.902 28.074Z" fill="white"/>
<path d="M181.811 22.3406H182.94V23.3291H181.811V22.3406ZM181.839 24.0352H182.912V28.6671H181.839V24.0352Z" fill="white"/>
<path d="M184.181 26.3794C184.238 24.9955 185.366 23.9222 186.72 23.9787C188.018 24.0352 189.062 25.052 189.09 26.3512C189.09 27.6786 188.018 28.7519 186.664 28.7519C186.636 28.7519 186.636 28.7519 186.608 28.7519C185.282 28.7801 184.181 27.7351 184.153 26.4076C184.181 26.4076 184.181 26.4076 184.181 26.3794ZM188.046 26.3794C188.075 25.5603 187.454 24.9107 186.664 24.8825C186.636 24.8825 186.636 24.8825 186.608 24.8825C185.846 24.8825 185.225 25.5038 185.225 26.2664C185.225 26.2947 185.225 26.3229 185.225 26.3512C185.197 27.142 185.818 27.8198 186.608 27.8481H186.636C187.398 27.8481 188.018 27.2267 188.046 26.4641C188.046 26.4359 188.046 26.4076 188.046 26.3794Z" fill="white"/>
<path d="M190.36 24.0353H191.432V24.7414C191.743 24.233 192.279 23.9224 192.871 23.9224C193.915 23.9224 194.508 24.6285 194.508 25.7017V28.639H193.435V26.0124C193.435 25.3063 193.069 24.8826 192.448 24.8826C191.827 24.8826 191.404 25.3063 191.404 26.0406V28.639H190.332L190.36 24.0353Z" fill="white"/>
<path d="M198.796 28.6672V28.1023C198.429 28.5542 197.865 28.7802 197.301 28.7802C196.426 28.7802 195.664 28.2718 195.664 27.3397C195.664 26.323 196.454 25.8146 197.526 25.8146C197.95 25.8146 198.401 25.8711 198.796 26.0123V25.9276C198.796 25.3062 198.401 24.939 197.667 24.939C197.216 24.939 196.765 25.052 196.341 25.2215L196.059 24.3742C196.595 24.12 197.216 23.9788 197.809 23.9788C199.163 23.9788 199.84 24.6849 199.84 25.9276V28.6672H198.796ZM198.824 26.7184C198.486 26.6054 198.119 26.5207 197.752 26.5207C197.075 26.5207 196.68 26.8031 196.68 27.2268V27.255C196.68 27.6787 197.075 27.9329 197.583 27.9329C198.288 27.9329 198.796 27.5375 198.796 26.9726L198.824 26.7184Z" fill="white"/>
<path d="M201.335 22.2842H202.407V28.6672H201.335V22.2842Z" fill="white"/>
<path d="M206.555 27.7634L207.204 27.0008C207.712 27.5092 208.417 27.7916 209.151 27.7916C209.828 27.7916 210.223 27.481 210.223 27.0291C210.223 26.6054 209.969 26.3512 208.84 26.097C207.542 25.7863 206.809 25.3909 206.809 24.2612V24.2329C206.809 23.1879 207.684 22.4536 208.897 22.4536C209.715 22.4254 210.505 22.7078 211.126 23.2162L210.561 24.0352C210.082 23.6398 209.517 23.4421 208.897 23.4139C208.276 23.4139 207.909 23.7246 207.909 24.1482C207.909 24.6284 208.191 24.8261 209.348 25.1085C210.646 25.4192 211.323 25.8993 211.323 26.9161V26.9443C211.323 28.1023 210.42 28.7802 209.151 28.7802C208.163 28.7519 207.26 28.413 206.555 27.7634Z" fill="white"/>
<path d="M212.734 27.3962V24.9672H212.141V24.0634H212.734V22.7925H213.806V24.0634H215.047V24.9672H213.806V27.2267C213.749 27.5092 213.947 27.7634 214.229 27.7916C214.286 27.7916 214.342 27.7916 214.37 27.7916C214.596 27.7916 214.822 27.7351 215.019 27.6221V28.4977C214.737 28.6672 214.398 28.7519 214.06 28.7236C213.27 28.7519 212.734 28.413 212.734 27.3962Z" fill="white"/>
<path d="M216.176 26.9725V24.0352H217.248V26.6618C217.248 27.3679 217.615 27.7916 218.236 27.7916C218.856 27.7916 219.279 27.3679 219.279 26.6336V24.0352H220.352V28.6671H219.279V27.961C218.969 28.4694 218.433 28.7801 217.841 28.7801C216.768 28.7518 216.176 28.074 216.176 26.9725Z" fill="white"/>
<path d="M221.621 26.3513C221.621 24.8261 222.665 23.9506 223.765 23.9506C224.386 23.9506 224.979 24.2612 225.317 24.7696V22.2842H226.389V28.6672H225.317V27.9047C224.979 28.4413 224.386 28.7802 223.765 28.7802C222.665 28.752 221.621 27.9047 221.621 26.3513ZM225.345 26.3513C225.402 25.5887 224.809 24.9391 224.048 24.8826C224.019 24.8826 224.019 24.8826 223.991 24.8826C223.258 24.8826 222.665 25.4475 222.665 26.3513C222.665 27.2551 223.286 27.8199 223.991 27.8199C224.781 27.8199 225.374 27.1703 225.345 26.3513C225.345 26.3795 225.345 26.3795 225.345 26.3513Z" fill="white"/>
<path d="M227.885 22.3406H229.013V23.3291H227.885V22.3406ZM227.941 24.0352H228.985V28.6671H227.941V24.0352Z" fill="white"/>
<path d="M230.255 26.3795C230.255 25.052 231.186 23.9788 232.512 23.9788C233.979 23.9788 234.713 25.1367 234.713 26.4924C234.713 26.5772 234.713 26.6901 234.684 26.8031H231.299C231.355 27.481 231.948 27.9893 232.625 27.9893C233.104 27.9893 233.556 27.7916 233.866 27.4527L234.487 27.9893C234.035 28.5542 233.33 28.8649 232.625 28.8649C231.355 28.9214 230.283 27.9046 230.227 26.6337C230.255 26.5207 230.255 26.436 230.255 26.3795ZM233.697 26.0405C233.612 25.3627 233.217 24.8261 232.512 24.8261C231.863 24.8261 231.411 25.3345 231.327 26.0405H233.697Z" fill="white"/>
<path d="M235.587 28.074L236.067 27.3679C236.49 27.7068 237.026 27.9045 237.59 27.9328C238.042 27.9328 238.296 27.7351 238.296 27.4244V27.3962C238.296 27.029 237.816 26.916 237.252 26.7466C236.575 26.5488 235.813 26.2664 235.813 25.3909V25.3626C235.813 24.4871 236.546 23.9504 237.449 23.9504C238.042 23.9504 238.634 24.1481 239.142 24.4871L238.719 25.2496C238.324 24.9955 237.872 24.8542 237.421 24.826C236.998 24.826 236.772 25.0237 236.772 25.2779V25.3061C236.772 25.6451 237.28 25.7863 237.816 25.9557C238.493 26.1534 239.255 26.4641 239.255 27.3114C239.255 28.2717 238.493 28.7519 237.534 28.7519C236.829 28.7236 236.151 28.4977 235.587 28.074Z" fill="white"/>
<path d="M135.851 4.0953V4.06705C135.851 3.72813 135.822 3.30448 135.822 2.88082V2.79609L135.738 2.82434C135.625 2.85258 135.061 2.85258 134.525 2.85258H132.86C132.521 2.85258 132.211 2.85258 131.816 2.82434H131.788H131.76C131.675 2.85258 131.675 2.96555 131.675 2.9938C131.675 3.05029 131.675 3.13502 131.731 3.16326L131.901 3.1915C132.38 3.24799 132.38 3.30448 132.38 4.26476V7.54102C132.38 8.5013 132.352 8.55779 131.901 8.61427L131.647 8.64252H131.618C131.562 8.699 131.562 8.75549 131.562 8.84022C131.562 8.89671 131.59 8.9532 131.647 8.98144H131.675H131.703C132.126 8.98144 132.437 8.9532 132.832 8.9532C133.227 8.9532 133.509 8.9532 134.045 8.98144H134.073H134.101C134.158 8.9532 134.186 8.86847 134.186 8.81198C134.186 8.75549 134.186 8.67076 134.13 8.64252L133.791 8.61427C133.34 8.58603 133.311 8.5013 133.311 7.54102V6.2983C133.311 6.12884 133.311 6.12884 133.537 6.12884H134.158C134.383 6.12884 134.609 6.12884 134.835 6.18532C134.976 6.24181 135.061 6.35479 135.089 6.46776L135.173 6.83493H135.202C135.286 6.91966 135.427 6.91966 135.54 6.83493V6.77844V6.7502C135.54 6.66547 135.54 6.52425 135.512 6.41127C135.484 6.27006 135.484 6.07235 135.484 5.87464C135.484 5.67694 135.484 5.50748 135.512 5.33802C135.54 5.16855 135.54 5.05558 135.54 4.97085V4.94261V4.91436C135.484 4.85787 135.427 4.82963 135.371 4.82963C135.315 4.82963 135.23 4.85787 135.202 4.88612L135.117 5.28153C135.061 5.50748 135.004 5.53572 134.948 5.56397C134.694 5.62045 134.44 5.62045 134.214 5.62045H133.593C133.368 5.62045 133.368 5.62045 133.368 5.45099V3.53043C133.368 3.24799 133.368 3.24799 133.565 3.24799H134.13C134.412 3.21975 134.694 3.24799 135.004 3.30448C135.399 3.41745 135.512 3.67164 135.597 4.12354V4.15179H135.625C135.597 4.20827 135.738 4.18003 135.851 4.0953ZM129.756 5.87464C129.756 4.34949 128.741 2.68312 126.54 2.68312C124.762 2.62663 123.295 4.03881 123.239 5.81816C123.239 5.87464 123.239 5.90289 123.239 5.95938C123.239 7.51277 124.367 9.09442 126.54 9.09442C128.289 9.12266 129.728 7.73872 129.756 5.98762C129.756 5.95938 129.756 5.90289 129.756 5.87464ZM128.712 6.15708C128.712 8.02116 127.612 8.699 126.653 8.699C124.791 8.699 124.283 6.80668 124.283 5.67694C124.283 3.81286 125.411 3.10677 126.371 3.10677C128.092 3.10677 128.712 4.7449 128.712 6.15708ZM120.756 21.6346C120.756 25.5604 123.662 29.0062 128.487 29.0062C132.691 29.0062 136.02 25.8146 136.02 21.4086C136.02 17.5675 133.509 13.9523 128.487 13.9523C124.001 13.9523 120.756 17.2851 120.756 21.6346ZM122.929 20.9567C122.929 16.1836 125.863 14.6584 128.12 14.6584C132.267 14.6584 133.847 18.5278 133.847 22.1147C133.847 26.4077 131.365 28.3565 128.769 28.3565C124.509 28.3565 122.929 24.1765 122.929 20.9567ZM118.668 3.16326C118.725 3.10677 118.753 3.05029 118.725 2.9938C118.725 2.93731 118.696 2.85258 118.64 2.82434H118.612H118.584C118.019 2.85258 117.455 2.85258 116.891 2.82434H116.863H116.834C116.778 2.85258 116.75 2.90907 116.75 2.96555C116.721 3.05028 116.75 3.10677 116.806 3.16326L116.834 3.1915L117.032 3.21975C117.145 3.21975 117.258 3.24799 117.342 3.30448C117.173 3.67164 117.004 4.03881 116.806 4.37773L116.778 4.46246C116.552 4.88612 116.298 5.33802 115.988 5.87464C115.734 5.45099 115.508 4.97085 115.283 4.51895C115.198 4.34949 115.113 4.15179 115.029 3.98232C114.916 3.75638 114.831 3.55867 114.746 3.30448C114.746 3.27623 114.775 3.24799 115.057 3.21975L115.198 3.1915L115.226 3.16326C115.283 3.10677 115.283 3.02204 115.283 2.93731C115.283 2.88082 115.226 2.82434 115.17 2.82434H115.113C114.888 2.85258 114.577 2.85258 114.154 2.85258C113.731 2.85258 113.392 2.85258 113.11 2.82434H113.082H113.054C112.997 2.85258 112.969 2.90907 112.969 2.96555C112.969 3.02204 112.969 3.10677 113.025 3.16326L113.054 3.1915L113.336 3.24799C113.59 3.27623 113.703 3.30448 114.013 3.89759L115.085 5.98762C115.311 6.2983 115.395 6.69371 115.367 7.08912V7.54102C115.367 8.52954 115.339 8.58603 114.888 8.61427L114.577 8.64252L114.549 8.67076C114.493 8.72725 114.493 8.81198 114.493 8.86847C114.493 8.92495 114.521 8.98144 114.577 9.00968H114.605H114.634C115.113 9.00968 115.452 8.98144 115.819 8.98144C116.185 8.98144 116.524 8.98144 117.06 9.00968H117.088C117.145 8.98144 117.173 8.92495 117.173 8.86847C117.201 8.81198 117.173 8.72725 117.116 8.67076L117.088 8.64252L116.721 8.61427C116.298 8.58603 116.242 8.5013 116.242 7.54102V7.06088C116.242 6.38303 116.27 6.32654 116.665 5.62045L117.229 4.63193C117.286 4.5472 117.342 4.46246 117.37 4.37773C117.737 3.75637 117.991 3.30448 118.358 3.24799L118.64 3.1915H118.668V3.16326ZM115.17 14.263C114.267 14.0653 113.336 13.9523 112.405 13.9523C109.132 13.9523 106.959 14.9691 105.52 16.4942C104.223 17.9064 103.546 19.7422 103.574 21.6628C103.546 23.4986 104.279 25.278 105.577 26.5772C107.242 28.2718 109.64 29.0062 112.207 29.0062C113.533 28.9779 114.831 28.7802 116.101 28.4413C116.439 28.3283 116.806 28.2718 117.173 28.2436C117.258 28.1871 117.258 28.0741 117.201 27.9894C116.806 27.8482 116.693 27.3115 116.693 26.436V25.2215C116.693 24.12 116.721 23.4987 117.624 23.3857L117.963 23.3292C118.104 23.1597 118.104 22.9338 117.935 22.7926C117.229 22.849 116.468 22.849 115.621 22.849C114.351 22.849 113.138 22.8208 112.518 22.7926C112.377 22.9338 112.348 23.1597 112.489 23.3009L112.518 23.3292L113.477 23.4422C114.831 23.5834 114.888 23.7246 114.888 25.5604V26.436C114.888 27.1421 114.775 27.5375 114.662 27.6787C114.408 28.0459 113.618 28.3283 112.264 28.3283C107.89 28.3283 105.746 25.052 105.746 20.872C105.746 17.5957 107.608 14.5737 111.812 14.5737C114.041 14.5737 115.649 15.308 116.27 17.6522C116.411 17.7934 116.778 17.7652 116.863 17.5957C116.693 16.5507 116.58 15.5057 116.552 14.4325C116.073 14.4325 115.621 14.376 115.17 14.263ZM111.784 2.68312V2.65487C111.756 2.59839 111.643 2.57014 111.615 2.57014C111.587 2.57014 111.558 2.57014 111.53 2.57014H111.502V2.59839C111.389 2.79609 111.333 2.82434 110.853 2.82434H107.1C106.705 2.82434 106.508 2.79609 106.48 2.59839V2.57014H106.452C106.423 2.5419 106.367 2.5419 106.339 2.5419C106.282 2.5419 106.254 2.5419 106.198 2.57014L106.169 2.59839V2.62663C106.085 3.07853 105.972 3.53043 105.831 3.95408V3.98232V4.01057C105.915 4.12354 106.057 4.15179 106.169 4.0953H106.198V4.06705C106.282 3.84111 106.423 3.6434 106.593 3.47394C106.79 3.27623 107.242 3.27623 107.665 3.27623H108.173C108.37 3.27623 108.37 3.27623 108.37 3.50218V7.56926C108.37 8.55779 108.314 8.58603 107.862 8.64252L107.552 8.67076H107.524C107.467 8.699 107.439 8.78374 107.439 8.84022C107.439 8.89671 107.467 8.98144 107.524 9.00968H107.552C108.116 8.98144 108.455 8.98144 108.793 8.98144C109.16 8.98144 109.442 8.98144 109.978 9.00968H110.007H110.035C110.091 8.98144 110.119 8.89671 110.119 8.84022C110.119 8.78374 110.119 8.699 110.063 8.67076L109.753 8.64252C109.301 8.61427 109.273 8.52954 109.273 7.56926V3.47394C109.273 3.41745 109.273 3.33272 109.301 3.27623C109.358 3.27623 109.414 3.27623 109.47 3.27623H110.119C110.458 3.24799 110.825 3.30448 111.135 3.50218C111.276 3.67164 111.333 3.89759 111.333 4.12354V4.15179L111.361 4.18003C111.389 4.23652 111.474 4.23652 111.53 4.23652C111.615 4.23652 111.671 4.20827 111.728 4.15179V4.12354V4.0953C111.643 3.61516 111.699 3.13502 111.784 2.68312ZM103.546 7.51277V4.26476C103.546 3.27623 103.574 3.21975 104.025 3.16326L104.279 3.13502H104.307C104.364 3.10677 104.392 3.02204 104.364 2.96555C104.364 2.90907 104.336 2.82434 104.279 2.79609H104.251H104.223C103.799 2.79609 103.461 2.82434 103.094 2.82434C102.727 2.82434 102.389 2.82434 101.966 2.79609H101.937C101.853 2.82434 101.853 2.93731 101.853 2.96555C101.853 3.02204 101.853 3.10677 101.909 3.13502H101.937L102.191 3.16326C102.643 3.1915 102.671 3.27623 102.671 4.26476V7.48453C102.671 8.47306 102.643 8.5013 102.191 8.55779L101.937 8.58603H101.909C101.853 8.64252 101.853 8.699 101.853 8.78374C101.853 8.84022 101.881 8.89671 101.937 8.92495H101.966C102.417 8.92495 102.727 8.89671 103.094 8.89671C103.461 8.89671 103.743 8.89671 104.223 8.92495H104.251H104.279C104.336 8.89671 104.364 8.81198 104.364 8.75549C104.364 8.699 104.364 8.64252 104.307 8.61427L104.053 8.58603C103.574 8.52954 103.546 8.5013 103.546 7.51277ZM101.712 28.1024C100.781 27.9894 100.498 27.6787 99.8777 25.7864L96.887 17.0309C96.5484 16.0706 96.2099 15.0821 95.9277 14.1218C95.8713 14.0088 95.7584 13.9241 95.6174 13.9241C95.3352 14.2912 94.9402 14.6019 94.4888 14.7431C94.5452 15.0821 94.4324 15.5057 94.122 16.2965L91.8931 22.1712C90.9903 24.6001 90.3696 26.0123 89.9746 27.0291C89.6642 27.8199 89.1846 28.0459 88.6767 28.1024L87.9714 28.1588C87.8585 28.3283 87.8585 28.5543 88.0278 28.6955C88.6203 28.6672 89.4103 28.639 90.1156 28.639C91.1313 28.6672 91.8085 28.6672 92.3728 28.6955C92.542 28.5825 92.5703 28.3565 92.4574 28.2153C92.4574 28.1871 92.4292 28.1871 92.401 28.1588L91.6956 28.1024C91.1878 28.0459 91.0749 27.9329 91.0749 27.6787C91.1596 27.0573 91.3288 26.4642 91.5546 25.8711L92.3163 23.5834C92.4574 23.1315 92.5985 23.075 93.1345 23.075H96.4074C97.0563 23.075 97.1409 23.1315 97.3102 23.6116L98.2695 26.5772C98.4106 26.9444 98.5234 27.3398 98.5516 27.7352C98.5516 27.9611 98.2413 28.0741 97.7899 28.1306L97.1691 28.1871C97.0281 28.3283 97.0281 28.5543 97.1691 28.6955L97.1974 28.7237C97.8181 28.6955 98.6645 28.6672 99.7084 28.6672C100.696 28.6672 101.458 28.6955 102.332 28.7237C102.473 28.5543 102.473 28.3283 102.332 28.1871L101.712 28.1024ZM96.097 22.1712H93.4167C92.796 22.1712 92.796 22.143 92.9653 21.6628L94.3477 17.8782C94.4888 17.4545 94.6863 17.0026 94.8556 16.6072H94.912C95.1095 17.0591 95.2788 17.511 95.4199 17.9629L96.6049 21.5216C96.7741 22.0865 96.7177 22.1712 96.097 22.1712ZM97.3102 4.03881C97.3102 3.69989 97.4513 3.10677 98.3259 3.10677C99.1159 3.10677 99.3698 3.61516 99.4827 4.06705L99.5109 4.0953C99.5391 4.12354 99.5956 4.15179 99.652 4.15179C99.7366 4.15179 99.793 4.12354 99.8495 4.06705V4.03881V4.01057C99.8495 3.61516 99.793 3.24799 99.6802 2.88082L99.652 2.82434H99.6238C99.5109 2.82434 99.4263 2.79609 99.3134 2.76785C99.0313 2.68312 98.7491 2.65487 98.467 2.65487C97.3102 2.65487 96.5484 3.30448 96.5484 4.293C96.5484 5.11207 97.1691 5.67694 97.5641 5.90289L98.4388 6.46776C98.8902 6.69371 99.1723 7.17385 99.1723 7.68224C99.1723 8.21886 98.7491 8.67076 98.2413 8.67076C98.1849 8.67076 98.1566 8.67076 98.1002 8.67076C97.1691 8.67076 96.7741 7.96467 96.6049 7.37156V7.34331C96.5766 7.28682 96.5202 7.28682 96.4638 7.28682C96.3791 7.28682 96.3227 7.31507 96.2663 7.37156V7.3998V7.42804C96.2945 7.87994 96.3792 8.30359 96.5202 8.72725V8.75549H96.5484C96.9999 8.98144 97.4795 9.12266 97.9873 9.09442C99.1723 9.09442 99.9905 8.38832 99.9905 7.34331C99.9905 6.60898 99.5955 6.04411 98.8338 5.53572L98.1002 5.08382C97.7899 4.91436 97.3102 4.57544 97.3102 4.03881ZM95.0249 8.98144C95.0813 8.9532 95.0813 8.89671 95.0813 8.84022C95.0813 8.78374 95.0531 8.75549 94.9967 8.72725H94.9685C94.7427 8.699 94.5452 8.64252 94.376 8.5013C93.7552 7.99291 93.2474 7.20209 92.5703 6.10059C92.542 6.07235 92.5138 6.01586 92.5138 5.95938C92.8242 5.8464 93.6706 5.3945 93.6706 4.40598C93.6988 3.84111 93.3885 3.33272 92.8806 3.07853C92.401 2.85258 91.8649 2.76785 91.3288 2.79609C90.5106 2.79609 89.8617 2.82434 89.2974 2.88082H89.2692C89.2128 2.90907 89.1846 2.96555 89.1846 3.05028C89.1846 3.13502 89.2128 3.1915 89.2692 3.24799H89.2974L89.6078 3.27623C89.8899 3.30448 89.9463 3.38921 89.9463 4.26476V7.54102C89.9463 8.5013 89.9181 8.55779 89.4667 8.61427L89.2128 8.64252L89.1846 8.67076C89.1281 8.72725 89.1281 8.81198 89.1281 8.86847C89.1281 8.92495 89.1564 8.9532 89.2128 8.98144H89.241H89.2692C89.6642 8.98144 90.0028 8.9532 90.3978 8.9532C90.7928 8.9532 91.0749 8.9532 91.4699 8.98144H91.4981H91.5263C91.5828 8.9532 91.611 8.89671 91.611 8.81198C91.611 8.75549 91.611 8.67076 91.5546 8.61427L91.3571 8.58603C90.9056 8.52954 90.8774 8.47306 90.8774 7.51277V6.35479C90.8774 6.21357 90.8774 6.21357 91.2442 6.21357C91.611 6.21357 91.6956 6.2983 91.8367 6.46776C91.9495 6.63722 92.147 6.91966 92.2881 7.17385C92.4292 7.42804 92.5985 7.68223 92.7113 7.8517C93.332 8.72725 93.8117 9.03793 94.6581 9.03793C94.771 9.06617 94.912 9.03793 95.0249 8.98144ZM92.2881 5.62045C92.0342 5.78991 91.7238 5.87464 91.3853 5.8464C91.1878 5.8464 90.9903 5.8464 90.821 5.81816C90.821 5.73343 90.821 5.6487 90.821 5.56397V3.4457C90.821 3.24799 90.821 3.21975 91.3288 3.21975C92.0342 3.13502 92.6549 3.6434 92.7113 4.34949C92.7113 4.40598 92.7113 4.49071 92.7113 4.5472C92.796 4.94261 92.6267 5.33802 92.2881 5.62045ZM87.6046 7.65399V7.62575C87.5764 7.54102 87.4917 7.48453 87.3789 7.51277C87.3507 7.51277 87.2942 7.51277 87.266 7.54102L87.2378 7.56926C87.0967 7.90818 86.8992 8.19062 86.6171 8.41657C86.4196 8.5013 86.1375 8.55779 85.4885 8.55779C84.7268 8.55779 84.5575 8.47306 84.4446 8.36008C84.3318 8.24711 84.3035 7.93643 84.3035 7.45629V6.18532C84.3035 6.01586 84.3035 6.01586 84.5293 6.01586H85.0653C85.291 6.01586 85.5167 6.01586 85.7425 6.07235C85.8553 6.10059 85.94 6.18532 85.9682 6.35479L86.0528 6.72195V6.7502C86.1092 6.80668 86.1657 6.80668 86.2221 6.80668C86.2785 6.80668 86.3632 6.77844 86.3914 6.72195V6.69371C86.3914 6.60898 86.3914 6.496 86.3914 6.35479C86.3914 6.21357 86.3632 5.98762 86.3632 5.81816C86.3632 5.6487 86.3632 5.42275 86.3914 5.25329C86.4196 5.08382 86.3914 4.99909 86.3914 4.88612V4.85788C86.3632 4.80139 86.2785 4.77314 86.2221 4.77314C86.1657 4.77314 86.1092 4.80139 86.0528 4.82963L85.9682 5.22504C85.94 5.42275 85.8835 5.45099 85.7989 5.47923C85.545 5.53572 85.291 5.53572 85.0653 5.53572H84.5293C84.3035 5.53572 84.3035 5.53572 84.3035 5.33802V3.53043C84.3035 3.24799 84.3035 3.24799 84.501 3.24799H85.15C85.4321 3.24799 85.7142 3.24799 86.0246 3.30448C86.4478 3.41745 86.5325 3.67164 86.6453 4.06705V4.12354L86.6735 4.15179C86.7017 4.18003 86.7582 4.20827 86.8146 4.20827C86.8992 4.20827 86.9557 4.18003 87.0121 4.12354V4.0953V3.95408C86.9839 3.58691 86.9557 3.21975 86.871 2.85258L86.8428 2.79609L86.7864 2.82434C86.6735 2.85258 86.1375 2.85258 85.5732 2.85258H83.9085C83.57 2.85258 83.2596 2.85258 82.8364 2.82434H82.8082H82.78C82.6953 2.85258 82.6953 2.96555 82.6953 2.9938C82.6953 3.05029 82.6953 3.13502 82.7518 3.16326L82.9211 3.1915C83.3725 3.24799 83.4007 3.30448 83.4007 4.26476V7.51277C83.4007 8.5013 83.3443 8.52954 82.8928 8.58603L82.5825 8.61427L82.5543 8.64252C82.4979 8.699 82.4978 8.75549 82.4978 8.84022C82.4978 8.89671 82.5261 8.9532 82.5825 8.98144H82.6107H82.6389C83.175 8.9532 83.4853 8.9532 83.8803 8.9532H84.6985C85.4885 8.9532 86.2785 8.9532 87.1249 8.98144H87.1814L87.2096 8.9532C87.4071 8.52954 87.5482 8.07765 87.6046 7.65399ZM81.3975 3.13502C81.4539 3.07853 81.4539 3.02204 81.4539 2.93731C81.4539 2.88082 81.4257 2.82434 81.3693 2.79609H81.3411H81.3129C81.0025 2.82434 80.7204 2.82434 80.4382 2.82434C80.0714 2.82434 79.7329 2.82434 79.5072 2.79609H79.479H79.4507C79.3943 2.82434 79.3661 2.88082 79.3661 2.96555C79.3661 3.02204 79.3943 3.10677 79.4225 3.13502H79.4507L79.62 3.16326C79.9304 3.1915 79.9586 3.27623 79.9586 3.27623C79.9586 3.38921 79.9586 3.53043 79.9022 3.6434C79.7329 4.03881 79.3097 5.08382 79.0557 5.67694L78.8018 6.24181C78.6325 6.63722 78.4068 7.14561 78.2375 7.54102C77.8143 6.55249 77.4193 5.56397 77.0243 4.5472C76.855 4.15179 76.714 3.72813 76.5729 3.30448C76.6011 3.27623 76.6575 3.24799 76.9397 3.1915L77.109 3.16326H77.1372C77.1936 3.10677 77.2218 3.05029 77.1936 2.9938C77.1936 2.93731 77.1654 2.88082 77.109 2.82434H77.0808H77.0525C76.6575 2.85258 76.3472 2.85258 75.9522 2.85258C75.5854 2.85258 75.2751 2.85258 75.0211 2.82434H75.0493H75.0211C74.9647 2.85258 74.9365 2.93731 74.9365 2.9938C74.9365 3.05029 74.9647 3.13502 74.9929 3.16326H75.0211L75.2186 3.1915C75.5854 3.21975 75.6983 3.38921 75.8958 3.89759L77.4758 7.82345C77.645 8.21886 77.7861 8.61427 77.899 9.00968V9.03793H77.9272C77.9836 9.06617 78.04 9.06617 78.0965 9.06617C78.1529 9.06617 78.1811 9.06617 78.2375 9.03793H78.2657V9.00968C78.4068 8.52954 78.8582 7.45629 79.1968 6.63722L79.6764 5.50748C79.9868 4.80139 80.3254 4.0953 80.6922 3.4457C80.7768 3.27623 80.9179 3.16326 81.1154 3.16326L81.3975 3.13502ZM75.5008 15.7599C73.7515 17.1438 72.7358 19.2904 72.764 21.5216C72.7076 23.9223 73.8644 26.1818 75.8393 27.5092C77.4193 28.5825 79.3097 28.9779 81.2564 28.9779C82.4132 28.9779 83.57 28.8084 84.6985 28.4695C84.9525 28.3848 85.2064 28.3001 85.4603 28.2436C85.7989 27.8199 86.3632 26.3795 86.5042 25.2498C86.3632 25.0803 86.1375 25.052 85.94 25.165C85.4321 26.436 84.1907 28.3001 81.3975 28.3001C77.8425 28.3001 74.9365 25.7864 74.9365 21.2109C74.9365 16.7202 77.7579 14.6019 81.0871 14.6019C84.2471 14.6019 85.2064 16.2965 85.545 17.7934C85.7143 17.9347 85.9682 17.9064 86.1375 17.737C85.9682 16.4095 85.8553 15.0256 85.8271 14.5454C85.6296 14.5454 85.4039 14.5172 85.2346 14.4607C83.965 14.15 82.6953 13.9523 81.3975 13.9241C79.1122 13.9241 77.0808 14.5454 75.5008 15.7599ZM72.7358 7.51277V4.26476C72.7358 3.27623 72.764 3.21975 73.2154 3.16326L73.4694 3.13502H73.4976C73.554 3.07853 73.5822 3.02204 73.554 2.96555C73.554 2.93731 73.554 2.82434 73.4694 2.79609H73.4411H73.4129C72.9897 2.79609 72.6512 2.82434 72.2844 2.82434C71.9176 2.82434 71.579 2.82434 71.1558 2.79609H71.1276H71.0994C71.0147 2.82434 71.0147 2.93731 71.0147 2.96555C71.0147 3.02204 71.0147 3.10677 71.0712 3.13502H71.0994L71.3533 3.16326C71.8047 3.1915 71.8329 3.27623 71.8329 4.26476V7.48453C71.8329 8.47306 71.8047 8.5013 71.3533 8.55779L71.0994 8.58603H71.0712C71.0147 8.64252 71.0147 8.72725 71.0147 8.78374C71.0147 8.84022 71.043 8.89671 71.0994 8.92495H71.1276H71.1558C71.6072 8.92495 71.9176 8.89671 72.2844 8.89671C72.6512 8.89671 72.9615 8.89671 73.4129 8.92495H73.4411H73.4694C73.554 8.89671 73.554 8.78374 73.554 8.75549C73.554 8.699 73.5258 8.61427 73.4976 8.58603L73.2436 8.55779C72.7358 8.52954 72.7358 8.47306 72.7358 7.51277ZM68.1651 25.3345V17.5675C68.1651 15.2515 68.2216 14.8844 69.4912 14.7714L70.0272 14.7149C70.1683 14.6302 70.1119 14.2348 69.9708 14.1783C68.8705 14.2348 68.1369 14.2348 67.2623 14.2348C66.3876 14.2348 65.5976 14.2065 64.5255 14.1783C64.3844 14.2348 64.3562 14.6302 64.4691 14.7149L65.0051 14.7714C66.2748 14.8844 66.3312 15.2515 66.3312 17.5675V25.3062C66.3312 27.6222 66.2748 27.9047 65.0051 28.0741L64.4691 28.1306C64.3562 28.3001 64.3562 28.526 64.5255 28.6672C65.6259 28.6107 66.3594 28.6107 67.2623 28.6107C68.1651 28.6107 68.8705 28.639 69.9708 28.6672C70.1119 28.6107 70.1401 28.2153 70.0272 28.1306L69.4912 28.0741C68.2216 27.9329 68.1651 27.6222 68.1651 25.3345ZM69.2937 3.13502C69.3501 3.07853 69.3501 3.02204 69.3501 2.93731C69.3501 2.88082 69.3219 2.82434 69.2655 2.79609H69.2373H69.209C68.8987 2.82434 68.673 2.82434 68.278 2.82434C67.9676 2.82434 67.6573 2.82434 67.2058 2.79609H67.1776C67.1212 2.82434 67.093 2.88082 67.0648 2.93731C67.0366 3.02204 67.0648 3.07853 67.1212 3.13502H67.1494L67.3187 3.16326C67.6291 3.1915 67.7983 3.24799 67.8266 3.30448C67.9394 3.47394 67.9958 4.15179 67.9958 5.14031V7.08912C67.9958 7.17385 67.9958 7.28682 67.9958 7.34331C67.6855 7.03263 67.3469 6.63722 66.9519 6.18532L65.7105 4.77314C64.8077 3.75637 64.2998 3.10677 64.1869 2.79609L64.1587 2.73961H64.1023C63.9612 2.76785 63.8202 2.76785 63.7073 2.76785C63.538 2.76785 63.0584 2.76785 62.6916 2.73961H62.6634H62.6352C62.5787 2.76785 62.5505 2.82434 62.5505 2.88082C62.5505 2.96555 62.5505 3.02204 62.607 3.07853L62.6352 3.10677L62.8045 3.13502C63.002 3.13502 63.1712 3.21975 63.3123 3.33272C63.4534 3.50218 63.5098 3.72813 63.4816 3.92584V6.63722C63.4816 7.06088 63.4816 8.10589 63.3687 8.38833C63.3405 8.44481 63.2841 8.5013 63.0302 8.52954L62.748 8.55779L62.7198 8.61427C62.6916 8.67076 62.6634 8.72725 62.6634 8.78374C62.6634 8.84022 62.6916 8.89671 62.748 8.9532H62.7762H62.8045C63.1148 8.9532 63.3687 8.92495 63.7355 8.92495C64.0459 8.92495 64.3562 8.92495 64.7794 8.9532H64.8077H64.8359C64.8923 8.92495 64.9205 8.86847 64.9205 8.81198C64.9205 8.75549 64.9205 8.67076 64.8641 8.61427L64.8359 8.58603L64.5255 8.55779C64.2998 8.52954 64.1587 8.5013 64.1305 8.41657C64.0459 8.24711 63.9894 7.56926 63.9894 6.58073V4.60368C63.9894 4.46246 63.9894 4.293 64.0177 4.15179C64.1587 4.32125 64.4127 4.60368 64.6102 4.85788L64.9769 5.30977L67.093 7.68224C67.7983 8.47306 68.1369 8.86847 68.2498 9.03793L68.278 9.06617H68.3062C68.4191 9.06617 68.5037 9.00968 68.5319 8.92495V8.89671C68.5319 8.78374 68.5037 8.44481 68.5037 7.31507V5.02734C68.5037 4.57544 68.5037 3.58691 68.6448 3.30448C68.6448 3.27623 68.7576 3.1915 69.0962 3.16326L69.2373 3.13502H69.2937ZM61.168 3.13502C61.2245 3.07853 61.2245 3.02204 61.2245 2.93731C61.2245 2.88082 61.1963 2.82434 61.1398 2.79609H61.1116H61.0834C60.773 2.82434 60.5191 2.82434 60.1523 2.82434C59.7856 2.82434 59.4752 2.82434 59.1366 2.79609H59.1084H59.0802C59.0238 2.82434 58.9956 2.88082 58.9956 2.93731C58.9956 2.9938 58.9956 3.07853 59.052 3.10677L59.0802 3.13502L59.3341 3.16326C59.5316 3.1915 59.6727 3.24799 59.7291 3.33272C59.842 3.53043 59.8984 4.18003 59.8984 5.16855V6.21357C59.8984 7.28682 59.5881 8.55779 58.1491 8.55779C56.9359 8.55779 56.3717 7.82345 56.3717 6.21357V4.26476C56.3717 3.30448 56.3999 3.21975 56.8513 3.1915L57.077 3.16326H57.1052C57.1616 3.13502 57.1899 3.05029 57.1617 2.9938C57.1617 2.93731 57.1334 2.85258 57.077 2.82434H57.0488H57.0206C56.5974 2.85258 56.287 2.85258 55.9202 2.85258C55.5535 2.85258 55.2149 2.85258 54.7917 2.82434H54.7635H54.7352C54.6788 2.85258 54.6506 2.93731 54.6506 2.9938C54.6506 3.05029 54.6506 3.10677 54.707 3.16326H54.7352L54.9892 3.1915C55.4406 3.21975 55.4688 3.30448 55.4688 4.26476V6.41127C55.4688 7.51277 55.6945 8.19062 56.2024 8.58603C56.7102 8.9532 57.3309 9.1509 57.9516 9.09442C58.6006 9.12266 59.2495 8.86847 59.7291 8.41657C60.1523 7.93643 60.3781 7.23034 60.3781 6.21357V5.1968C60.3781 4.7449 60.378 3.67164 60.4909 3.36096C60.5755 3.24799 60.7448 3.1915 60.8859 3.1915L61.168 3.13502ZM50.7571 14.7431C50.8981 14.6584 50.8417 14.263 50.7006 14.2065C49.7696 14.263 49.036 14.263 48.1896 14.263C47.2585 14.263 46.525 14.2065 45.4528 14.2065C45.3118 14.263 45.2835 14.6584 45.3964 14.7431L45.9607 14.7996C47.0892 14.8844 47.2303 15.2515 47.2303 17.5393V25.3627C47.2303 27.6505 47.1739 27.8764 45.9889 28.0741L45.6221 28.1306C45.5093 28.3001 45.5093 28.526 45.6785 28.6672C46.525 28.639 47.2585 28.6107 48.1896 28.6107C49.036 28.6107 49.7696 28.639 50.9546 28.6672C51.0956 28.6107 51.1238 28.2153 51.011 28.1306L50.3903 28.0741C49.1771 27.9329 49.0642 27.6505 49.0642 25.3627V22.3124C49.0642 21.6628 49.1207 21.6063 50.1646 21.6063H56.3717C57.4156 21.6063 57.472 21.6628 57.472 22.3124V25.391C57.472 27.6787 57.472 27.9047 56.1459 28.1024L55.7227 28.1588C55.6099 28.3283 55.6099 28.5543 55.751 28.6955C56.7102 28.639 57.5002 28.639 58.3749 28.639C59.2777 28.639 59.9548 28.6672 60.9988 28.6955C61.1398 28.639 61.168 28.2436 61.0552 28.1588L60.5473 28.1024C59.3059 27.9611 59.2495 27.6787 59.2495 25.391V17.5393C59.2495 15.2515 59.3059 14.9408 60.5473 14.7996L60.9988 14.7431C61.1398 14.6584 61.0834 14.263 60.9705 14.2065C59.9831 14.263 59.2495 14.263 58.4031 14.263C57.5566 14.263 56.7667 14.2348 55.7792 14.2065C55.6381 14.263 55.6099 14.6584 55.751 14.7431L56.1742 14.7996C57.4438 14.9408 57.5002 15.2515 57.5002 17.5393V20.0529C57.5002 20.7308 57.4438 20.759 56.3999 20.759H50.1646C49.1207 20.759 49.0642 20.7308 49.0642 20.0529V17.5393C49.0642 15.2515 49.1207 14.9408 50.3621 14.7996L50.7571 14.7431ZM49.8824 7.65399V7.62575C49.826 7.54102 49.7696 7.48453 49.6567 7.51277C49.6285 7.51277 49.5721 7.51277 49.5439 7.54102L49.5156 7.56926C49.3746 7.90818 49.1771 8.19062 48.8949 8.41657C48.6974 8.5013 48.4153 8.55779 47.7664 8.55779C47.0046 8.55779 46.8353 8.47306 46.7225 8.36008C46.6096 8.27535 46.5814 7.93643 46.5814 7.45629V6.18532C46.5814 6.01586 46.5814 6.01586 46.8071 6.01586H47.3432C47.5689 6.01586 47.7946 6.01586 48.0203 6.07235C48.1614 6.10059 48.2178 6.18532 48.246 6.35479L48.3307 6.72195L48.3589 6.7502C48.4153 6.80668 48.4717 6.80668 48.5282 6.80668C48.6128 6.80668 48.6692 6.77844 48.6974 6.72195V6.69371C48.6974 6.60898 48.6974 6.496 48.6692 6.35479C48.641 6.21357 48.641 5.98762 48.641 5.81816C48.641 5.6487 48.641 5.42275 48.6692 5.25329C48.6974 5.08382 48.6974 4.99909 48.6974 4.88612V4.85788C48.6692 4.80139 48.5846 4.77314 48.5282 4.77314C48.4717 4.77314 48.4153 4.80139 48.3589 4.82963L48.2742 5.22504C48.246 5.42275 48.1896 5.45099 48.1049 5.47923C47.851 5.53572 47.5971 5.53572 47.3432 5.53572H46.8353C46.6096 5.53572 46.6096 5.53572 46.6096 5.33802V3.53043C46.6096 3.24799 46.6096 3.24799 46.8071 3.24799H47.456C47.7382 3.24799 48.0203 3.24799 48.3307 3.30448C48.7539 3.41745 48.8385 3.67164 48.9514 4.06705L48.9796 4.12354V4.15179C49.0078 4.18003 49.0642 4.20827 49.1207 4.20827C49.2053 4.20827 49.2617 4.18003 49.3182 4.12354V4.0953V3.95408C49.2899 3.58691 49.2617 3.21975 49.1771 2.85258L49.1489 2.79609L49.0924 2.82434C48.9796 2.85258 48.4435 2.85258 47.8792 2.85258H46.1864C45.8478 2.85258 45.5375 2.85258 45.1143 2.82434H45.086H45.0578C45.0014 2.85258 44.9732 2.93731 44.9732 2.9938C44.9732 3.05029 44.9732 3.13502 45.0296 3.16326L45.1989 3.1915C45.6503 3.24799 45.6785 3.30448 45.6785 4.26476V7.51277C45.6785 8.5013 45.6221 8.52954 45.1707 8.58603L44.8603 8.61427L44.8321 8.64252C44.7757 8.699 44.7757 8.78374 44.7757 8.84022C44.7757 8.89671 44.8039 8.9532 44.8603 8.98144H44.8886C45.4246 8.9532 45.735 8.9532 46.13 8.9532H46.9482C47.7382 8.9532 48.5282 8.9532 49.3746 8.98144H49.431L49.4592 8.9532C49.6285 8.52954 49.7696 8.07765 49.8824 7.65399ZM42.3211 7.51277V4.26476C42.3211 3.30448 42.3493 3.24799 42.8007 3.1915L42.9982 3.16326H43.0264C43.0829 3.13502 43.1111 3.05029 43.0829 2.9938C43.0829 2.96555 43.0546 2.85258 42.9982 2.82434H42.97C42.5468 2.85258 42.2364 2.85258 41.8979 2.85258C41.5029 2.85258 41.1925 2.85258 40.7975 2.82434H40.7693H40.7411C40.6847 2.85258 40.6564 2.93731 40.6564 2.9938C40.6564 3.05029 40.6564 3.13502 40.7129 3.16326L40.9104 3.1915C41.3618 3.24799 41.39 3.30448 41.39 4.26476V5.30977C41.39 5.53572 41.39 5.53572 40.995 5.53572H38.3993C38.0043 5.53572 38.0043 5.53572 38.0043 5.30977V4.26476C38.0043 3.30448 38.0325 3.24799 38.484 3.1915L38.6532 3.16326H38.6815C38.7379 3.13502 38.7661 3.05029 38.7379 2.9938C38.7379 2.93731 38.7097 2.85258 38.6532 2.82434H38.625C38.2018 2.85258 37.9197 2.85258 37.5811 2.85258C37.3554 2.85258 37.1297 2.85258 36.904 2.85258H36.4243H36.3961C36.3115 2.88082 36.3115 2.9938 36.3115 3.02204C36.3115 3.07853 36.3115 3.16326 36.3679 3.1915H36.3961L36.6501 3.21975C37.045 3.24799 37.1297 3.33272 37.1297 4.293V7.54102C37.1297 8.47306 37.1297 8.52954 36.6501 8.61427L36.4243 8.67076C36.3679 8.72725 36.3679 8.81198 36.3679 8.86847C36.3679 8.92495 36.3961 8.98144 36.4526 9.00968H36.4808H36.8476C37.0733 9.00968 37.2708 9.00968 37.5247 9.00968C37.8633 9.00968 38.1454 9.00968 38.6815 9.03793H38.7097H38.7379C38.7943 9.00968 38.8225 8.92495 38.8225 8.86847C38.8225 8.81198 38.8225 8.72725 38.7661 8.699L38.484 8.67076C38.0608 8.61427 38.0043 8.58603 38.0043 7.5975V6.32654C38.0043 6.10059 38.0043 6.10059 38.3993 6.10059H40.995C41.39 6.10059 41.39 6.10059 41.39 6.32654V7.5975C41.39 8.55779 41.39 8.58603 40.9104 8.67076L40.7129 8.699H40.6847C40.6282 8.75549 40.6282 8.84022 40.6282 8.89671C40.6282 8.9532 40.6564 9.00968 40.7129 9.03793H40.7411H40.7693C41.1925 9.00968 41.5029 9.00968 41.8696 9.00968C42.2082 9.00968 42.5468 9.00968 42.97 9.03793H42.9982C43.0546 9.00968 43.0829 8.92495 43.0829 8.86847C43.0829 8.81198 43.0829 8.72725 43.0264 8.699L42.7725 8.67076C42.3211 8.52954 42.2929 8.47306 42.3211 7.51277ZM34.8726 2.68312V2.65487C34.8444 2.59839 34.7315 2.57014 34.7033 2.57014C34.6751 2.57014 34.6469 2.57014 34.6186 2.57014H34.5904V2.59839C34.4776 2.79609 34.4211 2.82434 33.9415 2.82434H30.189C29.794 2.82434 29.5965 2.79609 29.5683 2.59839V2.57014H29.5401C29.5119 2.5419 29.4555 2.5419 29.4273 2.5419C29.3708 2.5419 29.3426 2.5419 29.2862 2.57014L29.258 2.59839V2.62663C29.1733 3.07853 29.0605 3.53043 28.8912 3.95408V3.98232V4.01057C28.9758 4.12354 29.1169 4.15179 29.2298 4.0953H29.258V4.06705C29.3426 3.84111 29.4837 3.61516 29.6812 3.4457C29.8787 3.24799 30.3301 3.24799 30.7533 3.24799H31.233C31.4305 3.24799 31.4305 3.24799 31.4305 3.47394V7.54102C31.4305 8.52954 31.374 8.55779 30.9226 8.61427L30.584 8.64252H30.5558C30.4712 8.72725 30.443 8.86847 30.5276 8.9532L30.5558 8.98144H30.584C31.1483 8.9532 31.4869 8.9532 31.8255 8.9532C32.1922 8.9532 32.4744 8.9532 33.0104 8.98144H33.0387H33.0669C33.1233 8.9532 33.1515 8.86847 33.1515 8.81198C33.1515 8.75549 33.1233 8.699 33.0951 8.64252L32.7847 8.61427C32.3333 8.58603 32.3051 8.5013 32.3051 7.54102V3.47394C32.3051 3.41745 32.3051 3.33272 32.3051 3.27623C32.3615 3.27623 32.4179 3.27623 32.4744 3.27623H33.1233C33.4619 3.24799 33.8286 3.30448 34.139 3.50218C34.2801 3.67164 34.3365 3.89759 34.3365 4.12354V4.15179V4.18003C34.3929 4.23652 34.4494 4.23652 34.5058 4.23652C34.5904 4.23652 34.6469 4.20827 34.7033 4.15179V4.12354V4.0953C34.7033 3.6434 34.7315 3.1915 34.8444 2.73961L34.8726 2.68312ZM28.6937 21.5498C28.6373 23.9505 29.794 26.21 31.769 27.5375C33.349 28.6107 35.2394 29.0062 37.1861 29.0062C38.3429 29.0062 39.4997 28.8367 40.6282 28.4978C40.8822 28.413 41.1361 28.3283 41.39 28.2718C41.7004 27.8482 42.2929 26.4077 42.4339 25.278C42.2929 25.1085 42.0671 25.0803 41.8696 25.1933C41.3618 26.4642 40.1204 28.3283 37.3272 28.3283C33.7722 28.3283 30.8662 25.8146 30.8662 21.2392C30.8662 16.7484 33.6876 14.6302 37.0168 14.6302C40.1768 14.6302 41.1361 16.3248 41.4747 17.8217C41.6439 17.9629 41.8979 17.9347 42.0671 17.7652C41.8979 16.4378 41.785 15.0538 41.7568 14.5737C41.5593 14.5737 41.3336 14.5454 41.1643 14.4889C39.8947 14.1783 38.625 13.9806 37.3272 13.9523C35.0701 13.9523 33.0387 14.5737 31.4587 15.8164C29.6812 17.1721 28.6655 19.3186 28.6937 21.5498ZM23.0509 17.8782V2.68312C10.8624 1.52513 1.69287 2.68312 1.69287 2.68312V17.8499C2.65215 28.1306 12.2731 29.3451 12.3578 29.3168C14.0788 29.0062 22.148 27.3963 23.0509 17.8782ZM5.13498 21.6628C5.33248 21.7758 5.52998 21.8605 5.75569 21.9453C6.00962 22.6231 5.75569 23.3009 5.61462 23.0185C5.38891 22.5666 5.21962 22.1147 5.13498 21.6628ZM5.13498 14.2065C5.10677 14.2065 3.78071 15.0538 2.90607 14.6302C3.555 14.263 5.78391 12.8508 6.40461 12.4554C6.5739 12.5119 6.7714 12.4554 6.91247 12.3424C6.68675 12.3424 5.89676 12.4836 6.29176 11.7776C6.43283 12.3989 7.53318 11.834 7.92817 11.7493C9.0003 11.4951 9.0003 12.6531 8.91566 13.1332C8.88745 13.3027 9.25423 13.4439 9.42352 13.4157C9.11316 14.1783 8.57709 13.4722 8.52067 13.7546C8.49245 13.8676 8.12567 13.9806 8.12567 14.263C8.12567 14.6584 8.29495 14.4325 8.29495 14.7431C8.32317 15.0538 8.15388 14.7996 8.21031 15.1385C8.26674 15.6469 9.11316 15.0821 9.45173 15.2233C9.62101 15.308 9.76208 15.4492 9.93137 15.421C9.9878 15.3645 9.95958 15.1668 9.95958 15.1103C9.93137 14.9408 9.64923 14.9126 9.50816 14.7149C9.36709 14.4889 9.64923 13.9241 9.7903 13.7546C9.9878 14.7431 10.9189 14.4325 11.0317 15.4492C11.1164 15.7317 10.7214 16.0706 11.0317 16.5225C10.7778 16.7484 10.4956 17.8782 11.0035 18.3866C10.8342 18.782 10.9471 19.2056 11.2574 19.4881C11.1164 19.8552 11.1164 20.2506 11.2574 20.6178C10.9753 20.6178 11.0317 19.0644 9.36709 19.0079C9.33887 19.0079 9.31066 19.1774 9.36709 19.2621C9.56459 19.6293 9.84673 19.601 9.7903 20.4201C9.76208 20.7025 9.5928 20.3636 9.50816 20.2789C9.25423 20.1094 9.11316 19.7987 9.11316 19.4881C8.63352 19.827 8.40781 20.4201 8.54888 20.985C8.54888 20.985 8.40781 20.5896 8.23853 20.1659C8.23853 20.1377 8.91566 19.2904 9.02852 19.0926C10.4392 16.5507 8.12567 19.9117 8.09746 19.9117C8.01281 19.6858 7.89996 19.4881 7.7871 19.2904C8.01281 19.0362 8.21031 18.7537 8.3796 18.443C9.47994 16.1553 7.73067 19.2056 7.67425 19.1491C7.53318 19.0362 7.42032 18.8667 7.36389 18.9232C7.33568 19.2621 7.25103 19.2339 7.27925 19.5728C7.02532 19.8835 6.74318 20.1659 6.43283 20.3919C6.43283 20.3919 6.3764 19.7705 6.3764 19.7423C6.51747 19.5728 7.05354 19.0079 7.16639 18.8385C8.94388 16.0141 6.31997 19.5163 6.31997 19.4881C6.26354 19.3186 6.15069 19.1491 6.00962 19.0362C6.26354 18.6972 6.51747 18.3301 6.74318 17.9629C7.84353 15.7317 5.86855 18.9514 5.84033 18.9514C5.81212 18.9232 5.78391 18.9232 5.72748 18.8949C5.72748 18.556 5.78391 18.2171 5.86855 17.8782C6.00962 17.1438 5.61462 17.737 5.50176 18.9232C5.36069 18.9232 5.19141 18.9797 5.05034 19.0644C5.10677 19.3751 5.19141 19.1491 5.33248 19.4316C5.50176 19.7987 5.10677 20.3919 5.44534 20.8155C5.55819 20.985 5.58641 20.9567 5.55819 21.0697C5.3607 21.0697 5.24784 21.0415 5.10677 21.2392C4.88106 20.3071 4.82463 19.3468 4.93748 18.4148C4.9657 17.8782 5.13498 17.0874 5.05034 17.0874C4.9657 17.0874 3.80892 20.1377 3.49857 20.7308C2.99072 20.5613 3.80892 17.9064 4.85284 16.6355C4.93748 16.24 4.31678 17.0309 3.92178 17.3698C3.52678 17.7087 3.13179 18.0476 2.65215 17.9347C3.27286 17.2851 4.68356 16.0706 4.82463 15.7599C4.9657 15.4492 3.86535 16.579 2.70858 16.1836C3.38571 15.7034 5.10677 14.8279 5.13498 14.2065ZM7.22282 19.9682C7.19461 20.2224 7.22282 20.4766 7.27925 20.7308C7.42032 21.1544 7.33568 21.0415 7.16639 20.872C7.02532 20.7308 6.91247 20.5896 6.82782 20.3919C6.79961 20.2789 6.91247 20.2506 7.22282 19.9682ZM10.016 13.0485C9.84673 12.7661 10.2135 12.4836 10.2135 12.4836C10.2135 13.3027 11.2574 12.7378 11.7653 12.992C11.9063 13.0485 11.991 13.1615 12.0474 13.3027C11.4831 12.9073 10.411 13.7264 10.016 13.0485ZM3.92178 6.55249C2.99072 6.55249 3.01893 5.16855 3.92178 5.16855C4.31678 5.1968 4.59892 5.53572 4.5707 5.90289C4.54249 6.24181 4.26035 6.52425 3.92178 6.55249ZM3.92178 9.34861C3.52678 9.34861 3.21643 9.03793 3.21643 8.64252C3.21643 8.24711 3.52678 7.93643 3.92178 7.93643C4.31678 7.93643 4.62713 8.24711 4.62713 8.64252C4.62713 9.03793 4.31678 9.34861 3.92178 9.34861ZM5.67105 6.32654H4.85284V5.53572H5.67105V6.32654ZM5.67105 9.09442H4.85284V8.30359H5.67105V9.09442ZM12.2167 10.4784C11.6524 10.1959 11.0317 9.99821 10.3828 9.94172C9.42351 9.88524 7.47675 10.6478 5.9814 10.5348V3.98232C5.9814 3.98232 7.67425 4.20827 8.3796 3.92584C10.7496 2.9938 12.2167 4.03881 12.2167 4.03881V10.4784ZM13.8531 11.5516C13.8813 11.6928 13.7967 11.834 13.6556 11.8623C13.8813 11.947 14.1353 11.834 14.2481 11.6081C14.3892 12.173 13.8249 12.2012 13.6274 12.2295C13.6274 12.2295 13.9095 12.3142 13.9378 12.5119C13.966 12.992 14.2763 12.9638 14.361 12.9073C14.361 12.9638 14.2481 13.2462 13.9095 12.992C13.8531 13.0485 13.9942 13.1333 14.0224 13.3874C14.0506 13.6981 14.0506 13.9806 14.3892 14.15C14.1635 14.3195 13.9378 13.8676 13.9095 13.9241C13.8813 13.9806 14.2199 14.15 13.8531 14.9973C13.6838 14.9126 13.7967 14.9126 13.5992 14.6866C13.4581 14.5737 13.4017 14.5454 13.5145 14.7431C13.712 15.0538 13.7685 15.421 13.712 15.7599C13.5428 15.6752 13.571 15.534 13.3735 15.3645C13.3735 15.6187 13.4863 15.8446 13.6556 16.0423C13.9095 16.24 14.0788 16.5225 14.1635 16.8332C14.1635 17.2003 14.1353 17.5675 14.0788 17.9347C13.9095 17.9064 13.7685 17.4263 13.712 17.4545C13.712 17.7652 13.8531 18.0476 14.0788 18.2453C14.2481 18.6972 14.1635 18.9514 14.1353 18.9797C14.107 19.0079 13.9095 18.4995 13.7967 18.5843C14.2763 19.7705 13.9378 20.1941 13.8249 20.5613C13.7403 20.1941 13.6838 19.9117 13.571 19.4881C13.3171 19.6858 13.2606 19.9964 12.9503 20.2506C12.9503 19.7705 12.6681 18.5843 12.4424 18.3301C12.4424 18.3301 12.0474 19.3751 11.8499 19.8552C11.596 20.4766 11.596 21.1827 11.8499 21.8323C11.2856 21.0132 11.201 19.4881 11.7089 19.2621C11.7653 19.1491 11.6806 18.782 11.5678 18.8385C11.5678 19.0079 11.5114 19.1774 11.3985 19.3468C11.0035 19.2339 11.201 18.782 11.2292 18.6125C11.7371 18.0194 11.4267 17.8782 11.3985 17.9064C11.3421 18.0476 11.2856 18.2171 11.1446 18.2736C10.8342 17.737 11.0317 16.8614 11.6242 16.24C11.6524 15.9859 11.3421 16.4095 11.1728 16.4095C11.1164 15.9576 11.2856 15.1668 12.1321 15.1103C11.9628 15.0538 11.8781 15.0256 11.8499 14.8844C12.1038 14.8561 12.9221 14.7714 12.781 14.15C12.6963 14.263 12.5835 14.376 12.4706 14.4607C12.3296 14.5454 12.1603 14.5454 12.1038 14.4325C12.4706 14.3195 12.3578 13.8393 11.8499 13.9806C11.6524 14.0088 11.4831 13.8958 11.4549 13.6981C11.5678 13.8111 11.7935 13.7264 11.9063 13.6416C12.2167 13.4439 12.6117 13.5287 12.8092 13.8393C12.8374 13.8676 12.8374 13.8958 12.8656 13.9241C12.8938 13.9241 13.1196 13.4157 12.3296 13.2745C12.2167 12.9355 11.9063 12.7378 11.5678 12.7943C11.3985 12.173 10.8624 12.4836 10.8906 12.7661C10.3264 12.3424 10.8906 11.834 11.1164 11.7493C11.2856 11.7493 11.2292 12.2577 11.5114 12.173C11.5678 12.1447 11.2856 11.834 11.3985 11.6928C11.6524 11.5516 11.6524 11.8905 11.7653 11.7493C11.8499 11.5516 12.0474 11.4104 12.2731 11.3821C12.8656 11.2127 13.3171 11.8623 13.8531 11.5516ZM19.0445 10.5913C17.8031 10.6761 15.2074 9.96997 14.5585 9.96997C13.2042 9.96997 12.5553 10.5066 12.5553 10.5066C12.5553 10.5066 12.5553 4.32125 12.5553 4.0953C12.5553 4.0953 14.3328 3.24799 15.6306 3.72813C16.7309 4.06705 17.9159 4.18003 19.0727 4.03881L19.0445 10.5913ZM20.6809 8.0494C21.358 7.93643 21.4709 8.75549 21.4709 8.75549C21.2452 8.58603 20.9631 8.58603 20.7373 8.699C20.3141 8.98144 19.8063 9.1509 19.2702 9.20739V7.96467C19.2702 7.96467 19.4113 8.21886 20.6809 8.0494ZM21.4991 6.35479C21.4991 6.32654 21.4991 6.27005 21.4709 6.18532C21.4427 6.10059 21.1041 5.98762 20.8502 6.10059C20.4834 6.24181 19.6088 6.7502 19.2984 6.66547V5.42275C20.0884 5.76167 20.3988 5.45099 20.6527 5.45099C21.0759 5.42275 21.4427 5.76167 21.4709 6.18532C21.4709 6.24181 21.4709 6.2983 21.4991 6.35479ZM20.6245 19.2339C20.3988 19.2904 19.7781 19.5445 19.637 19.7705C19.6652 18.782 19.5241 17.7652 19.1574 16.8332C18.9034 16.2118 19.2702 18.2453 19.2984 18.7255C19.2984 18.7537 17.1259 15.9011 18.4238 18.1041C18.6495 18.4713 18.9599 18.782 19.2984 19.0362C19.3266 19.3468 19.2984 19.6575 19.2138 19.94C19.0727 20.0529 16.2231 16.1271 17.8031 18.8385C18.0006 19.1774 19.1574 20.1941 19.1291 20.2224C19.0445 20.4201 18.9034 20.6178 18.7341 20.759C18.7059 20.7308 18.0852 20.2789 18.0852 20.2506C18.0288 19.94 18.0288 19.6575 17.662 19.8835C17.662 19.8835 16.2513 18.2453 16.9002 19.4033C17.0413 19.6575 17.2106 19.8835 17.4363 20.0529C17.2952 20.2506 17.2106 20.4483 17.1542 20.6743C17.1259 20.7873 15.941 19.3468 16.3924 20.2506C16.5334 20.5331 17.0977 20.872 17.0695 20.872C17.0131 21.0415 16.9567 21.2109 16.9002 21.3521C16.5617 21.6911 16.1667 22.03 15.7717 22.3407C15.8845 21.9735 16.1102 21.6063 16.4206 21.3521C16.5617 21.2674 16.7027 21.1827 16.8438 21.0979C16.8438 20.9567 16.7592 20.8438 16.6181 20.7873C16.3924 20.759 16.1949 20.7873 15.9692 20.8155C16.0256 20.5613 15.7999 20.0247 15.7999 19.4316C15.546 19.5163 15.3485 19.6858 15.2074 19.9117C15.151 20.872 14.9253 20.5896 14.756 21.2956C14.5303 21.0132 14.756 20.5896 14.5585 20.3071C14.3045 19.9964 14.1917 19.601 14.1917 19.2056C14.2481 19.1774 14.5585 18.8385 14.2763 18.1606C14.2199 17.0874 14.6995 16.6637 13.8531 15.9294C13.9378 15.9011 13.966 15.3645 13.966 15.3645C14.5867 15.7034 14.4738 14.9691 14.7278 14.8279C15.1227 14.6019 15.0381 14.376 14.8688 14.0653C15.9974 14.376 14.8124 15.1668 15.3202 15.1668C15.6306 15.2233 15.9127 15.0821 16.082 14.8279C16.2513 14.5737 16.0538 14.4042 16.5334 13.9806C16.5899 13.9523 16.7027 13.6699 16.336 13.5851C16.2513 13.5569 16.336 13.2462 16.336 13.2462C16.0256 13.5004 15.941 13.8676 15.4613 13.6416C15.292 13.5569 15.0945 13.5851 14.9535 13.6981C14.9253 13.5851 14.9817 13.4722 15.1227 13.4157C15.6588 13.2462 15.7717 13.0203 15.7435 12.9073C15.6588 12.6249 15.6588 12.9073 15.6588 12.6249C15.7152 12.4836 15.7999 12.3424 15.9127 12.2295C16.2795 11.8058 16.5335 11.947 16.6181 12.0035C16.7592 11.8905 16.9002 11.834 17.0695 11.7776C17.4081 11.6363 18.1416 11.8623 18.5366 12.06C18.7341 12.173 18.9599 12.2012 19.1856 12.1447C19.1856 12.2577 19.1291 12.3424 19.0163 12.3424C18.8752 12.3707 18.7341 12.3424 18.7341 12.4272C18.7341 12.5119 18.9034 12.4836 19.0163 12.5119C19.6088 12.6814 20.3988 13.218 19.8909 13.105C19.8345 13.105 20.2577 13.4157 20.5963 13.8676L21.753 14.9691C21.6966 15.0256 21.3016 14.9691 20.032 13.7829C19.8627 13.9523 21.5838 15.2515 22.2891 16.6355C21.8095 16.5225 21.3863 16.3248 21.0195 16.0141C20.5398 15.5057 19.9473 14.2065 19.7216 14.4042C19.6934 14.4042 20.6527 15.9294 21.1323 16.8049C21.3863 17.2851 21.5555 17.8217 21.5838 18.3866C21.6684 20.7873 21.3016 20.6178 21.3016 20.6178C20.7373 18.7255 20.4834 16.5225 19.6652 15.5057C19.3549 15.0821 20.5681 17.2568 20.6245 19.2339ZM18.1134 21.3804C17.8595 21.6063 17.6902 21.6911 17.7467 21.5781C17.8031 21.4651 17.8595 21.3804 17.8877 21.2674C17.8877 21.2392 18.1134 21.4086 18.1134 21.3804ZM17.9442 21.0697C17.9724 20.9002 18.0006 20.7308 18.0288 20.5613C18.0288 20.5048 18.0288 20.4766 18.0288 20.4201C18.0288 20.3919 18.5649 20.872 18.6213 20.9002C18.5084 21.0415 18.3674 21.1544 18.2263 21.2674C18.1416 21.1827 17.9159 21.0979 17.9442 21.0697ZM19.7498 21.6911C18.9881 22.4536 17.8313 22.1712 16.9284 22.5666C16.1102 22.8773 15.5177 23.6116 14.6713 23.8093C14.4174 23.8941 14.3892 24.007 14.5303 24.007C14.6149 24.007 15.151 24.5437 15.9692 24.12C16.2513 23.9788 17.1259 23.4986 17.267 23.4704C16.7874 23.9223 16.5617 24.3177 16.1385 24.5437C15.4049 24.8826 14.5867 24.9956 13.7967 24.8543C13.3453 24.7696 12.9785 25.1933 13.0913 25.165C13.3453 25.0803 13.6274 25.165 13.7685 25.3627C14.0788 25.5887 14.502 25.8994 14.897 25.4475C15.2638 25.1368 15.8281 25.165 16.1667 25.5322C16.1667 25.5322 16.1667 25.5604 16.1949 25.5604C15.6024 25.5322 15.6588 26.6054 14.5303 26.4925C14.107 26.4925 13.176 25.5322 12.9221 25.8146C12.4424 26.3513 13.9378 26.8314 13.2888 27.5092C12.7246 28.1024 12.0474 27.0291 12.0474 27.0291C12.4142 27.1703 13.0631 27.2833 12.781 26.6902C12.5835 26.436 12.4706 26.1253 12.4424 25.8146C12.386 25.5887 11.0599 27.5092 10.2135 26.6619C9.87494 26.323 9.16959 25.5887 8.54888 25.3062C10.2135 25.165 10.4674 25.8429 10.5521 25.9276C11.0881 26.6337 11.5678 25.9276 11.6806 25.7864C11.8499 25.5887 12.1038 25.3062 12.0192 25.278C11.4267 24.9673 10.7214 24.9108 10.0724 25.165C11.2574 23.5551 12.1603 25.052 12.1603 25.052C12.3013 25.1368 12.1321 24.0918 10.9753 24.0353C10.2417 24.007 9.5928 24.6566 9.11316 24.6566C8.71816 24.6566 7.47675 23.8093 7.16639 23.075C7.89996 23.6116 8.80281 23.9223 9.36709 23.5834C10.4392 22.9338 11.7935 23.8941 11.8781 23.7811C11.5678 23.5551 10.8906 22.6231 9.02852 23.1597C8.32317 23.5834 8.01281 22.849 7.56139 22.849C8.32317 22.1712 8.83102 22.5384 9.08495 22.5384C9.14137 22.5384 8.77459 22.2277 8.52067 22.1994C7.36389 22.0865 6.26354 21.8323 5.19141 21.4086C5.19141 21.4086 5.36069 20.985 6.23533 21.2956C6.23533 21.2956 5.44534 20.8155 5.44534 20.1941C5.47355 19.7987 5.64284 19.4033 5.36069 19.0926C6.54568 19.0362 5.69926 20.7025 6.54568 21.1262C6.40461 20.9002 6.46104 20.5896 6.68675 20.4201C6.82782 20.8155 7.16639 21.1262 7.5896 21.2392C7.64603 21.1827 7.70246 21.1262 7.75889 21.0415C7.47675 20.4766 7.36389 19.8552 7.47675 19.2339C7.53317 19.2339 7.67425 19.4598 7.73067 19.6575C7.89996 20.0247 7.89996 20.5613 8.23853 21.0132C8.3796 21.2392 8.52067 21.4369 8.71816 21.6063C8.77459 21.4369 8.77459 21.2392 8.71816 21.0697C8.68995 20.7873 8.49245 20.3071 8.97209 19.8552C9.1978 20.5048 9.50816 20.3071 9.53637 20.6178C9.5928 20.8438 9.5928 21.0979 9.53637 21.3239C9.56458 21.7758 9.9878 21.917 10.3546 22.1994C11.201 22.6513 11.7371 22.9055 12.1038 23.4986C12.2731 22.5101 9.5928 22.3124 9.95958 20.4201C9.93137 19.6575 10.0442 19.601 9.50816 19.1209C10.5803 19.1491 11.1728 20.9002 11.2292 21.2392C11.3421 21.8323 11.6806 21.8605 12.1885 22.6231C12.2731 22.6513 11.3139 20.5896 12.4424 18.8102C12.4424 18.8102 12.8374 19.7423 12.6399 20.3354C12.5835 20.6743 12.5835 21.0132 12.6399 21.3239C12.6681 21.5498 12.5835 20.4766 13.4017 19.94C13.4581 20.3354 13.8531 20.985 13.4863 21.6628C13.0349 22.4819 13.0067 22.1994 13.0067 23.188C13.0349 23.1597 13.176 22.4819 13.4581 22.1147C14.107 21.2956 13.6556 20.872 14.2763 20.1659C14.3328 20.5331 14.4174 20.3919 14.4456 20.7025C14.5303 21.4086 13.7967 22.1712 13.966 22.143C14.1353 22.1147 14.4456 21.9453 14.5585 21.4086C14.5585 21.4086 14.8406 21.8888 14.5867 22.0582C14.2199 22.2277 14.0224 22.6231 14.107 23.0185C14.4738 22.5949 14.9535 22.1147 14.8688 21.4934C14.897 21.1262 15.3202 20.985 15.3767 20.1094C15.4049 19.94 15.5177 19.7987 15.687 19.714C15.6306 20.1942 15.9974 20.7025 15.5742 21.2674C15.6588 21.3239 16.0256 20.8155 16.5617 20.985C15.5177 21.1827 15.7999 22.3124 15.0099 22.849C14.756 23.0185 14.8124 23.188 14.7278 23.2162C15.4613 23.188 15.9974 22.3124 16.1102 22.2559C16.8438 21.7758 16.9849 21.6911 17.2952 20.9002C17.4081 20.5896 17.3234 20.4766 17.7184 20.0529C17.8877 20.4483 17.6338 21.2956 17.5774 21.4651C17.4363 21.8605 16.9849 22.1712 17.0977 22.1712C19.0445 21.3239 19.0163 20.7308 19.4959 20.1094C19.7781 19.7987 20.1731 19.5445 20.5963 19.4316C20.5398 19.5728 20.2577 19.7705 20.2577 19.9964C20.2295 20.3636 20.0884 20.7308 19.8627 21.0415C19.9756 21.1827 20.2295 20.759 20.4552 20.985C20.0884 21.1544 19.9473 21.4934 19.7498 21.6911ZM20.0602 21.5781C19.9473 22.143 19.7216 22.6796 19.4113 23.1597C19.1856 23.4986 19.0727 22.8208 19.2702 22.1712C19.5806 22.0582 19.8345 21.8605 20.0602 21.5781ZM18.5649 7.20209C18.5084 7.17385 18.4238 7.17385 18.3674 7.17385C18.3109 7.17385 18.2827 7.25858 18.3674 7.28682C18.452 7.31507 18.5084 7.31507 18.5931 7.31507C18.6495 7.31507 18.6213 7.23034 18.5649 7.20209ZM18.3391 7.48453C18.4238 7.51277 18.4802 7.51277 18.5649 7.51277C18.6213 7.51277 18.5931 7.42804 18.5649 7.3998C18.5084 7.37156 18.4238 7.37156 18.3674 7.37156C18.3391 7.37156 18.3109 7.3998 18.3109 7.42804C18.3109 7.45629 18.3391 7.48453 18.3391 7.48453ZM18.3391 8.72725C18.2545 8.64252 18.1699 8.55779 18.0852 8.5013C18.0006 8.55779 17.9159 8.64252 17.8313 8.67076C17.7467 8.58603 17.662 8.5013 17.5774 8.41657C17.4927 8.47306 17.2952 8.64252 17.2106 8.699C17.3234 8.699 17.5209 8.75549 17.5209 8.86847C17.5209 8.98144 17.5209 9.54631 17.5209 9.65929C17.6056 9.65929 17.7184 9.65929 17.8031 9.65929C17.8031 9.57456 17.8031 8.89671 17.8031 8.81198C17.8313 8.78374 17.8877 8.78374 17.9159 8.75549C18.0006 8.84022 18.0852 8.89671 18.1699 8.98144C18.2263 8.9532 18.3674 8.81198 18.4238 8.75549C18.4802 8.699 18.3956 8.67076 18.3391 8.72725ZM18.0006 7.73872C18.0852 7.5975 18.1417 7.42804 18.1699 7.25858C18.1699 7.00439 18.0006 6.77844 17.7467 6.66547C17.4363 6.77844 17.2106 7.06088 17.1824 7.37156C17.1824 7.56926 17.3517 7.96467 17.6902 7.99291C17.8031 7.87994 17.9159 7.79521 18.0288 7.71048L18.0006 7.73872ZM17.7749 7.82345C17.6338 7.73872 17.4927 7.5975 17.4081 7.45629C17.2952 7.25858 17.3517 7.03263 17.5492 6.91966C17.7184 6.97614 17.8877 7.14561 17.9159 7.28682C17.9442 7.48453 17.8877 7.65399 17.7749 7.82345ZM17.7749 6.2983L18.0288 6.01586C17.9724 5.95938 17.8877 5.90289 17.8313 5.8464C17.8313 5.62045 17.8313 5.3945 17.8595 5.1968C17.7467 5.08382 17.6056 4.99909 17.4363 4.99909C17.267 5.02734 17.1259 5.22504 17.0695 5.30977C17.0413 5.36626 17.0413 5.42275 17.0695 5.45099C17.0977 5.47923 17.1542 5.50748 17.1824 5.53572H17.1542C17.0413 5.6487 16.9849 5.78991 16.9849 5.93113C17.0131 6.10059 17.0695 6.24181 17.1824 6.35479C17.2952 6.24181 17.4645 6.15708 17.6056 6.12884C17.662 6.21357 17.7184 6.27005 17.7749 6.2983ZM17.6338 5.6487C17.4645 5.59221 17.3234 5.50748 17.1542 5.3945C17.1259 5.36626 17.1259 5.36626 17.1542 5.30977C17.1824 5.25329 17.267 5.14031 17.3234 5.14031C17.3799 5.14031 17.6338 5.28153 17.6056 5.33802C17.6338 5.47923 17.6338 5.56397 17.6338 5.6487ZM17.6338 6.04411C17.5492 6.04411 17.4927 6.07235 17.4363 6.10059C17.267 5.98762 17.2388 5.76167 17.3234 5.59221L17.267 5.56397C17.3799 5.62045 17.5209 5.67694 17.662 5.73343C17.662 5.81816 17.662 5.93113 17.662 5.95938C17.662 5.98762 17.6338 6.01586 17.6338 6.04411ZM16.872 4.82963C16.7027 4.82963 16.5617 4.82963 16.3924 4.82963C16.3642 4.71666 16.3642 4.57544 16.4206 4.49071C16.4488 4.40598 16.3924 4.37773 16.3642 4.46246C16.2795 4.63193 16.1102 4.80139 15.941 4.88612C15.8281 4.91436 16.082 5.02734 16.0538 5.02734C16.0538 5.30977 16.082 5.59221 16.1385 5.87464C16.1667 5.95938 16.2795 6.12884 16.3642 6.07235C16.4488 6.01586 16.5335 5.81816 16.5617 5.78991C16.5899 5.76167 16.5617 5.6487 16.5052 5.70518C16.4488 5.76167 16.3924 5.67694 16.3924 5.62045C16.3642 5.45099 16.3642 5.22504 16.3642 4.99909C16.3642 4.99909 16.8438 4.94261 16.9002 4.94261C16.9284 4.94261 16.9284 4.82963 16.872 4.82963ZM15.546 5.95938L15.7435 5.70518C15.6306 5.70518 15.5177 5.6487 15.4331 5.53572V4.88612L15.2356 4.68841H15.1792L14.8688 4.97085C14.8406 5.02734 14.9253 5.02734 14.9535 4.97085L15.1792 5.11207V5.73343C15.2074 5.81816 15.2638 5.90289 15.3485 5.98762L15.546 5.95938ZM15.3767 4.51895L15.4895 4.40598V4.23652L15.3485 4.0953L15.1792 4.23652V4.40598L15.2638 4.49071L15.3767 4.51895ZM14.8406 4.32125C14.6713 4.32125 14.5303 4.32125 14.361 4.34949C14.2481 4.34949 14.2481 4.40598 14.3328 4.43422C14.4174 4.46246 14.4456 4.46246 14.4738 4.57544C14.4456 4.82963 14.361 5.11207 14.2481 5.33802C14.1353 5.14031 14.0506 4.94261 13.966 4.71666C13.966 4.66017 14.0506 4.63193 14.107 4.60368C14.1353 4.60368 14.1917 4.51895 14.1353 4.51895C13.966 4.49071 13.3735 4.43422 13.2606 4.43422C13.1478 4.43422 13.1478 4.51895 13.2324 4.51895C13.3453 4.49071 13.4863 4.5472 13.5428 4.66017C13.7967 5.08382 13.9942 5.53572 14.1353 5.98762C14.1917 5.90289 14.5585 4.80139 14.5867 4.68841C14.6149 4.57544 14.6995 4.46246 14.8124 4.43422C14.9535 4.37773 14.9535 4.34949 14.8406 4.32125ZM13.0349 6.97615C12.9785 7.25858 13.1478 7.51277 13.4299 7.5975C13.6838 7.68223 13.966 7.71048 14.2199 7.62575C14.3045 7.5975 14.361 7.5975 14.361 7.68224C14.361 7.76697 14.4456 7.71048 14.4456 7.68224C14.4456 7.65399 14.4456 7.25858 14.4456 7.23034C14.4456 7.17385 14.3892 7.20209 14.3892 7.23034C14.3892 7.28682 14.361 7.37156 14.3328 7.3998C14.1353 7.62575 13.8249 7.62575 13.5992 7.45629C13.571 7.42804 13.5145 7.37156 13.4863 7.34331C13.4017 7.23034 13.3453 7.08912 13.4299 7.06088C13.6274 7.06088 13.7967 7.06088 13.966 7.11736C14.107 7.11736 14.2199 7.14561 14.361 7.17385C14.3892 7.20209 14.4456 7.23034 14.4456 7.17385V6.86317C14.4456 6.80668 14.4174 6.83493 14.361 6.86317C14.2199 6.89141 14.0788 6.91966 13.966 6.9479C13.7967 6.97615 13.5992 6.97615 13.4299 6.97615C13.3453 6.9479 13.3735 6.77844 13.4581 6.66547C13.6556 6.41127 13.9942 6.35479 14.2481 6.55249C14.2763 6.58073 14.3045 6.60898 14.3328 6.63722C14.361 6.69371 14.3892 6.7502 14.3892 6.80668C14.3892 6.83493 14.4456 6.86317 14.4456 6.80668C14.4456 6.7502 14.4456 6.2983 14.4456 6.27006C14.4456 6.24181 14.3892 6.21357 14.3892 6.27006C14.3892 6.32654 14.3045 6.32654 14.2481 6.2983C13.9942 6.27005 13.712 6.2983 13.4863 6.41127C13.2324 6.52425 13.0631 6.7502 13.0349 6.97615ZM13.1196 7.79521C13.1196 7.93643 13.176 9.03793 13.1478 9.20739C13.1478 9.29212 13.2606 9.40509 13.3735 9.46158C13.4581 9.34861 13.5428 9.23563 13.6274 9.1509C13.6838 9.09442 13.6274 9.06617 13.5992 9.09442C13.571 9.12266 13.4299 9.09441 13.4299 9.00968C13.4299 8.92495 13.4299 7.93643 13.4299 7.79521C13.3735 7.79521 13.176 7.79521 13.1196 7.79521ZM14.0506 8.72725C13.9378 8.84022 13.8813 8.98144 13.8531 9.12266C13.8531 9.26388 13.9095 9.37685 13.9942 9.46158C14.1353 9.32036 14.2763 9.23563 14.4456 9.1509C14.4738 9.26388 14.5585 9.26388 14.6431 9.34861C14.6995 9.29212 14.897 9.06617 14.9253 9.00968C14.9817 8.9532 14.9535 8.92495 14.8688 8.98144C14.8124 9.00968 14.756 8.98144 14.6713 8.89671C14.6713 8.699 14.6713 8.5013 14.6713 8.33184C14.5867 8.21886 14.502 8.10589 14.3892 8.10589C14.2199 8.10589 14.0224 8.38832 13.966 8.47306C13.9378 8.55779 13.9378 8.67076 13.9942 8.75549L14.0506 8.72725ZM14.1635 8.81198C14.2481 8.86847 14.3045 8.84022 14.4456 8.81198C14.4456 8.89671 14.4456 8.98144 14.4456 9.00968C14.3892 9.06617 14.3045 9.09441 14.2199 9.12266C14.1635 9.06617 14.0506 9.03793 14.1635 8.81198ZM14.107 8.41657C14.1635 8.33184 14.1917 8.30359 14.2481 8.30359C14.3045 8.30359 14.4456 8.41657 14.4456 8.5013C14.4456 8.58603 14.4456 8.64252 14.4456 8.75549C14.3328 8.78374 14.1917 8.75549 14.107 8.67076C14.0788 8.58603 14.0788 8.5013 14.107 8.41657ZM15.0663 8.21886C14.9535 8.27535 15.2074 8.36008 15.1792 8.36008C15.1792 8.64252 15.1227 9.06617 15.2074 9.20739C15.2638 9.29212 15.3767 9.34861 15.4895 9.32036C15.5742 9.29212 15.687 9.12266 15.7152 9.09442C15.7435 9.06617 15.7152 9.00968 15.6588 9.03793C15.6024 9.06617 15.4895 9.06617 15.4331 9.00968C15.4049 8.78374 15.4049 8.55779 15.4331 8.36008H15.6588C15.687 8.36008 15.687 8.24711 15.6588 8.24711C15.6306 8.24711 15.4613 8.24711 15.4613 8.21886C15.4613 8.10589 15.4613 7.99291 15.4895 7.90818C15.5177 7.82345 15.4613 7.79521 15.4331 7.87994C15.3767 8.02116 15.2356 8.16238 15.0663 8.21886ZM15.1227 6.97615C15.1227 7.23034 15.0381 7.45629 14.8406 7.62575C15.0945 7.56926 15.1227 7.3998 15.2638 7.23034C15.3485 7.34331 15.4613 7.45629 15.5742 7.54102C15.687 7.45629 15.7999 7.34331 15.8845 7.23034C15.687 7.17385 15.4895 7.06088 15.3767 6.89141C15.3202 6.80668 15.3202 6.69371 15.3767 6.60898C15.4331 6.66547 15.7717 6.83493 15.941 6.55249C15.7999 6.496 15.6588 6.41127 15.5742 6.2983C15.4895 6.38303 15.3767 6.46776 15.292 6.55249C15.2356 6.43952 15.151 6.35479 15.0099 6.32654C14.8688 6.43952 14.7278 6.55249 14.5867 6.63722C14.5585 6.66547 14.5585 6.7502 14.6149 6.72195C14.6713 6.69371 14.756 6.63722 14.8406 6.58073C15.0099 6.63722 15.0945 6.80668 15.0945 6.97615H15.1227ZM16.336 7.03263C16.3642 6.91966 16.4206 6.83493 16.5334 6.77844C16.5899 6.86317 16.6745 6.9479 16.7874 6.9479C16.872 6.9479 16.9567 6.91966 17.0413 6.86317C16.9567 6.77844 16.7592 6.58073 16.7309 6.55249C16.6463 6.60898 16.1949 6.83493 16.1667 7.08912C16.1102 7.34331 16.1949 7.5975 16.3924 7.76697C16.477 7.8517 16.5899 7.90818 16.7027 7.87994C16.8438 7.76697 16.9567 7.65399 17.0977 7.51277C17.1259 7.48453 17.0977 7.45629 17.0413 7.48453C16.9849 7.51277 17.0131 7.54102 16.9849 7.54102C16.872 7.56926 16.7592 7.56926 16.6181 7.51277C16.4206 7.3998 16.3077 7.23034 16.336 7.03263ZM16.1102 8.24711C16.0538 8.30359 15.941 8.38832 15.8281 8.5013C15.9127 8.5013 15.9974 8.52954 16.0256 8.61427C16.0538 8.81198 16.0538 8.98144 16.0256 9.17915C16.0256 9.32036 16.1102 9.34861 16.2231 9.43334C16.3924 9.37685 16.5617 9.32036 16.7027 9.23563C16.7027 9.34861 16.8438 9.46158 16.9002 9.48982C16.9567 9.43334 17.0131 9.40509 17.0977 9.32036C17.0131 9.26388 17.0413 9.26388 17.0131 9.1509C17.0131 8.9532 17.0131 8.72725 17.0131 8.52954C16.9284 8.41657 16.8438 8.33184 16.7592 8.24711C16.6745 8.30359 16.5899 8.38833 16.477 8.52954C16.5617 8.52954 16.7309 8.55779 16.7309 8.61427C16.7592 8.75549 16.7592 8.92495 16.7309 9.06617C16.7027 9.23563 16.2795 9.1509 16.2795 9.03793C16.2795 8.92495 16.3077 8.61427 16.3077 8.47306C16.2513 8.38832 16.1667 8.30359 16.1102 8.24711ZM13.3171 12.06C13.0913 11.9753 12.8656 11.8905 12.6681 11.7493C12.4424 11.6928 12.2167 11.7493 12.0474 11.9188C12.0474 12.0035 12.1321 12.0317 12.386 11.8905C12.2731 12.0035 12.2731 12.173 12.386 12.2859C12.386 12.2859 12.386 12.2859 12.4142 12.3142C12.3296 12.3142 12.2167 12.2859 12.1321 12.2295C12.1321 12.3142 12.2449 12.3424 12.2731 12.3707C12.6963 12.5401 12.9503 12.1447 13.3171 12.06ZM12.6117 12.2859C12.6681 12.2295 12.6963 12.173 12.7246 12.0882C12.7246 12.0035 12.6681 11.947 12.6117 11.8905C12.7528 11.947 12.8938 12.0035 13.0067 12.0882L12.6117 12.2859ZM10.3264 9.12266L10.4392 8.98144C10.2981 8.9532 10.3546 8.9532 10.2981 8.89671V8.36008L10.1289 8.10589H10.0724L9.7903 8.36008C9.70566 8.41657 9.7903 8.44481 9.87494 8.38833L10.0442 8.47306V9.03793C10.0442 9.12266 10.1289 9.12266 10.2135 9.20739L10.3264 9.12266ZM10.3828 7.23034C10.4392 7.42804 10.6367 7.56926 10.8624 7.5975C10.9189 7.48453 10.9753 7.3998 11.0599 7.31507C11.1446 7.23034 11.0599 7.17385 11.0035 7.25858C10.9471 7.34331 10.7496 7.25858 10.6931 7.17385C10.6367 7.08912 10.5239 6.83493 10.6085 6.7502C10.6931 6.66547 10.806 6.69371 10.9753 6.69371C11.0881 6.69371 11.0881 6.60898 11.1164 6.55249C11.0317 6.52425 10.9753 6.46776 10.8906 6.43952C10.7778 6.52425 10.6649 6.60898 10.5803 6.69371C10.411 6.80668 10.3546 7.03263 10.3828 7.23034ZM10.7778 8.67076C10.6931 8.75549 10.6085 8.89671 10.6085 9.03793C10.6085 9.17915 10.6649 9.29212 10.806 9.34861C10.9189 9.23563 11.0881 9.17915 11.2292 9.12266C11.3139 9.20739 11.3985 9.26388 11.4831 9.32036C11.5396 9.26388 11.6806 9.1509 11.7089 9.09442C11.7371 9.06617 11.7089 9.00968 11.6806 9.03793C11.6524 9.06617 11.5396 9.03793 11.5114 9.00968C11.4831 8.98144 11.4549 8.36008 11.4831 8.33184C11.3985 8.24711 11.2574 8.02116 11.1446 8.02116C10.9753 8.07765 10.8342 8.19062 10.7214 8.30359C10.6931 8.41657 10.7214 8.52954 10.7496 8.61427H10.7778V8.67076ZM11.1728 8.72725C11.0599 8.72725 10.9471 8.67076 10.8624 8.58603C10.8342 8.52954 10.8342 8.44481 10.8342 8.38833C10.8906 8.30359 10.8906 8.27535 10.9471 8.27535C11.0035 8.27535 11.201 8.41657 11.201 8.47306C11.201 8.55779 11.201 8.64252 11.1728 8.72725ZM10.8906 8.72725C10.9753 8.78374 11.0881 8.81198 11.1728 8.78374C11.1728 8.84022 11.1728 8.92495 11.1728 8.9532C11.1728 8.98144 11.1728 9.00968 11.201 9.03793C11.1164 9.06617 11.0599 9.09441 10.9753 9.12266C10.9189 9.03793 10.6931 8.89671 10.8906 8.72725ZM11.7089 7.5975L11.8217 7.45629C11.6806 7.42804 11.6806 7.45629 11.6242 7.37156V6.72195L11.5114 6.55249H11.4549L11.1728 6.80668C11.0881 6.86317 11.1728 6.91966 11.2574 6.83493L11.3985 6.91966V7.51277C11.3985 7.5975 11.4831 7.5975 11.5678 7.71048L11.7089 7.5975ZM11.5114 5.3945C11.4549 5.3945 11.3703 5.50748 11.7089 5.53572C11.7371 5.53572 11.8217 5.42275 11.5114 5.3945ZM11.5114 5.1968C11.4549 5.1968 11.3703 5.33802 11.7089 5.33802C11.7371 5.33802 11.7935 5.22504 11.5114 5.1968ZM11.5678 6.18532L11.4267 6.04411L11.2856 6.18532V6.35479L11.3703 6.43952H11.4549L11.5678 6.35479V6.18532ZM11.2856 4.82963C11.1728 4.68841 11.0317 4.63193 10.8624 4.60368C10.6367 4.63193 10.411 4.7449 10.2699 4.94261C10.1571 5.11207 10.2981 5.25329 10.4392 5.3945C10.3546 5.47923 10.2135 5.59221 10.1007 5.70518C10.2417 5.78991 10.3828 5.87464 10.5521 5.87464C10.7496 5.87464 10.9471 5.78991 11.1164 5.6487C11.3421 5.45099 11.2574 5.25329 11.0317 5.14031C11.0035 5.14031 10.9753 5.11207 10.9753 5.11207C11.0881 5.02734 11.1728 4.94261 11.2856 4.82963ZM10.6931 5.33802C10.7778 5.36626 10.8624 5.42275 10.9471 5.45099C11.0881 5.53572 11.0035 5.6487 10.8624 5.73343C10.7214 5.81816 10.4674 5.62045 10.4392 5.53572C10.4956 5.47923 10.5803 5.42275 10.6931 5.33802ZM10.9471 4.99909L10.806 5.11207C10.7778 5.11207 10.7214 5.11207 10.6931 5.11207C10.6085 5.08382 10.5239 5.02734 10.4674 4.94261C10.411 4.85788 10.5521 4.80139 10.6367 4.80139C10.7214 4.85788 10.8342 4.91436 10.9471 4.99909ZM9.95958 5.50748C9.73387 5.56397 9.50816 5.45099 9.42352 5.25329C9.56459 5.11207 9.7903 4.88612 9.93137 4.7449C9.84673 4.66017 9.7903 4.51895 9.62101 4.49071C9.31066 4.5472 9.08495 4.80139 9.05673 5.11207C9.02852 5.45099 9.31066 5.76167 9.64923 5.76167C9.67744 5.76167 9.70566 5.76167 9.70566 5.76167C9.81851 5.76167 9.93137 5.62045 10.016 5.59221C10.1853 5.56396 10.1289 5.47923 9.95958 5.50748ZM9.3953 5.16855C9.31066 4.88612 9.33887 4.80139 9.50816 4.66017C9.56459 4.7449 9.62101 4.80139 9.70566 4.85788C9.62101 4.94261 9.45173 5.11207 9.3953 5.16855ZM9.0003 4.91436C9.05673 4.85787 9.0003 4.80139 8.94388 4.85788C8.91566 4.80139 8.80281 4.71666 8.74638 4.63193C8.66174 4.68841 8.57709 4.7449 8.49245 4.80139C8.43602 4.7449 8.35138 4.7449 8.23853 4.66017C8.12567 4.7449 8.04103 4.80139 7.95639 4.91436C8.09746 4.94261 8.1821 4.97085 8.21031 5.08382C8.21031 5.1968 8.21031 5.73343 8.21031 5.8464C8.29495 5.8464 8.3796 5.8464 8.46424 5.8464C8.46424 5.76167 8.46424 5.05558 8.46424 4.97085C8.49245 4.94261 8.52067 4.94261 8.54888 4.91436C8.57709 4.94261 8.66174 5.05558 8.74638 5.11207C8.85923 5.02734 8.91566 4.97085 9.0003 4.91436ZM7.89996 6.38303C7.70246 6.43952 7.56139 6.55249 7.47675 6.72195C7.44853 6.83493 7.47675 6.9479 7.50496 7.03263L7.56139 7.08912C7.44853 7.17385 7.36389 7.25858 7.36389 7.3998C7.3921 7.54102 7.47675 7.65399 7.61782 7.71048C7.70246 7.5975 7.81532 7.54102 7.92817 7.51277C7.92817 7.5975 7.95639 7.68223 8.04103 7.73872C8.09746 7.68223 8.29495 7.51277 8.32317 7.48453C8.35138 7.45629 8.32317 7.3998 8.29495 7.45629C8.26674 7.51277 8.1821 7.45629 8.1821 7.3998C8.1821 7.17385 8.1821 6.9479 8.21031 6.72195C8.09746 6.60898 8.01281 6.38303 7.89996 6.38303ZM7.89996 7.00439C7.73067 7.11736 7.67424 7.11736 7.56139 6.97615C7.50496 6.91966 7.50496 6.80668 7.53318 6.7502C7.5896 6.66547 7.67425 6.58073 7.73067 6.58073C7.81532 6.63722 7.87174 6.72195 7.89996 6.83493C7.89996 6.86317 7.89996 6.9479 7.89996 7.00439ZM7.89996 7.31507V7.37156C7.87174 7.37156 7.81532 7.3998 7.7871 7.3998C7.73067 7.34331 7.42032 7.25858 7.61782 7.08912C7.73067 7.14561 7.7871 7.08912 7.89996 7.03263V7.25858V7.31507ZM7.7871 6.04411C7.75889 6.01586 7.73067 5.95938 7.73067 5.93113C7.73067 5.90289 7.73067 5.53572 7.73067 5.47923C7.73067 5.42275 7.64603 5.45099 7.64603 5.47923C7.64603 5.56396 7.64603 5.6487 7.5896 5.73343C7.42032 5.98762 7.13818 6.07235 6.91247 5.78991C6.7714 5.56397 6.7714 5.28153 6.91247 5.08382C7.02532 4.91436 7.27925 4.85788 7.44853 4.97085C7.50496 4.99909 7.56139 5.05558 7.5896 5.14031C7.61782 5.22504 7.61782 5.33802 7.61782 5.42275C7.61782 5.45099 7.70246 5.45099 7.70246 5.42275C7.70246 5.3945 7.70246 4.82963 7.70246 4.80139C7.70246 4.77314 7.61782 4.7449 7.61782 4.80139C7.61782 4.85788 7.56139 4.88612 7.50496 4.88612C7.30746 4.80139 7.08175 4.80139 6.88425 4.88612C6.65854 4.99909 6.51747 5.22504 6.48926 5.45099C6.46104 5.70518 6.60211 5.95938 6.85604 6.04411C7.08175 6.12884 7.30746 6.10059 7.53318 6.01586C7.61782 5.98762 7.64603 6.04411 7.67425 6.12884C7.73067 6.18532 7.81532 6.15708 7.7871 6.04411ZM6.54568 6.66547C6.34819 6.91966 6.34819 7.25858 6.5739 7.48453C6.68675 7.62575 6.88425 7.68223 7.05354 7.62575C7.08175 7.54102 7.13818 7.45629 7.22282 7.37156C7.08175 7.3998 6.91247 7.37156 6.7714 7.25858C6.5739 7.08912 6.51747 6.80668 6.65854 6.60898C6.79961 6.38303 6.99711 6.69371 7.05354 6.7502C7.10996 6.66547 7.19461 6.60898 7.25103 6.55249C7.16639 6.43952 7.10996 6.35479 7.05354 6.2983C6.88425 6.38303 6.71497 6.496 6.54568 6.66547ZM6.65854 8.699C6.60211 9.12266 6.99711 9.37685 7.19461 9.46158C7.25103 9.32036 7.33568 9.20739 7.44853 9.09442C7.53317 9.00968 7.44853 8.98144 7.36389 9.03793C7.27925 9.09441 6.99711 9.03793 6.94068 8.92495C7.08175 8.84022 7.39211 8.55779 7.53318 8.44481C7.42032 8.33184 7.30746 8.16238 7.27925 7.99291C7.13818 8.07765 6.71497 8.27535 6.65854 8.699ZM7.05354 8.24711C7.10996 8.36008 7.16639 8.47306 7.27925 8.55779C7.16639 8.67076 7.02532 8.78374 6.88425 8.86847C6.7714 8.72725 6.71497 8.47306 7.05354 8.24711ZM7.92817 8.10589C7.84353 8.19062 7.75889 8.27535 7.64603 8.36008C7.70246 8.41657 7.7871 8.5013 7.81532 8.61427C7.84353 8.72725 7.81532 9.23563 7.81532 9.37685C7.89996 9.37685 7.95639 9.37685 8.04103 9.37685C8.04103 9.29212 8.04103 8.61427 8.04103 8.5013C8.06924 8.47306 8.12567 8.41657 8.1821 8.38833C8.23853 8.44481 8.35138 8.44481 8.35138 8.52954C8.35138 8.699 8.35138 8.86847 8.35138 9.03793C8.32317 9.17915 8.35138 9.32036 8.40781 9.43334C8.52067 9.34861 8.60531 9.26388 8.71816 9.17915C8.77459 9.1509 8.74638 9.09441 8.68995 9.12266C8.63352 9.1509 8.60531 9.1509 8.60531 9.12266C8.60531 9.09441 8.57709 8.699 8.57709 8.47306C8.57709 8.33184 8.52067 8.21886 8.40781 8.16238C8.35138 8.24711 8.21031 8.33184 8.12567 8.38833C8.01281 8.30359 7.95639 8.21886 7.92817 8.10589ZM8.85923 7.54102C8.91566 7.48453 8.97209 7.42804 9.02852 7.34331C9.08495 7.28682 9.02852 7.25858 9.0003 7.28682C8.97209 7.31507 8.85923 7.23034 8.85923 7.23034C8.80281 7.03263 8.80281 6.86317 8.80281 6.66547C8.80281 6.66547 9.11316 6.63722 9.16959 6.63722C9.22602 6.63722 9.1978 6.52425 9.16959 6.52425C9.14137 6.52425 8.85923 6.55249 8.85923 6.52425C8.83102 6.38303 8.85923 6.24181 8.91566 6.12884C8.94388 6.04411 8.91566 5.98762 8.88745 6.07235C8.80281 6.24181 8.66174 6.41127 8.52067 6.52425C8.40781 6.58073 8.43602 6.58073 8.49245 6.60898C8.54888 6.60898 8.57709 6.63722 8.60531 6.69371C8.57709 6.9479 8.57709 7.17385 8.66174 7.42804C8.66174 7.48453 8.80281 7.5975 8.85923 7.54102ZM9.9878 7.68224C9.93137 7.76697 9.84672 7.8517 9.76208 7.87994C9.84672 7.93643 9.90315 8.02116 9.9878 8.07765C10.0724 7.99291 10.1289 7.93643 10.2135 7.8517C10.1007 7.82345 10.016 7.76697 9.9878 7.68224ZM9.45173 7.37156C9.56459 7.37156 9.73387 7.42804 9.90315 7.3998C10.1007 7.37156 10.2981 7.03263 10.2135 6.77844C10.1289 6.52425 9.84673 6.58073 9.64923 6.496C9.45173 6.43952 9.3953 6.32654 9.5928 6.21357C9.7903 6.10059 10.1007 6.2983 10.1289 6.35479C10.1571 6.41127 10.2135 6.43952 10.2135 6.32654C10.2135 6.10059 10.2135 6.24181 10.1853 6.04411C10.1853 5.95938 10.1289 5.95938 10.1289 6.04411C10.1289 6.12884 10.0442 6.10059 9.9878 6.10059C9.84673 6.07235 9.70566 6.10059 9.56459 6.15708C9.45173 6.21357 9.22602 6.41127 9.36709 6.60898C9.45173 6.7502 9.90315 6.83493 10.016 6.91966C10.1289 7.00439 10.1571 7.14561 10.0724 7.23034L10.0442 7.25858C9.87494 7.34331 9.64923 7.31507 9.47994 7.20209C9.42351 7.14561 9.36709 7.06088 9.36709 6.9479C9.36709 6.83493 9.28245 6.86317 9.28245 6.9479C9.28245 7.08912 9.31066 7.25858 9.31066 7.3998C9.31066 7.48453 9.3953 7.45629 9.3953 7.3998C9.3953 7.42804 9.42351 7.3998 9.45173 7.37156ZM9.0003 8.30359C8.91566 8.36008 9.11316 8.47306 9.08495 8.44481C9.08495 8.699 9.05673 8.98144 9.14138 9.12266C9.1978 9.20739 9.36709 9.26388 9.42352 9.17915C9.47994 9.06617 9.53637 8.98144 9.62101 8.89671C9.67744 8.84022 9.62101 8.81198 9.5928 8.84022C9.50816 8.9532 9.45173 8.89671 9.36709 8.84022C9.33887 8.699 9.31066 8.55779 9.33887 8.41657C9.33887 8.41657 9.50816 8.38833 9.56459 8.38833C9.62101 8.38833 9.5928 8.27535 9.56459 8.27535C9.53637 8.27535 9.33887 8.27535 9.33887 8.24711C9.33887 8.10589 9.36709 7.96467 9.36709 7.82345C9.36709 7.73872 9.33887 7.71048 9.31066 7.79521C9.22602 8.02116 9.11316 8.19062 9.0003 8.30359Z" fill="white"/>
</svg>
