<svg width="414" height="123" viewBox="0 0 414 123" fill="none" xmlns="http://www.w3.org/2000/svg">
<g clip-path="url(#clip0_2001_61)">
<path fill-rule="evenodd" clip-rule="evenodd" d="M24.7301 16.22C24.8701 16.44 25.0401 16.72 25.2901 17.13C25.9401 18.2 26.9401 22.23 28.2301 23.57C28.9201 23.1 30.1101 22.5 30.7901 22.25C30.6301 21.99 29.9101 20.75 29.1001 19.69C27.5501 17.63 26.4301 16.53 26.3001 16.35C25.8801 16.35 25.1701 16.37 24.7201 16.21M36.3801 21.58C36.6901 19.47 35.9801 15.96 35.5701 15.09C35.0401 14.95 34.5001 14.77 34.0601 14.56C34.0001 14.83 33.6001 16.26 33.4701 18.37C33.4001 19.5 33.4301 21.21 33.6401 21.59C34.3101 21.52 35.4301 21.5 36.3801 21.59M42.0001 30.39C41.4001 29.9 40.6201 29.68 40.3201 29.9V30C40.3901 30.73 39.8601 31.36 39.1301 31.43C38.4001 31.49 37.7601 30.95 37.7001 30.23V30.17C37.2301 30.02 36.4701 30.28 36.3701 30.24C36.3101 30.21 35.9901 28.87 36.4101 28.7C37.5501 28.24 41.2101 28.01 42.2701 30.07C42.4001 30.32 42.3201 30.65 42.0001 30.39ZM36.4001 34.12C36.1701 34.79 33.7901 35.01 33.3501 34.13C33.1801 33.78 32.9401 32.89 33.2601 33.07C33.7901 33.38 35.7001 33.16 36.0701 33.07C36.3901 32.99 36.1801 32.54 36.3801 32.6C36.6201 32.67 36.6201 33.48 36.4001 34.12ZM32.6201 30.17C32.5801 30.9 31.9701 31.46 31.2401 31.42C30.5101 31.39 29.9601 30.76 29.9901 30.04V29.89C29.8901 29.72 29.3001 29.53 28.4201 30.06C27.9801 30.33 27.4801 30.15 28.2501 29.48C29.0701 28.77 29.8401 28.36 30.5201 28.28H30.5401C31.6901 28.19 33.1901 28.43 33.8901 28.72C34.1801 28.84 33.8801 30.26 33.8101 30.25C33.5701 30.2 33.0501 29.98 32.6201 30.08V30.18V30.17ZM46.4301 34.03C46.4301 27.68 41.4601 22.7 35.1001 22.7C28.7401 22.7 23.7701 27.77 23.7701 34.03C23.7701 34.33 23.8401 34.94 23.9401 35.55C27.2001 34.79 31.5201 34.91 33.4401 36.44C36.5501 34.67 41.0301 34.56 44.3101 36.47C44.9601 36.14 45.6401 35.91 46.3301 35.71C46.4101 35.1 46.4401 34.46 46.4401 34.03H46.4301ZM42.6901 16.1C41.3601 17.23 39.3201 19.96 39.0601 22.15C39.6901 22.4 41.3401 23.19 41.5601 23.38C43.2001 21.76 42.8701 19.98 43.5001 18.61C43.7801 18.02 44.0501 17.55 44.2001 17.28C43.6701 16.99 43.1001 16.58 42.6801 16.11M50.6301 20.44C50.3301 20.6 49.6401 21.02 49.4101 21.2C47.8401 22.38 44.4301 23.98 43.6401 24.85C44.2701 25.41 45.1901 26.4 45.6101 27.24C45.9901 27.26 47.0901 26.36 49.2801 23.79C49.9801 22.97 50.7201 22.54 52.0701 21.79C51.5101 21.39 51.0301 20.93 50.6301 20.45M23.1501 29.93C22.4101 29.2 20.9501 28.57 19.0401 28.73C15.1401 29.04 12.5701 28.79 11.0901 28.58C8.57006 28.22 7.00005 28.58 5.73005 28.58C1.89006 28.58 5.84005 28.92 6.29005 29.1C8.10005 29.81 11.7401 30.71 14.6101 30.51C16.0101 30.41 18.3501 31.27 18.7601 31.4C19.7901 31.77 21.6501 32.37 22.6601 32.35C22.7101 31.89 22.9501 30.52 23.1501 29.94M26.2901 25.15C24.3301 23.57 22.5201 23.23 19.6401 21.88C18.9901 21.57 17.8901 20.84 17.8401 20.81C17.7601 20.75 17.6201 20.66 17.4401 20.56C17.2701 21.1 16.9301 21.83 16.6101 22.24C17.0601 22.82 20.2701 26.49 24.3901 27.63C24.8401 26.84 25.5701 25.94 26.2801 25.16M67.5301 28C67.3401 27.97 66.6001 27.87 66.1301 27.87C65.5101 27.87 61.4401 27.89 60.3301 28.06C58.0601 28.42 53.6501 28.23 51.2401 28.14C49.4401 28.07 47.3601 28.77 46.7301 29.11C46.7301 29.11 47.4301 30.85 47.4701 32.03C48.2401 32.17 48.9801 31.2 51.1701 31.24C53.4501 31.28 59.0601 30.97 61.9001 29.87C64.0201 29.05 65.8001 28.64 67.2501 28.34C67.7301 28.24 68.5001 28.14 67.5401 28" fill="white"/>
<path fill-rule="evenodd" clip-rule="evenodd" d="M15.44 12.37C15.81 10.44 17.69 7.63001 22 8.72001C22.53 8.85001 22.22 10.2 21.65 9.97001C18.5 8.74001 16.92 11.12 16.41 13.01C16.34 13.27 15.29 13.17 15.43 12.37M13.91 14.73C12.14 14.92 11.62 15.79 11.3 16.79C11.17 17.16 10.18 16.89 10.33 16.16C10.8 13.97 13.17 13.44 14.03 13.63C14.32 13.69 14.23 14.71 13.9 14.74M8.96002 18.65C7.75002 18.65 6.77002 18.68 5.92002 19.6C5.01002 20.59 5.23002 21.13 5.06002 21.31C4.81002 21.56 4.19002 21.12 4.20002 20.63C4.25002 18.3 7.06002 17.4 8.73002 17.58C9.37002 17.65 9.53002 18.64 8.96002 18.64M26.11 7.07001C27.15 5.42001 30.73 2.88001 33.9 5.68001C34.26 5.99001 33.83 7.14001 33.43 6.87001C30.53 4.87001 28.25 6.48001 27.04 7.92001C26.46 8.61001 25.85 7.47001 26.1 7.07001M35.67 6.77001C36.81 4.92001 42.74 3.20001 45.79 8.43001C46.11 9.00001 45.68 9.33001 45.34 9.56001C45.1 9.73001 44.95 9.34001 44.79 9.08001C42.2 4.99001 37.53 6.07001 36.27 7.97001C36.01 8.35001 35.33 7.31001 35.66 6.77001M48.53 9.73001C50.11 9.17001 52.79 8.93001 53.5 11.56C53.7 12.3 52.8 12.65 52.6 12.13C51.87 10.22 50.49 10.3 48.85 10.82C48.09 11.07 48.28 9.81001 48.53 9.73001ZM55.83 13.3C57.53 12.33 61 12.5 62.08 15.6C62.26 16.13 61.57 17.02 61.13 16.22C59.82 13.82 57.72 13.83 55.95 14.5C55.56 14.66 55.2 13.65 55.82 13.3M63.3 16.79C65.05 16.39 67.14 17.66 66.55 20.01C66.45 20.41 65.46 20.44 65.5 20.03C65.65 18.06 64.68 17.91 63.39 17.92C62.9 17.93 62.94 16.88 63.31 16.8M16.7 16.61C16.88 16.45 17.13 16.47 17.36 16.55C19.28 17.17 22.04 16.75 23.33 14.71C23.51 14.43 23.87 14.33 24.18 14.45C25.51 14.99 28.23 15.24 31.55 11.87C31.8 11.62 32.2 11.65 32.48 11.87C35.4 14.21 38.43 14.35 41.51 12.31C41.7 12.18 41.94 12.02 42.16 12.11C42.37 12.2 42.53 12.38 42.58 12.61C43.56 17.16 48.31 16.76 49.74 16.53C49.92 16.5 50.11 16.54 50.26 16.65C50.41 16.76 50.51 16.93 50.53 17.11C50.69 18.17 51.86 20.24 53.91 21.29C55.66 22.19 57.56 22.12 59.57 21.08C59.77 20.98 60.01 20.98 60.21 21.08C62.79 22.46 65.11 22.54 66.57 21.3C67.6 20.43 68.02 19.01 67.61 17.77C67.15 16.39 65.78 15.53 63.84 15.41C63.51 15.39 63.25 15.15 63.2 14.82C63.03 13.72 62.41 12.82 61.42 12.21C59.91 11.29 57.68 11.18 55.46 11.92C55.27 11.98 55.05 11.96 54.88 11.85C54.71 11.74 54.59 11.56 54.56 11.36C54.44 10.51 54.07 9.35001 53 8.70001C51.87 8.01001 50.17 8.03001 48.08 8.75001C47.76 8.86001 47.4 8.72001 47.24 8.41001C45.9 5.83001 44.01 4.16001 41.78 3.57001C39.79 3.04001 37.57 3.43001 35.69 4.63001C35.45 4.79001 35.13 4.78001 34.9 4.60001C33.02 3.19001 30.76 2.73001 28.72 3.36001C26.73 3.97001 25.21 5.52001 24.44 7.74001C24.38 7.92001 24.25 8.07001 24.07 8.14001C23.9 8.22001 23.7 8.22001 23.52 8.15001C20.47 6.93001 17.97 6.96001 16.31 8.24001C14.88 9.34001 14.44 11.08 14.5 11.59C14.55 11.94 14.34 12.27 13.99 12.35L13.26 12.53C11.57 12.91 9.82002 13.32 9.29002 16.01C9.23002 16.31 8.98002 16.53 8.68002 16.57C5.74002 16.86 3.82002 17.95 3.41002 19.56C3.12002 20.69 3.65002 21.98 4.69002 22.68C5.74002 23.39 7.00002 23.32 8.15002 22.48C8.34002 22.34 8.59002 22.31 8.81002 22.39C10.54 23.05 13.34 22.92 15.04 21.56C16.27 20.57 16.76 19.12 16.48 17.23C16.44 16.99 16.53 16.75 16.72 16.6M6.70002 36.08C4.61002 36.03 2.88002 36.63 2.26002 37.7C1.13002 39.67 2.46002 41.37 3.25002 41.85C5.06002 42.94 6.79002 42.23 6.92002 41.56C6.42002 41 5.57002 39.74 5.09002 39.73C4.39002 39.71 4.45002 38.81 4.96002 38.64C6.17002 38.24 7.35002 40.54 9.09002 41.78C10.64 42.89 12.82 42.08 12.82 41.62C11.87 40.76 10.74 36.17 6.70002 36.08ZM48.22 41.51C49.66 42.97 51.63 42.35 51.72 41.87C51.56 41.58 50.65 40.24 50.11 39.95C49.67 39.71 49.39 39.31 49.63 38.98C50.02 38.42 50.81 38.82 51.32 39.43C51.82 40.05 53.21 41.86 53.7 42.13C54.97 42.83 57.76 42.58 57.53 41.77C56.76 40.55 56.23 38.08 53.93 37C51.54 35.87 48.48 36.17 45.65 37.18C46.16 38.19 47.49 40.79 48.22 41.53M31.46 36.92C29.07 35.79 25.7 36.17 22.86 37.18C23.65 38.23 24.95 40.67 25.63 41.5C26.93 43.09 29.16 42.29 29.26 41.81C29.1 41.52 27.91 39.97 27.46 39.71C27.04 39.47 26.79 39.09 27.03 38.75C27.43 38.19 28.36 38.75 28.86 39.36C29.36 39.97 30.78 41.74 31.25 42.06C32.64 43.01 35.31 42.51 35.08 41.7C34.17 40.49 33.77 38.01 31.47 36.93M13.57 55.21C11.87 55.26 10.21 55.93 9.24002 55.76V67.12C9.24002 67.12 9.85002 67.59 11.56 67.11C13.76 66.48 14.74 67.17 14.74 67.17V55.7C14.74 55.7 14.48 55.18 13.57 55.21ZM19.66 102.73C21.36 103.22 21.98 102.75 21.98 102.75V91.39C21 91.56 19.35 90.89 17.64 90.84C16.73 90.81 16.47 91.33 16.47 91.33V102.79C16.47 102.79 17.45 102.1 19.66 102.73ZM56.66 55.21C55.75 55.18 55.49 55.7 55.49 55.7V67.17C55.49 67.17 56.47 66.48 58.68 67.11C60.38 67.59 61 67.12 61 67.12V55.76C60.03 55.93 58.37 55.26 56.67 55.21M17.65 55.21C16.74 55.18 16.48 55.7 16.48 55.7V67.17C16.48 67.17 17.46 66.48 19.67 67.11C21.37 67.59 21.99 67.12 21.99 67.12V55.76C21.01 55.93 19.35 55.26 17.65 55.21ZM14.76 102.79V91.33C14.76 91.33 14.5 90.81 13.59 90.84C11.89 90.89 10.23 91.56 9.26002 91.39V102.75C9.26002 102.75 9.87002 103.22 11.57 102.73C13.77 102.1 14.76 102.79 14.76 102.79ZM55.72 91.33V102.79C55.72 102.79 56.7 102.1 58.9 102.73C60.6 103.22 61.22 102.75 61.22 102.75V91.39C60.24 91.56 58.59 90.89 56.89 90.84C55.97 90.81 55.72 91.33 55.72 91.33ZM52.61 55.21C50.91 55.26 49.25 55.93 48.28 55.76V67.12C48.28 67.12 48.9 67.59 50.6 67.11C52.8 66.48 53.78 67.17 53.78 67.17V55.7C53.78 55.7 53.53 55.18 52.61 55.21ZM48.49 91.39V102.75C48.49 102.75 49.1 103.22 50.81 102.73C53.01 102.1 54 102.79 54 102.79V91.33C54 91.33 53.74 90.81 52.83 90.84C51.13 90.89 49.47 91.56 48.5 91.39" fill="white"/>
<path fill-rule="evenodd" clip-rule="evenodd" d="M64.25 69.8H56.44V70.78H53.2V69.8H45.39V56.6H47.05V54.2C48.74 54.61 51.51 53.68 52.74 53.68C54.12 53.68 54.81 54.28 54.81 54.28C54.81 54.28 55.52 53.68 56.88 53.68C58.12 53.68 60.88 54.6 62.57 54.2V56.6H64.23V69.8H64.25ZM41.06 74.85H68.32V50.14H41.06V74.85ZM25.02 69.8H17.21V70.78H13.97V69.8H6.16002V56.6H7.83002V54.2C9.52002 54.61 12.29 53.68 13.52 53.68C14.9 53.68 15.6 54.28 15.6 54.28C15.6 54.28 16.31 53.68 17.67 53.68C18.9 53.68 21.67 54.6 23.36 54.2V56.6H25.03V69.8H25.02ZM1.90002 74.85H29.18V50.14H1.90002V74.85ZM41.06 119.04C47.93 117.05 54.74 114.39 59.35 110.18C60.98 108.69 62.34 107.13 63.47 105.43H56.44V106.41H53.2V105.43H45.39V92.23H47.06V89.83C48.75 90.24 51.52 89.31 52.75 89.31C54.13 89.31 54.82 89.91 54.82 89.91C54.82 89.91 55.53 89.31 56.89 89.31C58.13 89.31 60.89 90.23 62.58 89.83V92.23H64.25V104.17C66.76 99.83 67.95 94.52 68.36 87.05L68.31 85.94H41.06V119.05V119.04ZM6.16002 104.03V92.23H7.83002V89.83C9.52002 90.24 12.29 89.31 13.52 89.31C14.9 89.31 15.6 89.91 15.6 89.91C15.6 89.91 16.31 89.31 17.67 89.31C18.91 89.31 21.67 90.23 23.36 89.83V92.23H25.03V105.43H17.22V106.41H13.99V105.43H7.03002C8.14002 107.12 9.46002 108.68 11 110.13C15.34 114.2 22.16 116.96 29.18 119.02V85.94H1.90002L1.96002 86.99C2.23002 93.82 3.51002 99.39 6.17002 104.05" fill="white"/>
<path fill-rule="evenodd" clip-rule="evenodd" d="M67.28 28.3C65.84 28.59 64.06 29 61.93 29.83C59.09 30.94 53.48 31.24 51.19 31.2C49 31.16 48.26 32.13 47.5 32C47.45 30.82 46.76 29.08 46.76 29.08C47.39 28.74 49.47 28.04 51.27 28.11C53.68 28.2 58.09 28.39 60.36 28.03C61.47 27.86 65.54 27.84 66.16 27.84C66.63 27.84 67.36 27.94 67.55 27.97C68.51 28.12 67.75 28.21 67.27 28.31M53.92 36.99C56.22 38.07 56.75 40.54 57.52 41.76C57.74 42.57 54.96 42.82 53.69 42.13C53.2 41.85 51.81 40.04 51.31 39.43C50.81 38.82 50.02 38.43 49.62 38.98C49.38 39.32 49.67 39.72 50.1 39.95C50.64 40.24 51.55 41.58 51.71 41.87C51.62 42.35 49.65 42.98 48.21 41.51C47.47 40.77 46.14 38.18 45.63 37.16C48.46 36.15 51.52 35.86 53.91 36.98M62.36 36.2C67.34 36.62 68.52 39.9 68.02 40.96C67.59 41.89 64.54 43.11 59.92 41.8C58.4 41.12 57.19 37.61 56.74 37.16C56.56 36.98 59.43 35.94 62.36 36.19M37.47 41.96C35.95 41.28 34.74 37.77 34.29 37.32C34.11 37.14 36.99 36.1 39.91 36.35C44.89 36.77 44.9 39.86 46.13 41.4C46.58 41.96 42.1 43.25 37.47 41.95M31.22 42.01C30.75 41.7 29.34 39.92 28.83 39.31C28.33 38.7 27.4 38.15 27 38.7C26.76 39.03 27 39.42 27.43 39.66C27.88 39.92 29.08 41.47 29.23 41.76C29.14 42.24 26.91 43.04 25.6 41.45C24.92 40.62 23.62 38.18 22.83 37.13C25.66 36.12 29.04 35.75 31.43 36.87C33.72 37.95 34.12 40.43 35.04 41.64C35.26 42.45 32.6 42.95 31.21 42M14.92 41.69C13.4 41.01 12.19 37.5 11.74 37.06C11.56 36.88 14.44 35.84 17.36 36.09C22.34 36.51 22.35 39.6 23.58 41.15C24.03 41.71 19.54 43 14.92 41.7M9.06003 41.76C7.32003 40.52 6.14003 38.21 4.93003 38.62C4.42003 38.78 4.37003 39.69 5.06003 39.71C5.54003 39.72 6.39003 40.99 6.89003 41.54C6.76003 42.21 5.03003 42.92 3.22003 41.83C2.43003 41.35 1.10003 39.65 2.23003 37.68C2.84003 36.61 4.58003 36.02 6.67003 36.06C10.71 36.15 11.84 40.74 12.79 41.6C12.79 42.06 10.61 42.87 9.06003 41.76ZM18.75 31.35C18.35 31.21 16 30.36 14.6 30.46C11.73 30.67 8.09003 29.77 6.28003 29.05C5.83003 28.88 1.88003 28.53 5.72003 28.53C6.98003 28.53 8.55003 28.18 11.08 28.53C12.56 28.74 15.13 28.99 19.03 28.68C20.94 28.53 22.4 29.16 23.14 29.88C22.94 30.46 22.71 31.83 22.65 32.29C21.64 32.31 19.78 31.71 18.75 31.34M16.61 22.17C16.93 21.76 17.27 21.03 17.44 20.49C17.62 20.6 17.76 20.69 17.84 20.74C17.9 20.77 18.99 21.51 19.64 21.81C22.52 23.16 24.32 23.5 26.28 25.08C25.56 25.86 24.84 26.77 24.39 27.55C20.27 26.41 17.06 22.74 16.61 22.16M15.01 21.52C13.31 22.88 10.51 23.01 8.78003 22.35C8.56003 22.27 8.31003 22.3 8.13003 22.44C6.98003 23.28 5.72003 23.35 4.67003 22.64C3.63003 21.94 3.10003 20.65 3.39003 19.52C3.80003 17.91 5.72003 16.82 8.66003 16.53C8.96003 16.5 9.21003 16.27 9.27003 15.97C9.80003 13.28 11.55 12.87 13.24 12.49L13.97 12.31C14.32 12.23 14.53 11.9 14.48 11.55C14.42 11.04 14.86 9.29998 16.29 8.19998C17.96 6.90998 20.45 6.87998 23.5 8.10998C23.68 8.17998 23.88 8.17998 24.05 8.09998C24.22 8.01998 24.36 7.87998 24.42 7.69998C25.19 5.47998 26.7 3.92998 28.7 3.31998C30.75 2.68998 33 3.13998 34.88 4.55998C35.11 4.72998 35.43 4.74998 35.67 4.58998C37.54 3.38998 39.76 2.99998 41.76 3.52998C43.99 4.11998 45.88 5.79998 47.22 8.36998C47.38 8.66998 47.74 8.81998 48.06 8.70998C50.15 7.98998 51.85 7.96998 52.98 8.65998C54.05 9.30998 54.42 10.47 54.54 11.32C54.57 11.52 54.69 11.7 54.86 11.81C55.04 11.92 55.25 11.94 55.44 11.88C57.66 11.14 59.89 11.25 61.4 12.17C62.39 12.78 63.01 13.68 63.18 14.78C63.23 15.1 63.5 15.35 63.82 15.37C65.76 15.49 67.13 16.35 67.59 17.73C68 18.97 67.59 20.39 66.55 21.26C65.09 22.5 62.76 22.41 60.19 21.04C59.99 20.93 59.75 20.93 59.55 21.04C57.54 22.08 55.64 22.14 53.89 21.25C51.85 20.2 50.67 18.13 50.51 17.07C50.48 16.89 50.38 16.72 50.24 16.61C50.09 16.5 49.9 16.46 49.72 16.49C48.29 16.72 43.54 17.12 42.56 12.57C42.51 12.35 42.35 12.16 42.14 12.07C41.93 11.98 41.68 12.15 41.49 12.27C38.41 14.32 35.37 14.17 32.46 11.83C32.18 11.61 31.78 11.57 31.53 11.83C28.21 15.2 25.49 14.95 24.16 14.41C23.85 14.28 23.49 14.39 23.31 14.67C22.02 16.71 19.26 17.13 17.34 16.51C17.11 16.44 16.86 16.42 16.68 16.57C16.5 16.72 16.41 16.96 16.44 17.2C16.72 19.08 16.24 20.54 15 21.53M38.25 19.79C37.94 20.58 37.82 21 37.7 21.44C37.94 19.74 37.48 17.26 36.99 15.11C38.47 15.14 39.97 14.75 41.46 13.91C41.57 14.25 41.73 14.54 41.88 14.83C41.04 15.6 39.03 17.8 38.25 19.79ZM45.22 18.13C45.27 18.04 45.33 17.92 45.4 17.79C46.62 18.2 47.96 18.3 49.27 18.16C49.4 18.59 49.61 19.05 49.87 19.51C49.87 19.51 49.85 19.51 49.85 19.52C49.2 19.83 47.23 21.18 44.35 22.78C43.6 23.19 43.15 23.59 42.88 23.86C43.2 23.43 43.58 22.87 43.83 22.25C44.34 20.95 44.2 19.91 45.22 18.13ZM43.49 18.57C42.85 19.95 43.18 21.73 41.54 23.34C41.32 23.15 39.66 22.36 39.04 22.11C39.3 19.92 41.33 17.19 42.67 16.06C43.09 16.53 43.66 16.94 44.19 17.23C44.03 17.5 43.77 17.97 43.49 18.56M33.45 18.33C33.58 16.22 33.98 14.79 34.03 14.52C34.48 14.73 35.02 14.92 35.55 15.05C35.96 15.93 36.67 19.43 36.36 21.55C35.4 21.46 34.28 21.48 33.61 21.55C33.4 21.17 33.37 19.46 33.44 18.33M35.07 22.66C41.42 22.66 46.4 27.64 46.4 33.99C46.4 34.42 46.37 35.06 46.29 35.66C45.6 35.86 44.93 36.09 44.27 36.42C40.99 34.51 36.51 34.62 33.4 36.39C31.48 34.87 27.16 34.75 23.9 35.5C23.8 34.89 23.73 34.28 23.73 33.98C23.73 27.72 28.8 22.65 35.06 22.65M29.05 19.65C29.86 20.71 30.58 21.95 30.74 22.21C30.06 22.45 28.87 23.06 28.18 23.52C26.89 22.18 25.88 18.15 25.24 17.08C24.99 16.67 24.82 16.39 24.68 16.16C25.13 16.32 25.84 16.3 26.26 16.3C26.39 16.48 27.5 17.58 29.05 19.64M31.96 21.54L32.01 21.64C32.01 21.64 31 20.12 30.88 19.93C30.53 19.4 30.08 18.87 29.58 18.24C28.79 17.28 28.09 16.5 27.56 15.92C28.89 15.6 30.4 14.84 32.03 13.3C32.2 13.43 32.38 13.52 32.56 13.63C32.47 14.15 32.39 14.62 32.33 14.97C31.95 17.02 31.93 18.6 31.9 19.28C31.87 19.92 31.93 20.94 31.98 21.53M17.82 18.13C19.65 18.42 21.79 17.99 23.34 16.59C25.25 19.64 25.3 22.39 27.14 24.29C24.82 22.04 22.79 22.09 19.47 20.29C18.9 19.98 18.04 19.42 17.8 19.3C17.8 19.3 17.8 19.3 17.79 19.3C17.83 19.02 17.85 18.73 17.85 18.41C17.85 18.32 17.83 18.22 17.83 18.12M49.28 23.7C47.1 26.27 46 27.17 45.61 27.15C45.19 26.32 44.27 25.32 43.64 24.76C44.43 23.89 47.84 22.3 49.41 21.11C49.64 20.94 50.33 20.51 50.63 20.35C51.04 20.83 51.52 21.3 52.07 21.69C50.72 22.44 49.98 22.87 49.28 23.69M71.33 27.16C70.92 26.86 66.57 26.32 65.9 26.32C65.23 26.32 61.49 26.35 60.04 26.57C57.79 26.91 53.94 26.91 51.02 26.57C49.96 26.45 48.79 26.71 47.84 27.01C48.03 26.85 48.23 26.67 48.47 26.42C49.33 25.53 50.3 23.85 52.01 23.01C52.44 22.8 52.85 22.58 53.24 22.36C54.68 23.08 56.94 23.57 59.76 22.24C63.96 24.34 66.47 22.92 67.35 22.17C68.43 21.26 69.04 19.91 69.04 18.55C69.04 18.08 68.97 17.6 68.81 17.14C68.21 15.31 66.54 14.18 64.25 13.91C64.12 13.42 63.91 12.97 63.66 12.54C63.93 12.2 64.18 11.88 64.34 11.69C64.54 11.44 65.23 10.29 63.38 11.25C63.28 11.3 63.11 11.4 62.88 11.52C62.62 11.26 62.34 11.03 62.01 10.83C60.29 9.77998 57.96 9.64998 55.56 10.29C55.22 9.00998 54.59 7.92998 53.58 7.31998C52.52 6.66998 51.19 6.48998 49.63 6.72998C49.73 6.49998 49.82 6.29998 49.89 6.13998C50.59 4.67998 50.21 4.30998 49.48 4.95998C48.65 5.68998 48.13 6.20998 47.73 6.62998C46.25 4.24998 44.29 2.63998 41.99 2.02998C39.99 1.49998 37.83 1.77998 35.87 2.71998C35.75 1.73998 35.63 0.929983 35.49 0.469983C35.13 -0.710017 34.69 0.219983 34.62 0.579983C34.54 1.06998 34.43 1.74998 34.3 2.53998C32.35 1.49998 30.19 1.20998 28.16 1.82998C25.94 2.50998 24.24 4.16998 23.26 6.46998C22.45 6.17998 21.72 6.00998 21.03 5.88998C20.62 5.35998 20.02 4.67998 19.18 3.93998C18.61 3.43998 18.14 3.69998 18.48 4.68998C18.61 5.06998 18.73 5.41998 18.84 5.73998C17.25 5.82998 16.1 6.34998 15.32 6.94998C13.78 8.13998 13.15 9.84998 13.02 10.93C12.93 10.95 12.81 10.98 12.81 10.98C11.52 11.28 9.77003 11.76 8.68003 13.49C8.49003 13.37 8.35003 13.28 8.29003 13.25C5.03003 11.08 6.53003 13.87 7.79003 15.1C3.45003 15.71 2.23003 17.8 1.92003 19.03C1.84003 19.35 1.80003 19.67 1.80003 19.99C1.80003 21.4 2.53003 22.81 3.77003 23.64C5.22003 24.62 6.98003 24.56 8.54003 23.56C10.58 24.22 13.46 24.11 15.53 22.61C16.72 23.9 17.69 24.81 18.21 25.33C19.51 26.62 21.42 27.61 22.39 27.98C21.43 27.61 19.82 27.21 18.22 27.43C14.75 27.91 12.45 27.28 10.97 27.14C8.53003 26.9 6.01003 27.32 4.76003 27.32C3.43003 27.32 1.56003 27.94 0.65003 28.08C-0.33997 28.23 -0.26997 28.88 1.10003 29.24C2.46003 29.61 5.00003 29.83 5.70003 30.13C7.91003 31.09 11.61 31.89 14.22 31.68C16.07 31.54 17.94 32.44 18.41 32.58C19.33 32.86 21.6 33.48 22.54 33.46C22.54 33.4 22.54 34.77 22.64 35.42C22.29 35.54 21.95 35.66 21.64 35.8C20.61 35.17 16.06 33.33 10.52 35.62C9.35003 35.21 6.87003 33.85 3.48003 34.97C-0.68997 36.46 -0.00996995 40.29 1.37003 42.05C3.24003 44.43 6.70003 43.95 7.70003 42.75C9.95003 44.24 12.25 43.74 13.91 42.7C15 43.34 20.39 44.41 24.49 42.75C25.05 43.17 27.3 44.34 30.18 42.89C31.85 43.88 34.6 43.95 36.02 42.71C36.53 43.15 38.07 43.77 41.35 43.73C45.28 43.68 46.2 43.1 46.75 42.62C47.6 43.01 49.81 44.17 52.54 43C54.01 43.93 56.96 43.87 58.55 42.84C61.44 44.15 66.75 43.56 68.07 42.65C70.44 41 69.29 37.65 66.68 36.05C61.54 33.46 56.76 35.47 55.49 36.12C53.98 35.1 50.81 34.44 47.52 35.05C47.57 34.66 47.52 34.21 47.52 33.71C47.52 33.66 47.52 33.61 47.52 33.55C48.17 33.35 49.1 32.65 50.99 32.53C53.56 32.36 59.61 32.44 62.64 30.89C64.37 30.01 70.38 28.83 71.18 28.36C72.01 27.89 71.79 27.53 71.37 27.25" fill="#231F20"/>
<path fill-rule="evenodd" clip-rule="evenodd" d="M8.98004 18.63C7.77004 18.63 6.79004 18.66 5.94004 19.58C5.03004 20.57 5.25004 21.11 5.08004 21.29C4.83004 21.53 4.20004 21.1 4.22004 20.61C4.27004 18.28 7.09004 17.38 8.75004 17.56C9.38004 17.64 9.55004 18.62 8.98004 18.62M13.92 14.71C12.14 14.91 11.62 15.77 11.31 16.76C11.18 17.14 10.18 16.87 10.34 16.13C10.81 13.94 13.18 13.41 14.04 13.6C14.33 13.65 14.24 14.68 13.91 14.71M21.64 9.96C18.49 8.73 16.91 11.11 16.4 13C16.33 13.26 15.28 13.16 15.42 12.36C15.78 10.43 17.67 7.62 21.98 8.71C22.51 8.84 22.2 10.19 21.63 9.96M33.41 6.86C30.51 4.87 28.23 6.47 27.02 7.91C26.44 8.6 25.84 7.46 26.08 7.06C27.12 5.41 30.7 2.87 33.87 5.67C34.23 5.98 33.8 7.13 33.4 6.86M45.31 9.56C45.07 9.73 44.93 9.34 44.77 9.08C42.18 4.99 37.51 6.07 36.25 7.97C35.99 8.35 35.31 7.31 35.65 6.77C36.78 4.92 42.72 3.2 45.77 8.43C46.09 9 45.66 9.33 45.32 9.56M52.6 12.13C51.87 10.22 50.49 10.3 48.85 10.82C48.09 11.07 48.28 9.81 48.53 9.73C50.11 9.17 52.79 8.93 53.5 11.56C53.7 12.3 52.8 12.65 52.6 12.13ZM61.13 16.23C59.83 13.83 57.72 13.84 55.96 14.51C55.56 14.67 55.21 13.66 55.83 13.31C57.53 12.34 61 12.51 62.08 15.61C62.26 16.14 61.57 17.03 61.13 16.23ZM66.55 20.01C66.45 20.41 65.46 20.44 65.5 20.03C65.65 18.06 64.68 17.91 63.39 17.92C62.9 17.93 62.94 16.88 63.31 16.8C65.06 16.4 67.15 17.67 66.56 20.02M32.62 30.18C32.58 30.91 31.97 31.47 31.24 31.43C30.51 31.39 29.95 30.77 29.99 30.05V29.9C29.89 29.73 29.3 29.54 28.41 30.07C27.97 30.34 27.47 30.15 28.24 29.49C29.06 28.78 29.83 28.37 30.51 28.28H30.53C31.68 28.2 33.18 28.43 33.88 28.72C34.17 28.84 33.88 30.26 33.8 30.25C33.56 30.2 33.04 29.98 32.61 30.08V30.19M36.39 34.14C36.16 34.81 33.78 35.03 33.34 34.15C33.17 33.8 32.93 32.91 33.25 33.09C33.78 33.4 35.69 33.18 36.06 33.09C36.38 33.01 36.17 32.56 36.37 32.62C36.61 32.69 36.61 33.5 36.39 34.14ZM41.99 30.41C41.39 29.92 40.61 29.7 40.31 29.92V30.02C40.38 30.75 39.85 31.38 39.12 31.45C38.39 31.51 37.75 30.97 37.69 30.25V30.19C37.22 30.04 36.46 30.3 36.36 30.26C36.3 30.23 35.98 28.89 36.4 28.72C37.54 28.26 41.2 28.03 42.26 30.09C42.39 30.34 42.31 30.67 41.99 30.41ZM0.230042 48.47V85.05C0.230042 97.14 3.25004 105.51 9.71004 111.39C16.12 117.23 25.73 120.19 35.12 122.41C44.77 120.13 54.05 117.29 60.53 111.39C66.99 105.51 69.99 97.14 69.99 85.05V48.47H0.230042ZM53.96 91.3V102.76C53.96 102.76 52.98 102.07 50.77 102.7C49.07 103.19 48.46 102.72 48.46 102.72V91.36C49.43 91.53 51.09 90.86 52.79 90.81C53.7 90.78 53.96 91.3 53.96 91.3ZM61.19 91.36V102.72C61.19 102.72 60.58 103.19 58.87 102.7C56.67 102.07 55.68 102.76 55.68 102.76V91.3C55.68 91.3 55.94 90.78 56.85 90.81C58.55 90.86 60.2 91.53 61.18 91.36H61.19ZM64.26 104.17V92.23H62.59V89.83C60.9 90.23 58.14 89.31 56.9 89.31C55.54 89.31 54.83 89.91 54.83 89.91C54.83 89.91 54.13 89.31 52.76 89.31C51.52 89.31 48.76 90.24 47.07 89.83V92.23H45.4V105.43H53.21V106.41H56.45V105.43H63.48C62.35 107.13 60.99 108.69 59.36 110.18C54.75 114.4 47.94 117.05 41.07 119.04V85.93H68.33L68.38 87.04C67.97 94.51 66.78 99.82 64.27 104.16L64.26 104.17ZM39.64 119.47L35.12 120.62L30.59 119.45V84.41H1.90004V76.37H30.59V50.14H39.63V76.37H68.31V84.41H39.63V119.47H39.64ZM16.46 102.77V91.31C16.46 91.31 16.72 90.79 17.63 90.82C19.33 90.87 20.99 91.54 21.96 91.37V102.73C21.96 102.73 21.35 103.2 19.64 102.71C17.44 102.08 16.45 102.77 16.45 102.77H16.46ZM9.23004 102.73V91.37C10.2 91.54 11.86 90.87 13.56 90.82C14.47 90.79 14.73 91.31 14.73 91.31V102.77C14.73 102.77 13.75 102.08 11.54 102.71C9.84004 103.2 9.23004 102.73 9.23004 102.73ZM29.17 119.02C22.15 116.96 15.34 114.2 10.99 110.13C9.44004 108.68 8.13004 107.12 7.02004 105.43H13.98V106.41H17.21V105.43H25.02V92.23H23.35V89.83C21.66 90.23 18.9 89.31 17.66 89.31C16.3 89.31 15.59 89.91 15.59 89.91C15.59 89.91 14.89 89.31 13.51 89.31C12.27 89.31 9.51004 90.24 7.82004 89.83V92.23H6.15004V104.03C3.50004 99.38 2.21004 93.8 1.94004 86.97L1.88004 85.92H29.15V119.01L29.17 119.02ZM1.90004 74.85H29.18V50.14H1.90004V74.85ZM41.06 74.85H68.32V50.14H41.06V74.85Z" fill="#231F20"/>
<path fill-rule="evenodd" clip-rule="evenodd" d="M21.96 67.09C21.96 67.09 21.35 67.56 19.64 67.07C17.44 66.44 16.45 67.13 16.45 67.13V55.67C16.45 55.67 16.71 55.15 17.62 55.18C19.32 55.23 20.98 55.9 21.96 55.73V67.09ZM14.73 67.13C14.73 67.13 13.75 66.44 11.55 67.07C9.85003 67.56 9.23003 67.09 9.23003 67.09V55.73C10.21 55.9 11.87 55.23 13.56 55.18C14.47 55.15 14.73 55.67 14.73 55.67V67.13ZM23.36 56.6V54.2C21.67 54.6 18.91 53.68 17.67 53.68C16.31 53.68 15.6 54.28 15.6 54.28C15.6 54.28 14.9 53.69 13.52 53.68C12.29 53.68 9.52003 54.61 7.83003 54.2V56.6H6.16003V69.8H13.97V70.78H17.21V69.8H25.02V56.6H23.35H23.36ZM60.98 67.09C60.98 67.09 60.36 67.56 58.66 67.07C56.45 66.44 55.47 67.13 55.47 67.13V55.67C55.47 55.67 55.73 55.15 56.64 55.18C58.33 55.23 60 55.9 60.97 55.73V67.09H60.98ZM53.75 67.13C53.75 67.13 52.77 66.44 50.57 67.07C48.87 67.56 48.25 67.09 48.25 67.09V55.73C49.23 55.9 50.89 55.23 52.59 55.18C53.5 55.15 53.76 55.67 53.76 55.67V67.13H53.75ZM62.59 56.6V54.2C60.89 54.6 58.13 53.68 56.9 53.68C55.54 53.68 54.83 54.28 54.83 54.28C54.83 54.28 54.13 53.69 52.76 53.68C51.53 53.68 48.76 54.61 47.07 54.2V56.6H45.41V69.8H53.22V70.78H56.46V69.8H64.27V56.6H62.61H62.59Z" fill="#231F20"/>
<path fill-rule="evenodd" clip-rule="evenodd" d="M30.59 119.45L35.12 120.62L39.64 119.47V84.41H68.32V76.36H39.64V50.13H30.59V76.36H1.90002V84.41H30.59V119.45Z" fill="#EB2227"/>
<path fill-rule="evenodd" clip-rule="evenodd" d="M17.39 36.11C14.47 35.86 11.59 36.9 11.77 37.08C12.22 37.53 13.43 41.04 14.95 41.71C19.57 43.01 24.05 41.72 23.6 41.16C22.37 39.62 22.36 36.53 17.38 36.1M39.92 36.35C37 36.1 34.12 37.14 34.3 37.32C34.75 37.77 35.96 41.28 37.48 41.96C42.1 43.26 46.59 41.98 46.14 41.41C44.92 39.87 44.9 36.78 39.92 36.36M59.93 41.8C64.55 43.1 67.6 41.89 68.03 40.96C68.53 39.9 67.34 36.62 62.37 36.2C59.45 35.95 56.57 36.99 56.75 37.17C57.19 37.62 58.4 41.13 59.93 41.81" fill="#EB2227"/>
<path d="M99.78 23.16C98.93 20.15 97.31 17.18 93.53 17.18C90.11 17.18 88.4 19.61 88.4 22.49C88.4 25.95 90.65 27.53 94.2 29.51C97.71 31.45 101.67 33.47 101.67 38.47C101.67 42.79 97.89 46.7 92.09 46.7C90.24 46.7 88.89 46.29 87.9 46.03C86.69 45.62 86.01 45.36 85.56 45.13C85.25 44.41 84.57 39.69 84.48 38.38L85.06 38.15C85.69 41.07 87.94 45.66 92.75 45.66C96.26 45.66 98.28 43.28 98.28 39.9C98.28 36.52 95.81 34.91 92.52 32.97C90 31.49 85.23 29.19 85.23 24.11C85.23 19.93 88.56 16.28 94.14 16.28C96.7 16.28 98.37 16.91 99.58 17.23C99.71 18.85 99.98 20.61 100.34 23.03L99.76 23.16H99.78Z" fill="#010101"/>
<path d="M121.11 41.97C119.17 44.53 116.43 46.6 113.87 46.6C108.52 46.6 105.28 42.14 105.28 37.56C105.28 34.18 106.63 31.22 109.73 28.79C111.89 27.08 114.5 26.32 116.07 26.32H116.12C117.69 26.32 119.13 26.9 119.85 27.53C120.34 27.98 120.52 28.34 120.52 28.79C120.52 29.64 119.71 30.37 119.31 30.37C119.04 30.37 118.9 30.28 118.41 29.83C117.24 28.71 115.75 28.08 114 28.08C111.03 28.08 108.42 30.19 108.42 35.32C108.42 41.85 112.87 43.96 115.3 43.96C117.28 43.96 118.72 43.51 120.74 41.49L121.1 41.99L121.11 41.97Z" fill="#010101"/>
<path d="M134.03 46.06V45.52C136.59 45.3 136.95 44.89 136.95 41.88V34.14C136.95 30.36 135.6 28.43 132.59 28.43C130.97 28.43 129.26 29.29 127.96 30.68V41.89C127.96 44.9 128.27 45.31 130.75 45.53V46.07H121.89V45.53C124.41 45.31 124.72 44.95 124.72 41.89V19.08C124.72 16.11 124.63 15.89 121.84 15.62V15.21C123.86 14.9 126.52 14.18 127.96 13.64V29.75C129.53 28.17 131.83 26.33 134.39 26.33C137.72 26.33 140.19 28.4 140.19 33.98V41.9C140.19 45 140.55 45.32 142.94 45.54V46.08H134.03V46.06Z" fill="#010101"/>
<path d="M154.37 26.31C159.86 26.31 163.73 30.76 163.73 36.12C163.73 43.09 158.73 46.6 154.33 46.6C148.39 46.6 144.84 41.79 144.84 36.84C144.84 29.64 150.42 26.31 154.33 26.31H154.37ZM153.83 27.21C150.82 27.21 148.7 30.36 148.7 35.35C148.7 41.29 150.99 45.7 154.82 45.7C157.65 45.7 159.86 43.54 159.86 36.97C159.86 31.84 157.88 27.21 153.88 27.21H153.84H153.83Z" fill="#010101"/>
<path d="M176.51 26.31C182 26.31 185.87 30.76 185.87 36.12C185.87 43.09 180.87 46.6 176.47 46.6C170.53 46.6 166.98 41.79 166.98 36.84C166.98 29.64 172.56 26.31 176.47 26.31H176.51ZM175.97 27.21C172.96 27.21 170.84 30.36 170.84 35.35C170.84 41.29 173.13 45.7 176.96 45.7C179.79 45.7 182 43.54 182 36.97C182 31.84 180.02 27.21 176.02 27.21H175.98H175.97Z" fill="#010101"/>
<path d="M187.62 46.06V45.52C190.32 45.25 190.63 44.94 190.63 41.83V19.2C190.63 16.05 190.45 15.87 187.71 15.6V15.19C189.69 14.88 192.52 14.2 193.88 13.62V41.83C193.88 44.93 194.19 45.25 196.89 45.52V46.06H187.62Z" fill="#010101"/>
<path d="M217.17 32.5C219.69 32.5 221.22 34.18 221.22 37.27C221.22 39.85 220.11 42.76 217.98 44.53C216.66 45.61 215.01 46.42 213.27 46.42C210.39 46.42 209.22 44.14 209.22 41.68C209.22 37.78 211.29 34.81 213.78 33.49C214.89 32.89 216.15 32.5 217.14 32.5H217.17ZM216.12 33.76C215.7 33.76 215.31 33.85 214.98 34.03C213.78 34.57 211.83 37 211.83 41.5C211.83 43.72 212.76 45.13 214.38 45.13C214.77 45.13 215.07 45.04 215.37 44.92C216.96 44.23 218.61 41.11 218.61 37.3C218.61 34.87 217.56 33.76 216.15 33.76H216.12Z" fill="#010101"/>
<path d="M226.26 33.04C226.68 30.85 227.43 28.66 228.78 27.16C230.19 25.6 231.87 24.79 233.07 24.79C234.18 24.79 234.99 25.54 234.96 26.08C234.96 26.56 234.51 27.13 234.18 27.37C233.91 27.55 233.61 27.58 233.4 27.37C232.74 26.68 232.11 26.32 231.48 26.32C230.43 26.32 229.5 27.64 228.66 33.04H232.08L231.45 34.09L228.39 34.39C227.85 37.66 227.55 39.37 226.92 42.55C225.84 47.74 224.64 50.08 223.05 51.73C221.7 53.17 220.47 53.65 219.66 53.65C218.79 53.65 217.74 52.99 217.74 52.3C217.74 51.91 218.13 51.37 218.58 50.98C218.85 50.77 219 50.8 219.18 50.98C219.66 51.43 220.53 51.73 221.07 51.73C221.58 51.73 222 51.49 222.3 51.16C222.69 50.74 223.44 49.48 224.43 43.66C225.12 39.7 225.51 37.24 225.99 34.33H223.5L223.38 33.97L224.31 33.04H226.26Z" fill="#010101"/>
<path d="M95.42 61.9C98.48 61.9 101.09 62.44 102.75 63.7C104.5 65.05 105.58 67.12 105.58 70C105.58 75.85 101.17 78.55 96.94 79.09C96.36 79.18 95.59 79.18 95.19 79.09L91.91 78.19V86.11C91.91 89.89 92.27 90.21 95.87 90.52V91.06H84.71V90.52C88.04 90.21 88.4 89.85 88.4 86.02V66.9C88.4 62.98 88.09 62.67 84.94 62.4V61.9H95.42ZM91.91 77.38C92.49 77.61 93.71 77.83 95.01 77.83C97.84 77.83 101.58 76.3 101.58 70.05C101.58 65.01 98.65 62.72 94.79 62.72C93.58 62.72 92.68 62.94 92.41 63.22C92.05 63.49 91.91 64.12 91.91 65.74V77.39V77.38Z" fill="#010101"/>
<path d="M114.14 76.08C115.18 74.19 117.24 71.31 119.36 71.31C120.75 71.31 121.7 72.43 121.7 73.38C121.7 74.1 121.16 74.78 120.39 75.22C119.89 75.45 119.54 75.4 119.31 75.18C118.64 74.51 118.14 74.19 117.38 74.19C116.34 74.19 115.22 75.22 114.05 77.7V86.83C114.05 89.93 114.28 90.25 117.65 90.52V91.06H107.89V90.52C110.45 90.25 110.81 89.94 110.81 86.83V76.98C110.81 74.01 110.58 73.78 108.11 73.42V73.02C110.09 72.7 111.89 72.16 114.05 71.17V76.08H114.14Z" fill="#010101"/>
<path d="M132.23 71.31C137.72 71.31 141.59 75.76 141.59 81.12C141.59 88.09 136.59 91.6 132.19 91.6C126.25 91.6 122.7 86.79 122.7 81.84C122.7 74.64 128.28 71.31 132.19 71.31H132.23ZM131.69 72.21C128.68 72.21 126.56 75.36 126.56 80.35C126.56 86.29 128.85 90.7 132.68 90.7C135.51 90.7 137.72 88.54 137.72 81.97C137.72 76.84 135.74 72.21 131.74 72.21H131.7H131.69Z" fill="#010101"/>
<path d="M146.85 71.85V70.23C146.85 68.65 146.98 67.26 147.3 66.27C147.57 65.32 148.38 62.89 150.9 60.83C152.43 59.57 153.78 58.85 155.58 58.62C156.93 58.66 158.14 59.29 158.73 59.97C159.18 60.47 159.23 60.96 159 61.46C158.87 61.77 158.6 62.09 158.19 62.36C157.83 62.63 157.56 62.54 157.25 62.18C156.21 61.14 155 60.51 153.47 60.51C152.39 60.51 151.67 61.05 151.13 61.77C150.45 62.72 150.05 65.23 150.09 69.19V71.85H155.26C155.4 72.16 155.3 72.84 154.9 73.11H150.09V86.25C150.09 89.98 150.36 90.21 153.82 90.52V91.06H143.79V90.52C146.49 90.21 146.85 89.98 146.85 86.88V73.11H143.79L143.75 72.84L144.83 71.85H146.85Z" fill="#010101"/>
<path d="M171.24 87.1C168.68 90.7 165.53 91.6 164.36 91.6C158.92 91.6 155.86 87.19 155.86 82.2C155.86 79.18 156.9 76.58 158.74 74.55C160.54 72.62 162.93 71.31 165.08 71.31H165.12C168.72 71.31 171.37 74.55 171.37 77.52C171.37 78.24 171.14 78.47 170.43 78.64C169.75 78.78 164.45 79.18 159 79.36C158.91 86.38 162.73 88.9 165.97 88.9C167.5 88.9 169.16 88.27 170.87 86.65L171.23 87.1H171.24ZM163.82 72.48C161.84 72.48 159.77 74.5 159.23 78.1C161.84 78.1 164.36 78.1 167.01 78.01C167.59 78.01 167.86 77.74 167.86 77.25C167.9 74.91 166.65 72.48 163.86 72.48H163.82Z" fill="#010101"/>
<path d="M185.01 76.66C184.2 74.28 182.53 72.25 180.15 72.25C178.35 72.25 177.13 73.6 177.13 75.45C177.13 77.7 179.02 78.87 180.86 79.68C184.24 81.12 186.21 82.79 186.21 85.57C186.21 89.49 182.65 91.6 179.24 91.6C176.99 91.6 175.24 90.79 174.51 90.3C174.2 89.72 173.79 86.7 173.74 85.22L174.24 85.04C175.05 87.96 177.26 90.66 180 90.66C181.75 90.66 183.24 89.49 183.24 87.33C183.24 85.17 181.94 84.04 179.6 82.96C177.17 81.79 174.38 80.21 174.38 76.98C174.38 73.75 176.99 71.31 180.86 71.31C182.61 71.31 183.78 71.67 184.64 72.03C184.95 73.07 185.36 75.54 185.45 76.53L185 76.66H185.01Z" fill="#010101"/>
<path d="M199.95 76.66C199.14 74.28 197.47 72.25 195.09 72.25C193.29 72.25 192.07 73.6 192.07 75.45C192.07 77.7 193.96 78.87 195.8 79.68C199.18 81.12 201.15 82.79 201.15 85.57C201.15 89.49 197.59 91.6 194.18 91.6C191.93 91.6 190.18 90.79 189.45 90.3C189.14 89.72 188.73 86.7 188.68 85.22L189.18 85.04C189.99 87.96 192.2 90.66 194.94 90.66C196.69 90.66 198.18 89.49 198.18 87.33C198.18 85.17 196.88 84.04 194.54 82.96C192.11 81.79 189.32 80.21 189.32 76.98C189.32 73.75 191.93 71.31 195.8 71.31C197.55 71.31 198.72 71.67 199.58 72.03C199.89 73.07 200.3 75.54 200.39 76.53L199.94 76.66H199.95Z" fill="#010101"/>
<path d="M203.33 91.06V90.52C205.98 90.25 206.35 89.94 206.35 86.83V76.98C206.35 74.19 206.12 73.96 203.74 73.47V72.98C205.54 72.66 207.61 72.12 209.59 71.23V86.84C209.59 89.94 209.9 90.26 212.65 90.53V91.07H203.34L203.33 91.06ZM207.79 62.22C208.78 62.22 209.59 63.03 209.59 64.11C209.59 65.19 208.78 66 207.75 66C206.8 66 205.95 65.15 205.95 64.16C205.95 63.04 206.8 62.23 207.75 62.23H207.79V62.22Z" fill="#010101"/>
<path d="M224.03 71.31C229.52 71.31 233.39 75.76 233.39 81.12C233.39 88.09 228.39 91.6 223.99 91.6C218.05 91.6 214.5 86.79 214.5 81.84C214.5 74.64 220.08 71.31 223.99 71.31H224.03ZM223.49 72.21C220.48 72.21 218.36 75.36 218.36 80.35C218.36 86.29 220.65 90.7 224.48 90.7C227.31 90.7 229.52 88.54 229.52 81.97C229.52 76.84 227.54 72.21 223.54 72.21H223.5H223.49Z" fill="#010101"/>
<path d="M247.61 91.06V90.52C250.35 90.25 250.76 89.94 250.76 86.34V78.78C250.76 75.86 249.86 73.52 246.67 73.52C244.96 73.52 243.07 74.69 241.86 75.77V86.84C241.86 89.94 242.17 90.26 244.69 90.53V91.07H235.33V90.53C238.25 90.26 238.62 89.95 238.62 86.8V77.04C238.62 74.25 238.39 74.07 236.06 73.48V73.03C237.86 72.67 239.84 72.13 241.86 71.18V74.83C242.76 74.16 243.88 73.34 245.01 72.62C246.31 71.81 247.22 71.32 248.47 71.32C251.98 71.32 254 73.75 254 77.89V86.8C254 89.95 254.23 90.26 256.61 90.53V91.07H247.61V91.06Z" fill="#010101"/>
<path d="M272.22 91.6C271.46 91.6 270.51 91.24 270.02 90.7C269.52 90.21 269.25 89.49 269.03 88.68C267.46 89.8 265.03 91.6 264.04 91.6C260.89 91.6 258.87 88.9 258.87 86.47C258.87 84.35 259.95 83.14 262.25 82.33C264.72 81.47 267.83 80.35 269 79.45V78.33C269 74.73 267.56 72.88 265.22 72.88C264.41 72.88 263.74 73.2 263.28 73.74C262.74 74.32 262.34 75.27 261.93 76.71C261.75 77.43 261.43 77.7 260.85 77.7C260.13 77.7 259.14 76.93 259.14 75.99C259.14 75.45 259.59 75 260.4 74.41C261.71 73.46 264.67 71.8 266.88 71.31C268.09 71.31 269.31 71.71 270.21 72.43C271.74 73.78 272.19 75.58 272.19 78.01V86.6C272.19 88.44 272.96 89.17 273.81 89.17C274.39 89.17 274.89 88.99 275.29 88.67L275.56 89.3L272.23 91.59L272.22 91.6ZM268.98 80.35C268.13 80.85 266.01 81.79 265.02 82.29C263.36 83.1 262.37 83.96 262.37 85.67C262.37 88.05 264.12 89.31 265.66 89.31C266.65 89.31 268.09 88.73 268.99 87.78V80.36L268.98 80.35Z" fill="#010101"/>
<path d="M276.45 91.06V90.52C279.15 90.25 279.46 89.94 279.46 86.83V64.2C279.46 61.05 279.28 60.87 276.54 60.6V60.19C278.52 59.88 281.35 59.2 282.71 58.62V86.83C282.71 89.93 283.02 90.25 285.72 90.52V91.06H276.45Z" fill="#010101"/>
<path d="M311.15 68.16C310.3 65.15 308.68 62.18 304.9 62.18C301.48 62.18 299.77 64.61 299.77 67.49C299.77 70.95 302.02 72.53 305.57 74.51C309.08 76.45 313.04 78.47 313.04 83.47C313.04 87.79 309.26 91.7 303.46 91.7C301.61 91.7 300.26 91.29 299.27 91.03C298.06 90.62 297.38 90.36 296.93 90.13C296.62 89.41 295.94 84.69 295.85 83.38L296.43 83.15C297.06 86.07 299.31 90.66 304.12 90.66C307.63 90.66 309.65 88.28 309.65 84.9C309.65 81.52 307.18 79.91 303.89 77.97C301.37 76.49 296.6 74.19 296.6 69.11C296.6 64.93 299.93 61.28 305.51 61.28C308.07 61.28 309.74 61.91 310.95 62.23C311.08 63.85 311.35 65.61 311.71 68.03L311.13 68.16H311.15Z" fill="#010101"/>
<path d="M322.89 91.15C322.31 91.47 321.86 91.6 321.54 91.6C318.71 91.6 317.31 89.8 317.31 86.38V73.11H314.39L314.3 72.79L315.42 71.85H317.31V68.25L320.1 65.46L320.55 65.55V71.85H325.5C325.86 72.35 325.73 72.84 325.27 73.11H320.55V85.08C320.55 88.81 322.08 89.53 323.25 89.53C324.42 89.53 325.27 89.17 325.91 88.86L326.18 89.44L322.89 91.15Z" fill="#010101"/>
<path d="M347.78 90.02C346.88 90.11 345.71 90.43 344.63 90.74C343.51 91.01 342.47 91.37 341.75 91.6L341.48 91.33V87.96C340.53 88.77 339.46 89.63 338.19 90.43C336.89 91.24 335.85 91.6 334.81 91.6C331.84 91.6 329.5 89.85 329.5 85.35V75.77C329.5 73.57 329.19 73.3 327.97 73.03L326.93 72.76V72.31C327.74 72.27 328.77 72.13 329.85 72.04C330.93 71.91 332.06 71.72 332.87 71.54C332.78 72.58 332.73 74.06 332.73 77.75V84.05C332.73 88.05 334.53 89.22 336.56 89.22C338.09 89.22 340.07 88.5 341.46 86.97V75.81C341.46 73.6 341.05 73.29 339.57 73.02L338.17 72.75V72.3C339.38 72.26 340.6 72.12 341.72 72.03C342.94 71.9 343.93 71.71 344.69 71.53V86.74C344.69 88.9 345.05 89.22 346.67 89.4L347.75 89.49V90.03L347.78 90.02Z" fill="#010101"/>
<path d="M370.19 89.93C369.15 90.11 366.09 90.65 363.75 91.6V88.59L361.1 90.21C359.21 91.33 358.18 91.6 357.55 91.6C354.13 91.6 349.59 88.36 349.59 82.24C349.59 76.12 354.76 71.31 360.7 71.31C361.46 71.31 362.63 71.35 363.76 71.76V64.02C363.76 61.14 363.53 60.83 360.48 60.6V60.19C362.59 59.92 365.38 59.2 367 58.62V86.43C367 88.72 367.18 89.09 368.85 89.31L370.2 89.49V89.94L370.19 89.93ZM363.75 74.86C362.72 73.15 360.92 72.43 359.16 72.43C356.78 72.43 353.27 74.5 353.27 81.02C353.27 86.42 356.46 89.25 359.52 89.25C361.09 89.25 362.76 88.49 363.75 87.67V74.85V74.86Z" fill="#010101"/>
<path d="M371.76 91.06V90.52C374.41 90.25 374.78 89.94 374.78 86.83V76.98C374.78 74.19 374.55 73.96 372.17 73.47V72.98C373.97 72.66 376.04 72.12 378.02 71.23V86.84C378.02 89.94 378.33 90.26 381.08 90.53V91.07H371.77L371.76 91.06ZM376.22 62.22C377.21 62.22 378.02 63.03 378.02 64.11C378.02 65.19 377.21 66 376.18 66C375.23 66 374.38 65.15 374.38 64.16C374.38 63.04 375.23 62.23 376.18 62.23H376.22V62.22Z" fill="#010101"/>
<path d="M398.31 87.1C395.75 90.7 392.6 91.6 391.43 91.6C385.99 91.6 382.93 87.19 382.93 82.2C382.93 79.18 383.97 76.58 385.81 74.55C387.61 72.62 390 71.31 392.15 71.31H392.19C395.79 71.31 398.44 74.55 398.44 77.52C398.44 78.24 398.21 78.47 397.5 78.64C396.82 78.78 391.52 79.18 386.07 79.36C385.98 86.38 389.8 88.9 393.04 88.9C394.57 88.9 396.23 88.27 397.94 86.65L398.3 87.1H398.31ZM390.89 72.48C388.91 72.48 386.84 74.5 386.3 78.1C388.91 78.1 391.43 78.1 394.08 78.01C394.66 78.01 394.93 77.74 394.93 77.25C394.97 74.91 393.72 72.48 390.93 72.48H390.89Z" fill="#010101"/>
<path d="M412.08 76.66C411.27 74.28 409.6 72.25 407.22 72.25C405.42 72.25 404.2 73.6 404.2 75.45C404.2 77.7 406.09 78.87 407.93 79.68C411.31 81.12 413.28 82.79 413.28 85.57C413.28 89.49 409.72 91.6 406.31 91.6C404.06 91.6 402.31 90.79 401.58 90.3C401.27 89.72 400.86 86.7 400.81 85.22L401.31 85.04C402.12 87.96 404.33 90.66 407.07 90.66C408.82 90.66 410.31 89.49 410.31 87.33C410.31 85.17 409.01 84.04 406.67 82.96C404.24 81.79 401.45 80.21 401.45 76.98C401.45 73.75 404.06 71.31 407.93 71.31C409.68 71.31 410.85 71.67 411.71 72.03C412.02 73.07 412.43 75.54 412.52 76.53L412.07 76.66H412.08Z" fill="#010101"/>
<path d="M84.59 102.6H413.43" stroke="#EB2227"/>
<path d="M90.14 115.58C91.81 115.83 93.12 116.58 93.12 118.27C93.12 119.4 92.51 120.28 91.51 120.82C90.65 121.29 89.53 121.5 88.2 121.5H84.46V121.03C85.91 120.93 86.02 120.83 86.02 119.42V112.59C86.02 111.19 85.95 111.08 84.6 110.98V110.51H88.95C90.22 110.51 90.96 110.71 91.49 111.08C92.08 111.49 92.44 112.23 92.44 113.01C92.44 114.62 91.09 115.28 90.16 115.55V115.58H90.14ZM88.25 115.38C90.09 115.38 90.87 114.64 90.87 113.22C90.87 112.07 90.23 111.06 88.62 111.06C88.21 111.06 87.83 111.13 87.67 111.23C87.5 111.33 87.45 111.52 87.45 112.08V115.39H88.24L88.25 115.38ZM87.46 119.39C87.46 120.61 87.76 120.95 88.86 120.93C90.23 120.93 91.46 120.22 91.46 118.44C91.46 116.66 90.28 115.95 88.21 115.95H87.45V119.38L87.46 119.39Z" fill="#010101"/>
<path d="M105.9 121.63C105.7 121.63 105.49 121.63 105.31 121.61C104.02 121.54 103.33 121.17 102.57 120.07C101.98 119.24 101.37 118.19 100.86 117.36C100.57 116.89 100.29 116.68 99.42 116.68H98.88V119.37C98.88 120.79 99.03 120.91 100.37 121.01V121.48H95.94V121.01C97.33 120.91 97.46 120.81 97.46 119.37V112.59C97.46 111.14 97.32 111.08 96.01 110.97V110.5H100.2C101.43 110.5 102.26 110.65 102.89 111.07C103.58 111.51 104.02 112.27 104.02 113.29C104.02 114.74 103.11 115.64 101.87 116.2C102.16 116.74 102.87 117.87 103.38 118.64C103.99 119.52 104.33 119.96 104.75 120.4C105.19 120.91 105.6 121.09 105.97 121.19L105.9 121.63ZM99.69 116.15C100.54 116.15 101.09 116.01 101.52 115.66C102.18 115.15 102.45 114.49 102.45 113.56C102.45 111.73 101.25 111.06 99.98 111.06C99.49 111.06 99.2 111.13 99.07 111.23C98.93 111.31 98.88 111.52 98.88 111.97V116.15H99.69Z" fill="#010101"/>
<path d="M113.96 110.25C116.82 110.25 119.41 112.48 119.41 115.86C119.41 119.51 116.86 121.74 113.76 121.74C110.66 121.74 108.26 119.37 108.26 116.11C108.26 113.07 110.39 110.24 113.94 110.24H113.96V110.25ZM113.59 110.86C111.71 110.86 109.99 112.47 109.99 115.65C109.99 118.83 111.73 121.15 114.12 121.15C116.01 121.15 117.69 119.58 117.69 116.33C117.69 112.76 115.83 110.87 113.61 110.87H113.59V110.86Z" fill="#010101"/>
<path d="M137.64 110.98C136.47 111.13 136.32 111.27 135.81 112.67C135.44 113.75 134.41 116.95 133.02 121.68H132.5C131.57 118.96 130.4 115.69 129.54 113.24H129.51C128.56 116.23 127.62 118.94 126.75 121.68H126.23C125.33 118.62 124.39 115.64 123.46 112.63C123.04 111.24 122.78 111.09 121.75 110.97V110.5H125.86V110.97C124.63 111.12 124.59 111.26 124.85 112.12C125.51 114.4 126.17 116.69 126.91 119.09H126.94C127.85 116.22 128.82 113.41 129.68 110.65H130.17C131.12 113.44 132.1 116.18 133.13 119.11H133.16C133.87 116.84 134.82 113.53 135.07 112.33C135.31 111.32 135.24 111.13 133.92 110.98V110.51H137.64V110.98Z" fill="#010101"/>
<path d="M151.38 110.98C150.43 111.03 150.03 111.25 149.96 111.98C149.89 112.5 149.86 113.27 149.86 114.84V121.65H149.34L142.14 112.79H142.11V117.03C142.11 118.59 142.16 119.4 142.21 119.89C142.29 120.75 142.68 120.96 143.83 121.02V121.49H139.82V121.02C140.78 120.95 141.22 120.75 141.31 119.92C141.36 119.4 141.41 118.57 141.41 117.03V113.31C141.41 112.08 141.38 112.01 141.07 111.6C140.71 111.18 140.36 111.04 139.56 110.97V110.5H142.05L149.12 118.97H149.17V114.83C149.17 113.27 149.12 112.5 149.05 112.02C148.97 111.26 148.58 111.04 147.39 110.97V110.5H151.38V110.97V110.98Z" fill="#010101"/>
<path d="M170.95 110.98C169.94 111.05 169.55 111.27 169.48 111.98C169.43 112.44 169.38 113.16 169.38 114.74V116.11C169.38 118.11 169.08 119.56 168.11 120.57C167.32 121.38 166.18 121.74 165.07 121.74C164.07 121.74 163.11 121.5 162.36 120.95C161.35 120.17 160.87 118.9 160.87 116.91V112.7C160.87 111.18 160.72 111.11 159.4 110.99V110.52H163.76V110.99C162.44 111.07 162.31 111.18 162.31 112.7V116.54C162.31 119.28 163.39 120.84 165.49 120.84C167.93 120.84 168.69 118.79 168.69 116V114.73C168.69 113.17 168.64 112.46 168.57 111.94C168.49 111.28 168.13 111.08 166.93 110.99V110.52H170.95V110.99V110.98Z" fill="#010101"/>
<path d="M185.06 110.98C184.11 111.03 183.71 111.25 183.64 111.98C183.57 112.5 183.54 113.27 183.54 114.84V121.65H183.02L175.82 112.79H175.79V117.03C175.79 118.59 175.84 119.4 175.89 119.89C175.97 120.75 176.36 120.96 177.51 121.02V121.49H173.5V121.02C174.46 120.95 174.9 120.75 174.99 119.92C175.04 119.4 175.09 118.57 175.09 117.03V113.31C175.09 112.08 175.06 112.01 174.75 111.6C174.39 111.18 174.04 111.04 173.24 110.97V110.5H175.73L182.8 118.97H182.85V114.83C182.85 113.27 182.8 112.5 182.73 112.02C182.65 111.26 182.26 111.04 181.07 110.97V110.5H185.06V110.97V110.98Z" fill="#010101"/>
<path d="M187.61 121.5V121.03C189 120.93 189.13 120.83 189.13 119.39V112.63C189.13 111.19 188.99 111.09 187.61 110.99V110.52H192.09V110.99C190.7 111.09 190.57 111.19 190.57 112.63V119.39C190.57 120.84 190.71 120.93 192.09 121.03V121.5H187.61Z" fill="#010101"/>
<path d="M205.63 110.98C204.48 111.12 204.26 111.27 203.62 112.77C203.16 113.89 201.39 118.18 200.1 121.68H199.58C198.45 118.59 197.06 114.92 196.08 112.46C195.59 111.21 195.32 111.07 194.3 110.97V110.5H198.44V110.97C197.24 111.09 197.19 111.22 197.46 111.97C197.88 113.17 199.12 116.45 200.27 119.36H200.3C201.15 117.23 202.43 113.93 202.97 112.24C203.29 111.28 203.19 111.14 201.82 110.97V110.5H205.62V110.97L205.63 110.98Z" fill="#010101"/>
<path d="M216.43 118.83C216.33 119.39 215.99 120.98 215.84 121.5H207.69V121.03C209.23 120.91 209.36 120.78 209.36 119.39V112.66C209.36 111.15 209.22 111.09 207.91 110.97V110.51H215.45C215.45 110.92 215.53 112.07 215.59 112.95L215.1 113.02C214.95 112.31 214.78 111.94 214.56 111.58C214.32 111.21 213.87 111.09 212.65 111.09H211.36C210.84 111.09 210.8 111.14 210.8 111.63V115.49H212.39C213.93 115.49 214.01 115.35 214.22 114.22H214.71V117.45H214.22C214 116.25 213.88 116.15 212.41 116.15H210.8V119.35C210.8 120.14 210.9 120.52 211.21 120.72C211.53 120.94 212.12 120.94 212.97 120.94C214.26 120.94 214.73 120.8 215.1 120.36C215.39 120.02 215.71 119.45 215.95 118.77L216.44 118.84L216.43 118.83Z" fill="#010101"/>
<path d="M228.73 121.63C228.53 121.63 228.32 121.63 228.14 121.61C226.85 121.54 226.16 121.17 225.4 120.07C224.81 119.24 224.2 118.19 223.69 117.36C223.4 116.89 223.12 116.68 222.25 116.68H221.71V119.37C221.71 120.79 221.86 120.91 223.2 121.01V121.48H218.77V121.01C220.16 120.91 220.29 120.81 220.29 119.37V112.59C220.29 111.14 220.15 111.08 218.84 110.97V110.5H223.03C224.26 110.5 225.09 110.65 225.72 111.07C226.41 111.51 226.85 112.27 226.85 113.29C226.85 114.74 225.94 115.64 224.7 116.2C224.99 116.74 225.7 117.87 226.21 118.64C226.82 119.52 227.16 119.96 227.58 120.4C228.02 120.91 228.43 121.09 228.8 121.19L228.73 121.63ZM222.52 116.15C223.37 116.15 223.92 116.01 224.35 115.66C225.01 115.15 225.28 114.49 225.28 113.56C225.28 111.73 224.08 111.06 222.81 111.06C222.32 111.06 222.03 111.13 221.9 111.23C221.76 111.31 221.71 111.52 221.71 111.97V116.15H222.52Z" fill="#010101"/>
<path d="M236.89 113.06C236.6 111.99 236.15 110.83 234.67 110.83C233.37 110.83 232.79 111.76 232.79 112.67C232.79 113.9 233.6 114.5 234.94 115.17C236.28 115.86 237.87 116.64 237.87 118.55C237.87 120.33 236.36 121.75 234.12 121.75C233.43 121.75 232.87 121.61 232.46 121.5C232.04 121.35 231.78 121.23 231.61 121.14C231.49 120.78 231.27 119.33 231.15 118.52L231.66 118.4C231.91 119.43 232.67 121.14 234.43 121.14C235.72 121.14 236.46 120.35 236.46 119.11C236.46 117.87 235.53 117.27 234.26 116.59C233.18 116 231.47 115.17 231.47 113.26C231.47 111.64 232.77 110.25 234.95 110.25C235.73 110.25 236.44 110.44 237.08 110.64C237.15 111.25 237.23 111.91 237.37 112.97L236.88 113.05L236.89 113.06Z" fill="#010101"/>
<path d="M240.66 121.5V121.03C242.05 120.93 242.18 120.83 242.18 119.39V112.63C242.18 111.19 242.04 111.09 240.66 110.99V110.52H245.14V110.99C243.75 111.09 243.62 111.19 243.62 112.63V119.39C243.62 120.84 243.76 120.93 245.14 121.03V121.5H240.66Z" fill="#010101"/>
<path d="M256.76 113.13C256.59 112.32 256.42 111.9 256.24 111.61C255.95 111.22 255.68 111.09 254.4 111.09H253.22V119.43C253.22 120.75 253.36 120.94 254.95 121.04V121.51H250.11V121.04C251.65 120.94 251.78 120.77 251.78 119.43V111.09H250.73C249.33 111.09 248.99 111.23 248.77 111.61C248.57 111.9 248.43 112.39 248.23 113.13H247.74C247.82 112.1 247.91 111 247.94 110.09H248.28C248.52 110.48 248.74 110.51 249.21 110.51H255.89C256.35 110.51 256.48 110.41 256.74 110.09H257.1C257.12 110.85 257.18 112.1 257.29 113.08L256.78 113.13H256.76Z" fill="#010101"/>
<path d="M269.46 110.98C268.29 111.12 268.09 111.28 267.45 112.32C266.69 113.55 266.11 114.54 265.32 116.02C265.08 116.46 265.03 116.65 265.03 117.09V119.39C265.03 120.81 265.17 120.93 266.72 121.03V121.5H261.93V121.03C263.45 120.93 263.59 120.81 263.59 119.39V117.14C263.59 116.8 263.52 116.65 263.23 116.13C262.64 115.1 262.01 113.98 261.1 112.43C260.42 111.26 260.24 111.08 259.22 110.99V110.52H263.26V110.99C262.04 111.14 262.09 111.35 262.4 111.9C263.13 113.25 263.96 114.64 264.7 115.91C265.31 114.79 266.22 113.14 266.7 112.11C267.09 111.26 267.04 111.13 265.72 110.99V110.52H269.46V110.99V110.98Z" fill="#010101"/>
</g>
<defs>
<clipPath id="clip0_2001_61">
<rect width="413.43" height="122.4" fill="white"/>
</clipPath>
</defs>
</svg>
