<?xml version="1.0" encoding="UTF-8"?>
<svg id="Capa_2" data-name="Capa 2" xmlns="http://www.w3.org/2000/svg" viewBox="0 0 1025.07 120">
  <defs>
    <style>
      .cls-1 {
        fill: none;
      }

      .cls-1, .cls-2 {
        stroke-width: 0px;
      }

      .cls-2 {
        fill: #fff;
      }
    </style>
  </defs>
  <g id="Layer_1" data-name="Layer 1">
    <rect class="cls-1" width="1025.07" height="120"/>
    <g>
      <rect class="cls-2" x="568.97" y="0" width=".86" height="120"/>
      <g>
        <g>
          <g>
            <g>
              <path class="cls-2" d="M283.33,93.97h-17.62V2.12h17.62c6.77,0,15.05,3.91,15.05,15.62v19.98c0,4.36-2.41,7.11-5.98,9.52,3.56,2.42,5.98,5.17,5.98,9.53v21.58c0,11.71-8.28,15.62-15.05,15.62ZM284.6,19.81c0-2.64-.92-3.66-2.42-3.66h-2.37v24.43h2.37c1.49,0,2.42-1.03,2.42-3.66v-17.1ZM284.6,58.15c0-2.64-.92-3.67-2.42-3.67h-2.37v25.59h2.37c1.49,0,2.42-1.03,2.42-3.66v-18.26Z"/>
              <path class="cls-2" d="M320.71,95.12c-9.3,0-16.87-7.58-16.87-16.88V17.86c0-9.31,7.57-16.89,16.87-16.89s16.87,7.58,16.87,16.89v60.37c0,9.3-7.57,16.88-16.87,16.88ZM323.47,18.21c0-1.5-1.26-2.76-2.76-2.76s-2.76,1.26-2.76,2.76v59.69c0,1.5,1.26,2.75,2.76,2.75s2.76-1.26,2.76-2.75V18.21Z"/>
              <path class="cls-2" d="M360.38,95.12c-9.3,0-16.88-7.58-16.88-16.88V17.86c0-9.31,7.58-16.89,16.88-16.89s16.87,7.58,16.87,16.89v60.37c0,9.3-7.57,16.88-16.87,16.88ZM363.14,18.21c0-1.5-1.27-2.76-2.76-2.76s-2.76,1.26-2.76,2.76v59.69c0,1.5,1.27,2.75,2.76,2.75s2.76-1.26,2.76-2.75V18.21Z"/>
              <path class="cls-2" d="M398.42,16.14v77.83h-13.77V16.14h-6.22V2.12h26.28v14.03h-6.28Z"/>
              <path class="cls-2" d="M425.7,93.97v-38.36h-5.51v38.36h-14.11V2.12h14.11v39.62h5.51V2.12h14.11v91.86h-14.11Z"/>
            </g>
            <g>
              <path class="cls-2" d="M24.61,95.12c-9.3,0-16.32-7.57-16.32-16.87V17.85C8.29,8.55,15.3.97,24.61.97s16.32,7.58,16.32,16.88v19.97h-13.56v-19.62c0-1.49-1.27-2.75-2.76-2.75s-2.75,1.26-2.75,2.75v59.71c0,1.49,1.26,2.76,2.75,2.76s2.76-1.27,2.76-2.76v-19.65h13.56v20c0,9.3-7.01,16.87-16.32,16.87Z"/>
              <path class="cls-2" d="M65.63,93.97v-38.35h-5.51v38.35h-14.13V2.12h14.13v39.6h5.51V2.12h14.13v91.85h-14.13Z"/>
              <path class="cls-2" d="M86.31,93.97V2.12h14.14v91.85h-14.14Z"/>
              <path class="cls-2" d="M122.87,95.12c-9.31,0-16.32-7.57-16.32-16.87V17.85c0-9.29,7.01-16.88,16.32-16.88s16.32,7.58,16.32,16.88v19.97h-13.56v-19.62c0-1.49-1.27-2.75-2.75-2.75s-2.77,1.26-2.77,2.75v59.71c0,1.49,1.28,2.76,2.77,2.76s2.75-1.27,2.75-2.76v-19.65h13.56v20c0,9.3-7.01,16.87-16.32,16.87Z"/>
              <path class="cls-2" d="M160.21,64.47h-4.47l2.64-39.25,1.83,39.25ZM176.31,93.97L166.76,2.12h-16.89l-9.31,91.85h12.75l1.27-15.49h6.43l.81,15.49h14.49Z"/>
              <path class="cls-2" d="M203.63,93.97l-1.14-1.83c-2.3,1.97-5.52,2.98-9.08,2.98-8.97,0-14.71-6.55-14.71-16.87V17.85c0-9.29,7.01-16.88,16.31-16.88s16.32,7.58,16.32,16.88v19.97h-13.56v-19.62c0-1.49-1.26-2.75-2.76-2.75s-2.76,1.26-2.76,2.75v60.86c0,1.49,1.26,2.75,2.76,2.75s2.76-1.26,2.76-2.75v-17.82h-2.76v-12.17h16.53v44.9h-7.91Z"/>
              <path class="cls-2" d="M236.49,77.9c0,1.49-1.26,2.76-2.75,2.76s-2.77-1.27-2.77-2.76V18.2c0-1.49,1.26-2.75,2.77-2.75s2.75,1.26,2.75,2.75v59.71ZM250.66,78.25V17.85c0-9.29-7.62-16.88-16.92-16.88s-16.89,7.58-16.89,16.88v60.4c0,9.3,7.58,16.87,16.89,16.87s16.92-7.57,16.92-16.87Z"/>
            </g>
          </g>
          <path class="cls-2" d="M480.85,20.93c-.29.22.35.53.29.51.02.91-.11,1.84.2,2.31.2.29.81.5.91.22.1-.28.57-.84.67-.94.19-.17.02-.33-.14-.16-.34.35-.52.19-.77-.04-.12-.14-.16-1.41-.08-1.45,0,0,.61-.09.76-.09.11,0,.1-.35-.02-.35-.18,0-.73,0-.76-.08-.07-.18.11-1.03.14-1.42.03-.27-.12-.36-.19-.11-.08.25-.67,1.34-1.02,1.59M482.47,17.69c.36-.03.93.18,1.57.13.76-.05,1.36-1.23,1.03-2.15-.31-.87-1.27-.72-1.93-.92-.6-.16-.85-.54-.19-.97.77-.5,1.72.3,1.82.47.14.25.26.25.26-.08.02-.72-.05-.31-.12-.99-.02-.24-.2-.26-.22-.03-.02.24-.3.16-.52.16-.22,0-.86-.1-1.42.21-.35.21-1.16.84-.71,1.6.26.44,1.81.8,2.2,1.06.39.25.47.9.1,1.2-.46.37-1.71.06-1.91-.16-.25-.28-.35-.51-.4-.84-.05-.33-.33-.3-.33,0s.07,1.35.13,1.59c.05.25.3.17.33-.02.03-.18.15-.23.32-.25M484.24,18.69c-.14.27-.36.52-.77.71.25.22.57.5.79.64.25-.27.47-.53.76-.79-.28-.06-.61-.2-.77-.55M480.38,18.28c.26-.21.45-.56.56-.64.2-.17.04-.34-.13-.18-.13.13-.49-.18-.5-.2-.12-.14-.28-1.9-.2-1.94,0,0,1.12-.14,1.27-.14.11,0,.13-.35,0-.36-.18,0-1.04.12-1.07.03-.05-.19-.16-.82.12-1.36.13-.24,0-.46-.09-.22-.1.25-.8,1.34-1.26,1.52-.37.15-.33.24-.09.3.19.04.39.26.35.26-.04.91-.13,2.03.16,2.5.18.3.67.61.89.41M477.27,20.15c-.28.27-.51.51-.92.84.19.22.52.5.55.88.02.38.01,2.17.03,2.62.3,0,.25.03.77.01-.05-.3,0-2.62,0-2.95.2-.19.22-.22.45-.38.16.14.54.22.54.47s.07,1.35-.01,1.76c-.11.5-.06.85.21,1.35.2-.23.96-.76,1.13-.89.16-.14.08-.25-.13-.19-.23.05-.26.09-.26-.05,0-.27-.11-1.47-.12-2.25-.03-.77-.4-1-.62-1.11-.22.25-.72.56-1.01.81-.22-.16-.33-.53-.58-.92M474.28,20.68c.13.34.55.98.74,1.09-.33.33-1.13.87-1.35,1.03-.41-.51-.63-1.36.61-2.12M472.87,22.25c-.2,1.45,1.17,2.31,1.83,2.59.17-.33.5-.87.83-1.25.25-.29-.03-.37-.25-.14-.3.33-1.21.02-1.45-.42.44-.33,1.57-1.28,2.07-1.69-.33-.31-.83-1.07-.91-1.51-.44.3-1.9.91-2.12,2.42M472.49,15.28c-.53.81-.82,2.08.1,2.82.43.36.79.64,1.66.48.17-.35.25-.46.56-.87-.6.1-1.07-.01-1.51-.35-.91-.71-.63-1.84-.36-2.23.49-.73,1.19.31,1.31.45.16-.19.44-.47.72-.68-.27-.36-.49-.69-.68-.91-.58.21-1.44.73-1.8,1.27M476.72,13.13c-.07-.09-.2-.23-.21-.41,0-.12.01-1.36.01-1.52,0-.15-.29-.13-.29,0-.01.22.02.6-.18.9-.55.85-1.59,1.19-2.32.16-.25-.34-.31-.87-.34-1.24-.05-.5.33-1.14.35-1.2.93-1.22,2.22-.32,2.33.18.07.33.14.74.14.95,0,.14.3.13.3-.02,0-.15,0-2.03,0-2.16,0-.12-.25-.16-.25,0-.01.3-.19.32-.42.25-.47-.14-1.52-.36-2.12-.02-.53.31-1.35,1.05-1.34,1.98.02,1.52.59,1.65,1.26,2.06.63.37,1.49.13,2.28-.1.31-.09.35.11.5.34.26.34.46.12.28-.15M477.16,17.5c0,.11,0,.21,0,.31-.11.03-.24.05-.39.13-.21-.18-1.21-.5-.55-1.03.4.24.56.05.94-.19,0,.34,0,.66,0,.78M477.16,16.47c-.57.37-.76.36-1.15-.09-.2-.23-.18-.66-.09-.82.18-.28.49-.56.64-.56.13,0,.59.57.56.81.02.14.03.39.04.65M477.12,14.37c-.51.05-1.26.65-1.48,1.17-.09.21.04.95.13,1.03.07.06.12.1.18.15-.34.31-.65.58-.64,1.05.01.45.37.85.83,1.06.25-.38.63-.61,1.04-.7.03.36.12.62.35.8.17-.19.85-.77.98-.9.14-.13.04-.3-.13-.13-.1.09-.34-.05-.41-.16,0-.2,0-2.26.09-2.36-.31-.33-.6-1.03-.94-.99M480.85,9.32c.2-.2-.01-.34-.19-.17-.13-.16-.48-.51-.66-.73-.19.16-.64.43-.89.57-.19-.22-.43-.22-.82-.53-.22.16-.69.51-.95.83.45.13.79.16.82.55.02.32-.03,2.26,0,2.62.24.05.54.03.88.01.03-.28.01-2.72.01-2.99.13-.07.26-.14.33-.2.14.11.43.52.65.66.18-.13.62-.41.82-.61M482.22,10.18c-.3-.96-.19-1.29.41-1.77.13.33.48.57.67.68-.34.33-.86.92-1.08,1.08M484.16,11.37c-1.18.3-1.74-.65-1.86-.9.48-.49,1.29-1.29,1.79-1.7-.33-.3-.46-.8-1.04-.85-.51.01-1.69.59-1.9,2.09-.2,1.44,1.16,2.22,2.23,2.27.36,0,.8-.46,1.03-.57.48-.23.3-.46-.24-.34M487.49,9.61c-.07.06-.27.22-.49.4-.13.02-.26.04-.39.02-.4-.06-.6-.36-.79-.61-.19-.26.31-.47.55-.44.25.03.8.33,1.12.63M486.64,10.75c.27.12.54.24.84.42.43.24.21.71-.26.92-.47.22-1.32-.39-1.45-.64.17-.15.5-.41.86-.7M488.67,9.08c-.33-.22-.69-.77-1.48-.81-.8-.03-1.69.69-1.99,1.14-.39.6.09,1.12.59,1.51-.32.28-.77.7-1.19,1.09.17.18,1.08.61,1.59.6.77-.02,1.49-.42,1.93-.77.8-.64.52-1.31-.29-1.79-.08-.05-.15-.06-.23-.08.51-.4.95-.76,1.07-.9M489.66,13.7l-.48-.5-.49.44v.6s.31.31.31.31h.3l.36-.33v-.52ZM489.44,10.31c-.19-.01-.48.5.65.46.18,0,.31-.41-.65-.46M489.43,10.99c-.19-.01-.49.34.64.46.18.02.41-.39-.64-.46M490.16,18.54l.42-.45c-.47-.09-.47-.06-.72-.28l.02-2.16-.41-.6-.22.03-.94.87c-.25.23-.03.33.26.08l.48.3.02,2.03c.05.24.26.33.56.64l.53-.45ZM487.29,22.38c.35.24.55.21.99.16-.02.24-.03.46-.03.56,0,.1.04.19.07.28-.23.08-.52.13-.74.24-.2-.18-.95-.69-.29-1.24M488.3,22.31c-.38,0-.71-.11-1.12-.47-.08-.07-.15-.54-.06-.69.18-.29.18-.38.34-.38.12,0,.89.46.85.71.03.18.02.51,0,.84M486.97,22.14c-.34.35-.59.73-.58,1.22.02.46.17.92.64,1.13.42-.31.95-.68,1.46-.77.25.3.64.51.87.69.16-.19.67-.61.82-.74.13-.14,0-.33-.14-.15-.11.17-.47.05-.57-.12,0-.2-.19-2.27-.1-2.36-.3-.33-.81-1.09-1.16-1.05-.5.05-1.26.77-1.42,1.01-.12.18.04,1.03.13,1.11.03.02.04.03.06.05M485.62,17.21c.32.9,1.06,1.18,1.61,1.22.16-.31.47-.77.64-.99.25-.33,0-.53-.18-.15-.13.29-.85-.03-1.11-.28-.35-.33-.57-1.18-.29-1.48.28-.3.68-.16,1.2-.18.34-.02.42-.33.47-.49-.16-.08-.41-.22-.74-.41-.34.21-.85.65-1.08.84-.28.24-.85,1.05-.53,1.92M485.42,23.7l.41-.45c-.46-.08-.25-.08-.49-.3v-1.86s-.61-.87-.61-.87l-.23.03-.93.87c-.25.22-.03.32.26.08l.62.32v1.97c.07.24.28.3.58.61l.39-.4ZM493.2,34.46s.38-.41.38-.7c0-.4-.37-.68-.37-.68.32.09,1.08.52,1.35.7l-1.36.69ZM495.59,33.74v-.05c-.84-.12-1.49-.7-2.26-.99-1.06-.4-2.18.42-2.18.55,0,.28.3.43,1.16-.11-.67.78.09,1.41.09,1.41-.28-.04-.68-.13-.93-.28-.05.28.33.38.52.5,1.42.58,2.35-.78,3.6-1.02M505.18,20.73c-.22.22-.6.48-.96.87.3.02.54.08.68.37.15.28.02,1.47.04,1.92.02.44.29.54.64.9.35-.09,1.33-.5,1.66-.73-.03.36.43.77.7.85.18-.2.38-.31.65-.56-.26-.17-.23-.2-.32-.55-.08-.33.02-1.6.03-2.14-.21-.31-.55-.69-.9-.95-.25.22-.58.53-.97.93.29-.04.86.08.89.32.02.31.07,1,0,1.53-.06.54-1.51.29-1.53-.07-.03-.37.07-1.44.08-1.95-.2-.31-.33-.49-.7-.77M505.91,16.56c.11-.53.48-.75.65-.91.24.27.49.57.85.57.36,0,.73-.16.84-.31-.29-.24-.97-.94-1.1-1.08-.34.19-1.82.96-1.94,1.84-.18,1.31.23,1.57.81,2.28.32.41.86.43,1.11.36.26-.18,1.23-1.1,1.34-1.22.1-.11-.04-.22-.16-.1-.12.11-.07.16-.23.18-.16.03-.82.14-1.21-.06-.48-.25-1.1-.84-.96-1.56M501.78,16.42c.03.88-.42,1.8-.92,2.22.86-.22.97-.74,1.44-1.34.26.38.74.85,1.1,1.05.25-.16.95-.96,1.11-1.12-.51-.14-1.49-.65-1.73-1.2-.19-.41-.15-.6.05-.92.17.23,1.36.77,1.9-.14-.59-.21-1.11-.6-1.29-.91-.16.13-.68.7-.98.88-.07-.31-.55-.65-.94-.72-.13.14-1.05.84-1.47,1.04-.13.06-.08.34.1.27.17-.07.46-.29.78-.45.38.15.81.54.85,1.33M501.61,20.65c-.35.17.47.5.42.49-.01.93-.2,2.45.12,2.93.2.3.65.49.95.37.29-.12.66-.69.77-.79.22-.16.03-.33-.15-.17-.18.17-.66.05-.72-.12-.05-.17-.11-2.2-.03-2.25,0,0,.58-.01.73,0,.12,0,.13-.37.01-.37-.21,0-.68-.05-.71-.13-.07-.19.02-.81.14-1.06.12-.25-.11-.36-.21-.12-.1.26-.7.9-1.32,1.21M498.29,21.26c.2-.3.32-.36.48-.36.14,0,.69.39.67.64.03.17.03.51.03.86-.41.05-.7.1-1.17-.29-.08-.07-.11-.7,0-.85M498.53,22.62c.3.17.46.06.93.01,0,.3,0,.56,0,.71-.21.15-.46.28-.76.42-.23-.19-.57-.35-.16-1.14M498.15,22.35c-.25.24-.71.86-.7,1.33,0,.47.23.92.51,1.18.47-.33.76-.77,1.53-1.07.1.36.35.42.65.65.18-.2.84-1.01.99-1.15.15-.14.06-.28-.15-.14-.21.14-.35.05-.7-.32.01-.2-.02-1.85.06-1.95-.32-.34-.61-.8-.98-.77-.54.04-1.23.99-1.41,1.24-.14.18,0,.86.11.94.04.03.05.04.08.07M494.98,19.2c.02.45.18,4.29.13,4.82-.03.3.38.63.75.88.18-.22.58-.79.9-1.04.19-.16.06-.26-.09-.2-.29.14-.59.03-.62-.31-.03-.34-.03-3.65,0-4.12-.23,0-.87-.01-1.08-.03M494.71,16.42c.02,1.57.64,1.7,1.36,2.12.68.38,1.81.31,2.67.08.32-.09.5-.11.49.17,0,.17.24.14.24,0s.01-1.45.01-1.59c0-.16-.24-.14-.24,0,0,.22,0,.28-.22.6-.59.87-2.05.83-2.84-.23-.27-.36-.51-.84-.2-.94.31-.1,1.25.1,1.88.15.37.02,1.24.11,1.35.17.1.07.24.16.24-.03,0-.18,0-.79,0-.98s-.14-.09-.25-.03c-.11.07-1.03.23-1.4.29-.37.07-1.51.16-1.81.06-.31-.1-.2-.72.07-1.07.8-1.05,2.4-.98,2.98-.1.2.3.2.38.2.61,0,.14.23.15.23,0,.01-.15.02-1.74.02-1.87s-.23-.17-.23,0c0,.12-.26.18-.51.12-.5-.16-1.95.07-2.6.42-.58.33-1.46,1.09-1.45,2.04M500.89,7.28c-.3-.04-1.27.05-1.63.1-.35.05-.35.23-.06.26.29.03.35.09.5.49.14.4-.56,2.19-.74,2.62-.21-.31-.96-1.95-.96-2.18,0-.16.33-.32.47-.36.28-.09.27-.28.06-.32-.59-.08-2.65-.26-3.01-.31-.26-.02-.38.28-.06.28.33,0,.67-.09,1.03.44.42.6,1.72,3.4,2.03,4.58.15-.25,1.46-4.03,1.53-4.43.09-.39.37-.77.75-.89.39-.11.36-.27.06-.3M502.65,7.97l.39-.34v-.54l-.52-.51-.52.44v.62s.33.32.33.32h.32ZM503.25,12.89l.69-.89c-.5-.09-.7-.18-1.05-.58v-2.22s-.69-.7-.69-.7l-.24.03-1.1.97c-.11.17.18.17.33-.03l.8.46.03,2.15c.06.26.27.51.59.82h.64ZM507.83,9.09c-.21,0-1.62.03-1.65-.05-.1-.3-.13-.67.11-1.18.12-.25-.11-.36-.2-.11-.09.25-.79,1.22-1.53,1.54-.38.15.46.49.4.48,0,.94.13,2.35.33,2.91.12.34.51.88.77.71.17-.11.54-.84.65-.93.2-.16,0-.45-.17-.28-.19.16-.35-.09-.4-.26-.06-.17-.24-2.23-.15-2.27,0,0,1.67-.2,1.83-.2.11,0,.12-.36,0-.36M510.39,13.09c-.23.01-.43.07-.72.21-.24-.19-.86-.95-.4-1.79-.06-.04-.13-.07-.19-.11.42.24.92.44,1.31.57,0,.33-.01.64-.01.75,0,.14,0,.26.02.37M510.38,11.77c-.44-.16-1.3-.56-1.62-.82-.08-.07-.09-.1.01-.27.2-.3.43-.56.59-.54.14,0,1.02.47.99.72.03.17.04.54.03.92M510.92,14.02l.89-.97s-.4-.31-.63-.6c0-.2,0-2.15.09-2.26-.67-.6-1.16-.67-1.45-.63-.54.08-1.1.78-1.27,1.01-.13.18-.1.42,0,.5.11.09.25.18.4.27-.03-.02-.05-.03-.07-.04-.26.24-.62.93-.61,1.39,0,.47.43,1.15.71,1.4.31-.24.78-.65,1.46-.78.08.33.23.53.49.71M510.95,19.18c-.23-.11-1.07-.76-1.26-1.25-.25-.67-.25-1.4.46-1.84.55.2,1.2.75,1.26,1.25.08.65-.11,1.42-.46,1.84M511.7,18.91c.24-.44.6-1.15.58-1.69-.03-.67-.44-1.65-1.42-1.98-1.24.44-2.01,1.42-2.04,2.58-.02.68.55,2.07,1.74,2.08.37-.35.75-.73,1.14-.98M512.87,22.28c-.15-.17-.54-.5-.9-.75-.2.17-.62.47-.89.61-.2-.23-.46-.54-.87-.85-.24.17-.94.81-1.24.97.43.01,1.06.15,1.09.55.01.32-.02,2.33,0,2.69.26.06.57.03.95,0,.02-.28.01-2.6.02-2.88.13-.07.28-.14.35-.21.15.11.59.62.85.76.18-.14.64-.54.84-.73.22-.21-.02-.35-.2-.18M512.87,18.04c.16.05.45.09.75.11.19.02.13-.29-.02-.35-.15-.05-.47-.12-.67-.12-.22,0-.32.28-.06.36M513.63,17.11c-.16-.06-.48-.12-.68-.12s-.31.29-.06.36c.16.05.46.1.75.11.2.02.13-.29-.01-.35M518.7,66.32c-.4,1.94-1.06,3.74-2.23,5.41-.82,1.18-1.15-1.12-.45-3.35,1-.4,2-1.17,2.68-2.06M517.58,66.71c-2.61,2.58-6.52,1.64-9.6,3.02-2.79,1.02-4.81,3.6-7.74,4.25-.86.28-1,.71-.45.69.32,0,2.11,1.85,4.96.42.95-.48,3.91-2.13,4.42-2.22-1.6,1.53-2.41,2.89-3.84,3.7-.88.49-4.45,1.77-8.01,1.08-1.58-.31-2.79,1.15-2.39,1.11.84-.23,1.79-.11,2.36.64,1.03.81,2.53,1.82,3.82.31.43-.5,2.47-1.56,4.4.39-2.04-.11-1.84,3.57-5.71,3.14-1.44,0-4.6-3.29-5.51-2.28-1.6,1.8,3.44,3.51,1.26,5.77-1.97,2.04-4.33-1.63-4.33-1.63,1.23.52,3.5.85,2.5-1.15-.4-.79-1.15-1.51-1.15-2.98-.17-.73-4.69,5.81-7.67,2.86-1.17-1.16-3.55-3.71-5.7-4.68,5.7-.49,6.57,1.8,6.84,2.16,1.82,2.46,3.51-.04,3.9-.48.59-.68,1.43-1.61,1.14-1.75-2.21-1.05-4.73-1.27-6.62-.4,4.04-5.55,7.18-.35,7.18-.35.44.28-.11-3.29-4.11-3.49-2.49-.12-4.69,2.12-6.41,2.12-1.4,0-5.64-2.87-6.64-5.41,2.47,1.85,5.61,2.9,7.58,1.74,3.69-2.2,8.33,1.12,8.55.72-1.03-.81-3.38-3.95-9.71-2.16-2.46,1.41-3.49-1.05-5-1.09,2.57-2.28,4.35-1.12,5.24-1.05.21,0-1.07-1.06-1.97-1.15-7-.73-11.43-2.65-11.43-2.65-.04,0,.58-1.41,3.59-.39,0,0-2.7-1.65-2.67-3.77.09-1.31.72-2.71-.28-3.8,4.06-.17,1.18,5.5,4.03,6.96.06.02-.84-1.35.43-2.42.59,1.66,2.04,2.52,3.06,2.79.24-.13.54-.64.54-.64-1.07-1.78-1.21-3.84-.93-6.21l.04-.02c.23.01.62.81.9,1.4.59,1.27.58,3.11,1.76,4.62.65.83,1.06,1.66,1.64,2.07.25-.59.07-1.6.03-1.87-.13-.96-.74-2.65.91-4.13.77,2.22,1.81,1.58,1.96,2.64.2,1.49.13,1.25-.02,2.4.08,1.58,1.51,2.02,2.79,3.03,2.87,1.56,4.78,2.41,6.03,4.41.61-3.38-8.5-4.05-7.33-10.56-.12-2.6.32-2.82-1.52-4.41,3.66.11,5.65,6.11,5.85,7.2.37,2.01,1.59,2.12,3.27,4.74.24.09-3-6.99.86-13.05,0,0,1.3,3.15.69,5.21-.37,1.24-.03,2.62.04,3.4.07.8-.16-2.87,2.6-4.77.17,1.39,1.5,3.54.24,5.84-1.53,2.8-1.65,1.8-1.67,5.24.14-.06.54-2.38,1.59-3.69,2.22-2.78.64-4.27,2.8-6.68.17,1.2.48.73.61,1.8.29,2.41-2.22,5.04-1.67,4.96.64-.09,1.67-.65,2.01-2.47,0,0,.93,1.67.08,2.22-1.53,1.01-1.85,2.09-1.61,3.31,1.23-1.47,2.91-3.1,2.62-5.19.14-1.26,1.51-1.77,1.78-4.71.05-.49.53-1.08,1.02-1.34-.21,1.65,1.07,3.35-.39,5.37.33.18,1.56-1.57,3.36-.93-3.61.65-2.56,4.56-5.32,6.37-.83.55-.69,1.16-.94,1.23,2.47-.14,4.37-3.08,4.71-3.31,2.48-1.68,3.03-1.94,4.02-4.66.39-1.03.11-1.49,1.48-2.89.6,1.38-.27,4.23-.48,4.85-.44,1.31-2.01,2.45-1.68,2.45,6.66-2.94,6.57-4.91,8.17-7.02.48-.8,2.85-2.2,3.73-2.33-.22.44-1.14,1.18-1.18,1.97-.08,1.47-.56,2.37-1.3,3.55.41.51,1.21-.97,2.02-.23-1.08.36-1.55,1.55-2.39,2.26M511.49,64.62c.19-.69.19-1.17.28-1.77.04-.26.05-.23.06-.45,0-.07,1.88,1.56,1.99,1.63-.47.59-.87.8-1.32,1.22-.32-.27-1.02-.56-1-.63M512.06,65.64c-.87.76-1.43,1.03-1.25.65.21-.42.37-.78.49-1.09.04-.1.76.44.76.44M520.57,58.25c-.79.21-2.89,1.04-3.39,1.86.27-4.53-1.19-8.97-1.66-10.04-.91-2.09.4,4.87.49,6.47,0,.07-7.51-9.65-2.97-2.16,1.18,1.94,3.01,3.21,3.01,3.24.03,1.35-.06,2.34-.32,3.07-.46.37-10.23-13-4.83-3.74.67,1.15,4.59,4.62,4.55,4.69-.25.53-.69,1.29-1.3,1.86-.1-.1-2.25-1.69-2.27-1.78-.16-1.03-.17-2.01-1.45-1.28,0,0-4.81-5.6-2.58-1.68.97,1.72,1.61,1.91,1.87,2.21,0,0-.75,1.01-.99,2.09-.1.43-4.17-4.52-2.57-1.41.51,1,2.38,2.08,2.36,2.15-.19.65-.38,1.28-.59,1.68-.26.52-3.83,3.37-3.83,3.37,0,0,.7-2.26,2.22-3.37.87-.64.87-.5,1.45-.86-.01-.33-.33-.88-.75-1.02-.52-.18-2.22.12-2.22.12.16-.85-.58-2.67-.57-4.68-.64.06-1.76,1.05-2.03,1.61-.19,3.33-.92,2.33-1.6,4.73-.74-1,.05-2.45-.67-3.39-.99-1.29-1.14-2.16-1.29-3.75.23-.13,1.24-1.25.32-3.59-.15-3.69,1.5-5.1-1.45-7.68.25-.08.43-1.93.43-1.93,2.17,1.16,1.74-1.34,2.59-1.83,1.34-.78,1.1-1.59.5-2.59,3.84,1.09-.17,3.72,1.56,3.77,1.26.04,2.11-.28,2.65-1.13.58-.9-.1-1.44,1.53-2.9.16-.15.59-1.11-.7-1.38-.28-.06,0-1.16,0-1.16-1.03.88-1.36,2.11-3.02,1.33-.85-.4-1.4,0-1.75.16,0,0-.18-.7.53-.93,1.82-.61,2.27-1.34,2.17-1.74-.25-.95-.32,0-.27-1,.02-.4.48-.93.86-1.39,1.23-1.49,2.11-.93,2.42-.8.72-.55.84-.52,1.51-.78,1.14-.45,3.62.3,5,.94.67.3,1.47.49,2.26.31,0,.4-.29.62-.57.7-.43.13-.95,0-.91.32.02.18.61.22.98.32,2.05.56,4.7,2.4,2.96,2.01-.21-.05,1.26,1.09,2.36,2.57l3.91,3.8c-.18.22-1.55.02-5.89-4.05-.62.55,5.28,5,7.72,9.72-.21.15-3.24-.96-4.34-2.09-1.69-1.74-3.62-6.18-4.42-5.53-.09.04,3.21,5.18,4.84,8.23.82,1.54,1.5,3.75,1.56,5.42.26,8.21-.97,7.58-.97,7.58-1.92-6.47-2.82-13.99-5.63-17.46-1.12-1.39,3,6.07,3.18,12.78M523.6,14.25c-.02-.13-.04-.32-.08-.59-.06-.42-1.28-.67-2.14-.29-1.2.53-4.22,2.25-5.32,1.92v-4.25c2.72,1.18,3.78.11,4.65.11,2.68,0,2.82,2.5,2.82,2.5.04.27.06.47.08.59M520.81,20.06c2.36-.34,2.71,2.44,2.71,2.44h0c-.58-.46-1.75-.67-2.54-.16-2.63,1.69-5,1.71-5,1.71v-4.25s.5.89,4.83.26M515.19,28.69c-4.27.29-13.14-2.14-15.4-2.14-4.65,0-6.9,1.82-6.9,1.82,0,0,0-21.11,0-21.87,0,0,6.11-2.87,10.56-1.22,5.44,2.01,11.74,1.12,11.74,1.12v22.3ZM497.48,31.98c.14.85-.64,1.06-.64,1.06,1.22.28,1.8-.44,2.04-.9.47,1.95-1.5,2.06-2.11,2.17,0,0,1,.29,1.05.94.13,1.65,1.19,1.51,1.42,1.38-.04.2-.36,1.19-1.55.3-.2.2.32.51.43,1.32.13,1.03.1,1.99,1.3,2.62-.73.58-1.59-.93-1.67-.75-.08.2,1.02.76-.2,3.62-.55-.32-.25-.26-.89-1.02-.49-.41-.68-.5-.27.17.71.89.88,2.94.64,3.49-.59-.26-.44-.73-1.13-1.37-.06.27.21,1.63.93,2.28,1.24,1.12,1.68,2.48,1.71,2.74.1,1.02-.22,2.36-.34,3.68-.6-.09-1.1-1.78-1.25-1.68-.18.12.07,1.66,1.2,2.71.54,1.59.33,2.44.18,2.5-.19.08-.8-1.63-1.13-1.33,1.6,4.07.48,5.49.06,6.74-.33-1.29-.5-2.25-.91-3.7-.87.68-1.08,1.7-2.15,2.63,0-1.66-.96-5.67-1.72-6.6-.04-.04-1.38,3.59-1.98,5.21-.79,2.1-.92,4.72,0,6.76-1.98-2.81-2.19-8.04-.48-8.74.15-.37-.1-1.6-.48-1.45-.11.6-.04,1.12-.53,1.7-1.31-.38-.71-1.98-.59-2.51,1.7-2.04.64-2.51.56-2.45-.18.47-.34,1.04-.86,1.25-1.09-1.87-.39-4.81,1.68-7,.09-.82-.92.61-1.58.56-.17-1.58.4-4.32,3.32-4.42-.56-.16-.86-.26-.99-.73.88-.13,3.65-.34,3.19-2.53-.26.26-.35.65-1.07,1.09-.49.3-1.01.32-1.29-.11,1.28-.43.86-1.99-.82-1.53-.51.14-1.26-.4-1.3-.99.37.37,1.13.1,1.57-.19,1.89-1.23,3.04.55,3.29.93.08,0,.85-1.78-1.83-2.25-.22-.62-.84-1.73-2.65-1.59-.6-2.11-2.41-1.07-2.35-.12-1.93-1.42.03-3.21.81-3.48.54.04.42,1.75,1.37,1.46.23-.07-.74-1.18-.37-1.68.87-.5.85.64,1.28.21.21-.74,1.06-1.16,1.77-1.24,1.97-.28,3.5,1.88,5.39.82M491.87,28.35s-2.9-1.57-6.3-1.8c-3.29-.22-9.93,2.41-15.03,2.06V6.19s5.82.77,8.21-.15c8.12-3.13,13.12.37,13.12.37v21.93ZM469.5,23.65h-2.77v-2.72h2.77v2.72ZM469.5,14.17h-2.77v-2.72h2.77v2.72ZM463.47,24.44c-3.25,0-3.25-4.76,0-4.76s3.14,4.76,0,4.76M463.47,14.93c-3.18,0-3.11-4.76,0-4.76s3.12,4.76,0,4.76M484.4,37.16c-.58-.99.69-1.93.69-1.93-.04,2.78,3.52.87,5.38,1.76.45.2.76.6.94,1.01-2-1.38-5.69,1.43-7.01-.83M474.78,60.73c.02.95-.05,1.66.23,2.63.45,1.46.22,1.01-.39.51-.49-.54-.94-.99-1.18-1.62-.06-.45.3-.48,1.34-1.51M467.62,41.06l-.05-.05c-.06,0-4.62,2.88-7.58,1.5,2.21-1.22,9.85-6.08,11.94-7.45.99.21,1.39-.14,1.7-.36-.8.05-3.45.46-2.11-1.91.51,2.12,4.23.17,5.56-.14,3.71-.85,3.69,3.12,3.37,4.76-.12.61,1.14,1.05,1.76.96-1.06,2.62-2.88.15-3.1,1.15-.09.4-1.31.72-1.3,1.73,0,1.38.55.62.59,1.69.05,1.03-.44.23-.33,1.35.18,1.78,3.12-.24,4.33.24.61.24,1.01.78,1.6.68.17-.14.09-.81.07-1.05-.06-.56-1.1-.63-1.59-1.4-.42-.67.48-2.69.97-3.28.7,3.33,3.83,2.29,4.29,5.8.29.99-1.07,2.09.04,3.71-.82.8-1.82,4.6-.09,6.38-.29.81-.68,2.67.86,3.76-.52,1.1-.4,2.45.04,3.81-.96,0-.77-5.36-6.5-5.53-.13-.04-.16.61,0,.9.69,1.21,1.61,1.14,1.41,3.98-.07.97-.64-.17-.94-.44-.69-.61-1.23-.69-1.53-2.69-2.33,1.83-2.1,4.04-1.95,5.16,0,0-.51-1.4-1.1-2.84-.03-.08,2.37-2.96,2.75-3.65,4.84-8.7-3.12,2.81-3.14,2.78-.43-.99-.8-1.85-1.05-2.12.06-.12,1.39-1.6,1.99-2.85,3.74-7.79-2.22,2.59-2.44,2.4-.45-.4-.82-.91-1.11-.73-.07,1.2-.35,1.03-.27,2.26-.62.83-1.96,2.14-2.9,2.79,0,0-.23-2.16-.17-2.24.47-.57,2.31-2.54,2.69-3.13,6.13-9.63-2.87,2.32-2.89,2.22-.06-.38-.56-1.01-1.08-1.54,0,0,1.99-2.71,2.48-3.71,3.73-7.67-3,3.4-3.07,3.36-.16-.08-.18-.08-.37-.15-.19-.06.21-2.21.47-3.5.5-2.55-.85-.5-1.22,3.55-.35.05-1.18.14-1.5.43.21,1.08.46.25.91,1.29.54,1.24-.76,3.28.37,4.77.44.58.46.48.38.86-.69-.05-1.12-.06-1.55.54-.85-3.88-.83-5.75-.63-9.69.09-1.79.68-4.5.41-4.55-.26-.05-4.32,10.41-5.3,12.46-1.71-.58,1.07-9.63,4.6-13.99.33-1.39-1.85,1.41-3.16,2.52-1.2,1.02-2.71,2.35-4.36,1.89,2.12-2.24,6.97-6.43,7.51-7.48.45-.9-3.31,2.79-7.29,1.42,2.57-1.38,8.58-4.45,8.59-6.58M467.58,66.53c.67.45,1.45.65,2.17.96.89,2.33.02,4.61-.48,3.66-.88-1.66-1.22-3.04-1.69-4.62M528.89,53.59V1.78c-41.63-4.01-73.04,0-73.04,0,0,0,0,51.81,0,51.82,3.32,35.12,36.21,39.25,36.52,39.19,5.88-1.06,33.45-6.61,36.52-39.2"/>
        </g>
        <g>
          <path class="cls-2" d="M11.77,110.67h-3.48v-2.32h9.49v2.32h-3.48v9.13h-2.52v-9.13Z"/>
          <path class="cls-2" d="M19.71,108.35h2.52v4.53h4.65v-4.53h2.52v11.45h-2.52v-4.6h-4.65v4.6h-2.52v-11.45Z"/>
          <path class="cls-2" d="M32.14,108.35h8.64v2.24h-6.13v2.32h5.4v2.24h-5.4v2.4h6.22v2.24h-8.72v-11.45Z"/>
          <path class="cls-2" d="M47.83,114.9v-6.54h2.52v6.48c0,1.87.93,2.83,2.47,2.83s2.47-.93,2.47-2.75v-6.56h2.52v6.46c0,3.47-1.95,5.17-5.02,5.17s-4.96-1.72-4.96-5.09Z"/>
          <path class="cls-2" d="M60.37,108.35h2.32l5.37,7.05v-7.05h2.49v11.45h-2.14l-5.55-7.28v7.28h-2.49v-11.45Z"/>
          <path class="cls-2" d="M73.41,108.35h2.52v11.45h-2.52v-11.45Z"/>
          <path class="cls-2" d="M77.81,108.35h2.78l2.99,8.07,2.99-8.07h2.72l-4.63,11.53h-2.22l-4.63-11.53Z"/>
          <path class="cls-2" d="M91.06,108.35h8.64v2.24h-6.13v2.32h5.4v2.24h-5.4v2.4h6.22v2.24h-8.72v-11.45Z"/>
          <path class="cls-2" d="M102.02,108.35h5.24c1.46,0,2.58.41,3.34,1.16.64.64.98,1.54.98,2.62v.03c0,1.85-1,3.01-2.45,3.55l2.8,4.09h-2.94l-2.45-3.66h-1.98v3.66h-2.52v-11.45ZM107.1,113.91c1.23,0,1.93-.65,1.93-1.62v-.03c0-1.08-.75-1.64-1.98-1.64h-2.5v3.29h2.55Z"/>
          <path class="cls-2" d="M113.07,118.13l1.49-1.78c1.03.85,2.11,1.39,3.42,1.39,1.03,0,1.65-.41,1.65-1.08v-.03c0-.64-.39-.97-2.31-1.46-2.31-.59-3.8-1.23-3.8-3.5v-.03c0-2.08,1.67-3.45,4.01-3.45,1.67,0,3.09.52,4.25,1.46l-1.31,1.9c-1.01-.7-2.01-1.13-2.98-1.13s-1.47.44-1.47,1v.03c0,.75.49,1,2.47,1.51,2.32.61,3.63,1.44,3.63,3.44v.03c0,2.27-1.73,3.55-4.2,3.55-1.73,0-3.48-.61-4.86-1.83Z"/>
          <path class="cls-2" d="M124.44,108.35h2.52v11.45h-2.52v-11.45Z"/>
          <path class="cls-2" d="M132.48,110.67h-3.48v-2.32h9.49v2.32h-3.48v9.13h-2.52v-9.13Z"/>
          <path class="cls-2" d="M143.64,115.29l-4.4-6.94h2.94l2.73,4.6,2.78-4.6h2.86l-4.4,6.89v4.56h-2.52v-4.52Z"/>
          <path class="cls-2" d="M156.53,114.11v-.03c0-3.26,2.57-5.92,6.1-5.92s6.07,2.63,6.07,5.89v.03c0,3.26-2.57,5.92-6.1,5.92s-6.07-2.63-6.07-5.89ZM166.07,114.11v-.03c0-1.96-1.44-3.6-3.47-3.6s-3.44,1.6-3.44,3.57v.03c0,1.96,1.44,3.6,3.47,3.6s3.44-1.6,3.44-3.57Z"/>
          <path class="cls-2" d="M170.94,108.35h8.72v2.29h-6.2v2.44h5.46v2.29h-5.46v4.43h-2.52v-11.45Z"/>
          <path class="cls-2" d="M186.08,114.11v-.03c0-3.26,2.45-5.92,5.97-5.92,2.16,0,3.45.72,4.52,1.77l-1.6,1.85c-.88-.8-1.78-1.29-2.93-1.29-1.93,0-3.32,1.6-3.32,3.57v.03c0,1.96,1.36,3.6,3.32,3.6,1.31,0,2.11-.52,3.01-1.34l1.6,1.62c-1.18,1.26-2.49,2.04-4.7,2.04-3.37,0-5.87-2.6-5.87-5.89Z"/>
          <path class="cls-2" d="M198.66,108.35h2.52v4.53h4.65v-4.53h2.52v11.45h-2.52v-4.6h-4.65v4.6h-2.52v-11.45Z"/>
          <path class="cls-2" d="M211.2,108.35h2.52v11.45h-2.52v-11.45Z"/>
          <path class="cls-2" d="M216.08,114.11v-.03c0-3.26,2.45-5.92,5.97-5.92,2.16,0,3.45.72,4.52,1.77l-1.6,1.85c-.88-.8-1.78-1.29-2.93-1.29-1.93,0-3.32,1.6-3.32,3.57v.03c0,1.96,1.36,3.6,3.32,3.6,1.31,0,2.11-.52,3.01-1.34l1.6,1.62c-1.18,1.26-2.49,2.04-4.7,2.04-3.37,0-5.87-2.6-5.87-5.89Z"/>
          <path class="cls-2" d="M232.58,108.27h2.32l4.91,11.53h-2.63l-1.05-2.57h-4.84l-1.05,2.57h-2.57l4.91-11.53ZM235.23,115.01l-1.52-3.71-1.52,3.71h3.04Z"/>
          <path class="cls-2" d="M240.34,114.11v-.03c0-3.26,2.54-5.92,6-5.92,2.06,0,3.3.56,4.5,1.57l-1.59,1.91c-.88-.74-1.67-1.16-2.99-1.16-1.83,0-3.29,1.62-3.29,3.57v.03c0,2.09,1.44,3.63,3.47,3.63.92,0,1.73-.23,2.37-.69v-1.64h-2.54v-2.18h4.97v4.97c-1.18,1-2.8,1.82-4.89,1.82-3.57,0-6.02-2.5-6.02-5.89Z"/>
          <path class="cls-2" d="M253.16,114.11v-.03c0-3.26,2.57-5.92,6.1-5.92s6.07,2.63,6.07,5.89v.03c0,3.26-2.57,5.92-6.1,5.92s-6.07-2.63-6.07-5.89ZM262.7,114.11v-.03c0-1.96-1.44-3.6-3.47-3.6s-3.44,1.6-3.44,3.57v.03c0,1.96,1.44,3.6,3.47,3.6s3.44-1.6,3.44-3.57Z"/>
          <path class="cls-2" d="M272.48,108.35h5.32c1.31,0,2.34.36,2.99,1.01.52.52.79,1.16.79,1.95v.03c0,1.29-.69,2.01-1.51,2.47,1.33.51,2.14,1.28,2.14,2.81v.03c0,2.09-1.7,3.14-4.29,3.14h-5.45v-11.45ZM279.08,111.74c0-.75-.59-1.18-1.65-1.18h-2.49v2.42h2.32c1.11,0,1.82-.36,1.82-1.21v-.03ZM277.85,115.08h-2.91v2.52h2.99c1.11,0,1.78-.39,1.78-1.24v-.03c0-.77-.57-1.24-1.87-1.24Z"/>
          <path class="cls-2" d="M283.79,114.11v-.03c0-3.26,2.57-5.92,6.1-5.92s6.07,2.63,6.07,5.89v.03c0,3.26-2.57,5.92-6.1,5.92s-6.07-2.63-6.07-5.89ZM293.33,114.11v-.03c0-1.96-1.44-3.6-3.47-3.6s-3.44,1.6-3.44,3.57v.03c0,1.96,1.44,3.6,3.47,3.6s3.44-1.6,3.44-3.57Z"/>
          <path class="cls-2" d="M297.69,114.11v-.03c0-3.26,2.57-5.92,6.1-5.92s6.07,2.63,6.07,5.89v.03c0,3.26-2.57,5.92-6.1,5.92s-6.07-2.63-6.07-5.89ZM307.23,114.11v-.03c0-1.96-1.44-3.6-3.47-3.6s-3.44,1.6-3.44,3.57v.03c0,1.96,1.44,3.6,3.47,3.6s3.44-1.6,3.44-3.57Z"/>
          <path class="cls-2" d="M314.28,110.67h-3.48v-2.32h9.49v2.32h-3.48v9.13h-2.52v-9.13Z"/>
          <path class="cls-2" d="M322.21,108.35h2.52v4.53h4.65v-4.53h2.52v11.45h-2.52v-4.6h-4.65v4.6h-2.52v-11.45Z"/>
          <path class="cls-2" d="M338.77,118.13l1.49-1.78c1.03.85,2.11,1.39,3.42,1.39,1.03,0,1.65-.41,1.65-1.08v-.03c0-.64-.39-.97-2.31-1.46-2.31-.59-3.8-1.23-3.8-3.5v-.03c0-2.08,1.67-3.45,4.01-3.45,1.67,0,3.09.52,4.25,1.46l-1.31,1.9c-1.01-.7-2.01-1.13-2.98-1.13s-1.47.44-1.47,1v.03c0,.75.49,1,2.47,1.51,2.32.61,3.63,1.44,3.63,3.44v.03c0,2.27-1.73,3.55-4.2,3.55-1.73,0-3.48-.61-4.86-1.83Z"/>
          <path class="cls-2" d="M349.52,114.11v-.03c0-3.26,2.45-5.92,5.97-5.92,2.16,0,3.45.72,4.52,1.77l-1.6,1.85c-.88-.8-1.78-1.29-2.93-1.29-1.93,0-3.32,1.6-3.32,3.57v.03c0,1.96,1.36,3.6,3.32,3.6,1.31,0,2.11-.52,3.01-1.34l1.6,1.62c-1.18,1.26-2.49,2.04-4.7,2.04-3.37,0-5.87-2.6-5.87-5.89Z"/>
          <path class="cls-2" d="M362.1,108.35h2.52v4.53h4.65v-4.53h2.52v11.45h-2.52v-4.6h-4.65v4.6h-2.52v-11.45Z"/>
          <path class="cls-2" d="M374.02,114.11v-.03c0-3.26,2.57-5.92,6.1-5.92s6.07,2.63,6.07,5.89v.03c0,3.26-2.57,5.92-6.1,5.92s-6.07-2.63-6.07-5.89ZM383.56,114.11v-.03c0-1.96-1.44-3.6-3.47-3.6s-3.44,1.6-3.44,3.57v.03c0,1.96,1.44,3.6,3.47,3.6s3.44-1.6,3.44-3.57Z"/>
          <path class="cls-2" d="M387.93,114.11v-.03c0-3.26,2.57-5.92,6.1-5.92s6.07,2.63,6.07,5.89v.03c0,3.26-2.57,5.92-6.1,5.92s-6.07-2.63-6.07-5.89ZM397.47,114.11v-.03c0-1.96-1.44-3.6-3.47-3.6s-3.44,1.6-3.44,3.57v.03c0,1.96,1.44,3.6,3.47,3.6s3.44-1.6,3.44-3.57Z"/>
          <path class="cls-2" d="M402.34,108.35h2.52v9.16h5.71v2.29h-8.23v-11.45Z"/>
          <path class="cls-2" d="M416.87,114.11v-.03c0-3.26,2.57-5.92,6.1-5.92s6.07,2.63,6.07,5.89v.03c0,3.26-2.57,5.92-6.1,5.92s-6.07-2.63-6.07-5.89ZM426.4,114.11v-.03c0-1.96-1.44-3.6-3.47-3.6s-3.44,1.6-3.44,3.57v.03c0,1.96,1.44,3.6,3.47,3.6s3.44-1.6,3.44-3.57Z"/>
          <path class="cls-2" d="M431.28,108.35h8.72v2.29h-6.2v2.44h5.46v2.29h-5.46v4.43h-2.52v-11.45Z"/>
          <path class="cls-2" d="M446.92,108.35h5.32c1.31,0,2.34.36,2.99,1.01.52.52.79,1.16.79,1.95v.03c0,1.29-.69,2.01-1.51,2.47,1.33.51,2.14,1.28,2.14,2.81v.03c0,2.09-1.7,3.14-4.29,3.14h-5.45v-11.45ZM453.51,111.74c0-.75-.59-1.18-1.65-1.18h-2.49v2.42h2.32c1.11,0,1.82-.36,1.82-1.21v-.03ZM452.28,115.08h-2.91v2.52h2.99c1.11,0,1.78-.39,1.78-1.24v-.03c0-.77-.57-1.24-1.87-1.24Z"/>
          <path class="cls-2" d="M458.55,114.9v-6.54h2.52v6.48c0,1.87.93,2.83,2.47,2.83s2.47-.93,2.47-2.75v-6.56h2.52v6.46c0,3.47-1.95,5.17-5.02,5.17s-4.96-1.72-4.96-5.09Z"/>
          <path class="cls-2" d="M470.31,118.13l1.49-1.78c1.03.85,2.11,1.39,3.42,1.39,1.03,0,1.65-.41,1.65-1.08v-.03c0-.64-.39-.97-2.31-1.46-2.31-.59-3.8-1.23-3.8-3.5v-.03c0-2.08,1.67-3.45,4.01-3.45,1.67,0,3.09.52,4.25,1.46l-1.31,1.9c-1.01-.7-2.01-1.13-2.98-1.13s-1.47.44-1.47,1v.03c0,.75.49,1,2.47,1.51,2.32.61,3.63,1.44,3.63,3.44v.03c0,2.27-1.73,3.55-4.2,3.55-1.73,0-3.48-.61-4.86-1.83Z"/>
          <path class="cls-2" d="M481.68,108.35h2.52v11.45h-2.52v-11.45Z"/>
          <path class="cls-2" d="M487.06,108.35h2.32l5.37,7.05v-7.05h2.49v11.45h-2.14l-5.55-7.28v7.28h-2.49v-11.45Z"/>
          <path class="cls-2" d="M499.99,108.35h8.64v2.24h-6.13v2.32h5.4v2.24h-5.4v2.4h6.22v2.24h-8.72v-11.45Z"/>
          <path class="cls-2" d="M510.16,118.13l1.49-1.78c1.03.85,2.11,1.39,3.42,1.39,1.03,0,1.65-.41,1.65-1.08v-.03c0-.64-.39-.97-2.31-1.46-2.31-.59-3.8-1.23-3.8-3.5v-.03c0-2.08,1.67-3.45,4.01-3.45,1.67,0,3.09.52,4.25,1.46l-1.31,1.9c-1.01-.7-2.01-1.13-2.98-1.13s-1.47.44-1.47,1v.03c0,.75.49,1,2.47,1.51,2.32.61,3.63,1.44,3.63,3.44v.03c0,2.27-1.73,3.55-4.2,3.55-1.73,0-3.48-.61-4.86-1.83Z"/>
          <path class="cls-2" d="M520.47,118.13l1.49-1.78c1.03.85,2.11,1.39,3.42,1.39,1.03,0,1.65-.41,1.65-1.08v-.03c0-.64-.39-.97-2.31-1.46-2.31-.59-3.8-1.23-3.8-3.5v-.03c0-2.08,1.67-3.45,4.01-3.45,1.67,0,3.09.52,4.25,1.46l-1.31,1.9c-1.01-.7-2.01-1.13-2.98-1.13s-1.47.44-1.47,1v.03c0,.75.49,1,2.47,1.51,2.32.61,3.63,1.44,3.63,3.44v.03c0,2.27-1.73,3.55-4.2,3.55-1.73,0-3.48-.61-4.86-1.83Z"/>
        </g>
      </g>
      <g>
        <path class="cls-2" d="M609.93,81.18v-42.96h19.75v6.43h-12.38v11.07h9.52v6.43h-9.52v12.61h13.21v6.43h-20.59Z"/>
        <path class="cls-2" d="M640.15,64.22l-6.6-15.05h6.9l3.39,8.93,3.57-8.93h6.9l-6.9,14.93,7.26,17.08h-6.9l-3.87-10.83h-.12l-3.87,10.83h-6.9l7.14-16.96Z"/>
        <path class="cls-2" d="M676.44,66.43h-14.04v4.64c0,3.69,1.31,5.24,3.69,5.24s3.69-1.55,3.69-5.24v-.71h6.66c-.12,6.78-2.92,11.42-10.35,11.42s-10.35-4.88-10.35-11.9v-9.4c0-7.02,2.74-11.9,10.35-11.9s10.35,4.88,10.35,11.9v5.95ZM669.78,60.95v-1.67c0-3.69-1.31-5.24-3.69-5.24s-3.69,1.55-3.69,5.24v1.67h7.38Z"/>
        <path class="cls-2" d="M695.1,60.12v-.83c0-3.69-1.31-5.24-3.69-5.24s-3.69,1.55-3.69,5.24v11.78c0,3.69,1.31,5.24,3.69,5.24s3.69-1.55,3.69-5.24v-2.02h6.66v.83c0,7.02-2.74,11.9-10.35,11.9s-10.35-4.88-10.35-11.9v-9.4c0-7.02,2.74-11.9,10.35-11.9s10.23,4.7,10.35,11.54h-6.66Z"/>
        <path class="cls-2" d="M726.52,49.17v32.01h-6.31v-3.21c-2.8,2.38-4.22,3.81-8.09,3.81-3.51,0-5.59-2.56-5.59-6.72v-25.88h6.66v24.81c0,1.61.95,2.32,2.38,2.32s2.74-.89,4.28-2.02v-25.11h6.66Z"/>
        <path class="cls-2" d="M730.27,54.64v-5.47h3.69v-8.63h6.66v8.63h4.46v5.47h-4.46v18.44c0,1.67.71,2.62,2.26,2.62h2.2v5.71c-.89.24-1.67.36-3.33.36-5,0-7.79-2.32-7.79-7.2v-19.93h-3.69Z"/>
        <path class="cls-2" d="M749.07,44.29v-6.07h6.66v6.07h-6.66ZM749.07,81.18v-32.01h6.66v32.01h-6.66Z"/>
        <path class="cls-2" d="M774.65,49.17h6.78l-7.73,32.01h-6.49l-7.73-32.01h6.78l4.11,21.42h.12l4.17-21.42Z"/>
        <path class="cls-2" d="M804.75,66.43h-14.04v4.64c0,3.69,1.31,5.24,3.69,5.24s3.69-1.55,3.69-5.24v-.71h6.66c-.12,6.78-2.92,11.42-10.35,11.42s-10.35-4.88-10.35-11.9v-9.4c0-7.02,2.74-11.9,10.35-11.9s10.35,4.88,10.35,11.9v5.95ZM798.08,60.95v-1.67c0-3.69-1.31-5.24-3.69-5.24s-3.69,1.55-3.69,5.24v1.67h7.38Z"/>
        <path class="cls-2" d="M824.38,81.18v-42.96h19.75v6.43h-12.38v11.07h9.52v6.43h-9.52v12.61h13.21v6.43h-20.59Z"/>
        <path class="cls-2" d="M862.46,81.18v-3.33h-.12c-2.2,2.8-3.81,3.93-7.14,3.93-4.16,0-6.78-3.09-6.78-8.93v-15.35c0-5.83,2.62-8.92,6.78-8.92,2.92,0,4.28,1.19,6.9,3.33v-13.68h6.66v42.96h-6.31ZM862.1,55.72c-1.31-.95-2.5-1.67-3.81-1.67-1.78,0-3.21.95-3.21,5.18v11.9c0,4.22,1.43,5.18,3.21,5.18,1.31,0,2.5-.71,3.81-1.67v-18.92Z"/>
        <path class="cls-2" d="M894.15,49.17v32.01h-6.31v-3.21c-2.8,2.38-4.22,3.81-8.09,3.81-3.51,0-5.59-2.56-5.59-6.72v-25.88h6.66v24.81c0,1.61.95,2.32,2.38,2.32s2.74-.89,4.28-2.02v-25.11h6.66Z"/>
        <path class="cls-2" d="M913.23,60.12v-.83c0-3.69-1.31-5.24-3.69-5.24s-3.69,1.55-3.69,5.24v11.78c0,3.69,1.31,5.24,3.69,5.24s3.69-1.55,3.69-5.24v-2.02h6.66v.83c0,7.02-2.74,11.9-10.35,11.9s-10.35-4.88-10.35-11.9v-9.4c0-7.02,2.74-11.9,10.35-11.9s10.23,4.7,10.35,11.54h-6.66Z"/>
        <path class="cls-2" d="M924.54,58.57c.36-6.49,4.46-10,10.71-10s9.7,2.86,9.7,8.69v20.53c0,1.01.24,2.32.42,3.39h-6.37c-.06-.89-.3-1.73-.36-2.5-2.5,2.02-4.58,3.09-7.79,3.09-4.52,0-6.78-3.09-6.78-7.2,0-7.02,4.64-10.89,14.22-14.52v-1.9c0-2.68-1.07-4.11-3.27-4.11-3.03,0-3.69,1.79-3.81,4.52h-6.66ZM938.28,64.94c-6.07,3.45-7.56,5.65-7.56,8.45,0,2.08,1.07,2.92,3.09,2.92,1.84,0,3.33-1.37,4.46-2.97v-8.39Z"/>
        <path class="cls-2" d="M948.8,54.64v-5.47h3.69v-8.63h6.66v8.63h4.46v5.47h-4.46v18.44c0,1.67.71,2.62,2.26,2.62h2.2v5.71c-.89.24-1.67.36-3.33.36-5,0-7.79-2.32-7.79-7.2v-19.93h-3.69Z"/>
        <path class="cls-2" d="M967.59,44.29v-6.07h6.66v6.07h-6.66ZM967.59,81.18v-32.01h6.66v32.01h-6.66Z"/>
        <path class="cls-2" d="M979.34,60.48c0-7.02,2.74-11.9,10.35-11.9s10.35,4.88,10.35,11.9v9.4c0,7.02-2.74,11.9-10.35,11.9s-10.35-4.88-10.35-11.9v-9.4ZM993.39,59.29c0-3.69-1.31-5.24-3.69-5.24s-3.69,1.55-3.69,5.24v11.78c0,3.69,1.31,5.24,3.69,5.24s3.69-1.55,3.69-5.24v-11.78Z"/>
        <path class="cls-2" d="M1005.08,81.18v-32.01h6.31v3.21c2.8-2.38,4.22-3.81,8.09-3.81,3.51,0,5.59,2.56,5.59,6.72v25.88h-6.66v-24.81c0-1.61-.95-2.32-2.38-2.32s-2.74.89-4.28,2.02v25.11h-6.66Z"/>
      </g>
    </g>
  </g>
</svg>