<?xml version="1.0" encoding="utf-8"?>
<!-- Generator: Adobe Illustrator 27.8.1, SVG Export Plug-In . SVG Version: 6.00 Build 0)  -->
<svg version="1.1" id="Capa_1" xmlns="http://www.w3.org/2000/svg" xmlns:xlink="http://www.w3.org/1999/xlink" x="0px" y="0px"
	 viewBox="0 0 332.6 60" style="enable-background:new 0 0 332.6 60;" xml:space="preserve">
<style type="text/css">
	.st0{fill:#808080;}
	.st1{fill:#A90533;}
</style>
<g>
	<path class="st0" d="M81.4,6v53.6c0,0.2,0.2,0.4,0.4,0.4c0.2,0,0.4-0.2,0.4-0.4V6c0-0.2-0.2-0.4-0.4-0.4C81.6,5.6,81.4,5.8,81.4,6z
		"/>
	<path class="st1" d="M7.2,15.5H0V50h7.2V15.5z"/>
	<path class="st1" d="M19.2,15.5h-7.2v23.3h7.2V15.5z"/>
	<path class="st1" d="M31.1,15.5h-7.2V50h7.2V15.5z"/>
	<path class="st0" d="M43,26.5h-7.2V50H43V26.5z"/>
	<path class="st1" d="M55,26.5h-7.2V50H55V26.5z"/>
	<path class="st1" d="M66.9,15.5H48.1v6.9h18.9V15.5z"/>
	<path class="st1" d="M43,15.5h-7.2v6.9H43V15.5z"/>
	<path class="st1" d="M99,39.5v-5.3h1.1c3.1,0,4.6-1.5,4.6-4s-1.5-4-4.6-4h-3.6v13.2L99,39.5z M99,28.4h1.4c1.2,0,1.9,0.6,1.9,1.9
		c0,1.2-0.6,1.9-1.9,1.9H99V28.4z M115.6,39.5l-2.5-5.9c1.4-0.5,2-1.7,2-3.4c0-2.5-1.4-4-4.5-4H107v13.2h2.5v-5.4h1.2l2.2,5.4
		L115.6,39.5z M109.5,28.4h1.3c1.1,0,1.8,0.5,1.8,1.8c0,1.3-0.7,1.8-1.8,1.8h-1.3V28.4z M117.3,35.3c0,3.3,1.7,4.4,4.2,4.4
		c2.5,0,4.2-1.2,4.2-4.4v-4.7c0-3.3-1.7-4.4-4.2-4.4c-2.5,0-4.2,1.2-4.2,4.4V35.3z M119.8,30.2c0-1.5,0.6-1.9,1.7-1.9
		c1,0,1.6,0.4,1.6,1.9v5.4c0,1.5-0.6,1.9-1.6,1.9c-1,0-1.7-0.4-1.7-1.9V30.2z M130.6,39.5v-5.7h3.2v-2.2h-3.2v-3h4.1v-2.2h-6.6v13.2
		L130.6,39.5z M143.7,39.5v-2.2h-4.6v-3.5h3.4v-2.2h-3.4v-3h4.4v-2.2h-6.9v13.2L143.7,39.5z M154,29.3c-0.4-1.9-1.8-3.2-4.1-3.2
		c-2.6,0-4,1.4-4,3.7c0,3.7,5.6,3.7,5.6,6.2c0,1-0.7,1.6-1.6,1.6c-0.7,0-1.7-0.6-2-2.2l-2.5,0.5c0.7,2.6,2.3,3.7,4.3,3.7
		c2.7,0,4.2-1.5,4.2-3.8c0-4.1-5.6-4.3-5.6-6.3c0-0.9,0.5-1.4,1.4-1.4c0.9,0,1.4,0.5,1.8,1.8L154,29.3z M164.6,29.3
		c-0.4-1.9-1.8-3.2-4.1-3.2c-2.6,0-4,1.4-4,3.7c0,3.7,5.6,3.7,5.6,6.2c0,1-0.7,1.6-1.6,1.6c-0.8,0-1.7-0.6-2-2.2l-2.5,0.5
		c0.7,2.6,2.3,3.7,4.3,3.7c2.7,0,4.2-1.5,4.2-3.8c0-4.1-5.6-4.3-5.6-6.3c0-0.9,0.5-1.4,1.4-1.4c0.9,0,1.4,0.5,1.9,1.8L164.6,29.3z
		 M170,26.3h-2.5v13.2h2.5V26.3z M172.6,35.3c0,3.3,1.7,4.4,4.2,4.4c2.5,0,4.2-1.2,4.2-4.4v-4.7c0-3.3-1.7-4.4-4.2-4.4
		c-2.5,0-4.2,1.2-4.2,4.4V35.3z M175.1,30.2c0-1.5,0.6-1.9,1.6-1.9c1,0,1.7,0.4,1.7,1.9v5.4c0,1.5-0.6,1.9-1.7,1.9
		c-1,0-1.6-0.4-1.6-1.9V30.2z M185.9,39.5V31h0l3.9,8.5h2.4V26.3h-2.3v7.8h0l-3.5-7.8h-2.8v13.2L185.9,39.5z M198.9,29.2L198.9,29.2
		l1.3,5.3h-2.5L198.9,29.2z M196.5,39.5l0.7-2.8h3.5l0.6,2.8h2.4l-3.2-13.2h-3.2l-3.3,13.2H196.5L196.5,39.5z M212.1,39.5v-2.2h-4.1
		v-11h-2.5v13.2L212.1,39.5z M226.7,39.5v-2.2h-4.6v-3.5h3.4v-2.2h-3.4v-3h4.4v-2.2h-6.9v13.2L226.7,39.5z M229.1,39.5h3.5
		c2.9,0,4.5-1.2,4.6-4.6v-4.1c-0.1-3.3-1.7-4.6-4.6-4.6h-3.5V39.5z M231.7,28.6h0.9c1.6,0,2.2,0.8,2.2,2.6v3.5c0,2-0.8,2.6-2.2,2.6
		h-0.9L231.7,28.6z M239.8,26.3v9.3c0,2.9,1.7,4.1,4.3,4.1c2.6,0,4.3-1.2,4.3-4.1v-9.3h-2.5v9.2c0,1.3-0.6,1.9-1.8,1.9
		c-1.2,0-1.8-0.7-1.8-1.9v-9.2H239.8z M253.6,30.2c0-1.5,0.6-1.9,1.7-1.9c1,0,1.6,0.4,1.6,1.9v0.4h2.5v0c0-3.3-1.7-4.4-4.2-4.4
		c-2.5,0-4.2,1.2-4.2,4.4v4.7c0,3.3,1.7,4.4,4.2,4.4c2.5,0,4.2-1.2,4.2-4.4v-0.6h-2.5v0.9c0,1.5-0.6,1.9-1.6,1.9
		c-1,0-1.7-0.4-1.7-1.9V30.2z M265.8,29.2L265.8,29.2l1.3,5.3h-2.5L265.8,29.2z M263.4,39.5l0.7-2.8h3.5l0.6,2.8h2.4l-3.2-13.2h-3.2
		L261,39.5H263.4L263.4,39.5z M270.7,26.3v2.2h3v11h2.5v-11h2.9v-2.2H270.7L270.7,26.3z M283.7,26.3h-2.5v13.2h2.5V26.3z
		 M286.2,35.3c0,3.3,1.7,4.4,4.2,4.4c2.5,0,4.2-1.2,4.2-4.4v-4.7c0-3.3-1.7-4.4-4.2-4.4c-2.5,0-4.2,1.2-4.2,4.4V35.3z M288.8,30.2
		c0-1.5,0.6-1.9,1.6-1.9s1.7,0.4,1.7,1.9v5.4c0,1.5-0.6,1.9-1.7,1.9c-1,0-1.6-0.4-1.6-1.9V30.2z M299.5,39.5V31h0l3.9,8.5h2.4V26.3
		h-2.3v7.8h0l-3.5-7.8h-2.8v13.2L299.5,39.5z"/>
	<path class="st0" d="M312.5,2l5.7-2l-1.9,5.1h12.6L323.4,8h-13.7L312.5,2z"/>
	<path class="st1" d="M307.7,11.2h16.2l8.8,10.6L323,33.3l-6.3-17h-18.8L307.7,11.2z"/>
</g>
</svg>
