<svg width="278" height="50" viewBox="0 0 278 50" fill="none" xmlns="http://www.w3.org/2000/svg">
<g clip-path="url(#clip0_411_10025)">
<path d="M67.834 4.99761V49.6499C67.834 49.8409 67.9931 50.0001 68.1841 50.0001C68.3751 50.0001 68.5343 49.8409 68.5343 49.6499V4.99761C68.5343 4.80662 68.3751 4.64746 68.1841 4.64746C67.9931 4.64746 67.834 4.80662 67.834 4.99761Z" fill="#808080"/>
<path d="M6.0242 12.892H0V41.684H6.0242V12.892Z" fill="white"/>
<path d="M15.9792 12.892H9.95508V32.2697H15.9792V12.892Z" fill="white"/>
<path d="M25.9275 12.892H19.9033V41.684H25.9275V12.892Z" fill="white"/>
<path d="M35.8748 22.0594H29.8506V41.6918H35.8748V22.0594Z" fill="#808080"/>
<path d="M45.822 22.0594H39.7979V41.6918H45.822V22.0594Z" fill="white"/>
<path d="M55.7696 12.892H40.0605V18.6535H55.7696V12.892Z" fill="white"/>
<path d="M35.8748 12.892H29.8506V18.6535H35.8748V12.892Z" fill="white"/>
<path d="M82.5401 32.9541V28.5294H83.4714C86.0658 28.5294 87.3311 27.3118 87.3311 25.2348C87.3311 23.1577 86.0658 21.9402 83.4714 21.9402H80.4395V32.9461L82.5401 32.9541ZM82.5401 23.683H83.67C84.7047 23.683 85.2221 24.2002 85.2221 25.2348C85.2221 26.2693 84.7047 26.7945 83.67 26.7945H82.5401V23.683ZM96.3235 32.9541L94.254 28.044C95.4318 27.5983 95.9179 26.6115 95.9179 25.2348C95.9179 23.1577 94.7158 21.9402 92.1776 21.9402H89.1297V32.9461H91.2381V28.4657H92.2408L94.0714 32.9461L96.3235 32.9541ZM91.2304 23.683H92.3124C93.2436 23.683 93.8089 24.1366 93.8089 25.2109C93.8089 26.2773 93.2436 26.7309 92.3124 26.7309H91.2304V23.683ZM97.7561 29.4127C97.7561 32.1264 99.1881 33.1052 101.233 33.1052C103.279 33.1052 104.711 32.1264 104.711 29.4127V25.4815C104.711 22.7678 103.279 21.789 101.233 21.789C99.1881 21.789 97.7561 22.7678 97.7561 25.4815V29.4127ZM99.8644 25.2029C99.8644 23.9854 100.398 23.6432 101.242 23.6432C102.077 23.6432 102.61 23.9774 102.61 25.2029V29.6833C102.61 30.9009 102.077 31.2431 101.242 31.2431C100.398 31.2431 99.8644 30.9089 99.8644 29.6833V25.2029ZM108.858 32.9541V28.1952H111.508V26.333H108.858V23.8023H112.239V21.9402H106.748V32.9461L108.858 32.9541ZM119.776 32.9541V31.0919H115.964V28.1952H118.757V26.333H115.964V23.8023H119.624V21.9402H113.863V32.9461L119.776 32.9541ZM128.362 24.4549C127.996 22.9031 126.851 21.789 124.98 21.789C122.8 21.789 121.669 22.9827 121.669 24.8687C121.669 27.9484 126.365 27.9803 126.365 30.0494C126.365 30.877 125.8 31.3625 125.068 31.3625C124.447 31.3625 123.683 30.893 123.436 29.5639L121.36 30.0096C121.924 32.1741 123.253 33.1052 124.956 33.1052C127.169 33.1052 128.466 31.8559 128.466 29.9618C128.466 26.516 123.771 26.3966 123.771 24.7334C123.771 23.9854 124.185 23.5318 124.933 23.5318C125.664 23.5318 126.118 23.9775 126.469 25.012L128.362 24.4549ZM137.172 24.4549C136.805 22.9031 135.66 21.789 133.782 21.789C131.601 21.789 130.471 22.9827 130.471 24.8687C130.471 27.9484 135.167 27.9803 135.167 30.0494C135.167 30.877 134.601 31.3625 133.869 31.3625C133.241 31.3625 132.485 30.893 132.238 29.5639L130.161 30.0096C130.726 32.1741 132.047 33.1052 133.757 33.1052C135.97 33.1052 137.267 31.8559 137.267 29.9618C137.267 26.516 132.572 26.3966 132.572 24.7334C132.572 23.9854 132.978 23.5318 133.726 23.5318C134.458 23.5318 134.92 23.9775 135.27 25.012L137.172 24.4549ZM141.676 21.9402H139.575V32.9461H141.676V21.9402ZM143.841 29.4127C143.841 32.1264 145.273 33.1052 147.318 33.1052C149.364 33.1052 150.796 32.1264 150.796 29.4127V25.4815C150.796 22.7678 149.364 21.789 147.318 21.789C145.273 21.789 143.841 22.7678 143.841 25.4815V29.4127ZM145.942 25.2029C145.942 23.9854 146.475 23.6432 147.31 23.6432C148.154 23.6432 148.687 23.9774 148.687 25.2029V29.6833C148.687 30.9009 148.154 31.2431 147.31 31.2431C146.475 31.2431 145.942 30.9089 145.942 29.6833V25.2029ZM154.878 32.9541V25.8475H154.91L158.125 32.9541H160.139V21.9402H158.221V28.4657H158.189L155.26 21.9402H152.96V32.9461L154.878 32.9541ZM165.781 24.3196H165.812L166.831 28.7761H164.746L165.781 24.3196ZM163.767 32.9541L164.356 30.6383H167.269L167.802 32.9541H169.816L167.165 21.9482H164.468L161.738 32.9541H163.767ZM176.787 32.9541V31.0919H173.405V21.9402H171.296V32.9461L176.787 32.9541ZM188.891 32.9541V31.0919H185.079V28.1952H187.872V26.333H185.079V23.8023H188.739V21.9402H182.978V32.9461L188.891 32.9541ZM190.936 32.9541H193.864C196.276 32.9541 197.613 31.9195 197.708 29.1422V25.76C197.613 22.9827 196.276 21.9482 193.864 21.9482H190.936V32.9541ZM193.045 23.8023H193.769C195.082 23.8023 195.599 24.447 195.599 25.9988V28.8955C195.599 30.5427 194.931 31.0919 193.769 31.0919H193.037L193.045 23.8023ZM199.873 21.9402V29.6594C199.873 32.0866 201.289 33.1052 203.454 33.1052C205.619 33.1052 207.051 32.0866 207.051 29.6594V21.9402H204.95V29.6435C204.95 30.694 204.48 31.2431 203.454 31.2431C202.435 31.2431 201.973 30.694 201.973 29.6435V21.9402H199.873ZM211.324 25.2029C211.324 23.9854 211.857 23.6432 212.701 23.6432C213.537 23.6432 214.07 23.9774 214.07 25.2029V25.5054H216.179V25.4735C216.179 22.7598 214.746 21.781 212.701 21.781C210.656 21.781 209.223 22.7598 209.223 25.4735V29.4048C209.223 32.1184 210.656 33.0973 212.701 33.0973C214.746 33.0973 216.179 32.1184 216.179 29.4048V28.9432H214.07V29.6754C214.07 30.893 213.537 31.2351 212.701 31.2351C211.857 31.2351 211.324 30.9009 211.324 29.6754V25.2029ZM221.51 24.3196H221.542L222.561 28.7761H220.476L221.51 24.3196ZM219.497 32.9541L220.094 30.6383H223.007L223.54 32.9541H225.553L222.895 21.9482H220.198L217.468 32.9541H219.497ZM225.553 21.9402V23.8023H228.012V32.9541H230.113V23.8023H232.564V21.9402H225.553ZM236.376 21.9402H234.267V32.9461H236.376V21.9402ZM238.541 29.4127C238.541 32.1264 239.973 33.1052 242.019 33.1052C244.064 33.1052 245.496 32.1264 245.496 29.4127V25.4815C245.496 22.7678 244.064 21.789 242.019 21.789C239.973 21.789 238.541 22.7678 238.541 25.4815V29.4127ZM240.642 25.2029C240.642 23.9854 241.175 23.6432 242.01 23.6432C242.846 23.6432 243.387 23.9774 243.387 25.2029V29.6833C243.387 30.9009 242.854 31.2431 242.01 31.2431C241.175 31.2431 240.642 30.9089 240.642 29.6833V25.2029ZM249.578 32.9541V25.8475H249.61L252.833 32.9541H254.846V21.9402H252.929V28.4657H252.897L249.969 21.9402H247.669V32.9461L249.578 32.9541Z" fill="white"/>
<path d="M260.41 1.69506L265.144 0L263.537 4.24957H274.074L269.522 6.69267H258.094L260.41 1.69506Z" fill="#808080"/>
<path d="M256.399 9.31079H269.872L277.169 18.1123L269.163 27.7176L263.911 13.5285H248.281L256.399 9.31079Z" fill="white"/>
</g>
<defs>
<clipPath id="clip0_411_10025">
<rect width="277.778" height="50" fill="white"/>
</clipPath>
</defs>
</svg>
