<?xml version="1.0" encoding="utf-8"?>
<!-- Generator: Adobe Illustrator 27.2.0, SVG Export Plug-In . SVG Version: 6.00 Build 0)  -->
<svg version="1.1" id="Capa_1" xmlns="http://www.w3.org/2000/svg" xmlns:xlink="http://www.w3.org/1999/xlink" x="0px" y="0px"
	 viewBox="0 0 241.9 63.5" style="enable-background:new 0 0 241.9 63.5;" xml:space="preserve">
<style type="text/css">
	.st0{fill:#004280;}
	.st1{fill:#7E91BC;}
	.st2{fill:#FFFFFF;}
	.st3{fill:#A90533;}
	.st4{fill:#004785;}
</style>
<g>
	<path class="st0" d="M67.8,51.4h0.3V54h-0.3c-0.1-0.4-0.3-0.7-0.4-0.8C67.3,53,66.9,53,66.4,53h-2.6v3.8c0,0.3,0.1,0.4,0.2,0.6
		c0.1,0.1,0.3,0.2,0.6,0.2h1.8c0.7,0,1.1,0,1.4-0.1s0.5-0.2,0.6-0.4c0.2-0.2,0.4-0.5,0.5-0.9h0.3l-0.5,2h-7.6v-0.3
		c0.5,0,0.8-0.1,1-0.4c0.2-0.2,0.2-0.7,0.2-1.3v-6.6c0-0.6-0.1-1.1-0.3-1.3c-0.2-0.2-0.5-0.4-0.9-0.4v-0.3h7.6v1.7h-0.2
		c-0.1-0.5-0.3-0.8-0.5-1C67.9,48,67.4,48,66.8,48h-3v4.5h2.9c0.4,0,0.7-0.1,0.8-0.2C67.7,52.1,67.8,51.8,67.8,51.4z"/>
	<path class="st0" d="M72.4,51.3v1.3c0.8-0.9,1.5-1.3,2.3-1.3c0.6,0,1.1,0.2,1.6,0.6c0.4,0.4,0.6,1,0.6,1.7v2.9
		c0,0.4,0.1,0.7,0.2,0.9c0.2,0.1,0.4,0.2,0.9,0.2v0.3h-3.5v-0.3c0.4,0,0.7-0.1,0.9-0.2c0.2-0.1,0.2-0.3,0.2-0.6v-3.4
		c0-0.5-0.1-0.8-0.4-1.1c-0.3-0.3-0.6-0.4-1-0.4c-0.6,0-1.2,0.4-1.8,1.3v3.2c0,0.5,0.1,0.9,0.2,1c0.1,0.2,0.4,0.2,0.9,0.2v0.3h-3.4
		v-0.3c0.5,0,0.8-0.1,0.9-0.2c0.1-0.2,0.2-0.5,0.2-1v-3.7c0-0.4-0.1-0.6-0.2-0.8c-0.1-0.1-0.4-0.2-0.9-0.2v-0.3l2-0.2H72.4z"/>
	<path class="st0" d="M83.6,51.3h2.1v0.7H84c0.5,0.6,0.7,1.2,0.7,1.9c0,0.7-0.2,1.2-0.7,1.7c-0.5,0.5-1,0.8-1.7,0.8
		c-0.5,0-0.9,0.2-1.4,0.4c-0.5,0.3-0.7,0.5-0.7,0.8c0,0.2,0.1,0.4,0.4,0.5c0.3,0.1,0.8,0.3,1.7,0.4c1,0.2,1.7,0.4,2.1,0.5
		c0.4,0.2,0.7,0.4,0.9,0.6c0.2,0.3,0.3,0.6,0.3,0.9c0,0.8-0.4,1.4-1.2,1.9c-0.8,0.5-1.7,0.8-2.8,0.8c-1,0-1.7-0.2-2.3-0.6
		c-0.6-0.4-0.9-0.8-0.9-1.4c0-0.4,0.2-0.8,0.5-1.1c0.3-0.3,0.9-0.6,1.6-0.9v0c-0.4-0.1-0.8-0.3-1-0.5c-0.2-0.2-0.4-0.5-0.4-0.7
		c0-0.7,0.7-1.3,2-1.8v0c-0.6-0.2-1.2-0.5-1.5-0.9c-0.3-0.4-0.5-0.9-0.5-1.6c0-0.8,0.3-1.4,0.8-1.9c0.5-0.5,1.2-0.8,2-0.8
		c0.2,0,0.4,0,0.9,0C83.2,51.3,83.5,51.3,83.6,51.3L83.6,51.3z M85,61.3c0-0.4-0.3-0.8-0.8-1c-0.5-0.2-1.5-0.5-3-0.7
		c-1.3,0.3-1.9,0.9-1.9,1.5c0,0.5,0.3,0.9,0.9,1.2c0.6,0.3,1.4,0.5,2.3,0.5c0.7,0,1.3-0.1,1.8-0.4C84.8,62.1,85,61.8,85,61.3
		L85,61.3z M80.3,53.8c0,0.7,0.1,1.3,0.4,1.7c0.3,0.4,0.7,0.6,1.2,0.6s0.9-0.2,1.2-0.6c0.3-0.4,0.4-1,0.4-1.7c0-0.7-0.2-1.2-0.4-1.6
		c-0.3-0.4-0.7-0.6-1.2-0.6c-0.5,0-0.9,0.2-1.2,0.6C80.5,52.6,80.3,53.2,80.3,53.8z"/>
	<path class="st0" d="M89.8,57.6H90v0.3h-3.6v-0.3h0.3c0.3,0,0.6-0.1,0.7-0.3c0.1-0.2,0.2-0.5,0.2-1v-8.6c0-0.3-0.1-0.6-0.2-0.7
		C87.2,47,87,47,86.6,47h-0.4v-0.3l2.2-0.2h0.3v10.3c0,0.4,0.1,0.6,0.2,0.7C89.1,57.6,89.4,57.6,89.8,57.6L89.8,57.6z"/>
	<path class="st0" d="M92.7,51.3h0.3v5.5c0,0.4,0.1,0.6,0.2,0.7c0.2,0.1,0.4,0.2,0.8,0.2v0.3h-3.6v-0.3c0.5,0,0.9-0.1,1-0.2
		c0.1-0.1,0.2-0.4,0.2-0.7v-4c0-0.4-0.1-0.7-0.2-0.8c-0.1-0.1-0.5-0.2-1-0.2v-0.3L92.7,51.3L92.7,51.3z M92.4,47.9
		c0.2,0,0.4,0.1,0.6,0.2c0.2,0.2,0.2,0.3,0.2,0.6c0,0.2-0.1,0.4-0.2,0.6c-0.2,0.2-0.3,0.2-0.5,0.2c-0.2,0-0.4-0.1-0.6-0.2
		c-0.2-0.2-0.2-0.3-0.2-0.6c0-0.2,0.1-0.4,0.2-0.6C92.1,48,92.2,47.9,92.4,47.9L92.4,47.9z"/>
	<path class="st0" d="M99.3,51.3v2H99c-0.1-0.5-0.2-0.9-0.5-1.2c-0.3-0.3-0.7-0.4-1.1-0.4c-0.3,0-0.6,0.1-0.8,0.2
		c-0.2,0.2-0.3,0.4-0.3,0.6c0,0.3,0.1,0.5,0.3,0.7c0.2,0.2,0.6,0.4,1.2,0.7c0.8,0.4,1.3,0.7,1.6,1c0.3,0.3,0.4,0.7,0.4,1.2
		c0,0.5-0.2,1-0.6,1.4c-0.4,0.4-0.9,0.6-1.4,0.6c-0.3,0-0.7-0.1-1.1-0.3c-0.3-0.1-0.4-0.2-0.5-0.2c-0.1,0-0.2,0-0.3,0.1
		c-0.1,0.1-0.1,0.2-0.1,0.3h-0.3v-2.2h0.3c0.1,0.6,0.4,1,0.8,1.4c0.4,0.3,0.8,0.5,1.3,0.5c0.3,0,0.6-0.1,0.8-0.3
		c0.2-0.2,0.3-0.5,0.3-0.8s-0.1-0.6-0.3-0.8c-0.2-0.2-0.6-0.5-1.3-0.8c-0.8-0.3-1.3-0.6-1.5-0.9c-0.2-0.3-0.4-0.6-0.4-1
		c0-0.5,0.2-0.9,0.6-1.3c0.4-0.4,0.9-0.6,1.4-0.6c0.3,0,0.5,0.1,0.8,0.2c0.2,0.1,0.4,0.1,0.5,0.1c0.2,0,0.3-0.1,0.4-0.3H99.3
		L99.3,51.3z"/>
	<path class="st0" d="M105.9,56.6v-3.2c0-0.4-0.1-0.8-0.4-1c-0.2-0.3-0.6-0.4-1-0.4c-0.4,0-0.7,0.1-1,0.3c-0.3,0.2-0.6,0.5-0.9,1
		v3.6c0,0.3,0.1,0.6,0.2,0.7c0.1,0.1,0.4,0.2,0.8,0.2v0.3h-3.5v-0.3c0.5,0,0.8-0.1,0.9-0.2c0.1-0.2,0.2-0.5,0.2-1v-8.4
		c0-0.4-0.1-0.7-0.2-0.8c-0.1-0.1-0.5-0.2-0.9-0.2v-0.3l2.1-0.2h0.3v6.1c0.4-0.5,0.8-0.8,1.1-1c0.3-0.2,0.7-0.3,1.1-0.3
		c0.6,0,1.1,0.2,1.6,0.6c0.4,0.4,0.6,1,0.6,1.6v2.9c0,0.5,0.1,0.8,0.2,1c0.1,0.2,0.4,0.2,0.8,0.2v0.3h-3.4v-0.3
		c0.4,0,0.7-0.1,0.9-0.2C105.8,57.3,105.9,57,105.9,56.6L105.9,56.6z"/>
	<path class="st0" d="M121.1,55.6h0.3l-0.6,2.3h-7.6v-0.3c0.4,0,0.7-0.1,0.9-0.4c0.2-0.3,0.3-0.7,0.3-1.4v-6.6c0-0.6-0.1-1-0.3-1.2
		c-0.2-0.2-0.5-0.3-0.9-0.3v-0.3h3.8v0.3c-0.4,0-0.7,0.1-0.9,0.4c-0.2,0.3-0.3,0.7-0.3,1.3v7c0,0.4,0.1,0.7,0.3,0.8
		c0.2,0.1,0.5,0.2,0.9,0.2h2.1c0.6,0,1.1-0.1,1.4-0.3C120.7,56.9,120.9,56.4,121.1,55.6L121.1,55.6z"/>
	<path class="st0" d="M124,58.1c-0.5,0-0.9-0.2-1.3-0.5c-0.4-0.3-0.6-0.7-0.6-1.2c0-0.4,0.2-0.8,0.5-1.1c0.3-0.3,0.9-0.6,1.9-0.8
		c0.6-0.2,1-0.3,1.2-0.4v-0.5c0-0.5-0.1-0.9-0.4-1.1c-0.3-0.3-0.6-0.4-1.1-0.4c-0.4,0-0.8,0.1-1.1,0.4c-0.3,0.3-0.5,0.6-0.6,1
		l-0.3-0.1c0.1-0.6,0.4-1.1,0.9-1.5c0.4-0.4,0.9-0.5,1.5-0.5c0.7,0,1.3,0.2,1.7,0.6c0.4,0.4,0.6,1,0.6,1.7v2.8c0,0.4,0,0.7,0.1,0.8
		c0.1,0.1,0.1,0.2,0.3,0.2c0.1,0,0.2,0,0.2-0.1c0.1-0.1,0.1-0.3,0.2-0.5h0.3c0,0.4-0.2,0.7-0.4,1c-0.2,0.2-0.5,0.4-0.9,0.4
		c-0.5,0-0.9-0.3-1.1-0.9c-0.3,0.3-0.6,0.6-0.9,0.7C124.6,58.1,124.3,58.2,124,58.1L124,58.1z M125.7,56.6v-2.2
		c-0.2,0.1-0.5,0.2-0.8,0.3c-0.6,0.2-1.1,0.4-1.3,0.7c-0.2,0.2-0.3,0.5-0.3,0.9c0,0.3,0.1,0.6,0.3,0.8c0.2,0.2,0.4,0.4,0.7,0.4
		c0.2,0,0.5-0.1,0.8-0.2C125.4,57,125.6,56.9,125.7,56.6L125.7,56.6z"/>
	<path class="st0" d="M130.8,51.3v1.3c0.8-0.9,1.5-1.3,2.3-1.3c0.6,0,1.2,0.2,1.6,0.6c0.4,0.4,0.6,1,0.6,1.7v2.9
		c0,0.4,0.1,0.7,0.2,0.9c0.1,0.1,0.4,0.2,0.9,0.2v0.3h-3.5v-0.3c0.4,0,0.7-0.1,0.9-0.2c0.2-0.1,0.2-0.3,0.2-0.6v-3.4
		c0-0.5-0.1-0.8-0.4-1.1c-0.3-0.3-0.6-0.4-1-0.4c-0.6,0-1.2,0.4-1.8,1.3v3.2c0,0.5,0.1,0.9,0.2,1c0.1,0.2,0.4,0.2,0.9,0.2v0.3h-3.4
		v-0.3c0.5,0,0.8-0.1,0.9-0.2c0.1-0.2,0.2-0.5,0.2-1v-3.7c0-0.4-0.1-0.6-0.2-0.8c-0.1-0.1-0.4-0.2-0.9-0.2v-0.3l2-0.2H130.8
		L130.8,51.3z"/>
	<path class="st0" d="M142,51.3h2.1v0.7h-1.7c0.5,0.6,0.7,1.2,0.7,1.9c0,0.7-0.2,1.2-0.7,1.7c-0.5,0.5-1,0.8-1.7,0.8
		c-0.5,0-0.9,0.2-1.4,0.4c-0.5,0.3-0.7,0.5-0.7,0.8c0,0.2,0.1,0.4,0.4,0.5c0.3,0.1,0.8,0.3,1.7,0.4c1,0.2,1.7,0.4,2.1,0.5
		c0.4,0.2,0.7,0.4,0.9,0.6c0.2,0.3,0.3,0.6,0.3,0.9c0,0.8-0.4,1.4-1.2,1.9c-0.8,0.5-1.7,0.8-2.8,0.8c-0.9,0-1.7-0.2-2.3-0.6
		c-0.6-0.4-0.9-0.8-0.9-1.4c0-0.4,0.2-0.8,0.5-1.1c0.3-0.3,0.9-0.6,1.6-0.9v0c-0.4-0.1-0.8-0.3-1-0.5c-0.3-0.2-0.4-0.5-0.4-0.7
		c0-0.7,0.7-1.3,2-1.8v0c-0.6-0.2-1.1-0.5-1.5-0.9c-0.4-0.4-0.5-0.9-0.5-1.6c0-0.8,0.3-1.4,0.8-1.9c0.5-0.5,1.2-0.8,2-0.8
		c0.2,0,0.4,0,0.9,0C141.6,51.3,141.8,51.3,142,51.3L142,51.3z M143.4,61.3c0-0.4-0.3-0.8-0.8-1c-0.5-0.2-1.5-0.5-3-0.7
		c-1.3,0.3-1.9,0.9-1.9,1.5c0,0.5,0.3,0.9,0.9,1.2c0.6,0.3,1.4,0.5,2.3,0.5c0.7,0,1.3-0.1,1.8-0.4C143.1,62.1,143.4,61.8,143.4,61.3
		z M138.7,53.8c0,0.7,0.1,1.3,0.4,1.7c0.3,0.4,0.7,0.6,1.2,0.6s0.9-0.2,1.2-0.6c0.3-0.4,0.4-1,0.4-1.7c0-0.7-0.2-1.2-0.4-1.6
		c-0.3-0.4-0.7-0.6-1.2-0.6c-0.5,0-0.9,0.2-1.2,0.6C138.8,52.6,138.7,53.2,138.7,53.8z"/>
	<path class="st0" d="M151,51.3h0.3v5.5c0,0.4,0.1,0.6,0.2,0.7c0.2,0.1,0.5,0.2,0.9,0.2v0.3l-2.4,0.1v-1.2h0
		c-0.7,0.9-1.4,1.3-2.3,1.3c-0.6,0-1.1-0.2-1.5-0.6c-0.4-0.4-0.6-0.9-0.6-1.6v-3.3c0-0.3-0.1-0.6-0.2-0.7c-0.2-0.1-0.5-0.2-0.9-0.2
		v-0.3l2.1-0.2h0.3v4.6c0,0.4,0.1,0.8,0.4,1.1c0.3,0.3,0.6,0.4,1.1,0.4c0.6,0,1.2-0.4,1.7-1.1v-3.5c0-0.4-0.1-0.7-0.2-0.8
		c-0.1-0.1-0.5-0.2-1.1-0.2v-0.3L151,51.3L151,51.3z"/>
	<path class="st0" d="M155.1,58.1c-0.5,0-0.9-0.2-1.3-0.5c-0.4-0.3-0.5-0.7-0.5-1.2c0-0.4,0.2-0.8,0.5-1.1c0.3-0.3,0.9-0.6,1.9-0.8
		c0.6-0.2,1-0.3,1.2-0.4v-0.5c0-0.5-0.1-0.9-0.4-1.1c-0.3-0.3-0.6-0.4-1.1-0.4c-0.4,0-0.8,0.1-1.1,0.4c-0.3,0.3-0.5,0.6-0.6,1
		l-0.3-0.1c0.1-0.6,0.4-1.1,0.8-1.5c0.4-0.4,0.9-0.5,1.5-0.5c0.7,0,1.3,0.2,1.7,0.6c0.4,0.4,0.6,1,0.6,1.7v2.8c0,0.4,0,0.7,0.1,0.8
		c0.1,0.1,0.2,0.2,0.3,0.2c0.1,0,0.2,0,0.2-0.1c0.1-0.1,0.1-0.3,0.2-0.5h0.3c0,0.4-0.2,0.7-0.4,1c-0.2,0.2-0.5,0.4-0.9,0.4
		c-0.5,0-0.9-0.3-1.1-0.9c-0.3,0.3-0.6,0.6-0.9,0.7C155.7,58.1,155.4,58.2,155.1,58.1L155.1,58.1z M156.8,56.6v-2.2
		c-0.2,0.1-0.5,0.2-0.8,0.3c-0.6,0.2-1.1,0.4-1.3,0.7c-0.2,0.2-0.3,0.5-0.3,0.9c0,0.3,0.1,0.6,0.3,0.8c0.2,0.2,0.4,0.4,0.7,0.4
		c0.2,0,0.5-0.1,0.8-0.2C156.5,57,156.7,56.9,156.8,56.6L156.8,56.6z"/>
	<path class="st0" d="M164.7,51.3h2.1v0.7h-1.7c0.5,0.6,0.7,1.2,0.7,1.9c0,0.7-0.2,1.2-0.7,1.7c-0.5,0.5-1,0.8-1.7,0.8
		c-0.5,0-0.9,0.2-1.4,0.4c-0.5,0.3-0.7,0.5-0.7,0.8c0,0.2,0.1,0.4,0.4,0.5c0.2,0.1,0.8,0.3,1.7,0.4c1,0.2,1.7,0.4,2.1,0.5
		c0.4,0.2,0.7,0.4,0.9,0.6s0.3,0.6,0.3,0.9c0,0.8-0.4,1.4-1.2,1.9c-0.8,0.5-1.7,0.8-2.8,0.8c-0.9,0-1.7-0.2-2.3-0.6
		c-0.6-0.4-0.9-0.8-0.9-1.4c0-0.4,0.2-0.8,0.5-1.1c0.3-0.3,0.9-0.6,1.6-0.9v0c-0.4-0.1-0.8-0.3-1-0.5c-0.2-0.2-0.4-0.5-0.4-0.7
		c0-0.7,0.7-1.3,2-1.8v0c-0.6-0.2-1.2-0.5-1.5-0.9c-0.4-0.4-0.5-0.9-0.5-1.6c0-0.8,0.3-1.4,0.8-1.9c0.5-0.5,1.2-0.8,2-0.8
		c0.2,0,0.4,0,0.9,0C164.3,51.3,164.5,51.3,164.7,51.3L164.7,51.3z M166.1,61.3c0-0.4-0.3-0.8-0.8-1c-0.5-0.2-1.5-0.5-3-0.7
		c-1.3,0.3-1.9,0.9-1.9,1.5c0,0.5,0.3,0.9,0.9,1.2c0.6,0.3,1.4,0.5,2.3,0.5c0.7,0,1.3-0.1,1.8-0.4C165.8,62.1,166.1,61.8,166.1,61.3
		z M161.4,53.8c0,0.7,0.2,1.3,0.4,1.7c0.3,0.4,0.7,0.6,1.2,0.6c0.5,0,0.9-0.2,1.2-0.6c0.3-0.4,0.4-1,0.4-1.7c0-0.7-0.2-1.2-0.4-1.6
		c-0.3-0.4-0.7-0.6-1.1-0.6s-0.9,0.2-1.2,0.6C161.5,52.6,161.4,53.2,161.4,53.8L161.4,53.8z"/>
	<path class="st0" d="M173.8,56.3v0.5c-0.4,0.5-0.8,0.9-1.2,1.1c-0.4,0.2-0.9,0.3-1.5,0.3c-1,0-1.8-0.3-2.5-1c-0.7-0.6-1-1.4-1-2.4
		s0.3-1.8,0.9-2.5c0.6-0.7,1.4-1,2.3-1c0.8,0,1.4,0.3,2,0.8c0.6,0.5,0.8,1.1,0.8,1.8V54h-4.8v0.1c0,0.7,0.1,1.3,0.3,1.9
		c0.2,0.5,0.5,0.9,0.9,1.2c0.4,0.3,0.9,0.4,1.3,0.4c0.4,0,0.8-0.1,1.1-0.3C172.9,57.2,173.3,56.8,173.8,56.3z M169,53.7h3.5v-0.1
		c0-0.6-0.2-1-0.5-1.4c-0.3-0.3-0.7-0.5-1.2-0.5c-0.5,0-0.9,0.2-1.3,0.5C169.2,52.6,169,53.1,169,53.7L169,53.7z"/>
	<path class="st0" d="M179.2,47.4h3.8c1.2,0,2.3,0.3,3,0.8c0.7,0.5,1.1,1.3,1.1,2.1c0,0.9-0.3,1.5-1,2c-0.6,0.5-1.6,0.7-2.7,0.7
		c-0.5,0-1,0-1.6-0.1V56c0,0.6,0.1,1.1,0.2,1.3c0.2,0.2,0.5,0.4,0.9,0.4v0.3h-3.8v-0.3c0.5,0,0.8-0.1,0.9-0.4
		c0.2-0.3,0.2-0.7,0.2-1.2v-6.6c0-0.6-0.1-1.1-0.2-1.3c-0.2-0.3-0.5-0.4-0.9-0.4L179.2,47.4L179.2,47.4z M183.1,47.8h-1.3v4.7
		c0.4,0.1,0.8,0.2,1.3,0.2c0.8,0,1.4-0.2,1.9-0.6c0.5-0.4,0.7-1,0.7-1.7c0-0.8-0.2-1.4-0.7-1.9C184.5,48.1,183.9,47.8,183.1,47.8z"
		/>
	<path class="st0" d="M190.4,51.3v1.4c0.6-0.5,1.1-0.9,1.4-1.1c0.3-0.2,0.6-0.3,0.8-0.3c0.4,0,0.8,0.2,1.2,0.5l-0.5,1.2
		c-0.7-0.4-1.2-0.6-1.5-0.6c-0.4,0-0.8,0.3-1.4,0.8v3.6c0,0.4,0.1,0.6,0.2,0.7c0.2,0.1,0.4,0.2,0.9,0.2v0.3h-3.4v-0.3
		c0.5,0,0.8-0.1,0.9-0.2c0.1-0.1,0.2-0.5,0.2-1v-3.5c0-0.4-0.1-0.7-0.2-0.9c-0.2-0.1-0.5-0.2-1.1-0.2v-0.3l2.3-0.2L190.4,51.3
		L190.4,51.3z"/>
	<path class="st0" d="M201.6,54.7c0,1-0.3,1.8-1,2.4c-0.7,0.7-1.5,1-2.5,1c-1,0-1.9-0.3-2.5-1c-0.7-0.6-1-1.5-1-2.4
		c0-1,0.3-1.8,1-2.5c0.7-0.7,1.5-1,2.5-1c1,0,1.9,0.3,2.5,1C201.3,52.9,201.6,53.7,201.6,54.7z M200.2,54.7c0-0.9-0.2-1.7-0.6-2.2
		c-0.4-0.6-0.9-0.9-1.6-0.9c-0.7,0-1.2,0.3-1.6,0.8c-0.4,0.6-0.6,1.3-0.6,2.3c0,1,0.2,1.7,0.6,2.2c0.4,0.6,0.9,0.8,1.6,0.8
		c0.7,0,1.2-0.3,1.6-0.8C200,56.4,200.2,55.6,200.2,54.7z"/>
	<path class="st0" d="M207.6,51.3h2.1v0.7h-1.7c0.5,0.6,0.7,1.2,0.7,1.9c0,0.7-0.2,1.2-0.7,1.7c-0.5,0.5-1,0.8-1.7,0.8
		c-0.5,0-0.9,0.2-1.4,0.4c-0.5,0.3-0.7,0.5-0.7,0.8c0,0.2,0.1,0.4,0.4,0.5c0.2,0.1,0.8,0.3,1.7,0.4c1,0.2,1.7,0.4,2.1,0.5
		c0.4,0.2,0.7,0.4,0.9,0.6c0.2,0.3,0.3,0.6,0.3,0.9c0,0.8-0.4,1.4-1.2,1.9c-0.8,0.5-1.7,0.8-2.8,0.8c-0.9,0-1.7-0.2-2.3-0.6
		c-0.6-0.4-0.9-0.8-0.9-1.4c0-0.4,0.2-0.8,0.5-1.1c0.3-0.3,0.9-0.6,1.6-0.9v0c-0.4-0.1-0.8-0.3-1-0.5c-0.3-0.2-0.4-0.5-0.4-0.7
		c0-0.7,0.7-1.3,2-1.8v0c-0.7-0.2-1.2-0.5-1.5-0.9c-0.4-0.4-0.5-0.9-0.5-1.6c0-0.8,0.3-1.4,0.8-1.9c0.5-0.5,1.2-0.8,2-0.8
		c0.2,0,0.4,0,0.9,0C207.1,51.3,207.4,51.3,207.6,51.3L207.6,51.3z M209,61.3c0-0.4-0.3-0.8-0.8-1c-0.5-0.2-1.5-0.5-3-0.7
		c-1.3,0.3-1.9,0.9-1.9,1.5c0,0.5,0.3,0.9,0.9,1.2c0.6,0.3,1.4,0.5,2.3,0.5c0.7,0,1.3-0.1,1.8-0.4C208.7,62.1,209,61.8,209,61.3z
		 M204.3,53.8c0,0.7,0.2,1.3,0.4,1.7c0.3,0.4,0.7,0.6,1.2,0.6c0.5,0,0.9-0.2,1.2-0.6c0.3-0.4,0.4-1,0.4-1.7c0-0.7-0.2-1.2-0.4-1.6
		c-0.3-0.4-0.7-0.6-1.1-0.6c-0.5,0-0.9,0.2-1.2,0.6C204.4,52.6,204.3,53.2,204.3,53.8L204.3,53.8z"/>
	<path class="st0" d="M213,51.3v1.4c0.6-0.5,1.1-0.9,1.4-1.1c0.3-0.2,0.6-0.3,0.8-0.3c0.4,0,0.8,0.2,1.2,0.5l-0.5,1.2
		c-0.7-0.4-1.2-0.6-1.5-0.6c-0.4,0-0.8,0.3-1.4,0.8v3.6c0,0.4,0.1,0.6,0.2,0.7c0.1,0.1,0.4,0.2,0.9,0.2v0.3h-3.4v-0.3
		c0.4,0,0.7-0.1,0.9-0.2c0.1-0.1,0.2-0.5,0.2-1v-3.5c0-0.4-0.1-0.7-0.2-0.9c-0.1-0.1-0.5-0.2-1.1-0.2v-0.3l2.3-0.2L213,51.3
		L213,51.3z"/>
	<path class="st0" d="M218.9,58.1c-0.5,0-0.9-0.2-1.3-0.5c-0.4-0.3-0.5-0.7-0.5-1.2c0-0.4,0.2-0.8,0.5-1.1c0.3-0.3,0.9-0.6,1.9-0.8
		c0.6-0.2,1-0.3,1.2-0.4v-0.5c0-0.5-0.1-0.9-0.4-1.1c-0.3-0.3-0.6-0.4-1.1-0.4c-0.4,0-0.8,0.1-1.1,0.4c-0.3,0.3-0.5,0.6-0.6,1
		l-0.3-0.1c0.1-0.6,0.4-1.1,0.9-1.5c0.4-0.4,0.9-0.5,1.5-0.5c0.7,0,1.3,0.2,1.7,0.6c0.4,0.4,0.6,1,0.6,1.7v2.8c0,0.4,0,0.7,0.1,0.8
		c0,0.1,0.1,0.2,0.3,0.2c0.1,0,0.2,0,0.2-0.1c0.1-0.1,0.1-0.3,0.2-0.5h0.3c0,0.4-0.2,0.7-0.4,1c-0.2,0.2-0.5,0.4-0.9,0.4
		c-0.5,0-0.9-0.3-1.1-0.9c-0.3,0.3-0.6,0.6-0.9,0.7C219.6,58.1,219.3,58.2,218.9,58.1L218.9,58.1z M220.7,56.6v-2.2
		c-0.2,0.1-0.5,0.2-0.8,0.3c-0.6,0.2-1.1,0.4-1.2,0.7c-0.2,0.2-0.3,0.5-0.3,0.9c0,0.3,0.1,0.6,0.3,0.8c0.2,0.2,0.4,0.4,0.7,0.4
		c0.2,0,0.5-0.1,0.8-0.2C220.4,57,220.6,56.9,220.7,56.6L220.7,56.6z"/>
	<path class="st0" d="M225.9,51.3v1.4h0c0.3-0.4,0.6-0.7,1-1c0.4-0.2,0.9-0.4,1.3-0.4c0.5,0,0.9,0.1,1.3,0.4
		c0.4,0.3,0.6,0.6,0.8,1.1c0.7-1,1.5-1.5,2.4-1.5c0.6,0,1.2,0.2,1.6,0.6c0.4,0.4,0.6,0.9,0.6,1.6v3.3c0,0.4,0.1,0.6,0.2,0.7
		c0.2,0.1,0.4,0.2,0.9,0.2v0.3h-3.4v-0.3c0.5,0,0.8-0.1,0.9-0.2c0.1-0.2,0.2-0.5,0.2-1v-3.1c0-0.4-0.1-0.7-0.4-1
		c-0.2-0.2-0.6-0.4-1-0.4c-0.7,0-1.3,0.4-1.8,1.2v3.5c0,0.4,0.1,0.6,0.2,0.7c0.2,0.1,0.4,0.2,0.9,0.2v0.3h-3.4v-0.3
		c0.5,0,0.8-0.1,0.9-0.2c0.1-0.2,0.2-0.5,0.2-1v-3c0-0.4-0.1-0.8-0.4-1c-0.3-0.3-0.6-0.4-1-0.4c-0.4,0-0.7,0.1-1,0.3
		c-0.3,0.2-0.6,0.5-0.8,0.9v3.5c0,0.3,0.1,0.6,0.2,0.7c0.2,0.1,0.4,0.2,0.9,0.2v0.3h-3.4v-0.3c0.5,0,0.8-0.1,0.9-0.2
		c0.1-0.1,0.2-0.4,0.2-0.8v-3.9c0-0.3-0.1-0.6-0.2-0.7c-0.1-0.2-0.4-0.2-0.7-0.2h-0.4v-0.3l2.2-0.2H225.9L225.9,51.3z"/>
	<path class="st0" d="M241.2,51.3v2h-0.4c-0.1-0.5-0.2-0.9-0.5-1.2c-0.3-0.3-0.7-0.4-1.1-0.4c-0.3,0-0.6,0.1-0.8,0.2
		c-0.2,0.2-0.3,0.4-0.3,0.6c0,0.3,0.1,0.5,0.3,0.7c0.2,0.2,0.6,0.4,1.2,0.7c0.8,0.4,1.3,0.7,1.6,1c0.2,0.3,0.4,0.7,0.4,1.2
		c0,0.5-0.2,1-0.6,1.4c-0.4,0.4-0.9,0.6-1.4,0.6c-0.3,0-0.7-0.1-1.1-0.3c-0.3-0.1-0.4-0.2-0.5-0.2c-0.1,0-0.2,0-0.3,0.1
		c-0.1,0.1-0.1,0.2-0.1,0.3h-0.3v-2.2h0.3c0.1,0.6,0.4,1,0.8,1.4c0.4,0.3,0.8,0.5,1.3,0.5c0.3,0,0.6-0.1,0.8-0.3
		c0.2-0.2,0.3-0.5,0.3-0.8s-0.1-0.6-0.3-0.8c-0.2-0.2-0.6-0.5-1.3-0.8c-0.8-0.3-1.2-0.6-1.5-0.9c-0.2-0.3-0.4-0.6-0.4-1
		c0-0.5,0.2-0.9,0.6-1.3c0.4-0.4,0.9-0.6,1.4-0.6c0.2,0,0.5,0.1,0.8,0.2c0.2,0.1,0.4,0.1,0.5,0.1c0.2,0,0.3-0.1,0.4-0.3H241.2
		L241.2,51.3z"/>
	<path class="st0" d="M70.2,31.6c0,4.7,1.1,6,4.3,6v1.1H60.9v-1.1c2.6,0,4.3-0.9,4.3-5.9V8.1c0-4.6-1.1-6-4.3-6V1h13.7
		C85,1,89.2,6.6,89.2,11.7c0,6.2-4.7,9.7-13.3,9.7c-1.6,0-3-0.1-5.8-0.4V31.6z M70.2,19.4c1.7,0.6,2.7,0.7,4.7,0.7
		c5.6,0,9.1-3,9.1-8.2c0-4-2.2-9.4-9.1-9.4h-4.7V19.4z"/>
	<path class="st0" d="M89.2,24.5c-0.1,10.5,6.1,13.1,9.3,13.1c3.1,0,4.9-1.1,8.2-4.9v1.7c-2.8,3.6-5.5,5-9.6,5
		c-7.3,0-12.6-5.1-12.6-12.1s5.1-12.6,11.7-12.6c5.4,0,10.4,4.3,10.1,9.7H89.2z M101.9,23.4c0.2-5.1-3.3-7.2-6.2-7.2
		c-3.9,0-6.2,2.9-6.4,7.2H101.9z"/>
	<path class="st0" d="M130.9,33.6c0,3,0.7,3.9,4,3.9v1.1h-12.4v-1.1c3.1,0,4-0.7,4-2.9V22.5c0-3.7-2.7-5.3-5.2-5.3
		c-2.3,0-4.3,1.4-6.6,4.5v11.4c0,3.6,0.5,4.5,3.9,4.5v1.1h-12.3v-1.1c3.1,0,3.9-0.3,3.9-4.5V20c0-2.8-0.7-3.4-3.9-3.4v-1.1l7.2-0.7
		h1.1v4.7c2.8-3.2,5.5-4.7,8.4-4.7c3.9,0,7.9,2.8,7.9,8.3V33.6z"/>
	<path class="st0" d="M157.7,33.6c0,3,0.7,3.9,4,3.9v1.1h-12.4v-1.1c3.1,0,4-0.7,4-2.9V22.5c0-3.7-2.7-5.3-5.2-5.3
		c-2.3,0-4.3,1.4-6.6,4.5v11.4c0,3.6,0.5,4.5,3.9,4.5v1.1h-12.3v-1.1c3.1,0,3.9-0.3,3.9-4.5V20c0-2.8-0.7-3.4-3.9-3.4v-1.1l7.2-0.7
		h1.1v4.7c2.8-3.2,5.4-4.7,8.4-4.7c3.9,0,7.9,2.8,7.9,8.3L157.7,33.6L157.7,33.6z"/>
	<path class="st1" d="M177.4,33.7c0,4.2,0.5,4.2,3.1,4.2h3.8c1.8,0,4.2-0.2,5.7-3.7h1.2l-1.2,4.8h-21.2v-1.1c3-0.3,4.1-0.6,4.1-4.3
		V19.4c0-3.6-1.1-4-4.1-4.2v-1.1h20.8l0.4,4.7h-1.2c-0.7-3.6-3.4-3.6-5.6-3.6h-5.9v10.6h4.4c3.8,0,4-2,4.1-3.4h1.1v8.2h-1.1
		c-0.1-1.4-0.2-3.4-4.1-3.4h-4.4L177.4,33.7L177.4,33.7z"/>
	<path class="st1" d="M203.4,35c0,2.1,0.7,2.5,3,2.5h4.5c3.1,0,3.4-0.7,5.4-5.5h1.2l-2,6.9h-20.7v-1.1c2.7-0.3,4.1-0.5,4.1-4.3V19.4
		c0-3.7-1.4-4-4.1-4.2v-1.1h12.6v1.1c-3.1,0.3-4.1,0.9-4.1,4.2L203.4,35L203.4,35z"/>
	<path class="st1" d="M227.4,33.5c0,3.7,1.3,4,4.1,4.3v1.1h-12.6v-1.1c3-0.3,4-0.6,4-4.3V19.4c0-3.7-1.4-4-4-4.2v-1.1H231
		c3.3,0,5.5,0.5,6.7,0.9c1,0.4,4.2,2.2,4.2,6c0,6.8-8.5,7-9.8,7c-0.5,0-2.4,0-4.7-0.6L227.4,33.5L227.4,33.5z M227.4,26.1
		c0.8,0.2,1.9,0.5,3.3,0.5c3.6,0,6.4-1.9,6.4-5.5s-2.3-5.9-6.1-5.9h-3.6V26.1L227.4,26.1z"/>
	<path class="st2" d="M52,0H0c0,0,0,25.8,0,25.9c0,11.3,6.2,19.4,11.5,24.3c5.8,5.4,12.1,8.4,14.3,8.9l0.3,0.1l0.3-0.1
		c2.1-0.5,8.5-3.5,14.3-8.9c5.3-4.9,11.5-13,11.5-24.3C52,25.6,52,0,52,0z"/>
	<path class="st3" d="M48.8,10.8c0.1,0.1,0.1,0.1,0.2,0.2c0.1,0.1,0.1,0.2,0.1,0.3c0,0.1,0,0.2-0.1,0.3c-0.1,0.1-0.1,0.1-0.2,0.2
		c-0.1,0.1-0.2,0.2-0.2,0.3v0.9h-5.5h-5.5v-0.9c0-0.2-0.1-0.2-0.2-0.3c-0.1-0.1-0.2-0.1-0.2-0.2c-0.1-0.1-0.1-0.2-0.1-0.3
		c0-0.1,0-0.2,0.1-0.3c0.1-0.1,0.1-0.1,0.2-0.2c0.1-0.1,0.2-0.2,0.2-0.3v-3c0-0.2-0.1-0.2-0.2-0.3c-0.1-0.1-0.2-0.1-0.2-0.2
		c-0.1-0.1-0.1-0.2-0.1-0.3c0-0.1,0-0.2,0.1-0.3c0.1-0.1,0.1-0.2,0.2-0.2c0.1-0.1,0.2-0.2,0.2-0.3V4.9h0.1c0.6,0,1.2,0,1.6-0.2
		c0.2-0.1,0.3-0.2,0.5-0.3C40.1,4.2,40.5,4,41.1,4c0.4,0,0.9,0.2,1.2,0.3c0.3,0.1,0.5,0.2,0.7,0.2h0.1c0.2,0,0.4-0.1,0.7-0.2
		C44.2,4.2,44.6,4,45.1,4c0.6,0,0.9,0.2,1.3,0.5c0.2,0.1,0.3,0.2,0.5,0.3c0.4,0.2,1,0.2,1.6,0.2h0.1v0.9c0,0.2,0.1,0.2,0.2,0.3
		c0.1,0.1,0.2,0.1,0.2,0.2C49,6.5,49,6.6,49,6.7C49,6.8,49,6.9,49,7c-0.1,0.1-0.1,0.1-0.2,0.2c-0.1,0.1-0.2,0.2-0.2,0.3v3
		C48.5,10.7,48.6,10.8,48.8,10.8L48.8,10.8z M35.4,12.4c-0.8,1.4-2.5,1.7-2.5,1.7c-0.3,0.1-0.7,0.1-1,0.1c-1.7,0-3.3-0.7-4.9-1.6
		c-0.2-0.1-0.4-0.2-0.6-0.3c-1-0.6-2.4-1.3-3.6-1.3c-0.3,0-0.7,0.1-1,0.2l-0.1,0v0.1c0,0.2,0,0.3-0.1,0.4c-0.2,0.5-0.8,1.1-1.1,1.3
		c-0.7,0.5-1.6,1-2.6,1c-0.2,0-0.3,0-0.4-0.1c-0.2-0.1-0.4-0.2-0.5-0.3c-0.1-0.1-0.1-0.2-0.1-0.3c0-0.1-0.1-0.2-0.1-0.2v-0.1l-0.1,0
		c-0.4-0.1-0.7-0.4-0.7-0.7c0-0.3,0.2-0.5,0.4-0.7c0.3-0.3,0.5-0.6,0.1-1c0,0-0.1-0.1-0.1-0.1c-0.1,0-0.1-0.1-0.2-0.1
		c-0.3-0.4-0.1-1.1,0-1.6V8.8c0.1-0.5,0.3-1,0.6-1.6c0.4-0.8,0.9-1.6,1.5-2.2c0,0,0,0,0.1,0c0,0,0,0,0,0c0,0,0.1,0.1,0.2,0.3
		l0.1,0.2l0.1-0.2c0.2-0.5,0.5-0.9,0.9-1c0.4-0.2,0.8,0.1,1,0.2l0.1,0.1l0.1-0.1C21,4.3,21.3,4,21.7,4c0.4,0,0.8,0.3,1,0.5l0.1,0.1
		l0.1-0.1C23,4.3,23.5,3.9,24,4c0.5,0.1,0.7,0.5,0.7,0.7l0,0.1l0.1-0.1c0.2-0.1,0.7-0.3,1.1,0c0.3,0.2,0.3,0.5,0.3,0.7v0.1l0.1,0
		c0.3,0,0.9-0.1,1.2,0.3c0.3,0.3,0.3,0.6,0.3,0.9l0,0.1H28c0.3-0.1,0.7,0,0.9,0.3c0.1,0.2,0.1,0.5,0,0.7l0,0.1l0.1,0
		c0.2,0,0.4,0.1,0.5,0.4c0.1,0.2,0,0.5-0.1,0.8l0,0.1l0.1,0c0.1,0.1,0.4,0.2,0.5,0.5c0.1,0.3,0.1,0.6,0,1l0,0.1l0.1,0
		c0.4,0.3,0.7,0.6,1.1,0.9c0.7,0.5,1.9,0.8,2.6,0.2c0.3-0.2,0.4-0.7,0.3-1.1c-0.1-0.4-0.3-0.6-0.7-0.7c-0.6-0.1-1,0.4-1.4,1
		c0,0,0,0,0,0c0,0,0,0-0.1,0c-0.3-0.8-0.4-1.5-0.1-2c0.3-0.4,0.8-0.8,1.4-0.9h0.1V8c0-1,0.2-1.7,0.7-2.1c0.3-0.3,0.8-0.5,1.7-0.4
		c0,0,0,0,0,0c0,0,0,0,0,0.1C35,7.1,35.2,7.7,35.5,9c0,0.1,0.1,0.2,0.1,0.3C36,10.5,35.9,11.6,35.4,12.4L35.4,12.4z M14.6,10.8
		c0.1,0.1,0.2,0.1,0.2,0.2c0.1,0.1,0.1,0.2,0.1,0.3c0,0.1,0,0.2-0.1,0.3c-0.1,0.1-0.1,0.1-0.2,0.2c-0.1,0.1-0.2,0.2-0.2,0.3v0.9H8.9
		H3.4v-0.9c0-0.2-0.1-0.2-0.2-0.3C3.1,11.8,3,11.7,3,11.6c-0.1-0.1-0.1-0.2-0.1-0.3c0-0.1,0-0.2,0.1-0.3C3,11,3.1,10.9,3.2,10.8
		c0.1-0.1,0.2-0.2,0.2-0.3v-3c0-0.2-0.1-0.2-0.2-0.3C3.1,7.1,3,7.1,3,7C2.9,6.9,2.9,6.8,2.9,6.7c0-0.1,0-0.2,0.1-0.3
		C3,6.3,3.1,6.2,3.2,6.2C3.3,6.1,3.4,6,3.4,5.8V4.9h0.1c0.6,0,1.2,0,1.6-0.2c0.2-0.1,0.3-0.2,0.5-0.3C5.9,4.2,6.3,4,6.9,4
		c0.4,0,0.9,0.2,1.2,0.3c0.3,0.1,0.5,0.2,0.7,0.2h0.1c0.2,0,0.4-0.1,0.7-0.2C10,4.2,10.4,4,10.9,4c0.6,0,0.9,0.2,1.3,0.5
		c0.2,0.1,0.3,0.2,0.5,0.3c0.4,0.2,1,0.2,1.6,0.2h0.1v0.9c0,0.2,0.1,0.2,0.2,0.3c0.1,0.1,0.1,0.1,0.2,0.2c0.1,0.1,0.1,0.2,0.1,0.3
		c0,0.1,0,0.2-0.1,0.3c-0.1,0.1-0.1,0.1-0.2,0.2c-0.1,0.1-0.2,0.2-0.2,0.3v3C14.3,10.7,14.4,10.8,14.6,10.8L14.6,10.8z M1.3,1.4
		c0,0,0.1,15,0,15h49.3v-15H1.3z"/>
	<path class="st4" d="M18.3,10.2c0.2,0,0.3,0,0.5,0.2c0.1,0,0.1,0.1,0.2,0.1c0.1,0.1,0.1,0.3,0,0.4c-0.1,0.1-0.3,0.2-0.3,0.3
		c-0.2,0.1-0.6,0.4-0.8,0.2c-0.1-0.1,0.1-0.3,0-0.7C17.7,10.3,18.1,10.2,18.3,10.2z"/>
	<path class="st4" d="M18.4,5.3c-0.6,0.5-1,1.3-1.3,2c-0.3,0.5-0.5,1-0.6,1.5v0.1c-0.1,0.4-0.3,1.1,0,1.4c0,0,0.1,0.1,0.1,0.1
		c0.1,0,0.1,0.1,0.1,0.1c0.5,0.5,0.2,1-0.1,1.3c-0.2,0.2-0.3,0.4-0.3,0.5c0,0.4,0.5,0.5,0.6,0.5c0.1,0,0.1,0.1,0.1,0.1
		c0,0.1,0,0.2,0.1,0.3c0,0.1,0.1,0.1,0.1,0.2c0.1,0.1,0.2,0.2,0.4,0.3c0.1,0,0.2,0.1,0.4,0.1c1,0,1.8-0.5,2.5-1
		c0.4-0.3,0.9-0.8,1-1.2c0-0.1,0.1-0.2,0.1-0.3l-0.7-0.1c0,0,0,0,0,0c-0.1,0-0.1-0.1-0.1-0.2c0-0.1,0.1-0.2,0.3-0.4
		c0.1-0.1,0.2-0.1,0.2-0.2c0.4-0.3,0.7-0.5,0.8-0.6c-0.2-0.2-0.4-0.5-0.5-0.7c-0.1-0.2-0.2-0.3-0.3-0.4c-0.3-0.4-1-0.6-1.5-0.3
		c-0.2,0.1-0.4,0.3-0.6,0.4c-0.2,0.1-0.3,0.3-0.5,0.4c-0.1,0.1-0.2,0-0.2,0c-0.1-0.1-0.1-0.2,0-0.2c0,0,0.1,0,0.1-0.1
		c0.2-0.2,0.8-0.7,0.8-1.1C19.4,7.1,18.7,5.8,18.4,5.3L18.4,5.3z M22.8,10.8c1.2,0,2.6,0.8,3.7,1.4c0.2,0.1,0.4,0.2,0.6,0.3
		c1.9,1,3.7,1.8,5.7,1.5c0,0,1.6-0.3,2.4-1.6c0.5-0.8,0.6-1.8,0.3-2.9c0-0.1-0.1-0.2-0.1-0.4c-0.3-1.2-0.5-1.9,0.1-3.4
		c-0.7,0-1.1,0.2-1.3,0.4c-0.4,0.4-0.7,1.1-0.6,2.1c0,0.1-0.1,0.2-0.1,0.2c-0.6,0.1-1.1,0.3-1.4,0.8c-0.2,0.4-0.2,0.9,0,1.6
		c0.3-0.4,0.8-1,1.5-0.8c0.4,0.1,0.7,0.4,0.8,0.9c0.1,0.5,0,1-0.4,1.3c-0.9,0.7-2.1,0.4-2.9-0.2c-0.9-0.7-1.9-1.5-2.8-2.6
		C28,9,27.8,8.8,27.6,8.6c-0.6-0.7-1.2-1.4-2-2c-1.2-0.9-2.6-1.1-3.5-1c-0.7,0-2,0.2-2.9,0.7c0.3,0.6,0.5,1.2,0.5,1.7
		c0,0.1,0,0.2,0,0.3c0.6-0.4,1.4-0.1,1.8,0.4c0.1,0.1,0.2,0.3,0.3,0.4c0.2,0.2,0.4,0.5,0.6,0.8c0,0,0,0.1,0,0.1c0,0,0,0.1-0.1,0.1
		c0,0-0.4,0.3-1,0.7c-0.1,0.1-0.2,0.1-0.2,0.2c0,0,0,0,0,0l0.5,0.1C22,10.9,22.4,10.8,22.8,10.8L22.8,10.8z M31.9,14.3
		c-1.7,0-3.3-0.7-4.9-1.6c-0.2-0.1-0.4-0.2-0.6-0.3c-1.3-0.7-3.3-1.8-4.5-1.1c0,0.2,0,0.3-0.1,0.5c-0.2,0.5-0.8,1.1-1.2,1.3
		c-0.7,0.5-1.6,1-2.7,1c-0.2,0-0.3,0-0.5-0.1c-0.2-0.1-0.4-0.2-0.5-0.4c-0.1-0.1-0.1-0.2-0.2-0.3c0-0.1-0.1-0.2-0.1-0.3
		C16.3,13,16,12.7,16,12.3c0-0.3,0.2-0.5,0.4-0.7c0.3-0.4,0.4-0.6,0.1-0.9c0,0-0.1-0.1-0.1-0.1c-0.1,0-0.1-0.1-0.2-0.2
		c-0.4-0.4-0.2-1.2,0-1.7v0c0.2-0.5,0.3-1,0.6-1.6c0.4-0.8,0.9-1.6,1.5-2.2c0,0,0.1,0,0.1,0c0,0,0.1,0,0.1,0.1c0,0,0.3,0.4,0.6,1
		c1.2-0.7,2.8-0.8,3-0.8c1,0,2.5,0.1,3.7,1.1c0.8,0.6,1.4,1.4,2,2.1c0.2,0.2,0.3,0.4,0.5,0.6c1,1.1,1.9,1.9,2.8,2.6
		c0.7,0.5,1.8,0.8,2.5,0.2c0.3-0.2,0.4-0.6,0.3-1c-0.1-0.3-0.3-0.5-0.6-0.6c-0.5-0.1-1,0.4-1.3,0.9c0,0-0.1,0.1-0.1,0.1
		c-0.1,0-0.1,0-0.1-0.1c-0.4-0.8-0.4-1.6,0-2.1C32,8.4,32.6,8.1,33.2,8c0-1,0.2-1.7,0.7-2.2c0.3-0.3,0.9-0.6,1.8-0.5
		c0,0,0.1,0,0.1,0.1c0,0,0,0.1,0,0.1c-0.6,1.5-0.5,2.1-0.1,3.4c0,0.1,0.1,0.2,0.1,0.4c0.3,1.2,0.2,2.3-0.3,3.2
		c-0.9,1.4-2.5,1.7-2.6,1.7C32.5,14.3,32.2,14.3,31.9,14.3L31.9,14.3z"/>
	<path class="st4" d="M17.3,13.2c-0.2,0-0.3,0-0.4,0c-0.1,0-0.2-0.1-0.1-0.2c0-0.1,0.1-0.1,0.2-0.1c0.7,0.1,1.8,0,2.7-1
		c0.1-0.1,0.2-0.1,0.2,0c0.1,0.1,0.1,0.2,0,0.2C19.1,12.8,18.3,13.2,17.3,13.2L17.3,13.2z"/>
	<path class="st4" d="M29.9,10.9C29.9,10.9,29.9,10.9,29.9,10.9c-0.1,0-0.2-0.1-0.1-0.2c0.2-0.4,0.2-0.7,0.1-0.9
		c-0.2-0.3-0.5-0.4-0.5-0.4c0,0-0.1,0-0.1-0.1c0,0,0-0.1,0-0.1c0.1-0.2,0.2-0.6,0.1-0.8c-0.1-0.2-0.4-0.3-0.5-0.3
		c-0.1,0-0.1,0-0.1-0.1c0,0,0-0.1,0-0.1c0-0.1,0.1-0.5,0-0.7C28.4,6.9,27.8,7,27.8,7c-0.1,0-0.1,0-0.2,0c0,0,0-0.1,0-0.2
		c0,0,0.2-0.6-0.2-0.9c-0.4-0.4-1.3-0.2-1.3-0.2c0,0-0.1,0-0.2,0c0,0,0-0.1,0-0.2c0,0,0.2-0.5-0.2-0.7c-0.5-0.3-1,0.1-1,0.1
		c0,0-0.1,0-0.1,0c-0.1,0-0.1-0.1-0.1-0.1c0,0-0.1-0.6-0.6-0.7c-0.6-0.1-1.2,0.5-1.2,0.5c0,0-0.1,0-0.1,0s-0.1,0-0.1-0.1
		c0,0-0.4-0.5-0.9-0.5c-0.5,0-0.7,0.5-0.7,0.5c0,0.1-0.1,0.1-0.1,0.1c0,0-0.1,0-0.1,0c0,0-0.5-0.5-1-0.3c-0.6,0.2-0.8,1-0.9,1.2
		c0,0.1-0.1,0.1-0.2,0.1c-0.1,0-0.1-0.1-0.1-0.2c0.1-0.3,0.3-1.2,1-1.5c0.5-0.2,0.9,0.1,1.1,0.2c0.1-0.2,0.4-0.5,0.9-0.5
		c0.5,0,0.9,0.3,1,0.5c0.2-0.2,0.8-0.6,1.3-0.5c0.5,0.1,0.7,0.4,0.8,0.7c0.3-0.1,0.7-0.3,1.2,0c0.3,0.2,0.3,0.5,0.3,0.8
		c0.3-0.1,1-0.1,1.3,0.3C28,6,28,6.4,27.9,6.7c0.3,0,0.7,0,1,0.3c0.1,0.2,0.1,0.6,0,0.8c0.2,0.1,0.5,0.2,0.6,0.4
		c0.1,0.3,0,0.6,0,0.9c0.2,0.1,0.4,0.2,0.6,0.5c0.2,0.3,0.1,0.7-0.1,1.2C30,10.8,29.9,10.8,29.9,10.9L29.9,10.9z"/>
	<path class="st4" d="M29.2,12.9C29.2,12.9,29.2,12.9,29.2,12.9c-0.1,0-0.2-0.1-0.2-0.2c0.1-0.6-0.3-0.7-0.5-0.8
		c-0.1,0-0.1,0-0.2-0.1c-0.2-0.1-0.2-0.3-0.2-0.5c0-0.2,0-0.4-0.2-0.6c-0.3-0.3-0.8-0.1-0.8-0.1c-0.1,0-0.1,0-0.1,0
		c0,0-0.1-0.1-0.1-0.1c0,0,0.1-0.6-0.3-0.9c-0.3-0.3-0.8-0.2-1-0.1c0,0-0.1,0-0.1,0s-0.1-0.1-0.1-0.1c0-0.4-0.1-0.7-0.4-0.9
		c-0.2-0.2-0.5-0.2-0.8-0.1c-0.6,0.3-0.9,0.3-1.5-0.1c-0.2-0.1-0.4-0.2-0.6-0.1c-0.3,0.1-0.5,0.3-0.6,0.6c0,0.1-0.1,0.1-0.2,0.1
		c-0.1,0-0.1-0.1-0.1-0.2c0.2-0.4,0.5-0.7,0.8-0.8c0.3-0.1,0.6,0,0.8,0.2c0.5,0.4,0.7,0.4,1.2,0.1c0.3-0.2,0.7-0.2,1,0.1
		c0.3,0.2,0.5,0.5,0.5,1c0.3,0,0.8-0.1,1.1,0.2c0.3,0.3,0.4,0.7,0.4,0.9c0.3-0.1,0.7-0.1,0.9,0.2c0.2,0.3,0.2,0.6,0.3,0.8
		c0,0.1,0,0.2,0,0.2c0,0,0.1,0,0.1,0c0.3,0.1,0.9,0.3,0.8,1.1C29.3,12.9,29.3,12.9,29.2,12.9L29.2,12.9z"/>
	<path class="st4" d="M14.6,11.4c0,0.1,0,0.1,0,0.2c0,0-0.1,0.1-0.2,0.2c-0.1,0.1-0.3,0.2-0.3,0.5v0.7H3.6v-0.7
		c0-0.3-0.2-0.4-0.3-0.5c-0.1,0-0.1-0.1-0.2-0.2c0-0.1-0.1-0.1-0.1-0.2c0-0.1,0-0.1,0.1-0.2c0-0.1,0.1-0.1,0.2-0.2
		c0.1-0.1,0.3-0.2,0.3-0.5v-3c0-0.3-0.2-0.4-0.3-0.5C3.3,7,3.2,6.9,3.2,6.9c0-0.1-0.1-0.1-0.1-0.2c0-0.1,0-0.1,0.1-0.2
		c0,0,0.1-0.1,0.2-0.2c0.1-0.1,0.3-0.2,0.3-0.5V5.1c0,0,0,0,0,0c0.3,0,0.5,0,0.8,0V12h3.8c0.1,0.3,0.3,0.5,0.6,0.5
		c0.3,0,0.5-0.2,0.6-0.5h3.8V5.1c0.3,0,0.5,0,0.8,0h0v0.7c0,0.3,0.2,0.4,0.3,0.5c0.1,0,0.1,0.1,0.2,0.2c0,0.1,0,0.1,0,0.2
		c0,0.1,0,0.1,0,0.2c0,0.1-0.1,0.1-0.2,0.2c-0.1,0.1-0.3,0.2-0.3,0.5v3c0,0.3,0.2,0.4,0.3,0.5c0.1,0.1,0.1,0.1,0.2,0.2
		C14.6,11.2,14.6,11.3,14.6,11.4L14.6,11.4z M5.2,4.9c0.2-0.1,0.3-0.2,0.5-0.3c0.3-0.2,0.6-0.4,1.1-0.4c0.4,0,0.8,0.2,1.1,0.3
		c0.3,0.1,0.5,0.2,0.7,0.2v6c0,0,0,0,0,0c-0.3,0-0.7,0.2-1.2,0.3c-0.2,0.1-0.3,0.1-0.5,0.2c-0.5,0.1-0.9,0.1-1.4,0.1
		c-0.3,0-0.6,0-0.8,0V5.1C4.9,5,5.1,5,5.2,4.9L5.2,4.9z M9.7,4.6c0.3-0.1,0.7-0.3,1.1-0.3c0.5,0,0.8,0.2,1.1,0.4
		c0.2,0.1,0.3,0.2,0.5,0.3C12.6,5,12.8,5.1,13,5.1v6.4c-0.3,0-0.5,0-0.9,0c-0.5,0-0.9,0-1.4-0.1c-0.2-0.1-0.3-0.1-0.5-0.2
		c-0.5-0.2-0.9-0.3-1.2-0.3c0,0,0,0,0,0V4.8C9.2,4.7,9.5,4.7,9.7,4.6L9.7,4.6z M14.6,10.8c-0.1-0.1-0.2-0.1-0.2-0.3v-3
		c0-0.1,0.1-0.2,0.2-0.3c0.1-0.1,0.2-0.1,0.2-0.2c0.1-0.1,0.1-0.2,0.1-0.3c0-0.1,0-0.3-0.1-0.3c-0.1-0.1-0.1-0.2-0.2-0.2
		C14.5,6,14.4,6,14.4,5.9v-1h-0.2c-0.6,0-1.2,0-1.6-0.2c-0.1-0.1-0.3-0.1-0.4-0.2c-0.3-0.2-0.7-0.5-1.3-0.5c-0.5,0-0.9,0.2-1.3,0.3
		C9.3,4.4,9.1,4.5,8.9,4.5H8.8c-0.2,0-0.4-0.1-0.7-0.2C7.8,4.1,7.4,3.9,6.9,3.9c-0.6,0-1,0.3-1.3,0.5C5.4,4.5,5.3,4.6,5.1,4.6
		c-0.4,0.2-1,0.2-1.5,0.2H3.3v1C3.3,6,3.2,6,3.1,6.1C3,6.2,3,6.2,2.9,6.3C2.8,6.4,2.8,6.6,2.8,6.7c0,0.1,0,0.3,0.1,0.3
		C3,7.1,3,7.2,3.1,7.3c0.1,0.1,0.2,0.2,0.2,0.3v3c0,0.1-0.1,0.2-0.2,0.3C3,10.8,3,10.9,2.9,11c-0.1,0.1-0.1,0.2-0.1,0.3
		c0,0.1,0,0.3,0.1,0.3C3,11.8,3,11.9,3.1,11.9c0.1,0.1,0.2,0.2,0.2,0.3v1v0h5.5h5.6v-1c0-0.1,0.1-0.2,0.2-0.3
		c0.1-0.1,0.2-0.1,0.2-0.2c0.1-0.1,0.1-0.2,0.1-0.3c0-0.1,0-0.3-0.1-0.3C14.8,10.9,14.7,10.8,14.6,10.8L14.6,10.8z"/>
	<path class="st4" d="M48.8,11.4c0,0.1,0,0.1,0,0.2c0,0-0.1,0.1-0.2,0.2c-0.1,0.1-0.3,0.2-0.3,0.5v0.7H37.8v-0.7
		c0-0.2-0.2-0.4-0.3-0.5c-0.1,0-0.1-0.1-0.2-0.2c0-0.1-0.1-0.1-0.1-0.2c0-0.1,0-0.1,0.1-0.2c0-0.1,0.1-0.1,0.2-0.2
		c0.1-0.1,0.3-0.2,0.3-0.5v-3c0-0.3-0.2-0.4-0.3-0.5c-0.1,0-0.1-0.1-0.2-0.2c0-0.1-0.1-0.1-0.1-0.2c0-0.1,0-0.1,0.1-0.2
		c0-0.1,0.1-0.1,0.2-0.2c0.1-0.1,0.3-0.2,0.3-0.5V5.2c0,0,0,0,0,0c0.3,0,0.5,0,0.8,0v6.9h3.8c0.1,0.3,0.3,0.5,0.6,0.5
		c0.3,0,0.5-0.2,0.6-0.5h3.8V5.1c0.3,0,0.5,0,0.8,0h0v0.7c0,0.2,0.2,0.4,0.3,0.5c0.1,0,0.1,0.1,0.2,0.2c0,0.1,0,0.1,0,0.2
		c0,0.1,0,0.1,0,0.2c0,0.1-0.1,0.1-0.2,0.2c-0.1,0.1-0.3,0.2-0.3,0.5v3c0,0.3,0.2,0.4,0.3,0.5c0.1,0.1,0.1,0.1,0.2,0.2
		C48.8,11.2,48.8,11.3,48.8,11.4L48.8,11.4z M39.4,5c0.2-0.1,0.3-0.2,0.5-0.3c0.3-0.2,0.7-0.4,1.1-0.4c0.4,0,0.8,0.2,1.1,0.3
		c0.3,0.1,0.5,0.2,0.7,0.2v6c0,0,0,0,0,0c-0.3,0-0.7,0.2-1.2,0.3c-0.2,0.1-0.3,0.1-0.5,0.2c-0.5,0.1-0.9,0.1-1.4,0.1
		c-0.3,0-0.6,0-0.9,0V5.1C39.1,5,39.3,5,39.4,5L39.4,5z M43.9,4.6c0.4-0.1,0.8-0.3,1.2-0.3c0.5,0,0.8,0.2,1.1,0.4
		c0.2,0.1,0.3,0.2,0.5,0.3C46.8,5,47,5.1,47.2,5.1v6.4c-0.3,0-0.5,0-0.9,0c-0.5,0-0.9,0-1.4-0.1c-0.2,0-0.3-0.1-0.5-0.1
		c-0.5-0.2-0.9-0.3-1.2-0.3c0,0,0,0,0,0V4.8C43.4,4.8,43.7,4.7,43.9,4.6L43.9,4.6z M48.8,10.8c-0.1-0.1-0.2-0.2-0.2-0.3v-3
		c0-0.1,0.1-0.2,0.2-0.3C48.9,7.2,49,7.1,49,7c0.1-0.1,0.1-0.2,0.1-0.3c0-0.1,0-0.3-0.1-0.3c-0.1-0.1-0.1-0.2-0.2-0.2
		C48.7,6,48.6,6,48.6,5.9V4.8h-0.2c-0.6,0-1.2,0-1.6-0.2c-0.2-0.1-0.3-0.2-0.4-0.3c-0.3-0.2-0.7-0.5-1.3-0.5c-0.5,0-0.9,0.2-1.3,0.3
		c-0.3,0.1-0.5,0.2-0.7,0.2H43c-0.2,0-0.4-0.1-0.7-0.2c-0.4-0.2-0.8-0.3-1.3-0.3c-0.6,0-1,0.2-1.3,0.5c-0.2,0.1-0.3,0.2-0.4,0.3
		c-0.4,0.2-1,0.2-1.6,0.2h-0.2v1.1c0,0.1-0.1,0.2-0.2,0.2c-0.1,0.1-0.2,0.1-0.2,0.2C37,6.4,37,6.6,37,6.7c0,0.1,0,0.2,0.1,0.3
		c0.1,0.1,0.2,0.2,0.2,0.2c0.1,0.1,0.2,0.2,0.2,0.3v3c0,0.1-0.1,0.2-0.2,0.3c-0.1,0.1-0.2,0.1-0.2,0.2C37,11.1,37,11.2,37,11.4
		c0,0.1,0,0.3,0.1,0.3c0.1,0.1,0.2,0.2,0.2,0.2c0.1,0.1,0.2,0.2,0.2,0.3v1v0h5.5h5.5v-1c0-0.1,0.1-0.2,0.2-0.3
		c0.1-0.1,0.2-0.1,0.2-0.2c0.1-0.1,0.1-0.2,0.1-0.3c0-0.1,0-0.3-0.1-0.3C49,10.9,48.9,10.9,48.8,10.8z"/>
	<path class="st4" d="M47.5,38.1L26,17.4L4.5,38.1c-1.7-3.5-2.8-7.6-2.8-12.2c0-0.1,0-4.3,0-9.2h48.6c0,4.9,0,9.1,0,9.2
		C50.3,30.5,49.2,34.6,47.5,38.1z M40.6,40.3c-1.7,1.7-4.4,1.7-6.1,0c-1.7-1.7-1.7-4.4,0-6.1c1.7-1.7,4.4-1.7,6.1,0
		C42.3,35.9,42.3,38.6,40.6,40.3z M21.7,26.6c0-2.4,1.9-4.3,4.3-4.3c2.4,0,4.3,1.9,4.3,4.3c0,2.4-1.9,4.3-4.3,4.3
		C23.6,30.9,21.7,29,21.7,26.6z M39.4,49C33.6,54.3,27.6,57,26,57.4c-1.6-0.4-7.6-3.1-13.4-8.5c-0.1-0.1-0.3-0.3-0.4-0.4L26,33.9
		l13.8,14.7C39.7,48.7,39.5,48.8,39.4,49L39.4,49z M11.3,40.3c-1.7-1.7-1.7-4.4,0-6.1c1.7-1.7,4.4-1.7,6.1,0c1.7,1.7,1.7,4.4,0,6.1
		C15.7,42,13,42,11.3,40.3z M50.3,1.7c0,1.6,0,8.4,0,14.3H1.7c0-6,0-12.7,0-14.3H50.3z M51,1H1c0,0,0,24.6,0,24.9
		c0,10.9,6,18.8,11.1,23.6c5.6,5.2,11.8,8.2,13.8,8.7H26h0c2-0.4,8.2-3.5,13.8-8.7C44.9,44.7,51,36.8,51,25.9C51,25.6,51,1,51,1
		L51,1z"/>
</g>
</svg>
