<?xml version="1.0" encoding="UTF-8"?>
<svg id="Capa_2" data-name="Capa 2" xmlns="http://www.w3.org/2000/svg" viewBox="0 0 241.9 63.49">
  <defs>
    <style>
      .cls-1 {
        fill: #fff;
      }

      .cls-2 {
        fill: #a90533;
      }

      .cls-3 {
        fill: #004785;
      }
    </style>
  </defs>
  <g id="Layer_1" data-name="Layer 1">
    <g>
      <path class="cls-1" d="m67.82,51.41h.31v2.55h-.31c-.11-.45-.25-.73-.41-.84-.16-.11-.51-.17-1.06-.17h-2.6v3.76c0,.26.06.45.17.56.12.11.31.16.6.16h1.83c.66,0,1.11-.04,1.36-.11.25-.07.46-.2.64-.4.17-.19.36-.51.55-.94h.31l-.48,1.96h-7.56v-.3c.47,0,.79-.12.95-.36.16-.24.24-.67.24-1.29v-6.56c0-.64-.08-1.08-.25-1.32-.17-.24-.48-.36-.94-.36v-.3h7.56v1.75h-.2c-.11-.5-.26-.83-.46-1-.2-.16-.63-.25-1.3-.25h-3.02v4.49h2.93c.4,0,.67-.07.82-.22.15-.14.25-.41.32-.81Z"/>
      <path class="cls-1" d="m72.4,51.27v1.3c.76-.86,1.54-1.3,2.34-1.3.63,0,1.15.21,1.57.64.42.43.62.99.62,1.69v2.93c0,.45.08.74.23.89.15.14.44.21.88.21v.3h-3.46v-.3c.43,0,.72-.06.88-.17.16-.11.24-.32.24-.64v-3.4c0-.45-.14-.81-.41-1.08-.27-.27-.62-.4-1.04-.4-.61,0-1.22.42-1.84,1.27v3.17c0,.54.07.88.21,1.03.14.15.43.22.87.22v.3h-3.42v-.3c.49,0,.8-.08.91-.24.11-.16.17-.49.17-1.01v-3.66c0-.39-.07-.64-.2-.77-.14-.12-.43-.18-.88-.18v-.3l2.02-.2h.31Z"/>
      <path class="cls-1" d="m83.61,51.34h2.08v.73h-1.72c.49.59.73,1.22.73,1.89s-.24,1.24-.71,1.74c-.47.51-1.04.78-1.7.81-.47.02-.94.18-1.41.45-.47.28-.7.53-.7.75,0,.24.12.42.37.54.25.12.83.26,1.74.42,1.01.18,1.72.35,2.12.5.4.15.7.36.93.64.22.28.33.59.33.94,0,.76-.39,1.41-1.16,1.94-.77.53-1.72.79-2.83.79-.95,0-1.72-.18-2.3-.55-.59-.37-.88-.85-.88-1.44,0-.41.17-.78.5-1.1.34-.32.87-.63,1.6-.93v-.04c-.44-.1-.79-.26-1.04-.47-.25-.21-.38-.45-.38-.72,0-.72.67-1.31,2-1.78v-.04c-.65-.17-1.15-.47-1.51-.9-.35-.43-.53-.94-.53-1.55,0-.78.26-1.43.78-1.94.52-.51,1.18-.77,1.97-.77.16,0,.44.01.86.04.42.02.7.04.84.04Zm1.4,10c0-.42-.26-.75-.8-.99-.53-.24-1.54-.48-3.02-.74-1.26.34-1.89.85-1.89,1.54,0,.47.31.85.93,1.17.62.31,1.39.47,2.33.47.72,0,1.31-.13,1.76-.4.45-.27.68-.62.68-1.05Zm-4.68-7.5c0,.7.15,1.27.44,1.7.29.43.68.64,1.16.64s.89-.21,1.18-.63c.29-.42.43-.99.43-1.71,0-.66-.15-1.19-.44-1.6-.29-.41-.68-.62-1.15-.62s-.87.21-1.17.61c-.3.41-.45.94-.45,1.61Z"/>
      <path class="cls-1" d="m89.79,57.63h.17v.3h-3.62v-.3h.33c.33,0,.56-.09.68-.26.12-.17.18-.49.18-.97v-8.56c0-.33-.07-.57-.2-.69-.13-.13-.36-.19-.68-.19h-.42v-.31l2.24-.22h.3v10.28c0,.35.07.59.22.72.14.13.41.19.8.19Z"/>
      <path class="cls-1" d="m92.74,51.27h.31v5.46c0,.36.08.6.23.72.16.12.44.18.85.18v.3h-3.55v-.3c.52,0,.85-.06,1-.18s.22-.36.22-.72v-3.99c0-.39-.07-.65-.21-.78-.14-.12-.48-.19-1.02-.19v-.3l2.16-.2Zm-.29-3.35c.22,0,.41.08.56.23.15.15.23.34.23.56s-.08.41-.23.57c-.16.16-.34.24-.55.24s-.41-.08-.57-.24c-.16-.16-.24-.35-.24-.57s.08-.41.24-.56c.16-.15.35-.23.58-.23Z"/>
      <path class="cls-1" d="m99.32,51.27v2h-.37c-.06-.5-.24-.9-.54-1.19s-.66-.44-1.08-.44c-.32,0-.58.08-.78.24-.2.16-.3.38-.3.64s.09.49.27.69c.18.2.58.44,1.18.72.79.36,1.31.7,1.56,1.03.25.33.38.72.38,1.18,0,.54-.2,1.01-.61,1.41-.41.4-.89.59-1.44.59-.29,0-.66-.1-1.14-.31-.26-.11-.43-.17-.51-.17-.11,0-.21.04-.29.12-.08.08-.12.19-.13.31h-.31v-2.21h.31c.11.58.36,1.04.75,1.38.39.34.83.51,1.33.51.32,0,.59-.11.81-.32.22-.22.33-.48.33-.8s-.1-.57-.3-.79c-.2-.22-.63-.48-1.3-.78-.75-.33-1.25-.64-1.48-.92-.24-.29-.36-.63-.36-1.04,0-.51.19-.94.59-1.31.39-.37.85-.55,1.39-.55.25,0,.52.06.81.18.21.08.38.13.51.13.17,0,.3-.1.39-.3h.31Z"/>
      <path class="cls-1" d="m105.88,56.58v-3.21c0-.43-.12-.77-.36-1.03-.24-.26-.55-.38-.95-.38-.36,0-.69.09-.98.28-.29.19-.59.51-.91.95v3.56c0,.33.08.57.23.69.15.13.44.19.85.19v.3h-3.48v-.3c.49-.01.81-.09.95-.24.14-.15.2-.48.2-1v-8.45c0-.39-.07-.66-.21-.78-.14-.13-.46-.19-.94-.19v-.31l2.09-.22h.3v6.14c.42-.48.79-.81,1.13-1.01.34-.19.72-.29,1.14-.29.63,0,1.15.2,1.56.61.41.41.61.95.61,1.64v2.87c0,.51.07.84.21,1,.14.16.42.24.84.24v.3h-3.37v-.3c.44,0,.73-.07.87-.21s.21-.42.21-.84Z"/>
      <path class="cls-1" d="m121.12,55.64h.31l-.64,2.29h-7.6v-.3c.43,0,.74-.13.92-.4.18-.27.27-.72.27-1.35v-6.61c0-.57-.09-.96-.26-1.19-.17-.22-.48-.34-.94-.34v-.3h3.76v.3c-.42,0-.72.13-.9.38-.18.26-.27.68-.27,1.27v7.01c0,.39.08.65.25.8.16.14.48.21.94.21h2.08c.64,0,1.09-.11,1.35-.33.26-.22.5-.7.73-1.45Z"/>
      <path class="cls-1" d="m123.95,58.14c-.51,0-.94-.17-1.3-.5-.36-.34-.55-.74-.55-1.22,0-.45.16-.83.47-1.12.31-.3.95-.58,1.91-.84.6-.17,1.01-.31,1.22-.43v-.48c0-.47-.13-.85-.39-1.14-.26-.29-.61-.43-1.06-.43-.4,0-.75.12-1.06.37-.31.25-.53.59-.65,1.02l-.33-.09c.13-.6.42-1.09.85-1.45.44-.36.95-.55,1.54-.55.7,0,1.26.21,1.7.63.43.42.65,1,.65,1.75v2.78c0,.39.02.66.08.8.05.14.15.21.29.21.1,0,.17-.04.23-.12.06-.08.13-.25.21-.51h.31c-.03.4-.16.73-.38.97-.22.24-.52.36-.88.36-.53,0-.9-.31-1.1-.92-.32.35-.61.59-.86.72-.25.13-.55.2-.89.2Zm1.74-1.52v-2.2c-.18.08-.45.18-.81.29-.65.22-1.07.44-1.25.66-.18.22-.27.51-.27.88,0,.32.1.6.29.84.19.24.42.35.69.35.24,0,.5-.08.77-.24.27-.16.46-.35.57-.59Z"/>
      <path class="cls-1" d="m130.76,51.27v1.3c.76-.86,1.54-1.3,2.34-1.3.62,0,1.15.21,1.57.64.42.43.63.99.63,1.69v2.93c0,.45.07.74.22.89.15.14.44.21.88.21v.3h-3.46v-.3c.43,0,.72-.06.88-.17.16-.11.24-.32.24-.64v-3.4c0-.45-.14-.81-.41-1.08-.27-.27-.62-.4-1.04-.4-.61,0-1.22.42-1.84,1.27v3.17c0,.54.07.88.21,1.03.14.15.43.22.87.22v.3h-3.42v-.3c.5,0,.8-.08.91-.24.11-.16.17-.49.17-1.01v-3.66c0-.39-.07-.64-.21-.77-.14-.12-.43-.18-.88-.18v-.3l2.02-.2h.31Z"/>
      <path class="cls-1" d="m141.97,51.34h2.09v.73h-1.72c.49.59.74,1.22.74,1.89s-.24,1.24-.71,1.74c-.48.51-1.04.78-1.71.81-.47.02-.94.18-1.41.45-.47.28-.7.53-.7.75,0,.24.12.42.37.54.25.12.83.26,1.74.42,1.01.18,1.72.35,2.12.5.4.15.7.36.93.64.23.28.33.59.33.94,0,.76-.38,1.41-1.16,1.94-.77.53-1.72.79-2.83.79-.95,0-1.72-.18-2.3-.55-.59-.37-.88-.85-.88-1.44,0-.41.17-.78.5-1.1.34-.32.87-.63,1.6-.93v-.04c-.44-.1-.79-.26-1.04-.47-.25-.21-.37-.45-.37-.72,0-.72.67-1.31,2-1.78v-.04c-.65-.17-1.15-.47-1.51-.9-.35-.43-.53-.94-.53-1.55,0-.78.26-1.43.78-1.94.52-.51,1.18-.77,1.97-.77.16,0,.44.01.86.04.42.02.7.04.84.04Zm1.4,10c0-.42-.26-.75-.8-.99-.53-.24-1.54-.48-3.01-.74-1.26.34-1.89.85-1.89,1.54,0,.47.31.85.93,1.17.62.31,1.4.47,2.33.47.72,0,1.31-.13,1.76-.4.45-.27.68-.62.68-1.05Zm-4.68-7.5c0,.7.15,1.27.44,1.7.29.43.68.64,1.16.64s.89-.21,1.18-.63c.29-.42.43-.99.43-1.71,0-.66-.15-1.19-.44-1.6-.29-.41-.68-.62-1.15-.62s-.87.21-1.17.61c-.3.41-.45.94-.45,1.61Z"/>
      <path class="cls-1" d="m151.02,51.27h.3v5.45c0,.36.08.6.23.73.15.13.45.19.89.19v.3l-2.36.12v-1.19h-.04c-.65.85-1.41,1.27-2.27,1.27-.62,0-1.13-.21-1.53-.62-.4-.42-.59-.94-.59-1.56v-3.32c0-.33-.08-.56-.25-.68-.17-.12-.47-.18-.9-.18v-.3l2.09-.2h.31v4.63c0,.45.13.81.4,1.07.27.26.62.39,1.07.39.62,0,1.19-.35,1.72-1.06v-3.5c0-.45-.07-.73-.21-.84-.14-.11-.49-.18-1.06-.19v-.3l2.2-.2Z"/>
      <path class="cls-1" d="m155.07,58.14c-.51,0-.94-.17-1.31-.5-.36-.34-.55-.74-.55-1.22,0-.45.16-.83.47-1.12.31-.3.95-.58,1.91-.84.6-.17,1.01-.31,1.22-.43v-.48c0-.47-.13-.85-.39-1.14-.26-.29-.61-.43-1.06-.43-.4,0-.75.12-1.07.37-.31.25-.53.59-.65,1.02l-.33-.09c.13-.6.42-1.09.85-1.45.44-.36.95-.55,1.54-.55.7,0,1.26.21,1.7.63.43.42.65,1,.65,1.75v2.78c0,.39.03.66.08.8.05.14.15.21.29.21.1,0,.17-.04.23-.12.06-.08.13-.25.21-.51h.31c-.03.4-.16.73-.38.97-.22.24-.52.36-.88.36-.53,0-.9-.31-1.1-.92-.32.35-.61.59-.86.72-.25.13-.55.2-.89.2Zm1.75-1.52v-2.2c-.19.08-.45.18-.81.29-.65.22-1.06.44-1.25.66s-.27.51-.27.88c0,.32.1.6.29.84.2.24.43.35.69.35.24,0,.5-.08.77-.24.27-.16.46-.35.57-.59Z"/>
      <path class="cls-1" d="m164.69,51.34h2.08v.73h-1.72c.49.59.73,1.22.73,1.89s-.24,1.24-.71,1.74c-.47.51-1.04.78-1.7.81-.47.02-.94.18-1.41.45-.47.28-.7.53-.7.75,0,.24.12.42.37.54.25.12.83.26,1.74.42,1.01.18,1.72.35,2.11.5.4.15.71.36.93.64.22.28.34.59.34.94,0,.76-.39,1.41-1.16,1.94-.77.53-1.71.79-2.83.79-.95,0-1.72-.18-2.3-.55-.59-.37-.88-.85-.88-1.44,0-.41.17-.78.51-1.1.34-.32.87-.63,1.59-.93v-.04c-.44-.1-.79-.26-1.04-.47-.25-.21-.38-.45-.38-.72,0-.72.67-1.31,2-1.78v-.04c-.65-.17-1.15-.47-1.51-.9-.36-.43-.53-.94-.53-1.55,0-.78.26-1.43.78-1.94.52-.51,1.18-.77,1.97-.77.16,0,.44.01.86.04.42.02.7.04.84.04Zm1.39,10c0-.42-.26-.75-.8-.99-.53-.24-1.53-.48-3.01-.74-1.26.34-1.89.85-1.89,1.54,0,.47.31.85.93,1.17.62.31,1.4.47,2.33.47.72,0,1.31-.13,1.76-.4.45-.27.68-.62.68-1.05Zm-4.68-7.5c0,.7.15,1.27.44,1.7.29.43.68.64,1.16.64s.89-.21,1.17-.63c.29-.42.43-.99.43-1.71,0-.66-.15-1.19-.44-1.6-.29-.41-.68-.62-1.15-.62s-.87.21-1.17.61c-.3.41-.45.94-.45,1.61Z"/>
      <path class="cls-1" d="m173.83,56.27v.47c-.39.5-.79.86-1.2,1.07-.41.21-.9.32-1.47.32-1.01,0-1.85-.32-2.51-.95-.66-.63-.99-1.44-.99-2.42s.31-1.81.94-2.49c.63-.67,1.4-1.01,2.31-1.01.75,0,1.41.25,1.97.76.56.51.84,1.11.84,1.82v.13h-4.77v.09c0,.72.11,1.34.33,1.87.22.53.54.94.95,1.24.42.3.85.45,1.31.45.42,0,.79-.09,1.09-.26.3-.18.7-.54,1.2-1.09Zm-4.87-2.6h3.53v-.12c0-.58-.16-1.04-.5-1.38-.33-.34-.74-.51-1.24-.51-.52,0-.95.18-1.26.54-.32.36-.5.85-.53,1.48Z"/>
      <path class="cls-1" d="m179.25,47.44h3.83c1.25,0,2.25.28,2.97.83.73.55,1.1,1.27,1.1,2.15s-.32,1.54-.96,2.01c-.64.47-1.56.7-2.75.7-.46,0-1-.04-1.61-.11v2.94c0,.63.08,1.07.25,1.31.17.24.48.36.93.36v.3h-3.78v-.3c.46,0,.77-.12.94-.38.17-.25.25-.67.25-1.25v-6.58c0-.63-.09-1.06-.25-1.31-.17-.25-.48-.37-.94-.37v-.3Zm3.88.4h-1.3v4.7c.35.12.78.18,1.3.18.79,0,1.41-.2,1.86-.61.46-.41.69-.96.69-1.66,0-.76-.23-1.38-.68-1.87-.45-.49-1.08-.74-1.87-.74Z"/>
      <path class="cls-1" d="m190.43,51.27v1.4c.6-.52,1.06-.88,1.39-1.09.33-.21.61-.31.83-.31.41,0,.81.17,1.19.51l-.49,1.15c-.69-.38-1.21-.57-1.54-.57-.37,0-.83.26-1.38.79v3.57c0,.36.08.6.22.73.15.13.43.19.86.19v.3h-3.43v-.3c.46,0,.75-.07.89-.22.14-.14.21-.49.21-1.03v-3.54c0-.45-.08-.74-.23-.87-.15-.13-.52-.2-1.11-.2v-.3l2.27-.2h.31Z"/>
      <path class="cls-1" d="m201.59,54.71c0,.98-.34,1.79-1.02,2.45-.68.65-1.52.98-2.53.98s-1.86-.33-2.54-.98c-.68-.65-1.01-1.47-1.01-2.45s.34-1.81,1.01-2.46c.67-.65,1.52-.98,2.54-.98s1.87.33,2.54.98c.67.65,1.01,1.48,1.01,2.46Zm-1.35,0c0-.93-.2-1.67-.59-2.24-.39-.57-.93-.85-1.61-.85s-1.22.28-1.61.83c-.4.56-.59,1.31-.59,2.26s.19,1.68.58,2.23c.39.56.93.83,1.62.83s1.22-.28,1.61-.84c.39-.56.59-1.3.59-2.22Z"/>
      <path class="cls-1" d="m207.57,51.34h2.09v.73h-1.72c.49.59.73,1.22.73,1.89s-.24,1.24-.71,1.74c-.48.51-1.04.78-1.7.81-.47.02-.94.18-1.41.45-.47.28-.7.53-.7.75,0,.24.12.42.37.54.25.12.83.26,1.74.42,1.01.18,1.72.35,2.11.5.4.15.71.36.93.64.22.28.34.59.34.94,0,.76-.39,1.41-1.16,1.94-.77.53-1.72.79-2.83.79-.95,0-1.72-.18-2.31-.55-.59-.37-.88-.85-.88-1.44,0-.41.17-.78.5-1.1.34-.32.87-.63,1.6-.93v-.04c-.44-.1-.79-.26-1.04-.47-.25-.21-.38-.45-.38-.72,0-.72.67-1.31,2-1.78v-.04c-.65-.17-1.15-.47-1.51-.9-.36-.43-.53-.94-.53-1.55,0-.78.26-1.43.78-1.94.52-.51,1.18-.77,1.97-.77.16,0,.44.01.86.04.42.02.7.04.84.04Zm1.4,10c0-.42-.26-.75-.8-.99-.53-.24-1.54-.48-3.01-.74-1.26.34-1.89.85-1.89,1.54,0,.47.31.85.93,1.17.62.31,1.4.47,2.33.47.72,0,1.31-.13,1.76-.4.46-.27.68-.62.68-1.05Zm-4.68-7.5c0,.7.15,1.27.44,1.7.29.43.68.64,1.16.64s.88-.21,1.17-.63c.29-.42.43-.99.43-1.71,0-.66-.15-1.19-.44-1.6-.3-.41-.68-.62-1.15-.62s-.87.21-1.17.61c-.3.41-.45.94-.45,1.61Z"/>
      <path class="cls-1" d="m212.95,51.27v1.4c.6-.52,1.06-.88,1.39-1.09.33-.21.61-.31.83-.31.41,0,.81.17,1.19.51l-.49,1.15c-.69-.38-1.2-.57-1.54-.57-.37,0-.83.26-1.38.79v3.57c0,.36.07.6.22.73.15.13.44.19.86.19v.3h-3.43v-.3c.45,0,.75-.07.89-.22.14-.14.21-.49.21-1.03v-3.54c0-.45-.08-.74-.23-.87-.15-.13-.52-.2-1.11-.2v-.3l2.27-.2h.31Z"/>
      <path class="cls-1" d="m218.95,58.14c-.51,0-.94-.17-1.31-.5-.36-.34-.54-.74-.54-1.22,0-.45.16-.83.47-1.12.31-.3.95-.58,1.91-.84.6-.17,1.01-.31,1.21-.43v-.48c0-.47-.13-.85-.39-1.14-.26-.29-.61-.43-1.06-.43-.4,0-.75.12-1.06.37-.31.25-.53.59-.65,1.02l-.33-.09c.13-.6.42-1.09.85-1.45.44-.36.95-.55,1.54-.55.7,0,1.26.21,1.69.63.43.42.65,1,.65,1.75v2.78c0,.39.02.66.07.8.05.14.15.21.29.21.1,0,.17-.04.23-.12.06-.08.13-.25.2-.51h.31c-.03.4-.16.73-.38.97-.23.24-.52.36-.88.36-.53,0-.9-.31-1.1-.92-.32.35-.61.59-.86.72-.25.13-.55.2-.88.2Zm1.74-1.52v-2.2c-.18.08-.45.18-.8.29-.65.22-1.07.44-1.25.66-.18.22-.27.51-.27.88,0,.32.09.6.29.84.19.24.43.35.69.35.25,0,.5-.08.77-.24.27-.16.46-.35.57-.59Z"/>
      <path class="cls-1" d="m225.93,51.27v1.35h.04c.27-.41.61-.74,1.03-.99.42-.24.85-.37,1.28-.37.47,0,.89.13,1.25.39.37.26.63.62.79,1.07.69-.97,1.49-1.46,2.4-1.46.63,0,1.16.2,1.57.59.42.39.63.92.63,1.6v3.26c0,.35.08.59.23.71.16.12.44.18.85.18v.32h-3.43v-.32c.47,0,.77-.08.9-.23.13-.15.2-.49.2-1.01v-3.07c0-.42-.12-.74-.37-.98-.25-.24-.59-.36-1.03-.36-.68,0-1.29.42-1.83,1.25v3.47c0,.36.08.61.23.74.15.13.44.19.85.19v.32h-3.41v-.32c.49,0,.79-.08.91-.23.12-.15.18-.49.18-1.01v-3c0-.43-.13-.77-.38-1.03-.26-.26-.59-.38-.99-.38-.35,0-.7.11-1.03.34-.34.23-.62.53-.83.91v3.52c0,.33.08.57.24.7.16.13.45.2.86.2v.3h-3.44v-.32c.48,0,.78-.07.91-.22.13-.15.19-.42.19-.82v-3.85c0-.33-.07-.57-.21-.72-.14-.15-.37-.22-.69-.22h-.4v-.3l2.24-.2h.31Z"/>
      <path class="cls-1" d="m241.22,51.27v2h-.37c-.06-.5-.24-.9-.54-1.19-.3-.3-.66-.44-1.08-.44-.32,0-.58.08-.78.24-.2.16-.29.38-.29.64s.09.49.27.69c.18.2.58.44,1.19.72.79.36,1.3.7,1.56,1.03.25.33.38.72.38,1.18,0,.54-.2,1.01-.61,1.41-.4.4-.89.59-1.44.59-.29,0-.66-.1-1.14-.31-.26-.11-.43-.17-.51-.17-.11,0-.21.04-.29.12-.08.08-.12.19-.13.31h-.31v-2.21h.31c.11.58.36,1.04.75,1.38.39.34.83.51,1.33.51.32,0,.59-.11.81-.32.22-.22.33-.48.33-.8s-.1-.57-.3-.79c-.2-.22-.63-.48-1.3-.78-.75-.33-1.25-.64-1.48-.92-.24-.29-.36-.63-.36-1.04,0-.51.19-.94.58-1.31.39-.37.86-.55,1.39-.55.25,0,.52.06.82.18.21.08.38.13.51.13.17,0,.3-.1.38-.3h.31Z"/>
    </g>
    <g>
      <path class="cls-1" d="m70.17,31.59c0,4.66,1.12,5.98,4.27,5.98v1.12h-13.54v-1.12c2.63,0,4.27-.85,4.27-5.85V8.13c0-4.6-1.12-5.98-4.27-5.98v-1.12h13.73c10.38,0,14.59,5.52,14.59,10.71,0,6.24-4.73,9.73-13.27,9.73-1.64,0-3.02-.07-5.78-.39v10.51Zm0-12.22c1.71.59,2.7.66,4.67.66,5.58,0,9.13-3.02,9.13-8.15,0-4.01-2.23-9.4-9.13-9.4h-4.67v16.89Z"/>
      <path class="cls-1" d="m89.22,24.5c-.13,10.45,6.11,13.07,9.26,13.07s4.86-1.11,8.21-4.86v1.71c-2.82,3.61-5.52,4.99-9.59,4.99-7.29,0-12.55-5.06-12.55-12.09s5.12-12.55,11.7-12.55c5.39,0,10.38,4.34,10.05,9.73h-17.08Zm12.68-1.12c.2-5.12-3.28-7.23-6.24-7.23-3.88,0-6.18,2.89-6.44,7.23h12.68Z"/>
      <path class="cls-1" d="m130.88,33.63c0,3.02.66,3.94,3.95,3.94v1.12h-12.42v-1.12c3.15,0,4.01-.72,4.01-2.89v-12.15c0-3.75-2.7-5.32-5.19-5.32-2.3,0-4.34,1.45-6.64,4.54v11.37c0,3.55.46,4.46,3.94,4.46v1.12h-12.29v-1.12c3.09,0,3.88-.26,3.88-4.46v-13.08c0-2.83-.72-3.42-3.88-3.42v-1.12l7.23-.72h1.12v4.67c2.76-3.16,5.46-4.67,8.41-4.67,3.88,0,7.88,2.76,7.88,8.34v10.51Z"/>
      <path class="cls-1" d="m157.69,33.63c0,3.02.66,3.94,3.95,3.94v1.12h-12.42v-1.12c3.15,0,4.01-.72,4.01-2.89v-12.15c0-3.75-2.69-5.32-5.19-5.32-2.3,0-4.33,1.45-6.63,4.54v11.37c0,3.55.46,4.46,3.94,4.46v1.12h-12.29v-1.12c3.09,0,3.88-.26,3.88-4.46v-13.08c0-2.83-.73-3.42-3.88-3.42v-1.12l7.23-.72h1.12v4.67c2.76-3.16,5.45-4.67,8.41-4.67,3.87,0,7.88,2.76,7.88,8.34v10.51Z"/>
    </g>
    <g>
      <path class="cls-1" d="m177.38,33.67c0,4.16.52,4.16,3.12,4.16h3.83c1.82,0,4.23-.19,5.72-3.7h1.17l-1.17,4.81h-21.18v-1.11c2.99-.26,4.09-.58,4.09-4.29v-14.1c0-3.57-1.11-3.96-4.09-4.22v-1.11h20.79l.39,4.68h-1.17c-.71-3.57-3.38-3.57-5.59-3.57h-5.92v10.65h4.42c3.77,0,3.96-2.01,4.09-3.38h1.11v8.25h-1.11c-.13-1.43-.2-3.38-4.09-3.38h-4.42v6.3Z"/>
      <path class="cls-1" d="m203.38,34.97c0,2.08.71,2.53,3.05,2.53h4.54c3.12,0,3.44-.72,5.4-5.46h1.17l-2.02,6.89h-20.66v-1.11c2.66-.26,4.09-.52,4.09-4.29v-14.1c0-3.7-1.43-3.96-4.09-4.22v-1.11h12.6v1.11c-3.12.26-4.09.91-4.09,4.22v15.53Z"/>
      <path class="cls-1" d="m227.42,33.54c0,3.7,1.3,4.03,4.09,4.29v1.11h-12.6v-1.11c2.99-.26,4.03-.58,4.03-4.29v-14.1c0-3.7-1.43-3.96-4.03-4.22v-1.11h12.08c3.31,0,5.52.45,6.69.91,1.04.39,4.22,2.21,4.22,5.98,0,6.76-8.51,6.95-9.81,6.95-.46,0-2.41,0-4.68-.58v6.17Zm0-7.41c.78.2,1.95.45,3.31.45,3.64,0,6.36-1.88,6.36-5.46s-2.34-5.91-6.1-5.91h-3.57v10.91Z"/>
    </g>
    <g>
      <path class="cls-1" d="m51.95,0H0s0,25.76,0,25.89c-.03,11.27,6.21,19.44,11.46,24.3,5.77,5.35,12.13,8.43,14.26,8.9l.26.06.26-.06c2.12-.46,8.48-3.55,14.25-8.9,5.25-4.86,11.49-13.03,11.46-24.3,0-.32,0-25.89,0-25.89h0Z"/>
      <path class="cls-2" d="m48.75,10.84h0c.08.06.15.12.21.2.06.09.09.19.09.3,0,.11-.03.21-.09.3-.06.08-.13.14-.21.2-.12.09-.23.18-.23.33v.92h-5.45s-5.45,0-5.45,0v-.92c0-.15-.11-.24-.23-.33-.08-.06-.15-.12-.21-.2-.06-.09-.09-.19-.09-.3,0-.11.03-.21.09-.3.06-.08.13-.14.21-.2.12-.09.23-.18.23-.33v-3.01c0-.15-.11-.24-.23-.33-.08-.06-.15-.12-.21-.2-.06-.09-.09-.19-.09-.3,0-.11.03-.21.09-.3.06-.08.14-.15.21-.2.12-.09.23-.18.23-.33v-.95h.14c.64,0,1.2-.01,1.58-.18.16-.07.31-.16.46-.26.33-.21.71-.45,1.28-.45.45,0,.88.17,1.25.32.26.11.51.21.7.21h.07c.19,0,.43-.1.7-.21.37-.15.79-.32,1.25-.32.57,0,.94.24,1.28.45.16.1.3.19.46.26.39.17.95.18,1.58.18h.14v.95c0,.15.11.24.23.33.07.06.15.12.21.2.06.09.09.19.09.3,0,.11-.03.21-.09.3-.06.08-.13.14-.21.2-.12.09-.23.18-.23.33v3.01c0,.15.11.24.23.33h0Zm-13.36,1.57c-.84,1.35-2.47,1.68-2.53,1.69-.32.06-.65.09-.98.09h0c-1.7,0-3.27-.74-4.86-1.56-.18-.09-.38-.2-.59-.32-1.02-.56-2.43-1.33-3.63-1.33-.35,0-.68.07-.98.22l-.05.03v.06c-.01.16-.04.31-.09.44-.19.51-.82,1.06-1.12,1.27-.7.5-1.56,1.02-2.63,1.02-.16,0-.31-.02-.44-.07-.19-.07-.36-.18-.48-.34-.06-.08-.11-.16-.15-.25-.03-.07-.05-.15-.06-.24v-.06s-.07-.02-.07-.02c-.41-.12-.66-.4-.66-.73,0-.25.18-.47.36-.68.28-.33.52-.61.13-.98-.04-.03-.08-.07-.12-.1-.06-.04-.11-.08-.16-.13-.34-.37-.14-1.13-.02-1.58v-.05c.14-.5.35-1.01.63-1.58.38-.76.85-1.62,1.49-2.16.01-.01.03-.02.05-.01.02,0,.03.01.04.03.01.02.08.13.19.3l.11.18.07-.2c.18-.54.48-.89.88-1.04.44-.16.84.06,1.04.21l.09.06.06-.09c.13-.21.37-.47.77-.49.44-.02.8.28.97.46l.06.07.07-.06c.2-.16.71-.54,1.23-.47.49.07.67.49.73.67l.03.11.1-.05c.23-.11.68-.26,1.1,0,.27.17.3.46.28.68v.13s.11-.02.11-.02c.32-.05.9-.09,1.24.26.27.28.29.64.26.89l-.02.12h.12c.28-.05.65-.02.85.29.14.21.08.51.04.67l-.03.1.1.02c.16.04.45.14.53.37.06.17.04.46-.06.79l-.03.08.08.03c.14.06.4.19.53.47.14.27.13.6-.02.99l-.02.06.05.04c.36.32.73.62,1.08.88.73.53,1.86.81,2.62.18.29-.24.42-.67.32-1.08-.09-.36-.33-.61-.66-.69-.58-.13-1.04.42-1.41.98-.01.02-.03.03-.05.03-.02,0-.04-.02-.05-.04-.34-.82-.36-1.5-.05-2.03.26-.44.77-.76,1.39-.85h.08s0-.1,0-.1c-.01-.97.22-1.68.69-2.11.29-.26.81-.54,1.69-.42.02,0,.03.01.04.03,0,.02.01.04,0,.05-.65,1.56-.49,2.14-.14,3.43.03.11.06.23.1.35h0c.33,1.21.23,2.25-.3,3.09h0Zm-20.84-1.57h0c.08.06.15.12.21.2.06.09.09.19.09.3,0,.11-.03.21-.09.3-.06.08-.13.14-.21.2-.12.09-.23.18-.23.33v.92h-5.45s-5.45,0-5.45,0v-.92c0-.15-.11-.24-.23-.33-.08-.06-.15-.12-.21-.2-.06-.09-.09-.19-.09-.3,0-.11.03-.21.09-.3.06-.08.13-.14.21-.2.12-.09.23-.18.23-.33v-3.01c0-.15-.11-.24-.23-.33-.08-.06-.15-.12-.21-.2-.06-.09-.09-.19-.09-.3,0-.11.03-.21.09-.3.06-.08.14-.15.21-.2.12-.09.23-.18.23-.33v-.95h.14c.64,0,1.2-.01,1.58-.18.16-.07.31-.16.46-.26.33-.21.71-.45,1.28-.45.45,0,.88.17,1.25.32.26.11.51.21.7.21h.07c.19,0,.44-.1.7-.21.37-.15.79-.32,1.25-.32.57,0,.94.24,1.28.45.16.1.3.19.46.26.39.17.95.18,1.58.18h.14v.95c0,.15.11.24.23.33.07.06.15.12.21.2.06.09.09.19.09.3,0,.11-.03.21-.09.3-.06.08-.13.14-.21.2-.12.09-.23.18-.23.33v3.01c0,.15.11.24.23.33h0ZM1.31,1.37s.07,15.05,0,14.98h49.33V1.37H1.31Z"/>
      <path class="cls-3" d="m18.31,10.19c.17,0,.34.04.5.18.05.04.1.09.15.13.11.11.11.29-.02.39-.12.1-.26.2-.35.26-.2.14-.55.39-.78.19-.12-.1.12-.26.01-.68-.08-.32.24-.47.49-.47h0Z"/>
      <path class="cls-3" d="m18.39,5.34c-.55.52-.96,1.29-1.3,1.97-.28.55-.47,1.05-.6,1.53v.05c-.11.36-.31,1.1-.04,1.38.04.04.08.07.13.11.05.03.09.07.14.11.54.51.16.95-.11,1.28-.16.19-.31.37-.31.54,0,.38.46.51.6.54.07.02.12.07.12.14,0,.11.02.19.06.28.03.08.07.14.12.2.09.12.22.21.38.26.11.04.23.06.37.06,1.01,0,1.83-.49,2.5-.98.4-.28.9-.79,1.04-1.17.04-.1.06-.21.07-.32l-.71-.12s-.01,0-.02,0c-.07-.02-.12-.08-.13-.15-.02-.14.1-.23.35-.4.07-.05.15-.1.22-.16.37-.27.67-.49.84-.61-.2-.22-.36-.47-.5-.68-.11-.16-.2-.3-.28-.39-.35-.38-.97-.6-1.47-.29-.2.13-.38.28-.57.45-.15.13-.31.27-.48.39-.07.05-.16.04-.21-.03-.05-.06-.05-.16.01-.21.02-.02.05-.05.08-.08.23-.21.76-.72.76-1.07,0-.83-.79-2.18-1.07-2.64h0Zm4.42,5.42c1.23,0,2.63.77,3.72,1.37.21.12.41.22.59.32,1.87.97,3.71,1.81,5.7,1.46.01,0,1.6-.33,2.39-1.59.49-.78.58-1.76.27-2.91-.03-.12-.07-.24-.1-.36-.33-1.2-.52-1.88.07-3.37-.68-.04-1.09.18-1.32.39-.44.4-.65,1.1-.62,2.08,0,.08-.06.15-.14.16-.61.06-1.12.35-1.37.77-.24.4-.25.93-.04,1.56.3-.41.81-.97,1.47-.82.41.09.71.41.82.85.12.49-.04,1.01-.39,1.3-.86.7-2.1.41-2.89-.17-.93-.68-1.85-1.54-2.82-2.63-.17-.19-.34-.39-.5-.57-.61-.71-1.24-1.44-2-2.02-1.18-.91-2.57-1.06-3.54-1.02-.66.02-1.97.21-2.85.74.27.56.51,1.21.51,1.71,0,.09-.02.18-.05.27.64-.38,1.41-.11,1.84.36.1.1.19.25.31.43.17.25.36.54.59.76.03.03.05.08.05.12,0,.05-.03.09-.07.12,0,0-.41.29-.98.71-.08.06-.16.11-.23.16-.01,0-.03.02-.04.03l.51.09c.35-.19.73-.27,1.13-.27h0Zm9.07,3.53c-1.7,0-3.29-.74-4.9-1.57-.18-.09-.38-.2-.59-.32-1.3-.71-3.25-1.78-4.52-1.11,0,.17-.04.32-.09.47-.2.53-.84,1.1-1.16,1.32-.71.51-1.59,1.03-2.68,1.03-.17,0-.33-.02-.47-.07-.21-.07-.39-.2-.52-.37-.06-.08-.12-.18-.16-.28-.04-.09-.06-.17-.07-.26-.45-.14-.73-.44-.73-.82,0-.28.2-.52.38-.74.31-.36.44-.55.13-.85-.03-.03-.07-.06-.11-.09-.06-.04-.12-.09-.17-.15-.38-.41-.17-1.2-.04-1.68v-.05c.15-.51.35-1.03.64-1.59.39-.77.86-1.64,1.52-2.19.03-.03.08-.04.12-.03.04,0,.08.03.11.07.02.04.29.44.56.98,1.15-.69,2.79-.77,2.98-.78,1.01-.04,2.49.12,3.74,1.09.78.6,1.42,1.35,2.04,2.07.16.19.33.38.5.57.96,1.08,1.86,1.92,2.77,2.58.7.51,1.78.78,2.51.18.26-.22.38-.61.29-.99-.08-.33-.29-.55-.58-.61-.52-.12-.96.41-1.31.94-.03.05-.09.07-.15.07-.06,0-.11-.04-.13-.1-.36-.85-.37-1.56-.04-2.12.28-.47.82-.8,1.46-.9-.01-1,.23-1.74.73-2.18.3-.27.85-.57,1.77-.45.05,0,.09.03.11.08.02.04.03.09,0,.14-.64,1.53-.48,2.1-.13,3.36.03.11.06.23.1.36.33,1.24.23,2.31-.31,3.16-.86,1.38-2.53,1.72-2.6,1.73-.34.06-.67.09-1,.09h0Z"/>
      <path class="cls-3" d="m17.33,13.21c-.15,0-.3,0-.45-.03-.09-.01-.15-.09-.14-.17.01-.09.09-.15.17-.14.71.08,1.76-.01,2.66-.95.06-.06.16-.06.22,0,.06.06.06.16,0,.22-.68.7-1.53,1.07-2.47,1.07h0Z"/>
      <path class="cls-3" d="m29.9,10.85s-.04,0-.06-.01c-.07-.03-.11-.12-.08-.19.16-.38.19-.69.07-.93-.16-.32-.54-.41-.54-.41-.04,0-.08-.04-.1-.07-.02-.04-.02-.08,0-.12.05-.15.18-.58.1-.79-.07-.18-.41-.26-.53-.27-.05,0-.09-.03-.11-.07-.02-.04-.03-.09,0-.13.05-.12.15-.46.03-.65-.23-.36-.84-.19-.85-.18-.05.02-.11,0-.15-.04-.04-.04-.05-.1-.03-.15,0,0,.18-.56-.17-.9-.4-.41-1.26-.17-1.27-.17-.05.01-.11,0-.15-.04-.04-.04-.05-.1-.03-.15,0-.02.15-.47-.16-.67-.49-.31-1.05.09-1.05.09-.04.03-.1.04-.14.02-.05-.02-.08-.07-.09-.12,0-.03-.08-.62-.61-.69-.57-.08-1.17.51-1.17.51-.03.03-.07.04-.11.04-.04,0-.08-.02-.11-.06,0,0-.4-.52-.91-.5-.49.02-.68.51-.68.52-.02.05-.06.08-.11.09-.05.01-.1,0-.13-.04,0,0-.48-.46-.98-.28-.62.23-.8.99-.85,1.24h0c-.02.09-.1.14-.18.12-.08-.02-.13-.1-.11-.18h0c.07-.3.27-1.17,1.04-1.45.48-.18.91.06,1.13.22.12-.2.39-.51.85-.53.48-.02.87.31,1.05.49.23-.19.76-.57,1.3-.49.48.06.72.44.81.74.26-.13.74-.28,1.19,0,.32.2.35.54.33.77.33-.06.95-.09,1.33.29.31.31.32.72.28.97.27-.03.71-.02.95.35.15.24.1.55.05.75.2.05.5.16.6.43.1.26,0,.64-.05.85.17.07.44.22.59.51.16.32.14.72-.06,1.18-.02.06-.08.09-.13.09h0Z"/>
      <path class="cls-3" d="m29.17,12.88s-.01,0-.02,0c-.08,0-.14-.08-.13-.16.07-.56-.26-.66-.55-.75-.08-.02-.14-.04-.2-.07-.16-.09-.16-.28-.17-.47,0-.21-.01-.45-.17-.62-.27-.3-.81-.11-.82-.11-.05.02-.1,0-.14-.02-.04-.03-.06-.08-.05-.14,0,0,.09-.6-.25-.89-.29-.25-.84-.19-1.02-.14-.05.01-.09,0-.13-.03-.04-.03-.05-.08-.05-.12.03-.37-.12-.68-.4-.86-.24-.15-.53-.18-.75-.05-.62.33-.86.35-1.5-.1-.2-.14-.4-.19-.6-.14-.25.06-.47.28-.64.62-.04.07-.12.1-.2.07-.07-.04-.1-.12-.07-.2.2-.41.5-.69.83-.77.28-.07.57,0,.84.18.54.38.67.37,1.19.08.32-.17.72-.15,1.05.07.32.21.51.55.54.95.27-.03.77-.05,1.1.24.32.27.37.69.37.94.25-.05.66-.06.93.24.23.26.24.58.25.81,0,.08,0,.2.03.23.03.01.08.03.13.05.28.09.85.26.76,1.07,0,.07-.07.13-.15.13h0Z"/>
      <path class="cls-3" d="m14.64,11.35c0,.06-.02.12-.05.18-.04.05-.1.1-.17.16-.14.11-.31.24-.31.49v.67H3.64v-.67c0-.25-.17-.39-.31-.49-.07-.05-.13-.1-.17-.16-.04-.05-.05-.11-.05-.18h0c0-.07.02-.13.05-.19.04-.06.1-.1.17-.16.14-.11.31-.24.31-.49v-3.01c0-.25-.17-.39-.31-.49-.07-.05-.13-.1-.17-.16-.04-.05-.05-.11-.05-.18h0c0-.07.02-.13.05-.19.04-.05.1-.1.17-.16.14-.11.31-.24.31-.49v-.7s.01,0,.02,0c.27,0,.54,0,.79-.02v6.92h3.81c.07.27.32.47.62.47s.54-.2.62-.47h3.81v-6.92c.25.02.51.02.79.02,0,0,.02,0,.02,0v.7c0,.25.17.39.31.49.07.05.13.1.17.16.04.05.05.11.05.18h0s0,0,0,0c0,.06-.02.12-.05.18-.04.05-.1.1-.17.16-.14.11-.31.24-.31.49v3.01c0,.25.17.39.31.49.07.05.13.1.17.16.04.05.05.11.05.18h0s0,0,0,0h0ZM5.25,4.94c.18-.08.34-.18.5-.28.33-.21.65-.41,1.14-.41.4,0,.8.16,1.15.3.25.1.46.19.67.21v6.05s-.02,0-.04,0c-.29.03-.71.16-1.18.31-.15.05-.31.1-.47.15-.46.14-.93.14-1.39.14-.3,0-.59,0-.85.04v-6.39c.16-.03.32-.07.46-.13h0Zm4.46-.38c.35-.14.75-.3,1.15-.3.49,0,.81.2,1.14.41.16.1.32.2.5.28.14.06.3.1.46.13v6.39c-.26-.04-.55-.04-.85-.04-.46,0-.93,0-1.39-.14-.16-.05-.31-.1-.47-.15-.47-.15-.89-.28-1.18-.31,0,0-.01,0-.02,0v-6.06c.19-.03.41-.12.64-.21h0Zm4.91,6.21c-.12-.09-.19-.15-.19-.25v-3.01c0-.1.07-.16.19-.25.08-.06.17-.13.23-.23.07-.1.11-.23.1-.35,0-.13-.03-.25-.1-.35-.06-.1-.15-.16-.23-.23-.12-.1-.19-.15-.19-.25v-1.05h-.24c-.56,0-1.16,0-1.55-.17-.15-.06-.29-.15-.45-.25-.35-.22-.74-.46-1.33-.46-.47,0-.9.17-1.29.33-.25.1-.5.2-.66.2h-.07c-.17,0-.41-.1-.66-.2-.38-.15-.81-.33-1.29-.33-.59,0-.99.25-1.33.46-.15.1-.3.19-.45.25-.39.17-.99.17-1.55.17h-.24v1.05c0,.1-.07.16-.19.25-.08.06-.17.13-.23.23-.07.1-.11.23-.1.35,0,.13.03.25.1.35.06.1.15.16.23.23.12.1.19.15.19.25v3.01c0,.1-.07.16-.19.25-.08.06-.17.13-.23.23-.07.1-.11.23-.1.35,0,.13.03.25.1.35.06.1.15.16.23.23.12.1.19.15.19.25v1.01h0s0,.01,0,.01h0s5.55,0,5.55,0h5.55s0,0,0,0h0,0v-1.02c0-.1.07-.16.19-.25.08-.06.17-.13.23-.23.07-.1.11-.23.1-.35,0-.13-.03-.25-.1-.35-.06-.1-.15-.16-.23-.23h0Z"/>
      <path class="cls-3" d="m48.84,11.35c0,.06-.02.12-.05.18-.04.05-.1.1-.17.16-.14.11-.31.24-.31.49v.67h-10.48v-.67c0-.25-.17-.39-.31-.49-.07-.05-.13-.1-.17-.16-.04-.05-.05-.11-.05-.18h0s0,0,0,0c0-.06.02-.12.05-.18.04-.06.1-.1.17-.16.14-.11.31-.24.31-.49v-3.01c0-.25-.17-.39-.31-.49-.07-.05-.13-.1-.17-.16-.04-.05-.05-.11-.05-.18h0s0,0,0,0c0-.06.02-.12.05-.18.04-.05.1-.1.17-.16.14-.11.31-.24.31-.49v-.7s.01,0,.02,0c.27,0,.54,0,.79-.02v6.92h3.81c.07.27.32.47.62.47s.54-.2.62-.47h3.81v-6.92c.25.02.51.02.79.02,0,0,.02,0,.02,0v.7c0,.25.17.39.31.49.07.05.13.1.17.16.04.05.05.11.05.18h0c0,.07-.02.13-.05.19-.04.05-.1.1-.17.16-.14.11-.31.24-.31.49v3.01c0,.25.17.39.31.49.07.05.13.1.17.16.04.05.05.11.05.18h0Zm-9.39-6.41c.18-.08.34-.18.5-.28.33-.21.65-.41,1.14-.41.4,0,.8.16,1.15.3.25.1.46.19.67.21v6.05s-.02,0-.04,0c-.29.03-.71.16-1.18.31-.15.05-.31.1-.47.15-.46.14-.93.14-1.39.14-.3,0-.59,0-.85.04v-6.39c.16-.03.32-.07.46-.13h0Zm4.46-.38c.35-.14.75-.3,1.15-.3.49,0,.81.2,1.14.41.16.1.32.2.5.28.14.06.3.1.46.13v6.39c-.26-.04-.55-.04-.85-.04-.46,0-.93,0-1.39-.14-.16-.05-.31-.1-.47-.15-.47-.15-.89-.28-1.18-.31,0,0-.01,0-.02,0v-6.06c.19-.03.41-.12.64-.21h0Zm4.91,6.21c-.12-.09-.19-.15-.19-.25v-3.01c0-.1.07-.16.19-.25.08-.06.17-.13.23-.23.07-.1.11-.23.1-.35,0-.13-.03-.25-.1-.35-.06-.1-.15-.16-.23-.23-.12-.1-.19-.15-.19-.25v-1.05h-.24c-.56,0-1.16,0-1.55-.17-.15-.06-.3-.15-.45-.25-.35-.22-.74-.46-1.33-.46-.47,0-.9.17-1.28.33-.26.1-.5.2-.66.2h-.07c-.17,0-.41-.1-.66-.2-.38-.15-.81-.33-1.29-.33-.59,0-.99.25-1.33.46-.15.1-.29.19-.45.25-.39.17-.99.17-1.55.17h-.24v1.05c0,.1-.07.16-.19.25-.08.06-.17.13-.23.23-.07.1-.11.23-.1.35,0,.13.03.25.1.35.06.1.15.16.23.23.12.1.19.15.19.25v3.01c0,.1-.07.16-.19.25-.08.06-.17.13-.23.23-.07.1-.11.23-.1.35,0,.13.03.25.1.35.06.1.15.16.23.23.12.1.19.15.19.25v1.01h0s0,.01,0,.01h0s5.55,0,5.55,0h5.55s0,0,0,0h0,0v-1.02c0-.1.07-.16.19-.25.08-.06.17-.13.23-.23.07-.1.11-.23.1-.35,0-.13-.03-.25-.1-.35-.06-.1-.15-.16-.23-.23h0Z"/>
      <path class="cls-3" d="m47.5,38.12l-21.53-20.76L4.45,38.12c-1.67-3.51-2.78-7.59-2.77-12.22,0-.14,0-4.33,0-9.21h48.59c0,4.88,0,9.07,0,9.21.01,4.62-1.1,8.7-2.77,12.22h0Zm-6.87,2.17c-1.67,1.67-4.38,1.67-6.05,0-1.67-1.67-1.67-4.38,0-6.05,1.67-1.67,4.38-1.67,6.05,0,1.67,1.67,1.67,4.38,0,6.05h0Zm-18.93-13.65c0-2.36,1.92-4.28,4.28-4.28s4.28,1.92,4.28,4.28-1.92,4.28-4.28,4.28-4.28-1.92-4.28-4.28h0Zm17.65,22.33c-5.78,5.36-11.77,8.06-13.37,8.46-1.6-.4-7.59-3.11-13.37-8.46-.14-.13-.28-.26-.42-.4l13.8-14.65,13.8,14.65c-.14.14-.28.27-.42.4h0Zm-28.03-8.68c-1.67-1.67-1.67-4.38,0-6.05,1.67-1.67,4.38-1.67,6.05,0,1.67,1.67,1.67,4.38,0,6.05-1.67,1.67-4.38,1.67-6.05,0h0ZM50.27,1.68c0,1.59,0,8.35,0,14.32H1.68c0-5.97,0-12.73,0-14.32h48.59Zm.69-.69H.99s0,24.58,0,24.91c-.03,10.92,6.04,18.84,11.14,23.57,5.56,5.16,11.83,8.23,13.79,8.66h.05s.05,0,.05,0c1.97-.43,8.23-3.5,13.79-8.66,5.1-4.73,11.18-12.66,11.14-23.57,0-.33,0-24.91,0-24.91h0Z"/>
    </g>
  </g>
</svg>
