<?xml version="1.0" encoding="UTF-8"?>
<svg xmlns="http://www.w3.org/2000/svg" id="_secondary_1_2_copy" data-name="•••&gt;&gt;secondary 1/2 copy" viewBox="0 0 965.4 243.86"><defs><style>.cls-1{fill:#f37321;}.cls-2{fill:#00502f;}.cls-3{fill:#fff;}</style></defs><path class="cls-1" d="M281.9,98.49v35.09c0,3.63.6,6.06,1.78,7.29s3.44,1.87,6.77,1.92v3.09H269.56l0-3.09c3.35,0,5.62-.67,6.82-1.88s1.79-3.65,1.79-7.33V100.74a3.67,3.67,0,0,0-.77-2.72,4.58,4.58,0,0,0-3-.72h-4.26V93.89h18l14,39.76,13.53-39.76h17.58V97.3H329.4a4.49,4.49,0,0,0-3,.7,3.75,3.75,0,0,0-.76,2.74V139a3.83,3.83,0,0,0,.76,2.76,4.42,4.42,0,0,0,3,.72h3.83v3.37H309.89v-3.37h4.32a4.63,4.63,0,0,0,3.06-.72,3.73,3.73,0,0,0,.78-2.76V98.49l-16.14,47.39H299.1Z"/><path class="cls-1" d="M338.26,145.88v-3.37h3.87a4.74,4.74,0,0,0,3.1-.74A3.69,3.69,0,0,0,346,139V100.74a3.62,3.62,0,0,0-.8-2.72,4.82,4.82,0,0,0-3.1-.72h-3.87V93.89h23.45V97.3h-3.86a4.72,4.72,0,0,0-3,.7,3.61,3.61,0,0,0-.8,2.74V139a3.68,3.68,0,0,0,.8,2.76,4.64,4.64,0,0,0,3,.72h3.86v3.37Z"/><path class="cls-1" d="M388.58,93h2.81l18.35,45.85a6.53,6.53,0,0,0,1.9,2.93,5.41,5.41,0,0,0,3.06.69c.14,0,.37,0,.7,0l.74,0v3.44H394.63v-3.44h2.74a9.8,9.8,0,0,0,3.55-.41,1.5,1.5,0,0,0,.84-1.49,4.55,4.55,0,0,0-.17-1.07,15,15,0,0,0-.5-1.46l-3.3-9H378.42l-2.22,5.59a16.75,16.75,0,0,0-.73,2.38,8.9,8.9,0,0,0-.29,1.95,3,3,0,0,0,1.34,2.65,7.07,7.07,0,0,0,3.94.9h1.79v3.44h-18.6v-3.44h.6a7,7,0,0,0,4.43-1.22c1-.8,2-2.42,3-4.83Zm7.91,32.24L388,104.4l-8.23,20.88Z"/><path class="cls-1" d="M428.63,98.49v35.09q0,5.44,1.77,7.29c1.19,1.23,3.44,1.87,6.77,1.92v3.09H416.29l0-3.09c3.35,0,5.63-.67,6.82-1.88s1.8-3.65,1.8-7.33V100.74a3.67,3.67,0,0,0-.78-2.72,4.56,4.56,0,0,0-3-.72h-4.26V93.89h18l14,39.76,13.54-39.76H480V97.3h-3.84a4.53,4.53,0,0,0-3,.7,3.76,3.76,0,0,0-.75,2.74V139a3.83,3.83,0,0,0,.75,2.76,4.45,4.45,0,0,0,3,.72H480v3.37H456.61v-3.37h4.33a4.62,4.62,0,0,0,3.05-.72,3.73,3.73,0,0,0,.78-2.76V98.49l-16.14,47.39h-2.81Z"/><path class="cls-1" d="M485,145.88v-3.37h3.86a4.74,4.74,0,0,0,3.1-.74,3.64,3.64,0,0,0,.81-2.74V100.74A3.58,3.58,0,0,0,492,98a4.82,4.82,0,0,0-3.1-.72H485V93.89h23.45V97.3h-3.87a4.74,4.74,0,0,0-3,.7,3.61,3.61,0,0,0-.79,2.74V139a3.68,3.68,0,0,0,.79,2.76,4.66,4.66,0,0,0,3,.72h3.87v3.37Z"/><path class="cls-1" d="M533.58,145.88v-3.37h3.73a4.45,4.45,0,0,0,3-.76,3.64,3.64,0,0,0,.81-2.72V100.74a3.57,3.57,0,0,0-.81-2.7,4.52,4.52,0,0,0-3-.74h-3.73V93.89h23V97.3h-3.83a4.43,4.43,0,0,0-3,.72,3.67,3.67,0,0,0-.78,2.72v16.07h24.33V100.74a3.57,3.57,0,0,0-.81-2.7,4.46,4.46,0,0,0-3-.74h-3.83V93.89h23V97.3h-3.8a4.52,4.52,0,0,0-3,.74,3.57,3.57,0,0,0-.81,2.7V139a3.64,3.64,0,0,0,.81,2.72,4.45,4.45,0,0,0,3,.76h3.8v3.37h-23v-3.37h3.83a4.39,4.39,0,0,0,3-.76,3.64,3.64,0,0,0,.81-2.72V120.46H549V139a3.74,3.74,0,0,0,.78,2.74,4.35,4.35,0,0,0,3,.74h3.83v3.37Z"/><path class="cls-1" d="M592.34,145.88v-3.37h3.72a4.63,4.63,0,0,0,3.06-.72,3.73,3.73,0,0,0,.77-2.76V100.74a3.67,3.67,0,0,0-.77-2.72,4.63,4.63,0,0,0-3.06-.72h-3.72V93.89h42.11l.92,18.38h-3.1a33.49,33.49,0,0,0-2-7.71,12.39,12.39,0,0,0-3-4.77,11,11,0,0,0-4.78-2,46.47,46.47,0,0,0-8.62-.61c-2.76,0-4.47.23-5.13.7s-1,1.43-1,2.88v16.49h1q5.6,0,8-2.2c1.6-1.46,2.56-4,2.89-7.75h3V130.2h-3q-.5-5.58-2.85-7.73t-8-2.15h-1V139c0,1.5.36,2.49,1.06,3s2.58.72,5.62.72a61.45,61.45,0,0,0,8.18-.44,16.79,16.79,0,0,0,5.08-1.42,9.28,9.28,0,0,0,4-4.66,44.5,44.5,0,0,0,2.83-10h2.75l-1.09,19.72Z"/><path class="cls-1" d="M641,145.88v-3.37h3.73a4.67,4.67,0,0,0,3.06-.72,3.78,3.78,0,0,0,.77-2.76V100.74a3.71,3.71,0,0,0-.77-2.72,4.67,4.67,0,0,0-3.06-.72H641V93.89h28.79q6.54,0,10.55,3.51a11.73,11.73,0,0,1,4,9.25,10.84,10.84,0,0,1-4,8.86q-4,3.22-12,4.08a12.11,12.11,0,0,1,6.77,2.81,12.23,12.23,0,0,1,3.39,6.5l1.94,8.12a10.86,10.86,0,0,0,1.33,3.62,2.27,2.27,0,0,0,1.9,1.13c1,0,1.68-.6,2.14-1.81a18.32,18.32,0,0,0,.81-5.71l2.75,0c0,.21,0,.5,0,.86s0,.63,0,.79c0,3.64-.76,6.43-2.27,8.39a7.65,7.65,0,0,1-6.45,2.93c-2.67,0-4.67-.76-6-2.28s-2.18-4.15-2.6-7.88l-.77-7.2c-.36-3.26-1.38-5.6-3.08-7s-4.4-2.12-8.1-2.12H656.4V139a3.83,3.83,0,0,0,.75,2.76,4.47,4.47,0,0,0,3,.72h4.46v3.37Zm15.4-45.56v16.91l3.51.14,1,0c.34,0,.84,0,1.5,0q7.27,0,10.54-2.42t3.27-7.88c0-3.56-.88-6.12-2.65-7.66s-4.71-2.32-8.81-2.32h-4.68a4.82,4.82,0,0,0-2.91.61A3.26,3.26,0,0,0,656.4,100.32Z"/><path class="cls-1" d="M691.17,145.88v-3.37h3.73a4.67,4.67,0,0,0,3.06-.72,3.78,3.78,0,0,0,.77-2.76V100.74A3.71,3.71,0,0,0,698,98a4.67,4.67,0,0,0-3.06-.72h-3.73V93.89h27.21q7.61,0,11.57,3.23t4,9.46a10.39,10.39,0,0,1-3,7.7q-3,3-9,4.32,7.42.95,11.09,4.26a11.57,11.57,0,0,1,3.68,9.07,12,12,0,0,1-5,10.3q-5,3.65-14.09,3.65Zm15.26-45.56v17.05h5.77q7.51,0,10.46-2.28c2-1.53,2.93-4.15,2.93-7.88s-.85-6.16-2.56-7.72-4.54-2.33-8.48-2.33H710a4.68,4.68,0,0,0-2.85.61A3.3,3.3,0,0,0,706.43,100.32Zm0,20.22V139.1a3.59,3.59,0,0,0,.79,2.74,5.16,5.16,0,0,0,3.15.67h5.13q6.54,0,9.42-2.55t2.89-8.25q0-6-3.45-8.57t-11.46-2.6Z"/><path class="cls-1" d="M738.85,145.88v-3.37h3.73a4.67,4.67,0,0,0,3.06-.72,3.78,3.78,0,0,0,.77-2.76V100.74a3.71,3.71,0,0,0-.77-2.72,4.67,4.67,0,0,0-3.06-.72h-3.73V93.89H781l.91,18.38h-3.09a33.49,33.49,0,0,0-2-7.71,12.29,12.29,0,0,0-3.06-4.77,10.89,10.89,0,0,0-4.78-2,46.35,46.35,0,0,0-8.61-.61c-2.77,0-4.48.23-5.13.7s-1,1.43-1,2.88v16.49h1q5.6,0,8-2.2c1.6-1.46,2.56-4,2.88-7.75h3V130.2h-3q-.48-5.58-2.84-7.73t-8-2.15h-1V139c0,1.5.35,2.49,1.06,3s2.57.72,5.62.72a61.45,61.45,0,0,0,8.18-.44,16.88,16.88,0,0,0,5.08-1.42,9.33,9.33,0,0,0,3.95-4.66,44.5,44.5,0,0,0,2.83-10h2.74l-1.09,19.72Z"/><path class="cls-1" d="M789,145.88v-3.37h3.72a4.63,4.63,0,0,0,3.06-.72,3.73,3.73,0,0,0,.78-2.76V100.74a3.67,3.67,0,0,0-.78-2.72,4.63,4.63,0,0,0-3.06-.72H789V93.89h28.79q6.54,0,10.55,3.51a11.73,11.73,0,0,1,4,9.25,10.82,10.82,0,0,1-4,8.86q-4,3.22-12,4.08a12.11,12.11,0,0,1,6.77,2.81,12.37,12.37,0,0,1,3.39,6.5l1.93,8.12a10.83,10.83,0,0,0,1.34,3.62,2.27,2.27,0,0,0,1.9,1.13c1,0,1.67-.6,2.14-1.81a18.32,18.32,0,0,0,.81-5.71l2.74,0c0,.21,0,.5,0,.86s0,.63,0,.79c0,3.64-.75,6.43-2.26,8.39a7.68,7.68,0,0,1-6.45,2.93q-4,0-6-2.28t-2.6-7.88l-.78-7.2q-.52-4.89-3.07-7c-1.7-1.42-4.4-2.12-8.11-2.12h-3.86V139a3.83,3.83,0,0,0,.75,2.76,4.45,4.45,0,0,0,3,.72h4.47v3.37Zm15.4-45.56v16.91l3.51.14,1,0c.34,0,.84,0,1.49,0q7.27,0,10.55-2.42t3.27-7.88c0-3.56-.89-6.12-2.65-7.66s-4.71-2.32-8.81-2.32H808a4.88,4.88,0,0,0-2.92.61A3.3,3.3,0,0,0,804.36,100.32Z"/><path class="cls-1" d="M864.45,139a3.83,3.83,0,0,0,.75,2.76,4.53,4.53,0,0,0,3,.72h4.6v3.37H848.2v-3.37h4.61a4.56,4.56,0,0,0,3-.72,3.73,3.73,0,0,0,.78-2.76V100.46a4.82,4.82,0,0,0-.69-3.08c-.46-.5-1.81-.75-4.06-.75a8.33,8.33,0,0,0-7.38,3.78q-2.54,3.78-3.83,13.45H837.9l1-20h43.2l1.09,20h-2.74q-1.52-10.38-4.09-13.8t-8.56-3.43a3.53,3.53,0,0,0-2.66.77,4.84,4.84,0,0,0-.68,3.06Z"/><path class="cls-2" d="M271.32,221.38V218h3.73a4.67,4.67,0,0,0,3.06-.72,3.78,3.78,0,0,0,.77-2.76V176.24a3.71,3.71,0,0,0-.77-2.72,4.67,4.67,0,0,0-3.06-.72h-3.73v-3.41h27.21q7.61,0,11.57,3.23t4,9.46a10.39,10.39,0,0,1-3,7.7q-3,3-9,4.32,7.41.94,11.09,4.26a11.56,11.56,0,0,1,3.67,9.07,12,12,0,0,1-5,10.3q-5,3.65-14.1,3.65Zm15.26-45.56v17.05h5.77q7.51,0,10.45-2.28c2-1.53,2.94-4.15,2.94-7.88s-.86-6.16-2.57-7.72-4.53-2.33-8.47-2.33h-4.53a4.68,4.68,0,0,0-2.85.61A3.3,3.3,0,0,0,286.58,175.82Zm0,20.22V214.6a3.55,3.55,0,0,0,.79,2.74,5.16,5.16,0,0,0,3.15.67h5.13q6.54,0,9.42-2.55c1.92-1.7,2.89-4.45,2.89-8.25q0-6-3.45-8.57T293.05,196Z"/><path class="cls-2" d="M316.68,169.39H340v3.41h-3.76a4.6,4.6,0,0,0-3,.72,3.62,3.62,0,0,0-.79,2.72v29.08q0,6.85,3.5,10.09t10.88,3.23a17.23,17.23,0,0,0,8-1.69,10.52,10.52,0,0,0,4.78-5,12.35,12.35,0,0,0,.81-3.43,65.54,65.54,0,0,0,.24-6.59V179.27c0-2.49-.38-4.19-1.16-5.1s-2.1-1.37-4-1.37H352.4v-3.41h19.8v3.41h-2.68c-1.94,0-3.3.47-4.07,1.4s-1.16,2.63-1.16,5.07v22.95q0,11-4.65,15.7t-15.32,4.69q-9.78,0-14.72-4.36t-4.94-13v-29a3.66,3.66,0,0,0-.77-2.74,4.64,4.64,0,0,0-3-.7h-4.19Z"/><path class="cls-2" d="M381.13,217.27l-3,5h-2.53l-.36-20.88h3q1.62,8.87,6,13.46a15.13,15.13,0,0,0,11.4,4.61q5.76,0,9-2.73a9.41,9.41,0,0,0,3.2-7.57,9.21,9.21,0,0,0-.83-4,7.61,7.61,0,0,0-2.33-2.87c-1.34-.93-4.2-2-8.58-3.09-1.39-.35-2.46-.63-3.24-.84q-10.29-2.79-13.69-6.09t-3.39-9.42q0-6.67,4.16-10.67t11.2-4a20.83,20.83,0,0,1,7.35,1.27,18.32,18.32,0,0,1,6.12,3.76l2.77-4.33H410l.81,18.71H408q-2-8-6.29-12.06a14.8,14.8,0,0,0-10.62-4q-4.74,0-7.35,2.26a8.13,8.13,0,0,0-2.6,6.45q0,6.4,13,9.6c.82.19,1.46.34,1.9.46a55.12,55.12,0,0,1,8.58,2.65,17.38,17.38,0,0,1,4.29,2.76,13,13,0,0,1,3.23,4.82,16.88,16.88,0,0,1,1.13,6.26q0,7.59-4.66,11.76t-13.17,4.16a22.4,22.4,0,0,1-8-1.42A18,18,0,0,1,381.13,217.27Z"/><path class="cls-2" d="M418.37,221.38V218h3.86a4.74,4.74,0,0,0,3.1-.74,3.64,3.64,0,0,0,.81-2.74V176.24a3.58,3.58,0,0,0-.81-2.72,4.82,4.82,0,0,0-3.1-.72h-3.86v-3.41h23.45v3.41H438a4.72,4.72,0,0,0-3,.7,3.61,3.61,0,0,0-.79,2.74v38.29a3.68,3.68,0,0,0,.79,2.76,4.64,4.64,0,0,0,3,.72h3.87v3.37Z"/><path class="cls-2" d="M446.85,221.38v-3.09c3-.24,5.07-.94,6.13-2.13s1.6-3.54,1.6-7.08v-34a4,4,0,0,0-2.14-1.83,13.4,13.4,0,0,0-4.36-.52h-1.23v-3.34h14.06l28.65,39.27V181.73c0-3.75-.58-6.22-1.76-7.4s-3.44-1.8-6.82-1.85v-3.09h20.11v3.09c-3,.14-5.12.83-6.22,2.06s-1.65,3.62-1.65,7.19v41h-2.88l-32-43.7v30.1q0,5.47,1.83,7.35t6.75,1.86v3.09Z"/><path class="cls-2" d="M504.69,221.38V218h3.72a4.63,4.63,0,0,0,3.06-.72,3.73,3.73,0,0,0,.78-2.76V176.24a3.67,3.67,0,0,0-.78-2.72,4.63,4.63,0,0,0-3.06-.72h-3.72v-3.41H546.8l.92,18.38h-3.1a34,34,0,0,0-2-7.71,12.52,12.52,0,0,0-3.06-4.77,11,11,0,0,0-4.78-2,46.4,46.4,0,0,0-8.62-.61c-2.76,0-4.47.23-5.13.7s-1,1.43-1,2.88v16.49h1q5.6,0,8-2.2c1.59-1.46,2.55-4.05,2.88-7.75h3V205.7h-3q-.5-5.58-2.85-7.73t-8-2.15h-1v18.71q0,2.25,1,3c.7.48,2.58.72,5.62.72a61.45,61.45,0,0,0,8.18-.44,16.79,16.79,0,0,0,5.08-1.42,9.28,9.28,0,0,0,4-4.66,44.5,44.5,0,0,0,2.83-10h2.75l-1.09,19.72Z"/><path class="cls-2" d="M562.77,217.27l-3,5h-2.53l-.36-20.88h3q1.6,8.87,6,13.46a15.12,15.12,0,0,0,11.39,4.61q5.78,0,9-2.73a9.41,9.41,0,0,0,3.2-7.57,9.21,9.21,0,0,0-.83-4,7.54,7.54,0,0,0-2.34-2.87c-1.33-.93-4.19-2-8.57-3.09-1.39-.35-2.46-.63-3.24-.84q-10.31-2.79-13.69-6.09t-3.39-9.42q0-6.67,4.16-10.67t11.2-4a20.87,20.87,0,0,1,7.35,1.27,18.18,18.18,0,0,1,6.11,3.76l2.78-4.33h2.67l.81,18.71h-2.81q-2-8-6.29-12.06a14.8,14.8,0,0,0-10.62-4c-3.17,0-5.61.75-7.35,2.26a8.13,8.13,0,0,0-2.6,6.45q0,6.4,13,9.6c.82.19,1.46.34,1.9.46a55.12,55.12,0,0,1,8.58,2.65,17.38,17.38,0,0,1,4.29,2.76,13.16,13.16,0,0,1,3.23,4.82,16.88,16.88,0,0,1,1.13,6.26q0,7.59-4.66,11.76c-3.11,2.77-7.49,4.16-13.17,4.16a22.36,22.36,0,0,1-8-1.42A17.94,17.94,0,0,1,562.77,217.27Z"/><path class="cls-2" d="M606.4,217.27l-3,5h-2.53l-.35-20.88h3q1.62,8.87,6,13.46a15.11,15.11,0,0,0,11.39,4.61q5.76,0,9-2.73a9.38,9.38,0,0,0,3.2-7.57,9.21,9.21,0,0,0-.82-4,7.54,7.54,0,0,0-2.34-2.87c-1.34-.93-4.2-2-8.58-3.09l-3.23-.84q-10.3-2.79-13.7-6.09T601,182.85q0-6.67,4.17-10.67c2.77-2.66,6.51-4,11.19-4a20.79,20.79,0,0,1,7.35,1.27,18.32,18.32,0,0,1,6.12,3.76l2.78-4.33h2.67l.81,18.71h-2.82q-2-8-6.29-12.06a14.79,14.79,0,0,0-10.62-4q-4.74,0-7.34,2.26a8.11,8.11,0,0,0-2.61,6.45q0,6.4,13.05,9.6c.82.19,1.45.34,1.9.46a55.28,55.28,0,0,1,8.57,2.65,17,17,0,0,1,4.29,2.76,13.06,13.06,0,0,1,3.24,4.82,16.88,16.88,0,0,1,1.12,6.26q0,7.59-4.66,11.76t-13.16,4.16a22.32,22.32,0,0,1-8-1.42A18.07,18.07,0,0,1,606.4,217.27Z"/><path class="cls-2" d="M669.91,217.27l-3,5h-2.53L664,201.38h3q1.62,8.87,6,13.46a15.11,15.11,0,0,0,11.39,4.61q5.76,0,9-2.73a9.4,9.4,0,0,0,3.19-7.57,9.21,9.21,0,0,0-.82-4,7.54,7.54,0,0,0-2.34-2.87c-1.34-.93-4.19-2-8.58-3.09l-3.23-.84q-10.3-2.79-13.7-6.09t-3.39-9.42q0-6.67,4.17-10.67t11.2-4a20.77,20.77,0,0,1,7.34,1.27,18.12,18.12,0,0,1,6.12,3.76l2.78-4.33h2.67l.81,18.71h-2.81q-2-8-6.3-12.06a14.76,14.76,0,0,0-10.61-4q-4.75,0-7.35,2.26a8.1,8.1,0,0,0-2.6,6.45q0,6.4,13,9.6c.82.19,1.45.34,1.9.46a55.86,55.86,0,0,1,8.58,2.65,17.38,17.38,0,0,1,4.29,2.76A13.16,13.16,0,0,1,701,200.5a16.88,16.88,0,0,1,1.12,6.26q0,7.59-4.65,11.76t-13.17,4.16a22.36,22.36,0,0,1-8-1.42A17.94,17.94,0,0,1,669.91,217.27Z"/><path class="cls-2" d="M748.59,203.17l3.41.42q-1.2,9-6.59,14.08a19.21,19.21,0,0,1-13.73,5.08,23.21,23.21,0,0,1-7.61-1.21,20.44,20.44,0,0,1-6.42-3.6,26.28,26.28,0,0,1-7.4-9.72,31.63,31.63,0,0,1-2.48-12.82,32.36,32.36,0,0,1,1.57-10.18,28.32,28.32,0,0,1,4.62-8.63,20.94,20.94,0,0,1,17.3-8.33A19.29,19.29,0,0,1,744.2,173l2.74-4.47h2.74l1,21-2.81.14q-1.59-8.87-5.61-13.54a12.69,12.69,0,0,0-10-4.67q-7.51,0-11.28,6t-3.76,18q0,12.21,3.78,18t11.72,5.82a13.94,13.94,0,0,0,10.28-4.1Q747,211,748.59,203.17Z"/><path class="cls-2" d="M755.73,221.38V218h3.73a4.43,4.43,0,0,0,3-.76,3.64,3.64,0,0,0,.81-2.72V176.24a3.57,3.57,0,0,0-.81-2.7,4.5,4.5,0,0,0-3-.74h-3.73v-3.41h23v3.41h-3.83a4.43,4.43,0,0,0-3,.72,3.67,3.67,0,0,0-.78,2.72v16.07h24.33V176.24a3.57,3.57,0,0,0-.81-2.7,4.46,4.46,0,0,0-3-.74h-3.83v-3.41h23v3.41h-3.8a4.54,4.54,0,0,0-3,.74,3.57,3.57,0,0,0-.81,2.7v38.29a3.64,3.64,0,0,0,.81,2.72,4.47,4.47,0,0,0,3,.76h3.8v3.37h-23V218h3.83a4.39,4.39,0,0,0,3-.76,3.64,3.64,0,0,0,.81-2.72V196H771.13v18.57a3.74,3.74,0,0,0,.78,2.74,4.35,4.35,0,0,0,3,.74h3.83v3.37Z"/><path class="cls-2" d="M812.38,195.4a31.81,31.81,0,0,1,1.72-10.63,25.8,25.8,0,0,1,5.07-8.67,23,23,0,0,1,8-6,24.41,24.41,0,0,1,10-2A24.14,24.14,0,0,1,847,170a23.3,23.3,0,0,1,8,6,25.85,25.85,0,0,1,5.12,8.68,32,32,0,0,1,1.7,10.69,33,33,0,0,1-1.52,10.5,25,25,0,0,1-4.8,8.35,23.75,23.75,0,0,1-8.18,6.29,26.21,26.21,0,0,1-20.37,0,23.85,23.85,0,0,1-8.19-6.31,25.47,25.47,0,0,1-4.84-8.41A32.45,32.45,0,0,1,812.38,195.4Zm9.35,0q0,12.14,3.8,18.06t11.64,5.92q7.73,0,11.56-6t3.83-18q0-12.22-3.78-18.1t-11.61-5.87q-7.81,0-11.62,5.9T821.73,195.4Z"/><path class="cls-2" d="M868.6,195.4a31.81,31.81,0,0,1,1.72-10.63,25.94,25.94,0,0,1,5.06-8.67,23.14,23.14,0,0,1,8-6,25.75,25.75,0,0,1,19.85-.08,23.3,23.3,0,0,1,8,6,25.85,25.85,0,0,1,5.12,8.68,32,32,0,0,1,1.7,10.69,33.28,33.28,0,0,1-1.52,10.5,25,25,0,0,1-4.8,8.35,23.75,23.75,0,0,1-8.18,6.29,26.21,26.21,0,0,1-20.37,0,23.85,23.85,0,0,1-8.19-6.31,25.47,25.47,0,0,1-4.84-8.41A32.45,32.45,0,0,1,868.6,195.4Zm9.35,0q0,12.14,3.8,18.06t11.63,5.92q7.74,0,11.57-6t3.83-18q0-12.22-3.78-18.1t-11.62-5.87q-7.8,0-11.61,5.9T878,195.4Z"/><path class="cls-2" d="M921.17,221.38V218h3.72a4.63,4.63,0,0,0,3.06-.72,3.73,3.73,0,0,0,.77-2.76V176.24a3.67,3.67,0,0,0-.77-2.72,4.63,4.63,0,0,0-3.06-.72h-3.72v-3.41h23v3.41h-3.83a4.49,4.49,0,0,0-3,.7,3.75,3.75,0,0,0-.76,2.74v38.29c0,1.47.33,2.45,1,2.92s2.37.7,5.13.7a45.76,45.76,0,0,0,8.67-.63,10.7,10.7,0,0,0,4.73-2,12.71,12.71,0,0,0,3.18-5.07,47.6,47.6,0,0,0,2.3-9h2.78l-1.06,19.93Z"/><path class="cls-2" d="M272.52,30.4h14.12v2.06h-2.28a2.74,2.74,0,0,0-1.81.44,2.18,2.18,0,0,0-.48,1.64V52.12c0,2.77.7,4.8,2.11,6.11s3.61,2,6.58,2a10.45,10.45,0,0,0,4.87-1,6.37,6.37,0,0,0,2.89-3,7.15,7.15,0,0,0,.49-2.07,38.37,38.37,0,0,0,.15-4V36.37a4.92,4.92,0,0,0-.7-3.08,3.06,3.06,0,0,0-2.43-.83h-1.91V30.4h12v2.06h-1.62a3,3,0,0,0-2.46.85,5,5,0,0,0-.7,3.06V50.25q0,6.66-2.81,9.5t-9.27,2.83c-3.94,0-6.9-.87-8.89-2.63s-3-4.38-3-7.87V34.54a2.21,2.21,0,0,0-.47-1.65,2.77,2.77,0,0,0-1.83-.43h-2.53Z"/><path class="cls-2" d="M308.61,61.84V60c1.83-.14,3.06-.57,3.71-1.29s1-2.14,1-4.28V33.84a2.43,2.43,0,0,0-1.3-1.1,7.88,7.88,0,0,0-2.64-.32h-.74v-2h8.5l17.33,23.74V37.86c0-2.27-.36-3.76-1.06-4.48s-2.09-1.08-4.13-1.11V30.4h12.16v1.87c-1.84.08-3.1.5-3.76,1.24s-1,2.2-1,4.35V62.63h-1.74L315.54,36.2V54.4q0,3.32,1.11,4.44c.73.75,2.09,1.13,4.08,1.13v1.87Z"/><path class="cls-2" d="M344.89,61.84v-2h2.34a2.85,2.85,0,0,0,1.87-.45,2.24,2.24,0,0,0,.49-1.66V34.54a2.18,2.18,0,0,0-.49-1.64,2.92,2.92,0,0,0-1.87-.44h-2.34V30.4h14.18v2.06h-2.34a2.82,2.82,0,0,0-1.84.43,2.17,2.17,0,0,0-.48,1.65V57.69a2.22,2.22,0,0,0,.48,1.67,2.82,2.82,0,0,0,1.84.44h2.34v2Z"/><path class="cls-2" d="M378.27,62.63h-1.7l-11-28.26a3.29,3.29,0,0,0-1-1.6,4.68,4.68,0,0,0-2.13-.31h-1V30.4h13.37v2.06h-1.62a5.26,5.26,0,0,0-2.07.26.92.92,0,0,0-.52.91,4,4,0,0,0,.08.7,5.64,5.64,0,0,0,.26.83l7.7,19.66,6.84-17.58a11.2,11.2,0,0,0,.43-1.37,4.93,4.93,0,0,0,.14-1.11,2,2,0,0,0-.76-1.75,4.08,4.08,0,0,0-2.38-.55h-1.21V30.4h11.35v2.06h-.3a4.17,4.17,0,0,0-2.62.73,7.05,7.05,0,0,0-1.78,3Z"/><path class="cls-2" d="M394.7,61.84v-2H397a2.81,2.81,0,0,0,1.85-.44,2.27,2.27,0,0,0,.47-1.67V34.54a2.23,2.23,0,0,0-.47-1.64,2.81,2.81,0,0,0-1.85-.44H394.7V30.4h25.46l.56,11.12h-1.87a20.31,20.31,0,0,0-1.2-4.67A7.54,7.54,0,0,0,415.81,34a6.59,6.59,0,0,0-2.9-1.22,27.78,27.78,0,0,0-5.2-.37,6.78,6.78,0,0,0-3.11.42,2,2,0,0,0-.59,1.74v10h.61q3.39,0,4.83-1.32t1.74-4.69H413V52.36h-1.83c-.2-2.26-.77-3.81-1.72-4.68s-2.57-1.3-4.85-1.3H404V57.69a2.07,2.07,0,0,0,.63,1.8,7.75,7.75,0,0,0,3.41.44,36.25,36.25,0,0,0,4.94-.27,10.07,10.07,0,0,0,3.07-.86A5.58,5.58,0,0,0,418.45,56a26.32,26.32,0,0,0,1.71-6.07h1.66l-.66,11.93Z"/><path class="cls-2" d="M426.21,61.84v-2h2.26a2.83,2.83,0,0,0,1.85-.44,2.27,2.27,0,0,0,.46-1.67V34.54a2.23,2.23,0,0,0-.46-1.64,2.83,2.83,0,0,0-1.85-.44h-2.26V30.4h17.41A9.36,9.36,0,0,1,450,32.52a7.07,7.07,0,0,1,2.42,5.6,6.53,6.53,0,0,1-2.4,5.35q-2.4,2-7.23,2.47a6.49,6.49,0,0,1,6.15,5.63l1.17,4.91a6.44,6.44,0,0,0,.8,2.19,1.37,1.37,0,0,0,1.15.68c.58,0,1-.36,1.3-1.09a11.14,11.14,0,0,0,.49-3.46l1.66,0c0,.13,0,.3,0,.52s0,.38,0,.48a8.16,8.16,0,0,1-1.37,5.07,4.67,4.67,0,0,1-3.9,1.78,4.5,4.5,0,0,1-3.62-1.39,8.92,8.92,0,0,1-1.57-4.76l-.47-4.36a6.13,6.13,0,0,0-1.86-4.24,7.65,7.65,0,0,0-4.9-1.28h-2.34V57.69a2.31,2.31,0,0,0,.46,1.67,2.67,2.67,0,0,0,1.8.44h2.7v2Zm9.31-27.55V44.51l2.13.09.58,0h.91q4.39,0,6.38-1.47t2-4.76c0-2.15-.53-3.7-1.6-4.63s-2.85-1.4-5.33-1.4h-2.83a2.92,2.92,0,0,0-1.76.37A2,2,0,0,0,435.52,34.29Z"/><path class="cls-2" d="M462.6,59.35l-1.83,3h-1.53L459,49.74h1.79q1,5.35,3.66,8.15a9.14,9.14,0,0,0,6.88,2.78A8.07,8.07,0,0,0,476.77,59a5.69,5.69,0,0,0,1.94-4.58,5.61,5.61,0,0,0-.5-2.41,4.59,4.59,0,0,0-1.41-1.73,18.48,18.48,0,0,0-5.19-1.87l-2-.51q-6.22-1.68-8.28-3.68a7.58,7.58,0,0,1-2.05-5.7,8.52,8.52,0,0,1,2.52-6.45,9.38,9.38,0,0,1,6.77-2.41,12.63,12.63,0,0,1,4.44.76,11,11,0,0,1,3.7,2.28l1.68-2.62h1.62l.49,11.31h-1.7A14.91,14.91,0,0,0,475,34.12a8.94,8.94,0,0,0-6.42-2.45A6.57,6.57,0,0,0,464.17,33,4.91,4.91,0,0,0,462.6,37q0,3.87,7.88,5.8c.5.11.88.21,1.15.28a33.71,33.71,0,0,1,5.19,1.6,10.21,10.21,0,0,1,2.59,1.67,7.92,7.92,0,0,1,2,2.91,10.3,10.3,0,0,1,.68,3.79,9,9,0,0,1-2.82,7.11q-2.82,2.52-8,2.52a13.67,13.67,0,0,1-4.82-.86A10.8,10.8,0,0,1,462.6,59.35Z"/><path class="cls-2" d="M486.33,61.84v-2h2.34a2.85,2.85,0,0,0,1.87-.45,2.24,2.24,0,0,0,.49-1.66V34.54a2.18,2.18,0,0,0-.49-1.64,2.92,2.92,0,0,0-1.87-.44h-2.34V30.4h14.18v2.06h-2.34a2.82,2.82,0,0,0-1.84.43,2.17,2.17,0,0,0-.48,1.65V57.69a2.22,2.22,0,0,0,.48,1.67,2.82,2.82,0,0,0,1.84.44h2.34v2Z"/><path class="cls-2" d="M521.1,57.69a2.27,2.27,0,0,0,.46,1.67,2.7,2.7,0,0,0,1.81.44h2.79v2H511.28v-2h2.78a2.76,2.76,0,0,0,1.83-.44,2.27,2.27,0,0,0,.47-1.67V34.37a2.91,2.91,0,0,0-.42-1.86c-.27-.3-1.09-.45-2.45-.45A5,5,0,0,0,509,34.34q-1.53,2.29-2.31,8.13h-1.66l.59-12.07h26.13l.66,12.07h-1.66c-.61-4.18-1.43-7-2.48-8.34s-2.76-2.07-5.17-2.07a2.13,2.13,0,0,0-1.61.46,3,3,0,0,0-.41,1.85Z"/><path class="cls-2" d="M552.63,57.69a2.29,2.29,0,0,0,.47,1.66,2.63,2.63,0,0,0,1.79.45h2.7v2H542.83v-2h2.75a2.71,2.71,0,0,0,1.83-.46,2.23,2.23,0,0,0,.48-1.65V48.83l-8.8-14a5.87,5.87,0,0,0-1.68-2,3.93,3.93,0,0,0-1.89-.38h-.83V30.4h13.42v2.06h-1.79a4.73,4.73,0,0,0-1.72.23.8.8,0,0,0-.53.77,1.49,1.49,0,0,0,.1.52,7.52,7.52,0,0,0,.53,1l6.94,10.93L557.33,36a4.2,4.2,0,0,0,.41-.87,2.84,2.84,0,0,0,.12-.81,1.49,1.49,0,0,0-.75-1.37,4.4,4.4,0,0,0-2.27-.46h-1.21V30.4h11.5v2.06h-.82a3.85,3.85,0,0,0-2,.44,5.64,5.64,0,0,0-1.62,1.94L552.63,48.6Z"/><path class="cls-2" d="M576.75,46.13a19.14,19.14,0,0,1,1-6.43,15.46,15.46,0,0,1,3.06-5.24,14,14,0,0,1,4.84-3.62,14.73,14.73,0,0,1,6-1.23,14.56,14.56,0,0,1,6,1.18,14.14,14.14,0,0,1,4.83,3.63,15.31,15.31,0,0,1,3.09,5.25,19.28,19.28,0,0,1,1,6.46,19.88,19.88,0,0,1-.93,6.35,15,15,0,0,1-2.9,5,14.46,14.46,0,0,1-4.94,3.81,15.86,15.86,0,0,1-12.32,0,14.38,14.38,0,0,1-5-3.82,15.32,15.32,0,0,1-2.92-5.08A19.56,19.56,0,0,1,576.75,46.13Zm5.65,0q0,7.34,2.3,10.92a8.63,8.63,0,0,0,14,0Q601,53.4,601,46.13t-2.28-11a8.71,8.71,0,0,0-14,0Q582.4,38.77,582.4,46.13Z"/><path class="cls-2" d="M608,61.84v-2h2.25a2.81,2.81,0,0,0,1.85-.44,2.27,2.27,0,0,0,.47-1.67V34.54a2.23,2.23,0,0,0-.47-1.64,2.81,2.81,0,0,0-1.85-.44H608V30.4h25.47L634,41.52h-1.87A20.86,20.86,0,0,0,631,36.85,7.54,7.54,0,0,0,629.12,34a6.59,6.59,0,0,0-2.89-1.22,27.9,27.9,0,0,0-5.21-.37,6.73,6.73,0,0,0-3.1.42,2,2,0,0,0-.6,1.74v10h.62q3.38,0,4.82-1.32t1.75-4.69h1.82V52.36h-1.82c-.2-2.26-.78-3.81-1.73-4.68s-2.56-1.3-4.84-1.3h-.62V57.69a2.27,2.27,0,0,0,.46,1.67,2.65,2.65,0,0,0,1.79.44h2.89v2Z"/><path class="cls-2" d="M656.86,33.18V54.4c0,2.2.36,3.67,1.07,4.41S660,59.94,662,60v1.87H649.4l0-1.87c2,0,3.4-.41,4.12-1.14s1.09-2.21,1.09-4.43V34.54a2.23,2.23,0,0,0-.47-1.64,2.76,2.76,0,0,0-1.83-.44h-2.57V30.4h10.88l8.44,24,8.19-24H687.9v2.06h-2.32a2.71,2.71,0,0,0-1.8.43,2.26,2.26,0,0,0-.45,1.65V57.69a2.32,2.32,0,0,0,.45,1.67,2.7,2.7,0,0,0,1.8.44h2.32v2H673.78v-2h2.62a2.83,2.83,0,0,0,1.85-.44,2.27,2.27,0,0,0,.46-1.67V33.18L669,61.84h-1.7Z"/><path class="cls-2" d="M692.16,61.84v-2h2.34a2.85,2.85,0,0,0,1.87-.45,2.24,2.24,0,0,0,.49-1.66V34.54a2.18,2.18,0,0,0-.49-1.64,2.92,2.92,0,0,0-1.87-.44h-2.34V30.4h14.18v2.06H704a2.82,2.82,0,0,0-1.84.43,2.17,2.17,0,0,0-.48,1.65V57.69a2.22,2.22,0,0,0,.48,1.67,2.82,2.82,0,0,0,1.84.44h2.34v2Z"/><path class="cls-2" d="M722.06,29.89h1.7l11.1,27.72A3.91,3.91,0,0,0,736,59.38a3.22,3.22,0,0,0,1.85.42l.42,0a4.23,4.23,0,0,1,.45,0v2.08h-13V59.76h1.66a5.94,5.94,0,0,0,2.14-.25.9.9,0,0,0,.51-.9,2.57,2.57,0,0,0-.1-.65c-.08-.26-.17-.56-.3-.88l-2-5.47H715.92L714.58,55a10.44,10.44,0,0,0-.45,1.44,5.71,5.71,0,0,0-.17,1.18,1.79,1.79,0,0,0,.81,1.6,4.21,4.21,0,0,0,2.38.55h1.08v2.08H707V59.76h.36A4.25,4.25,0,0,0,710,59a7.1,7.1,0,0,0,1.81-2.92Zm4.78,19.49-5.16-12.63-5,12.63Z"/><path class="cls-2" d="M746.63,33.18V54.4c0,2.2.35,3.67,1.07,4.41s2.08,1.13,4.09,1.16v1.87H739.16l0-1.87c2,0,3.41-.41,4.13-1.14s1.08-2.21,1.08-4.43V34.54a2.23,2.23,0,0,0-.46-1.64,2.78,2.78,0,0,0-1.83-.44h-2.58V30.4h10.89l8.44,24,8.18-24h10.63v2.06h-2.32a2.66,2.66,0,0,0-1.79.43,2.26,2.26,0,0,0-.46,1.65V57.69a2.31,2.31,0,0,0,.46,1.67,2.65,2.65,0,0,0,1.79.44h2.32v2H763.55v-2h2.61a2.81,2.81,0,0,0,1.85-.44,2.27,2.27,0,0,0,.47-1.67V33.18l-9.76,28.66H757Z"/><path class="cls-2" d="M781.05,61.84v-2h2.34a2.83,2.83,0,0,0,1.87-.45,2.19,2.19,0,0,0,.49-1.66V34.54a2.14,2.14,0,0,0-.49-1.64,2.9,2.9,0,0,0-1.87-.44h-2.34V30.4h14.18v2.06H792.9a2.82,2.82,0,0,0-1.84.43,2.17,2.17,0,0,0-.48,1.65V57.69a2.22,2.22,0,0,0,.48,1.67,2.82,2.82,0,0,0,1.84.44h2.33v2Z"/><rect class="cls-2" x="237.8" width="2.5" height="243.86"/><path class="cls-3" d="M148.08,26.17l.15,84.16c0,5.39,0,21.79-41.31,21.86H99.16c-41.32-.07-41.32-16.47-41.32-21.86L58,26.17H1.06L1.11,123c0,26.77,75.06,28.86,98.07,28.86h7.73c23,0,98.06-2.09,98.06-28.86L205,26.17Z"/><path class="cls-2" d="M152.47,110.33l0-80.06h48.3s-.06,89.48-.06,92.69c0,17.57-48.22,24.62-93.82,24.62,0-2.22,0-7.66,0-11.16C129.75,136.39,152.47,131.57,152.47,110.33Z"/><path class="cls-1" d="M53.61,110.33l0-80.06H5.29s.06,89.48.06,92.69c0,17.57,48.23,24.62,93.83,24.62,0-2.22,0-7.66,0-11.16C76.34,136.39,53.61,131.57,53.61,110.33Z"/></svg>