<?xml version="1.0" encoding="UTF-8"?> <svg xmlns="http://www.w3.org/2000/svg" id="_secondary_1_2_copy" data-name="•••&gt;&gt;secondary 1/2 copy" viewBox="0 0 965.4 243.86"><defs><style>.cls-1{fill:#fff;}</style></defs><path class="cls-1" d="M279.79,98.49v35.09q0,5.44,1.77,7.29c1.19,1.23,3.44,1.87,6.77,1.92v3.09H267.45l0-3.09c3.35,0,5.63-.67,6.82-1.88s1.8-3.65,1.8-7.33V100.74a3.67,3.67,0,0,0-.78-2.72,4.56,4.56,0,0,0-3-.72H268V93.89h18l14,39.76,13.54-39.76h17.58V97.3h-3.84a4.53,4.53,0,0,0-3,.7,3.76,3.76,0,0,0-.75,2.74V139a3.83,3.83,0,0,0,.75,2.76,4.45,4.45,0,0,0,3,.72h3.84v3.37H307.77v-3.37h4.33a4.62,4.62,0,0,0,3-.72,3.73,3.73,0,0,0,.78-2.76V98.49l-16.14,47.39H297Z"></path><path class="cls-1" d="M336.15,145.88v-3.37H340a4.74,4.74,0,0,0,3.1-.74,3.64,3.64,0,0,0,.81-2.74V100.74a3.58,3.58,0,0,0-.81-2.72,4.82,4.82,0,0,0-3.1-.72h-3.86V93.89H359.6V97.3h-3.87a4.74,4.74,0,0,0-3,.7,3.61,3.61,0,0,0-.79,2.74V139a3.68,3.68,0,0,0,.79,2.76,4.66,4.66,0,0,0,3,.72h3.87v3.37Z"></path><path class="cls-1" d="M386.46,93h2.81l18.35,45.85a6.61,6.61,0,0,0,1.9,2.93,5.41,5.41,0,0,0,3.06.69c.14,0,.38,0,.71,0l.73,0v3.44H392.51v-3.44h2.74a9.8,9.8,0,0,0,3.55-.41,1.5,1.5,0,0,0,.84-1.49,4.08,4.08,0,0,0-.17-1.07A14.73,14.73,0,0,0,399,138l-3.31-9H376.3l-2.21,5.59a16.79,16.79,0,0,0-.74,2.38,8.79,8.79,0,0,0-.28,1.95,3,3,0,0,0,1.33,2.65,7.09,7.09,0,0,0,3.94.9h1.79v3.44H361.54v-3.44h.59a7,7,0,0,0,4.43-1.22c1-.8,2-2.42,3-4.83Zm7.91,32.24-8.54-20.88-8.23,20.88Z"></path><path class="cls-1" d="M426.51,98.49v35.09q0,5.44,1.78,7.29t6.76,1.92v3.09H414.17l0-3.09c3.36,0,5.63-.67,6.83-1.88s1.79-3.65,1.79-7.33V100.74A3.67,3.67,0,0,0,422,98a4.56,4.56,0,0,0-3-.72h-4.25V93.89h18l14,39.76,13.54-39.76h17.58V97.3H474a4.49,4.49,0,0,0-3,.7,3.71,3.71,0,0,0-.76,2.74V139a3.78,3.78,0,0,0,.76,2.76,4.42,4.42,0,0,0,3,.72h3.83v3.37H454.49v-3.37h4.33a4.67,4.67,0,0,0,3.06-.72,3.78,3.78,0,0,0,.77-2.76V98.49l-16.14,47.39H443.7Z"></path><path class="cls-1" d="M482.87,145.88v-3.37h3.87a4.73,4.73,0,0,0,3.09-.74,3.64,3.64,0,0,0,.81-2.74V100.74a3.58,3.58,0,0,0-.81-2.72,4.81,4.81,0,0,0-3.09-.72h-3.87V93.89h23.45V97.3h-3.87a4.74,4.74,0,0,0-3,.7,3.61,3.61,0,0,0-.79,2.74V139a3.68,3.68,0,0,0,.79,2.76,4.66,4.66,0,0,0,3,.72h3.87v3.37Z"></path><path class="cls-1" d="M531.47,145.88v-3.37h3.72a4.48,4.48,0,0,0,3-.76A3.68,3.68,0,0,0,539,139V100.74a3.61,3.61,0,0,0-.8-2.7,4.55,4.55,0,0,0-3-.74h-3.72V93.89h22.95V97.3h-3.83a4.43,4.43,0,0,0-3,.72,3.67,3.67,0,0,0-.78,2.72v16.07h24.33V100.74a3.57,3.57,0,0,0-.81-2.7,4.45,4.45,0,0,0-3-.74h-3.84V93.89h23V97.3h-3.8a4.54,4.54,0,0,0-3,.74,3.57,3.57,0,0,0-.81,2.7V139a3.64,3.64,0,0,0,.81,2.72,4.47,4.47,0,0,0,3,.76h3.8v3.37h-23v-3.37h3.84a4.38,4.38,0,0,0,3-.76,3.64,3.64,0,0,0,.81-2.72V120.46H546.86V139a3.74,3.74,0,0,0,.78,2.74,4.35,4.35,0,0,0,3,.74h3.83v3.37Z"></path><path class="cls-1" d="M590.22,145.88v-3.37H594a4.62,4.62,0,0,0,3-.72,3.73,3.73,0,0,0,.78-2.76V100.74A3.67,3.67,0,0,0,597,98a4.62,4.62,0,0,0-3-.72h-3.73V93.89h42.12l.91,18.38h-3.09a34.55,34.55,0,0,0-2-7.71,12.52,12.52,0,0,0-3.06-4.77,11,11,0,0,0-4.78-2,46.4,46.4,0,0,0-8.62-.61c-2.76,0-4.47.23-5.13.7s-1,1.43-1,2.88v16.49h1q5.58,0,8-2.2c1.59-1.46,2.55-4,2.88-7.75h3V130.2h-3q-.5-5.58-2.85-7.73t-8-2.15h-1V139q0,2.25,1,3t5.63.72a61.28,61.28,0,0,0,8.17-.44,16.79,16.79,0,0,0,5.08-1.42,9.34,9.34,0,0,0,4-4.66,45,45,0,0,0,2.83-10h2.74L634,145.88Z"></path><path class="cls-1" d="M638.88,145.88v-3.37h3.73a4.67,4.67,0,0,0,3.06-.72,3.78,3.78,0,0,0,.77-2.76V100.74a3.71,3.71,0,0,0-.77-2.72,4.67,4.67,0,0,0-3.06-.72h-3.73V93.89h28.8q6.54,0,10.54,3.51a11.73,11.73,0,0,1,4,9.25,10.81,10.81,0,0,1-4,8.86q-4,3.22-12,4.08a12.08,12.08,0,0,1,6.77,2.81,12.23,12.23,0,0,1,3.39,6.5L678.4,137a10.86,10.86,0,0,0,1.33,3.62,2.27,2.27,0,0,0,1.9,1.13c1,0,1.68-.6,2.15-1.81a18.32,18.32,0,0,0,.81-5.71l2.74,0c0,.21,0,.5,0,.86s0,.63,0,.79c0,3.64-.76,6.43-2.27,8.39a7.65,7.65,0,0,1-6.45,2.93q-4,0-6-2.28T670.1,137l-.77-7.2q-.52-4.89-3.08-7c-1.7-1.42-4.4-2.12-8.1-2.12h-3.87V139a3.78,3.78,0,0,0,.76,2.76,4.42,4.42,0,0,0,3,.72h4.46v3.37Zm15.4-45.56v16.91l3.52.14,1,0c.34,0,.84,0,1.5,0q7.28,0,10.54-2.42t3.27-7.88c0-3.56-.88-6.12-2.65-7.66s-4.71-2.32-8.81-2.32h-4.67a4.84,4.84,0,0,0-2.92.61A3.3,3.3,0,0,0,654.28,100.32Z"></path><path class="cls-1" d="M689.06,145.88v-3.37h3.72a4.63,4.63,0,0,0,3.06-.72,3.73,3.73,0,0,0,.78-2.76V100.74a3.67,3.67,0,0,0-.78-2.72,4.63,4.63,0,0,0-3.06-.72h-3.72V93.89h27.21q7.59,0,11.56,3.23t4,9.46a10.43,10.43,0,0,1-3,7.7q-3,3-9.06,4.32,7.42.95,11.09,4.26a11.57,11.57,0,0,1,3.68,9.07,12,12,0,0,1-5,10.3q-5,3.65-14.1,3.65Zm15.25-45.56v17.05h5.77q7.53,0,10.46-2.28c2-1.53,2.93-4.15,2.93-7.88s-.85-6.16-2.56-7.72-4.54-2.33-8.47-2.33H707.9a4.68,4.68,0,0,0-2.85.61A3.3,3.3,0,0,0,704.31,100.32Zm0,20.22V139.1a3.55,3.55,0,0,0,.8,2.74,5.1,5.1,0,0,0,3.14.67h5.13q6.54,0,9.43-2.55t2.88-8.25q0-6-3.45-8.57t-11.46-2.6Z"></path><path class="cls-1" d="M736.74,145.88v-3.37h3.72a4.63,4.63,0,0,0,3.06-.72,3.73,3.73,0,0,0,.77-2.76V100.74a3.67,3.67,0,0,0-.77-2.72,4.63,4.63,0,0,0-3.06-.72h-3.72V93.89h42.11l.92,18.38h-3.1a33.49,33.49,0,0,0-2-7.71,12.39,12.39,0,0,0-3.05-4.77,11,11,0,0,0-4.78-2,46.47,46.47,0,0,0-8.62-.61c-2.76,0-4.47.23-5.13.7s-1,1.43-1,2.88v16.49h1q5.6,0,8-2.2c1.6-1.46,2.56-4,2.89-7.75h3V130.2h-3q-.49-5.58-2.85-7.73t-8-2.15h-1V139c0,1.5.36,2.49,1.06,3s2.58.72,5.62.72a61.45,61.45,0,0,0,8.18-.44,16.79,16.79,0,0,0,5.08-1.42A9.28,9.28,0,0,0,776,136.2a44.5,44.5,0,0,0,2.83-10h2.75l-1.09,19.72Z"></path><path class="cls-1" d="M786.84,145.88v-3.37h3.73a4.67,4.67,0,0,0,3.06-.72,3.78,3.78,0,0,0,.77-2.76V100.74a3.71,3.71,0,0,0-.77-2.72,4.67,4.67,0,0,0-3.06-.72h-3.73V93.89h28.79q6.54,0,10.55,3.51a11.73,11.73,0,0,1,4,9.25,10.84,10.84,0,0,1-4,8.86q-4,3.22-12,4.08A12.11,12.11,0,0,1,821,122.4a12.23,12.23,0,0,1,3.39,6.5l1.94,8.12a10.86,10.86,0,0,0,1.33,3.62,2.27,2.27,0,0,0,1.9,1.13c1,0,1.68-.6,2.15-1.81a18.68,18.68,0,0,0,.8-5.71l2.75,0c0,.21,0,.5,0,.86s0,.63,0,.79c0,3.64-.76,6.43-2.27,8.39a7.65,7.65,0,0,1-6.45,2.93c-2.67,0-4.67-.76-6-2.28s-2.18-4.15-2.6-7.88l-.77-7.2c-.36-3.26-1.38-5.6-3.08-7s-4.4-2.12-8.1-2.12h-3.87V139a3.83,3.83,0,0,0,.75,2.76,4.47,4.47,0,0,0,3,.72h4.46v3.37Zm15.4-45.56v16.91l3.51.14,1,0c.34,0,.84,0,1.5,0q7.28,0,10.54-2.42t3.27-7.88c0-3.56-.88-6.12-2.65-7.66s-4.71-2.32-8.81-2.32H805.9a4.84,4.84,0,0,0-2.92.61A3.3,3.3,0,0,0,802.24,100.32Z"></path><path class="cls-1" d="M862.33,139a3.83,3.83,0,0,0,.75,2.76,4.53,4.53,0,0,0,3,.72h4.61v3.37H846.09v-3.37h4.6a4.61,4.61,0,0,0,3-.72,3.78,3.78,0,0,0,.77-2.76V100.46a4.82,4.82,0,0,0-.69-3.08c-.45-.5-1.81-.75-4.06-.75a8.33,8.33,0,0,0-7.38,3.78q-2.54,3.78-3.83,13.45h-2.74l1-20H880l1.09,20h-2.74q-1.51-10.38-4.1-13.8c-1.72-2.29-4.58-3.43-8.56-3.43a3.55,3.55,0,0,0-2.66.77,4.9,4.9,0,0,0-.68,3.06Z"></path><path class="cls-1" d="M269.2,221.38V218h3.73a4.67,4.67,0,0,0,3.06-.72,3.73,3.73,0,0,0,.77-2.76V176.24a3.67,3.67,0,0,0-.77-2.72,4.67,4.67,0,0,0-3.06-.72H269.2v-3.41h27.22q7.59,0,11.56,3.23t4,9.46a10.39,10.39,0,0,1-3,7.7q-3,3-9.05,4.32,7.42.94,11.09,4.26a11.57,11.57,0,0,1,3.68,9.07,12,12,0,0,1-5,10.3q-5,3.65-14.09,3.65Zm15.26-45.56v17.05h5.77q7.51,0,10.46-2.28c1.95-1.53,2.93-4.15,2.93-7.88s-.85-6.16-2.56-7.72-4.54-2.33-8.48-2.33h-4.53a4.68,4.68,0,0,0-2.85.61A3.3,3.3,0,0,0,284.46,175.82Zm0,20.22V214.6a3.59,3.59,0,0,0,.79,2.74,5.16,5.16,0,0,0,3.15.67h5.13q6.54,0,9.42-2.55t2.89-8.25q0-6-3.45-8.57T290.93,196Z"></path><path class="cls-1" d="M314.57,169.39h23.34v3.41h-3.76a4.6,4.6,0,0,0-3,.72,3.66,3.66,0,0,0-.79,2.72v29.08q0,6.85,3.5,10.09t10.88,3.23a17.23,17.23,0,0,0,8-1.69,10.48,10.48,0,0,0,4.78-5,11.68,11.68,0,0,0,.81-3.43,62,62,0,0,0,.25-6.59V179.27q0-3.74-1.16-5.1c-.78-.92-2.11-1.37-4-1.37h-3.16v-3.41h19.79v3.41h-2.67c-2,0-3.31.47-4.08,1.4s-1.16,2.63-1.16,5.07v22.95q0,11-4.64,15.7t-15.33,4.69q-9.78,0-14.71-4.36t-4.94-13v-29a3.66,3.66,0,0,0-.78-2.74,4.64,4.64,0,0,0-3-.7h-4.18Z"></path><path class="cls-1" d="M379,217.27l-3,5h-2.53l-.35-20.88h2.95q1.62,8.87,6.05,13.46a15.11,15.11,0,0,0,11.39,4.61q5.76,0,9-2.73a9.38,9.38,0,0,0,3.2-7.57,9.21,9.21,0,0,0-.82-4,7.54,7.54,0,0,0-2.34-2.87c-1.34-.93-4.2-2-8.58-3.09l-3.23-.84q-10.31-2.79-13.7-6.09t-3.39-9.42q0-6.67,4.17-10.67c2.77-2.66,6.51-4,11.19-4a20.79,20.79,0,0,1,7.35,1.27,18.32,18.32,0,0,1,6.12,3.76l2.77-4.33h2.68l.81,18.71h-2.82q-2-8-6.29-12.06a14.8,14.8,0,0,0-10.62-4q-4.74,0-7.34,2.26a8.11,8.11,0,0,0-2.61,6.45q0,6.4,13.05,9.6c.82.19,1.45.34,1.89.46a55.12,55.12,0,0,1,8.58,2.65,17,17,0,0,1,4.29,2.76,13.06,13.06,0,0,1,3.24,4.82,16.88,16.88,0,0,1,1.12,6.26q0,7.59-4.66,11.76t-13.16,4.16a22.41,22.41,0,0,1-8-1.42A18,18,0,0,1,379,217.27Z"></path><path class="cls-1" d="M416.25,221.38V218h3.87a4.73,4.73,0,0,0,3.09-.74,3.64,3.64,0,0,0,.81-2.74V176.24a3.58,3.58,0,0,0-.81-2.72,4.81,4.81,0,0,0-3.09-.72h-3.87v-3.41H439.7v3.41h-3.87a4.74,4.74,0,0,0-3,.7,3.61,3.61,0,0,0-.79,2.74v38.29a3.68,3.68,0,0,0,.79,2.76,4.66,4.66,0,0,0,3,.72h3.87v3.37Z"></path><path class="cls-1" d="M444.73,221.38v-3.09c3-.24,5.07-.94,6.14-2.13s1.59-3.54,1.59-7.08v-34a4,4,0,0,0-2.14-1.83,13.4,13.4,0,0,0-4.36-.52h-1.23v-3.34h14.06l28.66,39.27V181.73q0-5.62-1.76-7.4c-1.17-1.19-3.45-1.8-6.82-1.85v-3.09H499v3.09c-3.05.14-5.12.83-6.23,2.06s-1.65,3.62-1.65,7.19v41h-2.88l-32-43.7v30.1q0,5.47,1.83,7.35t6.75,1.86v3.09Z"></path><path class="cls-1" d="M502.57,221.38V218h3.73a4.62,4.62,0,0,0,3.05-.72,3.73,3.73,0,0,0,.78-2.76V176.24a3.67,3.67,0,0,0-.78-2.72,4.62,4.62,0,0,0-3.05-.72h-3.73v-3.41h42.12l.91,18.38h-3.09a34,34,0,0,0-2-7.71,12.52,12.52,0,0,0-3.06-4.77,11,11,0,0,0-4.78-2,46.4,46.4,0,0,0-8.62-.61c-2.76,0-4.47.23-5.13.7s-1,1.43-1,2.88v16.49h1q5.58,0,8-2.2c1.59-1.46,2.55-4.05,2.88-7.75h3V205.7h-3q-.5-5.58-2.85-7.73t-8-2.15h-1v18.71q0,2.25,1,3c.71.48,2.58.72,5.63.72a61.28,61.28,0,0,0,8.17-.44,16.71,16.71,0,0,0,5.08-1.42,9.34,9.34,0,0,0,4-4.66,45,45,0,0,0,2.83-10h2.74l-1.09,19.72Z"></path><path class="cls-1" d="M560.65,217.27l-3,5H555.1l-.35-20.88h3q1.62,8.87,6,13.46a15.11,15.11,0,0,0,11.39,4.61q5.76,0,9-2.73a9.41,9.41,0,0,0,3.2-7.57,9.07,9.07,0,0,0-.83-4,7.61,7.61,0,0,0-2.33-2.87c-1.34-.93-4.2-2-8.58-3.09l-3.24-.84q-10.29-2.79-13.69-6.09t-3.39-9.42q0-6.67,4.16-10.67t11.2-4a20.79,20.79,0,0,1,7.35,1.27,18.32,18.32,0,0,1,6.12,3.76l2.77-4.33h2.68l.8,18.71h-2.81q-2-8-6.29-12.06a14.8,14.8,0,0,0-10.62-4q-4.74,0-7.35,2.26a8.13,8.13,0,0,0-2.6,6.45q0,6.4,13.05,9.6c.82.19,1.45.34,1.89.46a55.12,55.12,0,0,1,8.58,2.65,17,17,0,0,1,4.29,2.76,13.06,13.06,0,0,1,3.24,4.82,16.88,16.88,0,0,1,1.12,6.26q0,7.59-4.66,11.76T575,222.68a22.41,22.41,0,0,1-8-1.42A18,18,0,0,1,560.65,217.27Z"></path><path class="cls-1" d="M604.29,217.27l-3,5h-2.53l-.35-20.88h3q1.62,8.87,6,13.46a15.11,15.11,0,0,0,11.39,4.61c3.85,0,6.83-.91,9-2.73a9.41,9.41,0,0,0,3.2-7.57,9.21,9.21,0,0,0-.83-4,7.54,7.54,0,0,0-2.34-2.87c-1.33-.93-4.19-2-8.58-3.09l-3.23-.84q-10.31-2.79-13.69-6.09t-3.4-9.42q0-6.67,4.17-10.67t11.2-4a20.77,20.77,0,0,1,7.34,1.27,18.12,18.12,0,0,1,6.12,3.76l2.78-4.33h2.67L634,187.6h-2.81q-2-8-6.3-12.06a14.76,14.76,0,0,0-10.61-4q-4.75,0-7.35,2.26a8.1,8.1,0,0,0-2.6,6.45q0,6.4,13,9.6c.82.19,1.45.34,1.9.46a55.86,55.86,0,0,1,8.58,2.65,17.38,17.38,0,0,1,4.29,2.76,13.16,13.16,0,0,1,3.23,4.82,16.88,16.88,0,0,1,1.12,6.26q0,7.59-4.65,11.76t-13.17,4.16a22.36,22.36,0,0,1-8-1.42A17.94,17.94,0,0,1,604.29,217.27Z"></path><path class="cls-1" d="M667.79,217.27l-3,5h-2.54l-.35-20.88h3q1.6,8.87,6,13.46a15.12,15.12,0,0,0,11.39,4.61q5.78,0,9-2.73a9.41,9.41,0,0,0,3.2-7.57,9.21,9.21,0,0,0-.83-4,7.54,7.54,0,0,0-2.34-2.87c-1.33-.93-4.19-2-8.57-3.09q-2.09-.52-3.24-.84-10.31-2.79-13.69-6.09t-3.4-9.42q0-6.67,4.17-10.67t11.2-4a20.87,20.87,0,0,1,7.35,1.27,18.18,18.18,0,0,1,6.11,3.76l2.78-4.33h2.67l.81,18.71h-2.81q-2-8-6.29-12.06a14.8,14.8,0,0,0-10.62-4q-4.75,0-7.35,2.26a8.13,8.13,0,0,0-2.6,6.45q0,6.4,13,9.6c.82.19,1.46.34,1.9.46a55.49,55.49,0,0,1,8.58,2.65,17.38,17.38,0,0,1,4.29,2.76,13.16,13.16,0,0,1,3.23,4.82,16.88,16.88,0,0,1,1.13,6.26q0,7.59-4.66,11.76t-13.17,4.16a22.36,22.36,0,0,1-8-1.42A17.94,17.94,0,0,1,667.79,217.27Z"></path><path class="cls-1" d="M746.47,203.17l3.41.42q-1.18,9-6.59,14.08a19.21,19.21,0,0,1-13.73,5.08,23.26,23.26,0,0,1-7.61-1.21,20.4,20.4,0,0,1-6.41-3.6,26.07,26.07,0,0,1-7.4-9.72,31.46,31.46,0,0,1-2.48-12.82,32.36,32.36,0,0,1,1.56-10.18,28.54,28.54,0,0,1,4.62-8.63,20.94,20.94,0,0,1,17.3-8.33A19.29,19.29,0,0,1,742.08,173l2.74-4.47h2.74l1,21-2.81.14q-1.58-8.87-5.61-13.54a12.69,12.69,0,0,0-10-4.67q-7.53,0-11.29,6t-3.76,18q0,12.21,3.78,18t11.72,5.82a14,14,0,0,0,10.29-4.1Q744.9,211,746.47,203.17Z"></path><path class="cls-1" d="M753.62,221.38V218h3.72a4.48,4.48,0,0,0,3-.76,3.64,3.64,0,0,0,.81-2.72V176.24a3.57,3.57,0,0,0-.81-2.7,4.55,4.55,0,0,0-3-.74h-3.72v-3.41h23v3.41h-3.83a4.43,4.43,0,0,0-3,.72,3.67,3.67,0,0,0-.77,2.72v16.07h24.32V176.24a3.61,3.61,0,0,0-.8-2.7,4.48,4.48,0,0,0-3-.74h-3.84v-3.41h23v3.41H805a4.55,4.55,0,0,0-3,.74,3.57,3.57,0,0,0-.81,2.7v38.29a3.64,3.64,0,0,0,.81,2.72,4.48,4.48,0,0,0,3,.76h3.79v3.37h-23V218h3.84a4.41,4.41,0,0,0,3-.76,3.68,3.68,0,0,0,.8-2.72V196H769v18.57a3.74,3.74,0,0,0,.77,2.74,4.35,4.35,0,0,0,3,.74h3.83v3.37Z"></path><path class="cls-1" d="M810.26,195.4A31.81,31.81,0,0,1,812,184.77a25.61,25.61,0,0,1,5.06-8.67,23.11,23.11,0,0,1,8-6,24.41,24.41,0,0,1,10-2,24.14,24.14,0,0,1,9.86,1.95,23.33,23.33,0,0,1,8,6,25.82,25.82,0,0,1,5.11,8.68,32,32,0,0,1,1.71,10.69,33,33,0,0,1-1.53,10.5,25,25,0,0,1-4.8,8.35,23.71,23.71,0,0,1-8.17,6.29,26.23,26.23,0,0,1-20.38,0,23.85,23.85,0,0,1-8.19-6.31,25.26,25.26,0,0,1-4.83-8.41A32.17,32.17,0,0,1,810.26,195.4Zm9.35,0q0,12.14,3.8,18.06t11.64,5.92q7.73,0,11.56-6t3.84-18q0-12.22-3.78-18.1t-11.62-5.87q-7.81,0-11.62,5.9T819.61,195.4Z"></path><path class="cls-1" d="M866.48,195.4a32.07,32.07,0,0,1,1.72-10.63,25.8,25.8,0,0,1,5.07-8.67,23.11,23.11,0,0,1,8-6,24.41,24.41,0,0,1,10-2,24.14,24.14,0,0,1,9.86,1.95,23.33,23.33,0,0,1,8,6,25.82,25.82,0,0,1,5.11,8.68A32,32,0,0,1,916,195.4a33,33,0,0,1-1.53,10.5,25,25,0,0,1-4.8,8.35,23.81,23.81,0,0,1-8.17,6.29,26.23,26.23,0,0,1-20.38,0,23.85,23.85,0,0,1-8.19-6.31,25.26,25.26,0,0,1-4.83-8.41A32.17,32.17,0,0,1,866.48,195.4Zm9.35,0q0,12.14,3.8,18.06t11.64,5.92q7.72,0,11.56-6t3.84-18q0-12.22-3.78-18.1t-11.62-5.87q-7.82,0-11.62,5.9T875.83,195.4Z"></path><path class="cls-1" d="M919.05,221.38V218h3.73a4.62,4.62,0,0,0,3.05-.72,3.73,3.73,0,0,0,.78-2.76V176.24a3.67,3.67,0,0,0-.78-2.72,4.62,4.62,0,0,0-3.05-.72h-3.73v-3.41h23v3.41h-3.84a4.53,4.53,0,0,0-3,.7,3.76,3.76,0,0,0-.75,2.74v38.29c0,1.47.33,2.45,1,2.92s2.37.7,5.13.7a45.76,45.76,0,0,0,8.67-.63,10.65,10.65,0,0,0,4.73-2,12.71,12.71,0,0,0,3.18-5.07,47.6,47.6,0,0,0,2.3-9h2.78l-1.05,19.93Z"></path><path class="cls-1" d="M270.41,30.4h14.11v2.06h-2.27a2.77,2.77,0,0,0-1.82.44,2.18,2.18,0,0,0-.48,1.64V52.12c0,2.77.7,4.8,2.12,6.11s3.6,2,6.57,2a10.42,10.42,0,0,0,4.87-1,6.32,6.32,0,0,0,2.89-3,7.15,7.15,0,0,0,.49-2.07,38.37,38.37,0,0,0,.15-4V36.37a4.92,4.92,0,0,0-.7-3.08,3,3,0,0,0-2.42-.83H292V30.4h12v2.06h-1.61a3,3,0,0,0-2.47.85,5,5,0,0,0-.7,3.06V50.25q0,6.66-2.81,9.5t-9.27,2.83c-3.94,0-6.9-.87-8.89-2.63s-3-4.38-3-7.87V34.54a2.21,2.21,0,0,0-.47-1.65,2.77,2.77,0,0,0-1.83-.43h-2.52Z"></path><path class="cls-1" d="M306.49,61.84V60c1.83-.14,3.07-.57,3.71-1.29s1-2.14,1-4.28V33.84a2.43,2.43,0,0,0-1.3-1.1,7.78,7.78,0,0,0-2.63-.32h-.75v-2H315l17.32,23.74V37.86c0-2.27-.35-3.76-1.06-4.48s-2.09-1.08-4.13-1.11V30.4h12.16v1.87c-1.84.08-3.09.5-3.76,1.24s-1,2.2-1,4.35V62.63h-1.74L313.42,36.2V54.4q0,3.32,1.11,4.44c.73.75,2.1,1.13,4.08,1.13v1.87Z"></path><path class="cls-1" d="M342.77,61.84v-2h2.34a2.85,2.85,0,0,0,1.87-.45,2.19,2.19,0,0,0,.49-1.66V34.54A2.14,2.14,0,0,0,347,32.9a2.92,2.92,0,0,0-1.87-.44h-2.34V30.4H357v2.06h-2.34a2.82,2.82,0,0,0-1.84.43,2.17,2.17,0,0,0-.48,1.65V57.69a2.22,2.22,0,0,0,.48,1.67,2.82,2.82,0,0,0,1.84.44H357v2Z"></path><path class="cls-1" d="M376.16,62.63h-1.71l-11-28.26a3.29,3.29,0,0,0-1-1.6,4.66,4.66,0,0,0-2.12-.31h-1V30.4h13.37v2.06H371.1a5.29,5.29,0,0,0-2.08.26.93.93,0,0,0-.52.91,3.27,3.27,0,0,0,.09.7,4.6,4.6,0,0,0,.25.83l7.7,19.66,6.84-17.58a9.69,9.69,0,0,0,.43-1.37,5,5,0,0,0,.15-1.11,2,2,0,0,0-.77-1.75,4.08,4.08,0,0,0-2.38-.55H379.6V30.4H391v2.06h-.3a4.17,4.17,0,0,0-2.62.73,7.05,7.05,0,0,0-1.78,3Z"></path><path class="cls-1" d="M392.58,61.84v-2h2.25a2.81,2.81,0,0,0,1.85-.44,2.27,2.27,0,0,0,.47-1.67V34.54a2.23,2.23,0,0,0-.47-1.64,2.81,2.81,0,0,0-1.85-.44h-2.25V30.4h25.47l.55,11.12h-1.87a20.86,20.86,0,0,0-1.19-4.67A7.54,7.54,0,0,0,413.69,34a6.59,6.59,0,0,0-2.89-1.22,27.9,27.9,0,0,0-5.21-.37,6.81,6.81,0,0,0-3.11.42,2.06,2.06,0,0,0-.59,1.74v10h.62q3.38,0,4.82-1.32t1.74-4.69h1.83V52.36h-1.83c-.19-2.26-.77-3.81-1.72-4.68s-2.56-1.3-4.84-1.3h-.62V57.69a2,2,0,0,0,.64,1.8,7.69,7.69,0,0,0,3.4.44,36.14,36.14,0,0,0,4.94-.27,10,10,0,0,0,3.07-.86A5.58,5.58,0,0,0,416.33,56a26.77,26.77,0,0,0,1.72-6.07h1.65l-.65,11.93Z"></path><path class="cls-1" d="M424.1,61.84v-2h2.25a2.81,2.81,0,0,0,1.85-.44,2.27,2.27,0,0,0,.47-1.67V34.54a2.23,2.23,0,0,0-.47-1.64,2.81,2.81,0,0,0-1.85-.44H424.1V30.4h17.41a9.33,9.33,0,0,1,6.37,2.12,7.08,7.08,0,0,1,2.43,5.6,6.51,6.51,0,0,1-2.41,5.35q-2.4,2-7.22,2.47a6.5,6.5,0,0,1,6.14,5.63L448,56.48a6.41,6.41,0,0,0,.81,2.19,1.34,1.34,0,0,0,1.14.68c.59,0,1-.36,1.3-1.09a11.14,11.14,0,0,0,.49-3.46l1.66,0c0,.13,0,.3,0,.52s0,.38,0,.48a8.16,8.16,0,0,1-1.37,5.07,4.64,4.64,0,0,1-3.9,1.78,4.47,4.47,0,0,1-3.61-1.39A8.91,8.91,0,0,1,443,56.48l-.47-4.36a6.13,6.13,0,0,0-1.86-4.24c-1-.85-2.66-1.28-4.9-1.28h-2.33V57.69a2.32,2.32,0,0,0,.45,1.67,2.7,2.7,0,0,0,1.8.44h2.7v2Zm9.31-27.55V44.51l2.12.09.59,0h.9q4.39,0,6.38-1.47c1.32-1,2-2.56,2-4.76s-.53-3.7-1.6-4.63-2.85-1.4-5.33-1.4h-2.82a2.94,2.94,0,0,0-1.77.37A2,2,0,0,0,433.41,34.29Z"></path><path class="cls-1" d="M460.48,59.35l-1.83,3h-1.53l-.21-12.63h1.78q1,5.35,3.66,8.15a9.15,9.15,0,0,0,6.89,2.78A8.11,8.11,0,0,0,474.66,59a5.68,5.68,0,0,0,1.93-4.58,5.47,5.47,0,0,0-.5-2.41,4.5,4.5,0,0,0-1.41-1.73,18.48,18.48,0,0,0-5.19-1.87l-1.95-.51q-6.24-1.68-8.28-3.68a7.58,7.58,0,0,1-2.06-5.7,8.52,8.52,0,0,1,2.52-6.45,9.38,9.38,0,0,1,6.77-2.41,12.72,12.72,0,0,1,4.45.76,11.2,11.2,0,0,1,3.7,2.28l1.67-2.62h1.62l.49,11.31h-1.7a14.83,14.83,0,0,0-3.81-7.29,8.94,8.94,0,0,0-6.42-2.45A6.57,6.57,0,0,0,462.05,33,4.91,4.91,0,0,0,460.48,37q0,3.87,7.88,5.8c.5.11.88.21,1.15.28a33.71,33.71,0,0,1,5.19,1.6,10,10,0,0,1,2.59,1.67,7.8,7.8,0,0,1,2,2.91,10.3,10.3,0,0,1,.68,3.79,9,9,0,0,1-2.82,7.11q-2.82,2.52-8,2.52a13.58,13.58,0,0,1-4.81-.86A10.84,10.84,0,0,1,460.48,59.35Z"></path><path class="cls-1" d="M484.21,61.84v-2h2.34a2.83,2.83,0,0,0,1.87-.45,2.19,2.19,0,0,0,.49-1.66V34.54a2.14,2.14,0,0,0-.49-1.64,2.9,2.9,0,0,0-1.87-.44h-2.34V30.4h14.18v2.06h-2.34a2.84,2.84,0,0,0-1.84.43,2.17,2.17,0,0,0-.47,1.65V57.69a2.22,2.22,0,0,0,.47,1.67,2.83,2.83,0,0,0,1.84.44h2.34v2Z"></path><path class="cls-1" d="M519,57.69a2.27,2.27,0,0,0,.46,1.67,2.71,2.71,0,0,0,1.82.44H524v2H509.16v-2h2.78a2.76,2.76,0,0,0,1.83-.44,2.27,2.27,0,0,0,.47-1.67V34.37a3,3,0,0,0-.41-1.86q-.42-.45-2.46-.45a5,5,0,0,0-4.46,2.28c-1,1.53-1.8,4.24-2.32,8.13h-1.66l.6-12.07h26.12l.66,12.07h-1.66q-.92-6.27-2.47-8.34T521,32.06a2.15,2.15,0,0,0-1.61.46,3,3,0,0,0-.41,1.85Z"></path><path class="cls-1" d="M550.52,57.69a2.24,2.24,0,0,0,.47,1.66,2.6,2.6,0,0,0,1.78.45h2.7v2H540.72v-2h2.74a2.71,2.71,0,0,0,1.83-.46,2.22,2.22,0,0,0,.49-1.65V48.83l-8.8-14a6.1,6.1,0,0,0-1.68-2,4,4,0,0,0-1.9-.38h-.82V30.4H546v2.06H544.2a4.73,4.73,0,0,0-1.72.23.81.81,0,0,0-.53.77,1.52,1.52,0,0,0,.11.52,6.44,6.44,0,0,0,.53,1l6.93,10.93,5.7-9.93a4.69,4.69,0,0,0,.4-.87,2.85,2.85,0,0,0,.13-.81,1.5,1.5,0,0,0-.76-1.37,4.39,4.39,0,0,0-2.26-.46h-1.21V30.4H563v2.06h-.83a3.88,3.88,0,0,0-2,.44,5.64,5.64,0,0,0-1.62,1.94L550.52,48.6Z"></path><path class="cls-1" d="M574.63,46.13a19.4,19.4,0,0,1,1-6.43,15.46,15.46,0,0,1,3.06-5.24,14.06,14.06,0,0,1,4.85-3.62,15.54,15.54,0,0,1,12-.05,14,14,0,0,1,4.83,3.63,15.49,15.49,0,0,1,3.1,5.25,19.54,19.54,0,0,1,1,6.46,19.88,19.88,0,0,1-.93,6.35,14.87,14.87,0,0,1-2.9,5,14.46,14.46,0,0,1-4.94,3.81,15.86,15.86,0,0,1-12.32,0,14.26,14.26,0,0,1-5-3.82,15.17,15.17,0,0,1-2.93-5.08A19.56,19.56,0,0,1,574.63,46.13Zm5.65,0q0,7.34,2.3,10.92a8.63,8.63,0,0,0,14,0q2.31-3.61,2.32-10.88t-2.29-11a8.71,8.71,0,0,0-14,0Q580.28,38.77,580.28,46.13Z"></path><path class="cls-1" d="M605.89,61.84v-2h2.25a2.79,2.79,0,0,0,1.85-.44,2.22,2.22,0,0,0,.47-1.67V34.54A2.19,2.19,0,0,0,610,32.9a2.79,2.79,0,0,0-1.85-.44h-2.25V30.4h25.47l.55,11.12H630a20.86,20.86,0,0,0-1.19-4.67A7.43,7.43,0,0,0,627,34a6.54,6.54,0,0,0-2.89-1.22,27.83,27.83,0,0,0-5.21-.37,6.73,6.73,0,0,0-3.1.42,2,2,0,0,0-.6,1.74v10h.62q3.38,0,4.82-1.32t1.75-4.69h1.83V52.36h-1.83c-.2-2.26-.78-3.81-1.73-4.68s-2.56-1.3-4.84-1.3h-.62V57.69a2.27,2.27,0,0,0,.46,1.67,2.67,2.67,0,0,0,1.8.44h2.89v2Z"></path><path class="cls-1" d="M654.74,33.18V54.4q0,3.3,1.08,4.41c.71.74,2.08,1.13,4.09,1.16v1.87H647.28l0-1.87c2,0,3.4-.41,4.13-1.14s1.08-2.21,1.08-4.43V34.54A2.23,2.23,0,0,0,652,32.9a2.76,2.76,0,0,0-1.83-.44h-2.57V30.4h10.89l8.44,24,8.18-24h10.63v2.06h-2.32a2.66,2.66,0,0,0-1.79.43,2.21,2.21,0,0,0-.46,1.65V57.69a2.27,2.27,0,0,0,.46,1.67,2.65,2.65,0,0,0,1.79.44h2.32v2H671.66v-2h2.62a2.81,2.81,0,0,0,1.85-.44,2.27,2.27,0,0,0,.47-1.67V33.18l-9.76,28.66h-1.7Z"></path><path class="cls-1" d="M690,61.84v-2h2.34a2.85,2.85,0,0,0,1.87-.45,2.19,2.19,0,0,0,.49-1.66V34.54a2.14,2.14,0,0,0-.49-1.64,2.92,2.92,0,0,0-1.87-.44H690V30.4h14.18v2.06h-2.34a2.84,2.84,0,0,0-1.84.43,2.21,2.21,0,0,0-.47,1.65V57.69a2.27,2.27,0,0,0,.47,1.67,2.83,2.83,0,0,0,1.84.44h2.34v2Z"></path><path class="cls-1" d="M719.94,29.89h1.7l11.1,27.72a3.91,3.91,0,0,0,1.15,1.77,3.24,3.24,0,0,0,1.85.42l.42,0a4.23,4.23,0,0,1,.45,0v2.08h-13V59.76h1.66a6,6,0,0,0,2.15-.25.91.91,0,0,0,.5-.9,2.57,2.57,0,0,0-.1-.65,7.68,7.68,0,0,0-.3-.88l-2-5.47H713.8L712.46,55a12,12,0,0,0-.45,1.44,5.71,5.71,0,0,0-.17,1.18,1.79,1.79,0,0,0,.81,1.6,4.21,4.21,0,0,0,2.38.55h1.09v2.08H704.87V59.76h.36a4.23,4.23,0,0,0,2.68-.74,7.1,7.1,0,0,0,1.81-2.92Zm4.79,19.49-5.17-12.63-5,12.63Z"></path><path class="cls-1" d="M744.51,33.18V54.4c0,2.2.36,3.67,1.07,4.41s2.08,1.13,4.09,1.16v1.87H737.05l0-1.87c2,0,3.4-.41,4.12-1.14s1.09-2.21,1.09-4.43V34.54a2.23,2.23,0,0,0-.47-1.64,2.76,2.76,0,0,0-1.83-.44h-2.57V30.4h10.88l8.44,24,8.19-24h10.63v2.06h-2.32a2.69,2.69,0,0,0-1.8.43,2.26,2.26,0,0,0-.45,1.65V57.69a2.32,2.32,0,0,0,.45,1.67,2.69,2.69,0,0,0,1.8.44h2.32v2H761.43v-2H764a2.79,2.79,0,0,0,1.85-.44,2.22,2.22,0,0,0,.47-1.67V33.18L756.6,61.84h-1.7Z"></path><path class="cls-1" d="M778.94,61.84v-2h2.33a2.86,2.86,0,0,0,1.88-.45,2.24,2.24,0,0,0,.49-1.66V34.54a2.18,2.18,0,0,0-.49-1.64,2.93,2.93,0,0,0-1.88-.44h-2.33V30.4h14.18v2.06h-2.34a2.82,2.82,0,0,0-1.84.43,2.17,2.17,0,0,0-.48,1.65V57.69a2.22,2.22,0,0,0,.48,1.67,2.82,2.82,0,0,0,1.84.44h2.34v2Z"></path><rect class="cls-1" x="235.68" width="2.5" height="243.86"></rect><path class="cls-1" d="M150.35,110.33l0-80.06h48.3s-.06,89.48-.06,92.69c0,17.57-48.22,24.62-93.82,24.62,0-2.22,0-7.66,0-11.16C127.63,136.39,150.35,131.57,150.35,110.33Z"></path><path class="cls-1" d="M51.49,110.33V30.27H3.18s0,89.48,0,92.69c0,17.57,48.23,24.62,93.83,24.62,0-2.22,0-7.66,0-11.16C74.22,136.39,51.49,131.57,51.49,110.33Z"></path></svg> 