<?xml version="1.0" encoding="UTF-8"?> <svg xmlns="http://www.w3.org/2000/svg" viewBox="0 0 150 30.16"><defs><style>.cls-1{fill:maroon;}</style></defs><g id="Capa_2" data-name="Capa 2"><g id="Capa_1-2" data-name="Capa 1"><path class="cls-1" d="M149.17,2.13v0c0-.37,0-.84,0-1.33V.66l-.1,0c-.12,0-.74,0-1.34,0h-1.86c-.37,0-.71,0-1.16,0h0c-.08,0-.09.16-.1.2a.22.22,0,0,0,.07.19l.2,0c.51.06.53.12.53,1.19V5.93c0,1.06,0,1.12-.53,1.18l-.28,0,0,0a.23.23,0,0,0-.05.22.2.2,0,0,0,.09.16h0c.47,0,.81,0,1.25,0l1.34,0h0c.07,0,.09-.12.1-.2a.24.24,0,0,0-.07-.19l-.38,0c-.51,0-.55-.11-.55-1.18V4.53c0-.2,0-.2.26-.2h.69a3.36,3.36,0,0,1,.75,0c.14,0,.21.14.27.33l.1.42h0a.3.3,0,0,0,.38,0v0c0-.1,0-.24,0-.39s0-.39,0-.58,0-.42,0-.61,0-.3,0-.41v0a.21.21,0,0,0-.19-.08.24.24,0,0,0-.2.07l-.1.43c-.06.25-.13.27-.2.3a3.5,3.5,0,0,1-.83.06h-.69c-.26,0-.26,0-.26-.2V1.51c0-.33,0-.33.23-.33h.61a4.13,4.13,0,0,1,1,.06c.43.11.56.4.65.9v0l0,0a.23.23,0,0,0,.15,0,.24.24,0,0,0,.21-.1Zm-6.76,2A3.41,3.41,0,0,0,138.83.55a3.58,3.58,0,0,0-3.66,3.64,3.46,3.46,0,0,0,3.66,3.49,3.51,3.51,0,0,0,3.58-3.59Zm-1.17.31c0,2.07-1.22,2.81-2.27,2.81-2.08,0-2.64-2.1-2.64-3.35,0-2.09,1.26-2.84,2.33-2.84,1.91,0,2.58,1.82,2.58,3.38ZM133,21.57c0,4.35,3.23,8.19,8.6,8.19A8.25,8.25,0,0,0,150,21.33,8,8,0,0,0,141.61,13a8.35,8.35,0,0,0-8.6,8.53Zm2.41-.77c0-5.3,3.27-7,5.78-7,4.62,0,6.38,4.3,6.38,8.29,0,4.76-2.75,6.94-5.65,6.94-4.77,0-6.51-4.65-6.51-8.22ZM130.08,1.07a.22.22,0,0,0,.07-.19.2.2,0,0,0-.1-.18l0,0h0a12,12,0,0,1-1.9,0h0a.23.23,0,0,0-.1.16.25.25,0,0,0,.06.22l0,0,.21,0a.76.76,0,0,1,.35.1A10.07,10.07,0,0,1,128,2.4l0,.09c-.24.47-.52,1-.88,1.58-.26-.48-.52-1-.77-1.52L126,2a5.48,5.48,0,0,1-.3-.74s0-.07.35-.11l.16,0,0,0a.29.29,0,0,0,.06-.24.19.19,0,0,0-.12-.14h0q-.37,0-1.08,0c-.46,0-.83,0-1.16,0h0a.27.27,0,0,0-.1.15.28.28,0,0,0,.06.22l0,0,.31,0c.26.05.4.07.74.72l1.18,2.32a1.92,1.92,0,0,1,.32,1.22v.51c0,1.09,0,1.15-.54,1.2l-.34,0,0,0a.3.3,0,0,0-.05.22.21.21,0,0,0,.09.16h0l1.32,0,1.37,0h0a.21.21,0,0,0,.1-.16.26.26,0,0,0-.06-.22l0,0-.41,0c-.46,0-.53-.11-.53-1.2V5.38a2.26,2.26,0,0,1,.46-1.59l.64-1.1.16-.28c.4-.7.68-1.2,1.11-1.27l.31,0v0ZM126.55,13.4a14.25,14.25,0,0,0-3.07-.36c-3.65,0-6,1.13-7.66,2.82a8.31,8.31,0,0,0-2.18,5.73,7.62,7.62,0,0,0,2.23,5.49,10,10,0,0,0,7.37,2.68,19.33,19.33,0,0,0,4.33-.62,5.47,5.47,0,0,1,1.18-.22.2.2,0,0,0,0-.29c-.44-.17-.58-.75-.58-1.72V25.56c0-1.23,0-1.91,1-2l.39-.05a.41.41,0,0,0,0-.6c-.8,0-1.62.07-2.56.07-1.43,0-2.76,0-3.46-.07a.39.39,0,0,0,0,.6l1.06.12c1.5.17,1.57.31,1.57,2.35v1a2.7,2.7,0,0,1-.24,1.38c-.26.41-1.16.73-2.66.73-4.86,0-7.25-3.66-7.25-8.3,0-3.62,2.06-7,6.74-7,2.47,0,4.28.82,5,3.43.15.15.58.13.65-.07a28.61,28.61,0,0,1-.36-3.5,6.69,6.69,0,0,1-1.5-.22ZM122.43.56V.51a.21.21,0,0,0-.19-.09l-.09,0h0v0c-.13.23-.19.24-.72.24h-4.17c-.45,0-.65,0-.69-.24v0l0,0a.26.26,0,0,0-.14,0,.34.34,0,0,0-.15,0h0v0A10.08,10.08,0,0,1,115.81,2V2a.28.28,0,0,0,.38.09h0v0a1.76,1.76,0,0,1,.44-.67,2,2,0,0,1,1.18-.23h.56c.22,0,.22,0,.22.25v4.5c0,1.09-.06,1.14-.55,1.18l-.36,0h0a.24.24,0,0,0-.09.2c0,.07,0,.16.1.19h0l1.39,0,1.32,0h0c.08,0,.09-.16.1-.2a.24.24,0,0,0-.07-.19l-.36,0c-.51,0-.54-.11-.54-1.18V1.41c0-.1,0-.2,0-.21a.53.53,0,0,1,.2,0h.71a2,2,0,0,1,1.13.24,1.26,1.26,0,0,1,.22.68v0a.24.24,0,0,0,.19.07.22.22,0,0,0,.2-.1v0a5.9,5.9,0,0,1,.15-1.5Zm-9.18,5.35V2.32c0-1.1,0-1.17.54-1.21l.27,0h0a.24.24,0,0,0,.07-.19.24.24,0,0,0-.1-.2h0l-1.24,0c-.44,0-.78,0-1.27,0h0c-.08,0-.09.16-.1.2a.22.22,0,0,0,.07.19h0l.27,0c.52,0,.55.11.55,1.21V5.91c0,1.08,0,1.14-.55,1.2l-.28,0,0,0a.29.29,0,0,0,0,.22.2.2,0,0,0,.09.16h0l1.27,0,1.24,0h0a.24.24,0,0,0,.1-.2.24.24,0,0,0-.07-.19l-.29,0c-.52-.06-.54-.12-.54-1.2Zm-1.66,22.86c-1-.12-1.36-.48-2.06-2.56l-3.31-9.72c-.36-1.06-.75-2.17-1.06-3.24a.34.34,0,0,0-.37-.21,2.69,2.69,0,0,1-1.25.92,3.47,3.47,0,0,1-.41,1.71l-2.47,6.53c-1,2.71-1.69,4.28-2.13,5.39a1.58,1.58,0,0,1-1.45,1.18l-.79.08a.47.47,0,0,0,0,.6c.66,0,1.53-.07,2.32-.07,1.14,0,1.89,0,2.52.07a.38.38,0,0,0,0-.6l-.8-.08c-.58,0-.7-.19-.7-.48a9.34,9.34,0,0,1,.53-2l.85-2.53c.17-.51.31-.58.91-.58h3.65c.73,0,.83.07,1,.6l1.06,3.29a5,5,0,0,1,.31,1.28c0,.24-.33.39-.84.43l-.7.08a.4.4,0,0,0,.05.6c.7,0,1.61-.07,2.78-.07s1.93,0,2.92.07c.12-.1.17-.48,0-.6l-.65-.08Zm-6.24-6.57h-3c-.68,0-.7,0-.51-.58l1.52-4.21c.27-.72.51-1.3.58-1.42h0a16.11,16.11,0,0,1,.56,1.52l1.3,3.94c.22.65.17.75-.53.75Zm1-20.14c0-.39.14-1,1.12-1a1.24,1.24,0,0,1,1.29,1.08l0,0a.19.19,0,0,0,.15.06.26.26,0,0,0,.22-.1l0,0v0A4.52,4.52,0,0,0,109,.79l0-.05h0a1.15,1.15,0,0,1-.33-.05,3.75,3.75,0,0,0-1-.14,1.88,1.88,0,0,0-2.13,1.81,2.26,2.26,0,0,0,1.12,1.8l1,.63a1.44,1.44,0,0,1,.79,1.34,1.07,1.07,0,0,1-1.18,1.08,1.73,1.73,0,0,1-1.66-1.44v0a.2.2,0,0,0-.16-.06.27.27,0,0,0-.21.09l0,0v0a4.34,4.34,0,0,0,.28,1.45h0l0,0a3.27,3.27,0,0,0,1.61.38,2,2,0,0,0,2.22-1.94,2.32,2.32,0,0,0-1.3-2l-.8-.51a1.51,1.51,0,0,1-.82-1.17Zm-2.54,5.5a.16.16,0,0,0,.06-.15.14.14,0,0,0-.09-.12h0A1.11,1.11,0,0,1,103.1,7a10.67,10.67,0,0,1-2-2.66.43.43,0,0,1-.06-.14,2,2,0,0,0,1.28-1.75A1.55,1.55,0,0,0,101.43,1,3.6,3.6,0,0,0,99.71.68c-.92,0-1.63,0-2.25.09h0a.22.22,0,0,0-.1.18.23.23,0,0,0,.08.21h0l.34,0c.33,0,.38.11.38,1.1V5.93c0,1.06,0,1.12-.54,1.18l-.28,0,0,0a.24.24,0,0,0,0,.23.18.18,0,0,0,.09.14h0c.45,0,.81,0,1.26,0s.76,0,1.19,0h0a.26.26,0,0,0,.1-.17.24.24,0,0,0-.07-.21h0l-.24,0c-.51-.07-.53-.11-.53-1.18V4.66c0-.14,0-.14.39-.14s.52.09.65.28.33.51.51.78.35.56.48.75a2.35,2.35,0,0,0,2.15,1.3,1.49,1.49,0,0,0,.47-.06Zm-3-3.75a1.62,1.62,0,0,1-1,.25,3.44,3.44,0,0,1-.63,0,2,2,0,0,1,0-.28V1.4c0-.23,0-.25.57-.25a1.42,1.42,0,0,1,1.54,1.48,1.36,1.36,0,0,1-.48,1.18Zm-5.2,2.28V6a.25.25,0,0,0-.23-.14.18.18,0,0,0-.13,0l0,0a2.6,2.6,0,0,1-.68.94,2.94,2.94,0,0,1-1.25.14c-.84,0-1.06-.1-1.17-.21s-.17-.48-.17-1V4.43c0-.2,0-.2.26-.2h.58a3.46,3.46,0,0,1,.76,0c.14,0,.21.13.26.33l.09.39V5A.24.24,0,0,0,94,5.1a.22.22,0,0,0,.2-.09V5c0-.1,0-.23,0-.37s0-.39,0-.59,0-.43,0-.62,0-.29,0-.4V3a.22.22,0,0,0-.2-.09.24.24,0,0,0-.19.07l-.1.45c0,.23-.1.26-.19.29a3.38,3.38,0,0,1-.83.06h-.58c-.26,0-.26,0-.26-.21v-2c0-.33,0-.33.23-.33h.72a4.66,4.66,0,0,1,1,.06c.46.11.55.41.69.84l0,.07,0,0a.2.2,0,0,0,.16.07.27.27,0,0,0,.21-.09l0,0,0-.15A9.19,9.19,0,0,0,94.75.74l0-.07-.07,0c-.11,0-.74,0-1.34,0h-1.9c-.38,0-.72,0-1.18,0h0a.24.24,0,0,0-.1.2.24.24,0,0,0,.07.19l.2,0c.51.06.54.13.54,1.19V5.93c0,1.09-.06,1.14-.55,1.18l-.36,0,0,0a.26.26,0,0,0-.06.22.24.24,0,0,0,.1.16h0l1.36,0h.91l2.7,0h0l0,0a9.32,9.32,0,0,0,.46-1.41Zm-6.91-5a.29.29,0,0,0,0-.22.22.22,0,0,0-.09-.16h0l-1,0c-.4,0-.78,0-1,0h0l0,0a.2.2,0,0,0-.1.17.23.23,0,0,0,.07.2l0,0,.2,0c.35,0,.39.11.39.11a1,1,0,0,1-.09.37c-.17.44-.65,1.59-.94,2.25-.07.18-.16.4-.27.65-.19.45-.42,1-.62,1.43-.48-1.09-.91-2.19-1.36-3.31-.29-.73-.46-1.25-.5-1.38s.11-.08.41-.12l.17,0,0,0A.23.23,0,0,0,84,.87a.23.23,0,0,0-.1-.17l0,0h0c-.45,0-.8,0-1.22,0s-.74,0-1,0h0l0,0a.2.2,0,0,0-.1.18.22.22,0,0,0,.07.19l0,0,.21,0c.39,0,.52.23.75.78l1.77,4.37a10.7,10.7,0,0,1,.46,1.33v0h0a.39.39,0,0,0,.18,0,.37.37,0,0,0,.15,0l0,0v0c.17-.54.66-1.72,1-2.62l.54-1.24c.47-1,.86-1.85,1.12-2.3a.58.58,0,0,1,.47-.32l.33,0,0,0Zm-6.58,14a8,8,0,0,0-3,6.41,7.78,7.78,0,0,0,3.43,6.65,10.6,10.6,0,0,0,6,1.61,14.49,14.49,0,0,0,3.82-.55,4.53,4.53,0,0,1,.84-.24,9,9,0,0,0,1.16-3.31.5.5,0,0,0-.62-.1A5.18,5.18,0,0,1,88.62,29c-4,0-7.18-2.81-7.18-7.89s3.15-7.34,6.84-7.34c3.51,0,4.6,1.88,5,3.53a.51.51,0,0,0,.65-.05c-.19-1.48-.31-3-.34-3.56a1.72,1.72,0,0,1-.67-.09A18.42,18.42,0,0,0,88.6,13a10.41,10.41,0,0,0-6.53,2.05ZM79,5.91V2.32c0-1.09,0-1.17.54-1.21l.28,0h0a.21.21,0,0,0,.07-.19s0-.16-.1-.2h0L78.5.71c-.43,0-.78,0-1.27,0h0c-.09,0-.1.16-.1.2a.2.2,0,0,0,.07.19h0l.27,0c.5,0,.54.12.54,1.21V5.91c0,1.08,0,1.14-.55,1.2l-.27,0,0,0a.27.27,0,0,0-.06.22.19.19,0,0,0,.1.16h0l1.27,0,1.25,0h0c.09,0,.1-.16.1-.2a.21.21,0,0,0-.07-.19l-.28,0C79,7.05,79,7,79,5.91ZM73.92,25.7V17.1c0-2.56,0-3,1.48-3.1l.6,0c.15-.1.1-.54,0-.61-1.21.05-2,.07-3,.07s-1.84,0-3-.07c-.14.07-.19.51,0,.61l.61,0c1.42.12,1.47.54,1.47,3.1v8.6c0,2.57,0,2.9-1.47,3.07l-.61.08a.48.48,0,0,0,0,.6c1.21-.05,2-.07,3-.07s1.79,0,3,.07c.14-.07.19-.51,0-.6l-.6-.08c-1.43-.17-1.48-.5-1.48-3.07ZM75.17,1.07a.3.3,0,0,0,.07-.21.23.23,0,0,0-.1-.16l0,0h0c-.33,0-.59,0-1,0s-.69,0-1.19,0h0a.18.18,0,0,0-.11.15.23.23,0,0,0,.07.23l0,0,.19,0c.35,0,.52.1.57.17a6.13,6.13,0,0,1,.19,2V5.48a2.44,2.44,0,0,1,0,.28c-.35-.36-.71-.77-1.17-1.27l-1.4-1.58A11.4,11.4,0,0,1,69.5.73l0,0h-.07L69,.71c-.17,0-.71,0-1.13,0h0a.23.23,0,0,0-.1.15.26.26,0,0,0,.06.23l0,0,.2,0a1,1,0,0,1,.57.22.83.83,0,0,1,.2.67V5a9.21,9.21,0,0,1-.12,2s-.11.12-.38.15l-.3,0,0,0a.27.27,0,0,0-.06.2.24.24,0,0,0,.09.17l0,0h0c.35,0,.62,0,1,0l1.18,0h0l0,0a.23.23,0,0,0,.09-.15.27.27,0,0,0-.06-.21l0,0-.34,0c-.25,0-.42-.07-.46-.15a6.81,6.81,0,0,1-.17-2V2.72a3.94,3.94,0,0,1,0-.51L70,3l.41.49,2.34,2.66C73.53,7,73.9,7.45,74,7.65l0,0h0a.25.25,0,0,0,.26-.17h0v0c0-.12,0-.52,0-1.75V3.18a7.35,7.35,0,0,1,.14-1.9s.13-.11.51-.17l.16,0,0,0Zm-9,0a.22.22,0,0,0,0-.21A.19.19,0,0,0,66.1.7l0,0h0c-.35,0-.62,0-1.06,0s-.76,0-1.14,0h0l0,0a.26.26,0,0,0-.09.15.23.23,0,0,0,.06.2l0,0,.28,0c.23,0,.39.08.44.17a6.3,6.3,0,0,1,.19,2.05V4.48c0,1.19-.34,2.6-1.94,2.6-1.34,0-2-.83-2-2.61V2.29c0-1.07,0-1.15.53-1.19l.27,0h0a.2.2,0,0,0,.07-.19.22.22,0,0,0-.1-.19h0c-.48,0-.82,0-1.24,0l-1.25,0h0a.21.21,0,0,0-.1.19.2.2,0,0,0,.07.19h0l.28,0c.49,0,.53.12.53,1.19V4.67a3,3,0,0,0,.81,2.44,2.93,2.93,0,0,0,1.94.57,2.74,2.74,0,0,0,2-.76,3.5,3.5,0,0,0,.72-2.46V3.32a8.89,8.89,0,0,1,.14-2c0-.1.22-.18.44-.2l.27,0,0,0ZM54.56,14c.15-.1.1-.54-.05-.61-1,.05-1.86.07-2.8.07s-1.86-.05-3.05-.07c-.14.07-.19.51,0,.61l.63,0c1.26.1,1.43.51,1.43,3.05v8.7c0,2.54-.05,2.78-1.4,3l-.41.08a.46.46,0,0,0,0,.6c1,0,1.77-.07,2.81-.07s1.76,0,3.07.07c.14-.07.19-.51,0-.6l-.7-.08c-1.36-.14-1.48-.48-1.48-3V22.34c0-.72.05-.77,1.21-.77h6.91c1.16,0,1.21.05,1.21.77v3.41c0,2.54,0,2.78-1.47,3l-.46.08a.45.45,0,0,0,.05.6c1.06-.05,1.93-.07,2.92-.07s1.77,0,2.93.07c.14-.07.19-.51,0-.6l-.58-.08C64,28.6,64,28.29,64,25.75v-8.7c0-2.54,0-2.9,1.45-3.05l.5,0c.15-.1.1-.54,0-.61-1.09.05-1.91.07-2.86.07s-1.81,0-2.92-.07c-.15.07-.2.51-.05.61l.46,0c1.42.15,1.47.51,1.47,3.05v2.78c0,.75,0,.77-1.21.77H53.86c-1.16,0-1.21,0-1.21-.77V17.05c0-2.54.05-2.9,1.45-3.05l.46,0Zm-1-7.87V6a.25.25,0,0,0-.24-.14.2.2,0,0,0-.13,0l0,0a2.6,2.6,0,0,1-.68.94,3,3,0,0,1-1.26.14c-.83,0-1-.1-1.16-.21s-.17-.48-.17-1V4.43c0-.2,0-.2.26-.2h.58a3.46,3.46,0,0,1,.76,0c.14,0,.21.13.25.33l.09.39,0,0a.24.24,0,0,0,.19.07.22.22,0,0,0,.2-.09V5c0-.1,0-.23,0-.37s0-.39,0-.59,0-.43,0-.62,0-.29,0-.4V3a.22.22,0,0,0-.2-.09.24.24,0,0,0-.19.07l-.1.45c0,.23-.1.26-.19.29a3.38,3.38,0,0,1-.83.06h-.58c-.26,0-.26,0-.26-.21v-2c0-.33,0-.33.23-.33h.72a4.66,4.66,0,0,1,1,.06c.46.11.55.41.69.85l0,.06,0,0a.2.2,0,0,0,.16.07.27.27,0,0,0,.21-.09l0,0,0-.15A9.19,9.19,0,0,0,52.78.74l0-.07-.06,0c-.12,0-.74,0-1.34,0h-1.9c-.39,0-.72,0-1.18,0h0a.24.24,0,0,0-.1.2.21.21,0,0,0,.07.19l.2,0c.51.06.54.13.54,1.19V5.93c0,1.09-.06,1.14-.55,1.18l-.36,0,0,0a.27.27,0,0,0-.06.22.19.19,0,0,0,.1.16h0l1.37,0h.91l2.7,0h0l0,0a9.32,9.32,0,0,0,.46-1.41Zm-8.42-.16V2.3c0-1.07,0-1.14.53-1.19l.21,0h0A.22.22,0,0,0,46,.89a.24.24,0,0,0-.1-.2h0c-.48,0-.82,0-1.18,0s-.79,0-1.22,0h0c-.08,0-.09.16-.09.2a.21.21,0,0,0,.07.19l.22,0c.52,0,.55.12.55,1.19V3.46c0,.25,0,.25-.43.25H40.88c-.43,0-.43,0-.43-.25V2.3c0-1.07,0-1.14.54-1.19l.19,0h0a.21.21,0,0,0,.08-.19s0-.16-.1-.2h0c-.46,0-.8,0-1.17,0h-.74l-.52,0h0a.24.24,0,0,0-.1.2.24.24,0,0,0,.07.19h0l.28,0c.44,0,.52.13.52,1.19V5.93c0,1.05,0,1.09-.52,1.18l-.19,0h0a.23.23,0,0,0-.05.22.18.18,0,0,0,.09.16h0l.4,0H40l1.28,0h0a.26.26,0,0,0,.1-.2.24.24,0,0,0-.07-.19l-.33,0c-.48-.05-.55-.1-.55-1.18V4.51c0-.25,0-.25.43-.25h2.88c.43,0,.43,0,.43.25V5.93c0,1.07,0,1.09-.55,1.18l-.22,0h0a.3.3,0,0,0,0,.22.21.21,0,0,0,.09.16h0l1.22,0,1.21,0h0a.24.24,0,0,0,.1-.2A.21.21,0,0,0,46,7.15l-.28,0c-.51-.06-.53-.12-.53-1.18ZM36.89.56V.5A.22.22,0,0,0,36.7.42l-.1,0h0l0,0c-.13.23-.18.24-.72.24H31.68c-.45,0-.65,0-.7-.24v0l0,0a.23.23,0,0,0-.14,0,.37.37,0,0,0-.15,0h0v0A10.41,10.41,0,0,1,30.26,2V2a.28.28,0,0,0,.38.09h0v0a1.86,1.86,0,0,1,.43-.67,2,2,0,0,1,1.19-.23h.55c.23,0,.23,0,.23.25v4.5c0,1.09-.07,1.14-.56,1.18l-.36,0h0a.21.21,0,0,0-.09.2.22.22,0,0,0,.09.19h0l1.4,0,1.31,0h0a.21.21,0,0,0,.1-.2.21.21,0,0,0-.07-.19l-.36,0c-.5,0-.53-.11-.53-1.18V1.42a1,1,0,0,1,0-.22.53.53,0,0,1,.2,0H35a1.94,1.94,0,0,1,1.12.24,1.11,1.11,0,0,1,.22.68v0l0,0a.21.21,0,0,0,.18.07.23.23,0,0,0,.21-.1v0a5.9,5.9,0,0,1,.15-1.5ZM30,21.5a7.79,7.79,0,0,0,3.44,6.65,10.6,10.6,0,0,0,6,1.61,14.56,14.56,0,0,0,3.82-.55,4.53,4.53,0,0,1,.84-.24,9,9,0,0,0,1.16-3.31.51.51,0,0,0-.63-.1A5.15,5.15,0,0,1,39.62,29c-4,0-7.18-2.81-7.18-7.89s3.14-7.34,6.84-7.34c3.51,0,4.6,1.88,5,3.53a.51.51,0,0,0,.65-.05c-.19-1.48-.31-3-.34-3.56a1.72,1.72,0,0,1-.67-.09A18.42,18.42,0,0,0,39.6,13a10.41,10.41,0,0,0-6.53,2.05A8,8,0,0,0,30,21.5Zm-6.28-4.08V.58A118.46,118.46,0,0,0,0,.58V17.42C1.08,28.84,11.77,30.18,11.87,30.16c1.91-.35,10.87-2.15,11.87-12.74ZM3.81,21.62a3.73,3.73,0,0,0,.71.31c.28.76,0,1.5-.16,1.19a7.63,7.63,0,0,1-.55-1.5Zm0-8.28h0s-1.51.93-2.47.48c.72-.39,3.2-2,3.88-2.42a.58.58,0,0,0,.55-.12c-.25,0-1.12.15-.68-.62.17.69,1.37.06,1.81,0,1.2-.28,1.2,1,1.09,1.54,0,.2.37.34.57.32-.34.85-.93,0-1,.37,0,.13-.43.23-.43.56s.18.21.2.55-.15.08-.11.44c.06.58,1-.08,1.41.08.19.08.33.25.52.22s0-.26,0-.34-.36-.21-.52-.46S8.81,13,9,12.82c.23,1.09,1.24.75,1.39,1.89.1.32-.35.68,0,1.2a1.87,1.87,0,0,0,0,2.08,1,1,0,0,0,.27,1.22,1.77,1.77,0,0,0,0,1.24c-.31,0-.25-1.75-2.12-1.8,0,0,0,.2,0,.29.22.39.52.37.46,1.29,0,.32-.21-.05-.31-.14a1,1,0,0,1-.5-.87,1.64,1.64,0,0,0-.63,1.67s-.17-.45-.36-.92c0,0,.77-1,.89-1.18,1.57-2.83-1,.91-1,.9A3.58,3.58,0,0,0,6.72,19a5.68,5.68,0,0,0,.64-.93c1.22-2.53-.72.85-.79.78s-.27-.29-.36-.23c0,.38-.11.33-.09.73a4.75,4.75,0,0,1-.94.9s-.07-.7,0-.72c.15-.19.75-.83.87-1,2-3.13-.93.75-.94.72a1.3,1.3,0,0,0-.35-.5,13.48,13.48,0,0,0,.81-1.21c1.21-2.49-1,1.1-1,1.09l-.12-.05a4.67,4.67,0,0,1,.15-1.13c.16-.83-.28-.17-.4,1.15a1.2,1.2,0,0,0-.48.14c.06.35.15.08.29.42s-.24,1.07.12,1.55c.15.19.15.16.13.28-.23,0-.37,0-.51.17A9.48,9.48,0,0,1,3.5,18a9.77,9.77,0,0,0,.13-1.48c-.08,0-1.4,3.38-1.72,4.05-.56-.19.34-3.13,1.49-4.55.11-.45-.6.46-1,.82s-.88.76-1.42.61c.69-.72,2.27-2.09,2.44-2.43s-1.07.91-2.37.46C1.87,15,3.82,14,3.82,13.34Zm2.33,6.4a3.07,3.07,0,0,0,.08.85c.14.48.07.33-.13.17a1.58,1.58,0,0,1-.38-.53c0-.15.1-.15.43-.49Zm3.13-7.66c-.19-.32.22-.63.22-.63,0,.9,1.15.28,1.75.57a.66.66,0,0,1,.31.33c-.65-.45-1.85.46-2.28-.27ZM2.48,4.85a.77.77,0,0,1,0-1.54.77.77,0,0,1,0,1.54Zm0,3.09a.77.77,0,1,1,0-1.54.77.77,0,0,1,0,1.54Zm2-3.34h-.9V3.72h.9V4.6Zm0,3.09h-.9V6.8h.9v.89ZM11.7,9.21a5.55,5.55,0,0,0-2-.58c-1.07-.07-3.23.78-4.89.67V2A8,8,0,0,0,7.44,2a4.71,4.71,0,0,1,4.26.12V9.21Zm1.83,1.18a.31.31,0,0,1-.21.35.54.54,0,0,0,.66-.29c.16.63-.48.66-.68.7,0,0,.32.1.34.31,0,.53.39.49.46.44s-.12.39-.51.1c-.06.07.11.17.14.43s0,.65.42.85c-.23.19-.51-.3-.54-.24s.33.25-.06,1.18c-.18-.11-.08-.09-.29-.34s-.22-.16-.09.06a1.59,1.59,0,0,1,.21,1.13c-.19-.08-.14-.23-.37-.44a1.13,1.13,0,0,0,.3.74,1.75,1.75,0,0,1,.56.89,9.53,9.53,0,0,1-.11,1.2c-.2,0-.36-.58-.41-.55a1.06,1.06,0,0,0,.39.88c.18.51.11.79.06.81s-.26-.53-.37-.43a2.36,2.36,0,0,1,0,2.19c-.11-.42-.16-.73-.3-1.2-.28.22-.35.55-.69.85a5.6,5.6,0,0,0-.56-2.14s-.45,1.16-.65,1.69a3,3,0,0,0,0,2.19c-.64-.91-.71-2.61-.15-2.84,0-.12,0-.52-.16-.47s0,.36-.18.55c-.42-.12-.23-.64-.19-.81.55-.66.21-.82.18-.8s-.11.34-.28.41A2.06,2.06,0,0,1,11,15.51c0-.26-.3.2-.52.19a1.19,1.19,0,0,1,1.08-1.44c-.18,0-.28-.09-.32-.24.29,0,1.19-.11,1-.82a1.38,1.38,0,0,1-.35.36c-.16.09-.33.1-.42,0,.42-.14.28-.64-.26-.49a.4.4,0,0,1-.43-.33c.12.13.37,0,.51-.06a.73.73,0,0,1,1.07.31s.28-.58-.59-.74A.77.77,0,0,0,11,11.7c-.19-.69-.78-.35-.76,0-.63-.46,0-1,.26-1.13s.14.57.45.48c.07,0-.24-.39-.12-.55.28-.16.27.21.41.07a.66.66,0,0,1,.58-.4c.64-.09,1.13.61,1.75.26Zm5.75-1.07c-1.39.1-4.27-.69-5-.69A3.72,3.72,0,0,0,12,9.22V2.11a5.37,5.37,0,0,1,3.43-.4,9.07,9.07,0,0,0,3.81.37V9.32Zm1.83-2.8c.77-.11.88.79.88.79h0a.76.76,0,0,0-.82,0,3.41,3.41,0,0,1-1.63.56V6.44s.16.29,1.57.08ZM22,4.63a1.52,1.52,0,0,1,0-.19c0-.14-.41-.22-.69-.1s-1.38.73-1.73.63V3.59a2,2,0,0,0,1.51,0,.86.86,0,0,1,.91.81,1.52,1.52,0,0,0,0,.19Zm-1,14.3a2.4,2.4,0,0,0-1.1.61,8.31,8.31,0,0,0-.54-3.27c-.29-.67.13,1.59.16,2.11,0,0-2.44-3.14-1-.71a4.47,4.47,0,0,0,1,1.06,2.94,2.94,0,0,1-.1,1c-.15.12-3.32-4.22-1.57-1.21A18.52,18.52,0,0,0,19.37,20a2,2,0,0,1-.42.61s-.73-.55-.74-.58c-.05-.34-.05-.65-.47-.42,0,0-1.56-1.82-.84-.54a2.21,2.21,0,0,0,.61.72,2.17,2.17,0,0,0-.32.68c0,.14-1.35-1.47-.83-.46.16.32.77.67.76.7a3,3,0,0,1-.19.54,13.5,13.5,0,0,1-1.24,1.1,2.38,2.38,0,0,1,.72-1.1,2.87,2.87,0,0,1,.47-.27.45.45,0,0,0-.25-.34,2.44,2.44,0,0,0-.72,0c.05-.27-.19-.87-.18-1.52a1.21,1.21,0,0,0-.66.52c-.07,1.09-.3.76-.52,1.54-.24-.33,0-.79-.22-1.1a2,2,0,0,1-.42-1.22c.08,0,.41-.41.11-1.17,0-1.2.48-1.66-.47-2.49.08,0,.14-.63.14-.63.7.37.56-.44.84-.6.43-.25.35-.51.16-.84,1.25.36-.06,1.21.51,1.23a.88.88,0,0,0,.86-.37c.19-.29,0-.47.49-.94.06,0,.2-.36-.22-.45-.09,0,0-.38,0-.38-.34.29-.44.69-1,.43a.55.55,0,0,0-.57.06.26.26,0,0,1,.17-.31c.59-.2.74-.43.7-.56-.08-.31-.1,0-.08-.32,0-.13.15-.31.28-.46.4-.48.68-.3.78-.26a1.46,1.46,0,0,1,.5-.25,2.73,2.73,0,0,1,1.62.31,1.29,1.29,0,0,0,.73.1.24.24,0,0,1-.18.23c-.14,0-.31,0-.3.1s.2.07.32.1c.67.18,1.53.78,1,.65-.06,0,.41.36.77.84l1.27,1.24c-.06.07-.5,0-1.91-1.32-.2.18,1.71,1.62,2.5,3.16a3.19,3.19,0,0,1-1.41-.68c-.54-.57-1.17-2-1.43-1.8,0,0,1,1.69,1.57,2.68A4.5,4.5,0,0,1,22.15,18c.08,2.67-.32,2.46-.32,2.46-.63-2.1-.92-4.54-1.83-5.67-.37-.45,1,2,1,4.15Zm-2.76,2.4c-.29.25-.47.34-.41.22s.12-.26.16-.36.25.14.25.14ZM18.08,21a4.32,4.32,0,0,0,.09-.58.36.36,0,0,0,0-.14s.61.51.65.53a3.61,3.61,0,0,1-.43.39c-.11-.09-.33-.18-.33-.2Zm2,.68c-.84.84-2.11.53-3.12,1S15.38,23.83,14.43,24c-.28.09-.33.23-.15.23a1.55,1.55,0,0,0,1.61.14c.31-.16,1.27-.7,1.44-.73a7.2,7.2,0,0,1-1.25,1.2,4.44,4.44,0,0,1-2.6.35c-.52-.1-.91.38-.78.37a.7.7,0,0,1,.77.2c.33.27.82.59,1.24.11a1,1,0,0,1,1.43.12c-.67,0-.6,1.16-1.86,1-.47,0-1.5-1.07-1.79-.74-.52.59,1.12,1.14.41,1.88s-1.41-.53-1.41-.53c.4.17,1.14.27.81-.38a1.86,1.86,0,0,1-.37-1c-.06-.24-1.52,1.89-2.49.92a8.13,8.13,0,0,0-1.85-1.52c1.85-.15,2.13.59,2.22.71.59.8,1.14,0,1.26-.16s.47-.52.37-.57a2.63,2.63,0,0,0-2.15-.13c1.31-1.8,2.33-.11,2.33-.11.15.09,0-1.07-1.33-1.14-.81,0-1.52.69-2.08.69a3.63,3.63,0,0,1-2.16-1.76,2.46,2.46,0,0,0,2.46.57c1.2-.72,2.71.36,2.78.23a2.84,2.84,0,0,0-3.15-.7C7.34,23.81,7,23,6.51,23a1.55,1.55,0,0,1,1.7-.34c.07,0-.34-.35-.64-.38a13.51,13.51,0,0,1-3.71-.86S4.05,21,5,21.29c0,0-.88-.53-.87-1.22,0-.43.23-.88-.09-1.24,1.32,0,.38,1.79,1.3,2.26a.63.63,0,0,1,.14-.78,1.47,1.47,0,0,0,1,.9.63.63,0,0,0,.17-.2,3.08,3.08,0,0,1-.3-2h0c.07,0,.2.26.29.46a5.42,5.42,0,0,0,.57,1.5,3.39,3.39,0,0,0,.53.67,1.26,1.26,0,0,0,0-.61,1.26,1.26,0,0,1,.3-1.34c.25.72.59.51.63.85a1.69,1.69,0,0,1,0,.78c0,.52.49.66.9,1a4.71,4.71,0,0,1,2,1.43c.2-1.1-2.76-1.32-2.38-3.43,0-.85.1-.92-.5-1.43,1.19,0,1.84,2,1.9,2.34.12.65.52.68,1.07,1.54A5.22,5.22,0,0,1,12,18.48a3.24,3.24,0,0,1,.22,1.7,2.85,2.85,0,0,0,0,1.1A2.39,2.39,0,0,1,13,19.73c.06.45.49,1.15.08,1.9-.5.91-.54.59-.54,1.71a4.39,4.39,0,0,1,.51-1.2c.72-.91.21-1.39.91-2.18.06.4.16.24.2.59.1.78-.72,1.64-.54,1.61s.54-.21.65-.8c0,0,.3.54,0,.72a1,1,0,0,0-.53,1.08c.4-.48.95-1,.86-1.69,0-.41.49-.58.57-1.53a.66.66,0,0,1,.34-.43c-.07.53.34,1.08-.13,1.74.11.06.51-.51,1.09-.3-1.17.21-.83,1.48-1.73,2.07-.27.18-.22.37-.3.4.8-.05,1.42-1,1.52-1.08.81-.54,1-.63,1.31-1.51.13-.34,0-.49.48-.94a3,3,0,0,1-.15,1.57c-.15.43-.66.8-.55.8A4.43,4.43,0,0,0,19.78,20,2.74,2.74,0,0,1,21,19.22c-.07.15-.37.39-.39.65A2.15,2.15,0,0,1,20.18,21c.14.17.4-.32.66-.07-.35.11-.51.5-.78.73Zm.36-.13a4.44,4.44,0,0,1-.72,1.76c-.27.39-.37-.36-.15-1.09a2.11,2.11,0,0,0,.87-.67Zm-1.64-16a.79.79,0,0,0-.23,0,.06.06,0,0,0,0,.12l.24,0c.06,0,0-.1,0-.12Zm-.25.3a1.19,1.19,0,0,0,.24,0c.07,0,.05-.09,0-.11a.72.72,0,0,0-.22,0c-.07,0-.1.09,0,.11Zm0,1.38A3.07,3.07,0,0,0,18.24,7c-.07,0-.2.15-.29.2a1.83,1.83,0,0,0-.28-.28c-.08,0-.31.26-.41.32.14,0,.35,0,.36.18s0,.75,0,.87a1.06,1.06,0,0,0,.31,0V7.36l.12-.07a2.27,2.27,0,0,0,.27.25l.28-.24c.07-.07,0-.11-.07-.06Zm-.38-1.09a1.25,1.25,0,0,0,.19-.55A.72.72,0,0,0,17.88,5a.94.94,0,0,0-.67.84c0,.22.18.67.57.68a2.64,2.64,0,0,1,.37-.32Zm-.24.08a1,1,0,0,1-.41-.4.46.46,0,0,1,.15-.6c.18.07.39.24.4.4a.83.83,0,0,1-.14.6Zm0-1.67.29-.32A1.84,1.84,0,0,1,18,4.05a5.86,5.86,0,0,1,0-.74c-.22-.19-.38-.22-.47-.2s-.36.25-.42.32a.15.15,0,0,0,0,.17l.13.08h0a.81.81,0,0,0-.2.45.78.78,0,0,0,.23.46,1,1,0,0,1,.48-.25.34.34,0,0,0,.16.23Zm-.18-.73a2.55,2.55,0,0,1-.52-.27s0,0,0-.09.14-.18.19-.17.33.15.32.23a2.45,2.45,0,0,1,0,.3Zm0,.43a.46.46,0,0,0-.23.07.49.49,0,0,1-.13-.59l-.06,0a1.9,1.9,0,0,0,.42.18v.37ZM16.89,3a4.63,4.63,0,0,1-.54,0,.51.51,0,0,1,0-.39c0-.08,0-.11-.07,0a1.19,1.19,0,0,1-.49.5c-.12,0,.15.16.13.16a3.57,3.57,0,0,0,.11.94c0,.11.16.29.25.23s.17-.27.21-.3,0-.14-.06-.09-.11,0-.13-.08a3.87,3.87,0,0,1,0-.74l.59-.07s0-.12,0-.12ZM15.4,4.19l.23-.29a.47.47,0,0,1-.34-.19V3l-.23-.23H15l-.35.32c0,.05,0,.05.1,0l.26.15v.69a.57.57,0,0,0,.2.27Zm-.19-1.6.13-.11V2.31l-.17-.17L15,2.28v.21l.11.1Zm-.57-.22a3.2,3.2,0,0,0-.53,0c-.12,0-.12.07,0,.08s.11,0,.16.16a2.47,2.47,0,0,1-.24.85,4.57,4.57,0,0,1-.31-.7c0-.06.11-.11.16-.12s.08-.09,0-.1-.86-.09-1-.1-.13.09,0,.09a.3.3,0,0,1,.33.14,8.07,8.07,0,0,1,.66,1.49c.05-.08.48-1.31.5-1.44a.41.41,0,0,1,.25-.29c.12,0,.11-.08,0-.09Zm-2,3c0,.52.21.56.44.69a1.26,1.26,0,0,0,.86,0c.11,0,.17,0,.16,0a0,0,0,1,0,.08,0s0-.47,0-.51a0,0,0,1,0-.08,0,.25.25,0,0,1-.07.19.58.58,0,0,1-.92-.07c-.09-.12-.17-.28-.07-.31a3.88,3.88,0,0,1,.61,0,3.12,3.12,0,0,1,.44.06s.08,0,.08,0V5.18s-.05,0-.08,0a2.58,2.58,0,0,1-.45.1,2.38,2.38,0,0,1-.59,0c-.1,0-.07-.23,0-.35a.62.62,0,0,1,1,0,.28.28,0,0,1,.06.19,0,0,0,0,0,.08,0V4.5s-.07-.06-.07,0-.08.06-.17,0a1.53,1.53,0,0,0-.84.13.85.85,0,0,0-.47.66Zm.09.91c0,.15.06,1.4,0,1.57s.12.2.25.29a1.46,1.46,0,0,1,.29-.34c.06,0,0-.09,0-.07s-.19,0-.2-.1,0-1.18,0-1.34Zm1,1a.78.78,0,0,0-.23.43.57.57,0,0,0,.17.39,1.82,1.82,0,0,1,.49-.35c0,.12.12.13.22.21l.32-.38s0-.09-.05,0-.11,0-.23-.1,0-.61,0-.64-.2-.26-.32-.25-.4.33-.45.41,0,.27,0,.3l0,0Zm.12.09c.1.06.15,0,.3,0v.23a1.91,1.91,0,0,1-.25.13c-.07-.06-.18-.11-.05-.37Zm-.08-.44c.07-.1.11-.12.16-.12s.22.13.21.21a2.1,2.1,0,0,1,0,.28.41.41,0,0,1-.38-.09.53.53,0,0,1,0-.28Zm1.08-.2c-.11.06.16.16.14.16,0,.3-.07.8,0,1a.27.27,0,0,0,.3.12c.1,0,.22-.22.25-.25s0-.11,0-.06a.19.19,0,0,1-.24,0,6.05,6.05,0,0,1,0-.73h.24s0-.12,0-.12-.22,0-.22,0a.59.59,0,0,1,0-.34c0-.09,0-.12-.07,0a1.11,1.11,0,0,1-.43.39Zm.06-1.37a1,1,0,0,1-.3.72c.28-.07.31-.24.47-.44a1.13,1.13,0,0,0,.35.34,3.05,3.05,0,0,0,.36-.36,1,1,0,0,1-.56-.39.25.25,0,0,1,0-.3c.05.08.44.25.61,0a.89.89,0,0,1-.42-.3c-.05,0-.22.23-.31.29a.46.46,0,0,0-.31-.24,2.75,2.75,0,0,1-.48.34s0,.11,0,.09l.25-.15a.48.48,0,0,1,.28.44Zm1.34,0a.46.46,0,0,1,.21-.29c.08.08.16.18.28.18a.4.4,0,0,0,.27-.1c-.09-.07-.31-.3-.36-.35s-.59.31-.63.6.08.51.26.74a.36.36,0,0,0,.36.12c.09-.06.4-.36.44-.39s0-.07-.05,0,0,.05-.08.06a.67.67,0,0,1-.39,0,.5.5,0,0,1-.31-.51ZM16,6.74c-.07.07-.19.15-.31.28.1,0,.18,0,.22.12a3.15,3.15,0,0,1,0,.63c0,.14.09.17.21.29a3.13,3.13,0,0,0,.54-.23c0,.11.14.25.23.27a2.32,2.32,0,0,1,.21-.18c-.09-.06-.08-.06-.11-.18s0-.52,0-.69a1.41,1.41,0,0,0-.29-.31l-.32.3c.1,0,.28,0,.29.11a2.64,2.64,0,0,1,0,.49c0,.18-.49.1-.5,0s0-.47,0-.63A.76.76,0,0,0,16,6.74ZM12.91,11h0a3.41,3.41,0,0,1-.73-.33.71.71,0,0,0-.71.18c0,.09.1.14.38,0a.3.3,0,0,0,0,.45.8.8,0,0,1-.3-.09c0,.09.1.13.16.17.47.19.77-.26,1.17-.34Zm-.77.24a.46.46,0,0,0,.12-.23.31.31,0,0,0-.12-.22,2.64,2.64,0,0,1,.44.23l-.44.22ZM9.61,7.7l.13-.14c-.15,0-.08,0-.16-.1V6.85l-.19-.28H9.31L9,6.86c-.08.07,0,.1.08,0l.2.1v.64c0,.08.09.1.18.2l.13-.13Zm.07-2.11a.57.57,0,0,0,.52.4,2,2,0,0,1,.21-.32c.08-.11,0-.17-.06,0s-.28,0-.36-.09-.19-.38-.1-.48.23,0,.39-.06.14-.11.16-.16L10.2,4.7A2.66,2.66,0,0,0,9.85,5a.59.59,0,0,0-.17.62Zm.43,1.6a.58.58,0,0,0-.19.4.4.4,0,0,0,.21.37,1.49,1.49,0,0,1,.48-.26,1.42,1.42,0,0,0,.28.23,1.94,1.94,0,0,1,.27-.24c0-.05,0-.11-.05-.05s-.15,0-.19,0a7,7,0,0,1,0-.77c-.1-.11-.27-.35-.38-.34a1,1,0,0,0-.46.33.62.62,0,0,0,0,.36Zm.43.06a.49.49,0,0,1-.36-.15.29.29,0,0,1,0-.23c.06-.09.06-.12.11-.12s.29.15.28.23a1.3,1.3,0,0,1,0,.27Zm-.32,0a.39.39,0,0,0,.32.06,1.36,1.36,0,0,0,0,.18.29.29,0,0,0,0,.09,1.13,1.13,0,0,0-.24.08c-.07-.06-.31-.23-.09-.41ZM11.15,6l.14-.15c-.16,0-.16,0-.24-.09v-.7l-.13-.2h-.07l-.31.28c-.08.08,0,.11.08,0l.16.1V6c0,.08.08.1.18.2L11.15,6Zm-.24-2.46c-.06,0-.16.11.21.15.06,0,.13-.13-.21-.15Zm0-.22c-.06,0-.16.17.21.15,0,0,.1-.13-.21-.15ZM11,4.45l-.16-.16-.16.14v.2l.1.1h.1L11,4.62V4.45ZM10.67,3c-.11-.07-.23-.25-.48-.26a.89.89,0,0,0-.65.37c-.12.2,0,.37.19.49l-.38.36a1,1,0,0,0,.51.19,1,1,0,0,0,.63-.25c.26-.2.17-.42-.09-.58l-.08,0a2.79,2.79,0,0,0,.35-.3ZM10,3.49l.27.14c.14.08.07.23-.08.3s-.43-.13-.47-.21L10,3.49Zm.27-.37-.16.13a.25.25,0,0,1-.12,0,.39.39,0,0,1-.26-.2c-.06-.08.1-.15.18-.14a.94.94,0,0,1,.36.2ZM9.2,3.69a.51.51,0,0,1-.6-.29,7.44,7.44,0,0,1,.58-.55c-.11-.1-.15-.26-.34-.28a.77.77,0,0,0-.62.68A.7.7,0,0,0,9,4c.11,0,.26-.15.33-.19s.1-.15-.08-.11Zm-.63-.38c-.1-.31-.06-.42.13-.58A.61.61,0,0,0,8.92,3c-.11.1-.28.3-.35.35ZM8.13,3c.06-.06,0-.11-.07-.06l-.21-.23a2,2,0,0,1-.29.18c-.06-.07-.14-.07-.27-.17A2.28,2.28,0,0,0,7,3c.15,0,.26,0,.27.18s0,.73,0,.85a.93.93,0,0,0,.29,0v-1L7.65,3a2.08,2.08,0,0,0,.21.22L8.13,3ZM6.91,4.67a.73.73,0,0,0-.48.38.62.62,0,0,0,0,.34l.06,0c-.11.1-.21.19-.21.34a.44.44,0,0,0,.27.35.57.57,0,0,1,.34-.23.32.32,0,0,0,.12.26c0-.06.27-.25.31-.29s0-.1,0-.05-.11,0-.13,0a6.36,6.36,0,0,1,0-.77c-.1-.1-.2-.33-.31-.32Zm0,.68c-.18.12-.24.12-.37,0a.28.28,0,0,1,0-.26c.06-.09.16-.18.21-.18a.4.4,0,0,1,.18.26,1.28,1.28,0,0,1,0,.21Zm0,.34a.34.34,0,0,0,0,.1l-.13,0c-.07-.06-.39-.16-.18-.33.13.07.18,0,.31-.06v.25ZM6.78,4.27a.26.26,0,0,1-.07-.14s0-.44,0-.49-.1-.05-.1,0a.47.47,0,0,1-.06.29.42.42,0,0,1-.75,0,.83.83,0,0,1-.11-.4.91.91,0,0,1,.11-.39.43.43,0,0,1,.76.06,2.43,2.43,0,0,1,0,.31s.09,0,.09,0,0-.66,0-.7-.08-.05-.08,0-.07.11-.14.08a1,1,0,0,0-.69,0,.81.81,0,0,0-.43.64.6.6,0,0,0,.41.67,1,1,0,0,0,.74,0c.1,0,.11,0,.16.11s.15,0,.09-.05ZM5.41,5a.68.68,0,0,0,0,.91A.55.55,0,0,0,6,6a1.61,1.61,0,0,1,.18-.28.6.6,0,0,1-.49-.11.58.58,0,0,1-.12-.73c.16-.23.39.1.43.15a1.65,1.65,0,0,1,.23-.22c-.09-.12-.16-.23-.22-.3A1.34,1.34,0,0,0,5.41,5Zm.12,2.26a.87.87,0,0,0,.59.84,3.53,3.53,0,0,1,.27-.4c.09-.1,0-.12-.08,0s-.39,0-.47-.14c.15-.1.52-.41.68-.54a1.25,1.25,0,0,1-.3-.49c-.14.09-.62.29-.69.78ZM6,6.72a1,1,0,0,0,.24.35,4.44,4.44,0,0,1-.44.34c-.13-.17-.21-.44.2-.69Zm1-.17a2.08,2.08,0,0,1-.3.27.58.58,0,0,1,.18.29c0,.12,0,.7,0,.85H7.1c0-.09,0-.85,0-1l.14-.12c.06,0,.18.07.18.15a5.4,5.4,0,0,1,0,.57A.57.57,0,0,0,7.48,8c.07-.07.32-.24.37-.29s0-.08,0-.06-.09,0-.09,0,0-.48,0-.73-.13-.33-.2-.36a3.17,3.17,0,0,1-.33.26A1.2,1.2,0,0,1,7,6.55Zm1-.61a1.26,1.26,0,0,0,.18-.21c.07-.05,0-.1,0-.05S8,5.62,8,5.61A2,2,0,0,1,7.88,5l.41,0s0-.12,0-.12-.33,0-.34,0a.63.63,0,0,1,0-.44c0-.08,0-.15,0-.07a1.53,1.53,0,0,1-.41.49c-.13.05-.11.08,0,.1A.22.22,0,0,1,7.63,5a2.07,2.07,0,0,0,0,.82c.06.1.22.2.29.13Zm1.26.13A.52.52,0,0,1,9,6.3a2.14,2.14,0,0,0,.25.21l.25-.26a.3.3,0,0,1-.25-.18Zm-.58-.32a5,5,0,0,0,.51,0c.25,0,.44-.4.34-.7s-.42-.23-.63-.3-.28-.17-.06-.31.56.09.59.15.08.08.08,0,0-.1,0-.32-.06-.08-.07,0-.1.05-.17.05a.86.86,0,0,0-.46.07c-.11.07-.37.27-.23.52s.59.26.72.34a.26.26,0,0,1,0,.39.69.69,0,0,1-.62,0,.52.52,0,0,1-.13-.27c0-.11-.11-.1-.11,0a3.91,3.91,0,0,0,0,.51c0,.09.1.06.11,0a.09.09,0,0,1,.1-.08Zm-.53,1c-.09.08.12.18.1.17,0,.3,0,.6.06.75s.27.16.3.07a1.06,1.06,0,0,1,.22-.3c.06-.06,0-.11-.05,0s-.17.06-.25,0a1.08,1.08,0,0,1,0-.47l.24,0s0-.11,0-.11-.24,0-.25,0a3.17,3.17,0,0,1,0-.46c0-.09,0-.12-.07,0a1.47,1.47,0,0,1-.33.51Z"></path></g></g></svg> 