<?xml version="1.0" encoding="utf-8"?>
<!-- Generator: Adobe Illustrator 27.2.0, SVG Export Plug-In . SVG Version: 6.00 Build 0)  -->
<svg version="1.1" id="Capa_3" xmlns="http://www.w3.org/2000/svg" xmlns:xlink="http://www.w3.org/1999/xlink" x="0px" y="0px"
	 viewBox="0 0 222 45" style="enable-background:new 0 0 222 45;" xml:space="preserve">
<style type="text/css">
	.st0{fill:#FFFFFF;}
</style>
<g>
	<path class="st0" d="M212.6,4.2L212.6,4.2c0-0.6,0-1.2,0-1.9V2.2l-0.2,0c-0.2,0-1,0-1.8,0h-2.5c-0.5,0-1,0-1.6,0h0h0
		c-0.1,0.1-0.2,0.2-0.2,0.2c0,0.1,0,0.2,0.1,0.2l0.2,0c0.7,0.1,0.7,0.2,0.7,1.6v5c0,1.4,0,1.5-0.7,1.6l-0.4,0l0,0
		c-0.1,0.1-0.1,0.2-0.1,0.3c0,0.1,0.1,0.2,0.2,0.2h0h0c0.6,0,1.1,0,1.7,0c0.6,0,1,0,1.8,0h0h0c0.1,0,0.2-0.2,0.2-0.2
		c0-0.1,0-0.2-0.1-0.2l-0.5-0.1c-0.7-0.1-0.8-0.2-0.8-1.6V7.5c0-0.2,0-0.2,0.4-0.2h1c0.5,0,0.8,0,1,0.1c0.2,0.1,0.3,0.2,0.4,0.4
		l0.2,0.6l0,0c0.2,0.1,0.4,0.1,0.5,0v0v0c0-0.2,0-0.3,0-0.6c0-0.2,0-0.6,0-0.8c0-0.3,0-0.6,0-0.8c0-0.2,0-0.4,0-0.6v0v0
		c-0.1-0.1-0.2-0.1-0.2-0.1c-0.1,0-0.2,0-0.2,0.1L211.5,6c-0.1,0.3-0.2,0.4-0.3,0.4c-0.2,0-0.6,0.1-1.1,0.1h-1c-0.4,0-0.4,0-0.4-0.2
		V3.3c0-0.4,0-0.4,0.3-0.4h0.8c0.6,0,1,0,1.3,0.1c0.6,0.2,0.8,0.6,0.9,1.2v0l0,0c0,0,0.2,0.1,0.2,0.1C212.5,4.4,212.5,4.4,212.6,4.2
		z M203.4,6.9c0-2.3-1.5-4.8-4.9-4.8c-2.9,0-5,2.1-5,5c0,2.4,1.7,4.8,5,4.8C201.3,11.8,203.4,9.8,203.4,6.9z M201.8,7.4
		c0,2.8-1.7,3.8-3.1,3.8c-2.9,0-3.6-2.9-3.6-4.6c0-2.9,1.7-3.9,3.2-3.9C200.9,2.8,201.8,5.2,201.8,7.4z M190.5,30.8
		c0,5.9,4.4,11.2,11.8,11.2c6.4,0,11.5-4.8,11.5-11.6c0-5.8-3.8-11.3-11.5-11.3C195.5,19.2,190.5,24.2,190.5,30.8z M193.8,29.8
		c0-7.2,4.4-9.6,7.9-9.6c6.3,0,8.7,5.9,8.7,11.3c0,6.5-3.8,9.5-7.8,9.5C196.2,41.1,193.8,34.7,193.8,29.8z M186.5,2.8
		c0.1-0.1,0.1-0.2,0.1-0.2c0-0.1-0.1-0.2-0.2-0.2h0h0c-1,0.1-1.6,0.1-2.6,0h0h0c-0.1,0-0.2,0.1-0.2,0.2c0,0.1,0,0.2,0.1,0.3l0,0
		l0.3,0c0.2,0,0.4,0.1,0.5,0.2c0,0.2-0.6,1.1-0.8,1.6l-0.1,0.1c-0.3,0.6-0.7,1.3-1.2,2.2c-0.4-0.6-0.7-1.4-1-2.1
		c-0.2-0.3-0.2-0.6-0.4-0.8c-0.1-0.2-0.4-0.9-0.4-1c0,0,0.1-0.1,0.5-0.2l0.2,0l0,0c0.1-0.1,0.1-0.2,0.1-0.3c0-0.1-0.1-0.2-0.2-0.2h0
		h0c-0.3,0-0.8,0-1.4,0c-0.6,0-1.2,0-1.6,0h0c-0.1,0-0.1,0.1-0.2,0.2c0,0.1,0,0.2,0.1,0.3l0,0l0.4,0.1c0.4,0.1,0.6,0.1,1,1l1.6,3.2
		c0.4,0.8,0.4,0.9,0.4,1.7v0.7c0,1.5,0,1.6-0.7,1.6l-0.5,0l0,0c-0.1,0.1-0.1,0.2-0.1,0.3c0,0.1,0.1,0.2,0.2,0.2h0h0
		c0.8,0,1.2,0,1.8,0c0.6,0,1,0,1.9,0h0h0c0.1,0,0.1-0.1,0.2-0.2c0-0.1,0-0.2-0.1-0.3l-0.1,0l-0.6,0c-0.6,0-0.7-0.2-0.7-1.6V8.7
		c0-1,0-1.1,0.6-2.2l0.9-1.5c0.1-0.2,0.2-0.2,0.2-0.4c0.6-1,1-1.6,1.5-1.7L186.5,2.8z M181.7,19.7c-0.6-0.2-2.3-0.5-4.2-0.5
		c-5,0-8.2,1.6-10.5,3.9c-2.1,2.2-3,5-3,7.8c0,2.9,1,5.6,3,7.5c2.5,2.6,6.2,3.6,10.1,3.6c1.8,0,4.2-0.4,5.9-0.9
		c0.6-0.2,1.2-0.3,1.6-0.3c0.2-0.1,0.2-0.3,0-0.4c-0.6-0.2-0.8-1-0.8-2.4v-1.8c0-1.7,0-2.6,1.4-2.8l0.6-0.1c0.2-0.2,0.2-0.7,0-0.8
		c-1.1,0.1-2.2,0.1-3.5,0.1c-2,0-3.8,0-4.8-0.1c-0.2,0.1-0.2,0.7,0,0.8l1.4,0.2c2.1,0.2,2.1,0.4,2.1,3.2v1.3c0,1-0.2,1.7-0.3,1.9
		c-0.4,0.6-1.6,1-3.6,1c-6.7,0-9.9-5-9.9-11.3c0-5,2.8-9.5,9.2-9.5c3.4,0,5.9,1.1,6.8,4.7c0.2,0.2,0.8,0.2,0.9-0.1
		c-0.3-2-0.5-3.7-0.5-4.8C183.4,20,182.3,19.8,181.7,19.7z M176.1,2.1L176.1,2.1c0-0.2-0.2-0.2-0.2-0.2s-0.1,0-0.2,0h0l0,0
		c-0.2,0.3-0.2,0.3-1,0.3h-5.7c-0.6,0-0.9,0-1-0.3v0l0,0c0,0-0.1-0.1-0.2-0.1c0,0-0.2,0-0.2,0l0,0v0c-0.1,0.6-0.3,1.4-0.5,2v0l0,0
		c0.1,0.2,0.4,0.2,0.5,0.2h0v0c0.2-0.3,0.3-0.6,0.6-0.9c0.3-0.3,1-0.3,1.6-0.3h0.8c0.3,0,0.3,0,0.3,0.3v6.2c0,1.5-0.1,1.6-0.8,1.6
		l-0.5,0h0c-0.1,0-0.2,0.2-0.1,0.3c0,0.1,0,0.2,0.2,0.2h0h0c0.8,0,1.3,0,1.9,0c0.6,0,1,0,1.8,0h0h0c0.1-0.1,0.2-0.2,0.2-0.2
		c0-0.1,0-0.2-0.1-0.2l-0.5-0.1c-0.7-0.1-0.7-0.2-0.7-1.6V3.3c0-0.2,0-0.3,0-0.3c0,0,0.2,0,0.3,0h1c0.7,0,1.2,0.1,1.5,0.3
		c0.2,0.1,0.2,0.4,0.3,1v0l0,0c0,0.1,0.2,0.1,0.2,0.1c0.2,0,0.2-0.1,0.3-0.2v0v0C175.8,3.8,175.9,2.6,176.1,2.1z M163.5,9.4V4.5
		c0-1.5,0-1.6,0.8-1.7l0.4,0h0c0.1,0,0.1-0.2,0.1-0.2c0,0,0-0.2-0.2-0.2h0h0c-0.6,0-1.1,0-1.7,0s-1,0-1.7,0h0h0
		c-0.1,0.1-0.2,0.2-0.2,0.2c0,0.1,0,0.2,0.1,0.2h0l0.4,0c0.7,0.1,0.8,0.2,0.8,1.7v4.9c0,1.5,0,1.6-0.8,1.6l-0.4,0l0,0
		c-0.1,0.1-0.1,0.2-0.1,0.3c0,0.1,0.1,0.2,0.2,0.2h0h0c0.7,0,1.2,0,1.7,0c0.6,0,1,0,1.7,0h0h0c0.1-0.1,0.2-0.2,0.2-0.2
		c0-0.1,0-0.2-0.1-0.2l-0.4-0.1C163.5,11,163.5,10.9,163.5,9.4z M161.2,40.7c-1.4-0.2-1.8-0.6-2.8-3.5l-4.5-13.3
		c-0.5-1.4-1-3-1.4-4.4c-0.1-0.2-0.3-0.3-0.5-0.3c-0.4,0.4-1,1-1.7,1.3c0.1,0.6-0.1,1.2-0.6,2.4l-3.4,9c-1.4,3.7-2.3,5.9-2.9,7.4
		c-0.5,1.2-1.2,1.6-2,1.6l-1.1,0.1c-0.2,0.2-0.2,0.7,0.1,0.8c0.9,0,2.1-0.1,3.2-0.1c1.6,0,2.6,0,3.4,0.1c0.3-0.2,0.3-0.6,0.1-0.8
		l-1.1-0.1c-0.8-0.1-1-0.2-1-0.6c0-0.4,0.2-1.3,0.7-2.8L147,34c0.2-0.7,0.4-0.8,1.3-0.8h5c1,0,1.1,0.1,1.3,0.8l1.4,4.5
		c0.2,0.8,0.4,1.4,0.4,1.7c0,0.3-0.5,0.6-1.2,0.6l-1,0.1c-0.2,0.2-0.2,0.7,0.1,0.8c1,0,2.2-0.1,3.8-0.1c1.5,0,2.6,0,4,0.1
		c0.2-0.2,0.2-0.6,0-0.8L161.2,40.7z M152.7,31.7h-4c-1,0-1,0-0.7-0.8l2.1-5.8c0.4-1,0.7-1.8,0.8-2h0.1c0.2,0.4,0.5,1.3,0.8,2.1
		l1.8,5.4C153.7,31.6,153.7,31.7,152.7,31.7z M154,4.2c0-0.6,0.2-1.4,1.5-1.4c1.2,0,1.6,0.8,1.8,1.5l0,0c0,0.1,0.1,0.1,0.2,0.1
		c0.1,0,0.2,0,0.3-0.2v0c0-0.6-0.1-1.3-0.2-1.7l0-0.1h-0.1c-0.1,0-0.3,0-0.5-0.1c-0.3-0.1-0.8-0.2-1.3-0.2c-1.7,0-2.9,1-2.9,2.5
		c0,1.3,1,2.1,1.5,2.5l1.3,0.9c1,0.6,1.1,1.2,1.1,1.8c0,0.7-0.5,1.5-1.6,1.5c-1.4,0-2-1.1-2.3-2v0c0-0.1-0.1-0.1-0.2-0.1
		c-0.1,0-0.2,0-0.3,0.2l0,0v0c0,0.6,0.2,1.6,0.4,2v0h0c0.2,0.2,1,0.6,2.2,0.6c1.8,0,3-1,3-2.6c0-1.1-0.6-2-1.8-2.8l-1.1-0.7
		C154.7,5.5,154,5,154,4.2z M150.6,11.7c0.1,0,0.1-0.2,0.1-0.2c0-0.1-0.1-0.2-0.1-0.2h0c-0.3,0-0.6-0.2-0.9-0.4
		c-1-0.8-1.7-2-2.8-3.6c-0.1-0.1-0.1-0.2-0.1-0.2c0.5-0.2,1.7-0.9,1.7-2.4c0-1.2-0.6-1.7-1.2-2c-0.7-0.4-1.6-0.4-2.4-0.4
		c-1.3,0-2.2,0-3.1,0.1h0c-0.1,0-0.2,0.2-0.2,0.2c0,0.1,0,0.2,0.1,0.3h0l0.5,0.1c0.4,0.1,0.5,0.2,0.5,1.5v5c0,1.4,0,1.5-0.7,1.6
		l-0.4,0l0,0c-0.1,0.1-0.1,0.2-0.1,0.3c0,0.1,0.1,0.2,0.2,0.2h0h0c0.6,0,1.1,0,1.7,0c0.6,0,1,0,1.6,0h0h0c0.1,0,0.1-0.2,0.2-0.2
		c0-0.1,0-0.2-0.1-0.3l0,0l-0.3,0c-0.7-0.1-0.7-0.2-0.7-1.6V7.7c0-0.2,0-0.2,0.6-0.2c0.6,0,0.7,0.2,0.9,0.4c0.2,0.3,0.5,0.7,0.7,1
		c0.2,0.4,0.5,0.8,0.6,1c1,1.3,1.7,1.8,2.9,1.8C150.2,11.8,150.4,11.8,150.6,11.7z M146.4,6.6c-0.4,0.3-1,0.3-1.3,0.3
		c-0.6,0-0.8,0-0.9,0c0-0.1,0-0.2,0-0.4V3.2c0-0.3,0-0.3,0.8-0.3c1.6,0,2.1,1.1,2.1,2C147.1,5.7,146.8,6.2,146.4,6.6z M139.3,9.7
		L139.3,9.7c-0.1-0.2-0.2-0.3-0.3-0.3c-0.1,0-0.2,0-0.2,0l0,0c-0.4,0.8-0.8,1.2-1,1.3c-0.3,0.2-0.7,0.2-1.7,0.2
		c-1.2,0-1.4-0.2-1.6-0.3c-0.2-0.2-0.2-0.6-0.2-1.4v-2c0-0.2,0-0.2,0.4-0.2h0.8c0.5,0,0.8,0,1,0.1c0.2,0,0.3,0.2,0.4,0.4l0.1,0.6
		l0,0c0,0.1,0.2,0.1,0.2,0.1c0.1,0,0.2,0,0.3-0.1v0V8.1c0-0.2,0-0.3,0-0.5c0-0.2,0-0.6,0-0.8c0-0.3,0-0.6,0-0.8c0-0.2,0-0.4,0-0.6v0
		v0c0-0.1-0.2-0.2-0.3-0.2s-0.2,0-0.2,0.1l-0.2,0.6c-0.1,0.3-0.2,0.4-0.2,0.4c-0.2,0-0.6,0.1-1.1,0.1h-0.8c-0.4,0-0.4,0-0.4-0.3V3.4
		c0-0.4,0-0.4,0.3-0.4h1c0.6,0,1,0,1.3,0.1c0.6,0.2,0.8,0.6,1,1.2l0,0.1v0c0,0.1,0.2,0.1,0.2,0.1c0.1,0,0.2,0,0.3-0.1l0,0l0-0.2
		c-0.1-0.8-0.2-1.5-0.2-1.7l-0.1-0.1l-0.1,0c-0.2,0-1,0-1.8,0h-2.6c-0.6,0-1,0-1.6,0h0h0c-0.1,0.1-0.2,0.2-0.2,0.2
		c0,0.1,0,0.2,0.1,0.2l0.2,0c0.7,0.1,0.8,0.2,0.8,1.6v5c0,1.5-0.1,1.6-0.8,1.6l-0.5,0l0,0c-0.1,0.1-0.1,0.2-0.1,0.3
		c0,0.1,0.1,0.2,0.2,0.2h0h0c0.8,0,1.3,0,1.9,0h1.2c1.2,0,2.4,0,3.7,0h0.1l0-0.1C138.8,11.2,139.2,10.2,139.3,9.7z M129.8,2.8
		c0.1-0.1,0.1-0.2,0.1-0.3c0-0.1-0.1-0.2-0.1-0.2h0h0c-0.5,0-0.9,0-1.3,0c-0.6,0-1,0-1.4,0h0h0c-0.1,0-0.2,0.2-0.2,0.2
		c0,0.1,0,0.2,0.1,0.3l0,0l0.3,0c0.5,0.1,0.6,0.2,0.6,0.2c0,0.1,0,0.2-0.1,0.5c-0.2,0.6-0.9,2.2-1.3,3.1c-0.1,0.2-0.2,0.6-0.4,0.9
		c-0.2,0.6-0.6,1.4-0.8,2c-0.6-1.5-1.3-3-1.8-4.5c-0.4-1-0.6-1.7-0.7-1.9c0,0,0.2-0.1,0.6-0.2l0.2,0l0,0c0.1-0.1,0.1-0.2,0.1-0.3
		c0-0.1-0.1-0.2-0.2-0.2h0h0c-0.6,0-1.1,0-1.7,0s-1,0-1.4,0h0h0c-0.1,0-0.2,0.2-0.2,0.2c0,0.1,0,0.2,0.1,0.2l0,0l0.3,0
		c0.6,0.1,0.7,0.3,1,1l2.4,6c0.3,0.7,0.5,1.3,0.6,1.8l0,0c0.1,0,0.2,0,0.2,0c0.1,0,0.2,0,0.2-0.1l0,0v0c0.2-0.7,0.9-2.4,1.4-3.6
		l0.8-1.7c0.6-1.4,1.2-2.5,1.5-3.2c0.2-0.3,0.4-0.4,0.6-0.4L129.8,2.8z M120.9,22c-2.5,2-4.2,5.1-4.2,8.8c0,4.3,2.1,7.3,4.7,9.1
		c2.4,1.6,5.2,2.2,8.2,2.2c2.1,0,4.5-0.5,5.2-0.8c0.4-0.2,0.8-0.2,1.2-0.3c0.5-0.6,1.3-2.8,1.6-4.5c-0.2-0.2-0.6-0.3-0.9-0.2
		c-0.8,2-2.6,4.8-6.9,4.8c-5.4,0-9.8-3.8-9.8-10.8c0-6.8,4.3-10.1,9.4-10.1c4.8,0,6.3,2.6,6.8,4.8c0.2,0.2,0.7,0.2,0.9-0.1
		c-0.2-2-0.4-4.1-0.5-4.8c-0.3,0-0.6,0-1-0.2c-1.6-0.4-4-0.8-5.9-0.8C126.3,19.2,123.3,20.1,120.9,22z M116.6,9.4V4.5
		c0-1.5,0-1.6,0.8-1.7l0.4,0h0c0.1,0,0.1-0.2,0.1-0.2c0,0,0-0.2-0.2-0.2h0h0c-0.6,0-1.1,0-1.7,0c-0.6,0-1,0-1.7,0h0h0
		C114,2.4,114,2.5,114,2.6c0,0.1,0,0.2,0.1,0.2h0l0.4,0c0.7,0.1,0.8,0.2,0.8,1.7v4.9c0,1.5,0,1.6-0.8,1.6l-0.4,0l0,0
		c-0.1,0.1-0.1,0.2-0.1,0.3c0,0.1,0.1,0.2,0.2,0.2h0h0c0.7,0,1.2,0,1.7,0c0.6,0,1,0,1.7,0h0h0c0.1-0.1,0.2-0.2,0.2-0.2
		c0-0.1,0-0.2-0.1-0.2l-0.4-0.1C116.7,11,116.6,10.9,116.6,9.4z M109.7,36.5V24.7c0-3.5,0.1-4,2-4.2l0.8-0.1
		c0.2-0.2,0.2-0.7-0.1-0.8c-1.7,0.1-2.8,0.1-4.1,0.1c-1.4,0-2.5,0-4.2-0.1c-0.2,0.1-0.2,0.7-0.1,0.8l0.8,0.1c2,0.2,2,0.7,2,4.2v11.8
		c0,3.5-0.1,4-2,4.2l-0.9,0.1c-0.2,0.2-0.2,0.7,0.1,0.8c1.7-0.1,2.8-0.1,4.2-0.1c1.3,0,2.5,0,4.1,0.1c0.2-0.1,0.2-0.7,0.1-0.8
		l-0.8-0.1C109.8,40.5,109.7,40,109.7,36.5z M111.4,2.8c0.1-0.1,0.1-0.2,0.1-0.3c0-0.1-0.1-0.2-0.2-0.2h0h0c-0.5,0-0.8,0-1.4,0
		c-0.5,0-1,0-1.6,0h0h0c-0.1,0-0.2,0.1-0.2,0.2c0,0.1,0,0.2,0.1,0.3l0,0l0.3,0c0.5,0.1,0.7,0.2,0.8,0.2c0.2,0.2,0.2,1.3,0.2,2.8v2.9
		c0,0.2,0,0.3,0,0.4c-0.5-0.5-1-1-1.6-1.7l-1.9-2.1c-1.4-1.5-2.1-2.5-2.3-3l0-0.1h-0.1c-0.2,0-0.4,0-0.6,0c-0.2,0-1,0-1.6,0h0h0
		c-0.1,0-0.1,0.1-0.2,0.2c0,0.1,0,0.2,0.1,0.3l0,0l0.2,0c0.4,0,0.6,0.2,0.8,0.3c0.2,0.3,0.3,0.6,0.3,0.9v4.1c0,0.6,0,2.2-0.2,2.7
		c0,0.1-0.2,0.2-0.5,0.2l-0.4,0l0,0c-0.1,0.1-0.1,0.2-0.1,0.2c0,0.1,0,0.2,0.1,0.2l0,0h0c0.5,0,0.8,0,1.4,0c0.5,0,1,0,1.6,0h0l0,0
		c0.1,0,0.1-0.1,0.1-0.2c0-0.1,0-0.2-0.1-0.3l0,0l-0.5,0c-0.3,0-0.6-0.1-0.6-0.2c-0.2-0.2-0.2-1.3-0.2-2.8v-3c0-0.2,0-0.5,0-0.7
		c0.2,0.2,0.6,0.7,0.9,1c0.2,0.2,0.4,0.5,0.6,0.6l3.2,3.6c1,1.2,1.6,1.8,1.8,2.1l0,0h0.1c0.2,0,0.3-0.1,0.4-0.2v0v0
		c0-0.2,0-0.7,0-2.4V5.7c0-0.7,0-2.2,0.2-2.6c0,0,0.2-0.2,0.7-0.2L111.4,2.8z M99.1,2.8c0.1-0.1,0.1-0.2,0.1-0.3S99.1,2.4,99,2.3h0
		h0c-0.5,0-0.9,0-1.4,0c-0.6,0-1,0-1.6,0h0l0,0c-0.1,0-0.1,0.1-0.1,0.2c0,0.1,0,0.2,0.1,0.3l0,0l0.4,0c0.3,0,0.6,0.1,0.6,0.2
		C97,3.4,97.1,4.4,97.1,6v1.6c0,1.6-0.5,3.6-2.6,3.6c-1.8,0-2.7-1.1-2.7-3.6v-3c0-1.4,0-1.6,0.7-1.6l0.4,0h0C93,2.8,93,2.6,93,2.6
		c0-0.1,0-0.2-0.2-0.2h0h0c-0.6,0-1.1,0-1.7,0c-0.6,0-1,0-1.7,0h0h0c-0.1,0-0.2,0.2-0.2,0.2c0,0.1,0,0.2,0.1,0.2h0l0.4,0
		c0.7,0.1,0.7,0.2,0.7,1.6v3.2c0,1.7,0.3,2.7,1.1,3.3c0.6,0.5,1.5,0.8,2.6,0.8c1.1,0,2.1-0.4,2.7-1c0.7-0.7,1-1.8,1-3.4V5.9
		c0-0.7,0-2.4,0.2-2.8c0.1-0.2,0.3-0.2,0.6-0.2L99.1,2.8z M83.2,20.4c0.2-0.2,0.2-0.7-0.1-0.8c-1.4,0.1-2.5,0.1-3.8,0.1
		c-1.4,0-2.5-0.1-4.2-0.1c-0.2,0.1-0.2,0.7-0.1,0.8l0.9,0.1c1.7,0.2,2,0.7,2,4.2v11.9c0,3.5-0.1,3.8-1.9,4.1l-0.6,0.1
		c-0.2,0.2-0.2,0.7,0.1,0.8c1.3,0,2.4-0.1,3.8-0.1c1.3,0,2.4,0,4.2,0.1c0.2-0.1,0.2-0.7,0.1-0.8l-1-0.1c-1.8-0.2-2-0.6-2-4.1v-4.7
		c0-1,0.1-1,1.7-1h9.4c1.6,0,1.7,0.1,1.7,1v4.7c0,3.5,0,3.8-2,4.1l-0.6,0.1c-0.2,0.2-0.2,0.7,0.1,0.8c1.4-0.1,2.6-0.1,4-0.1
		c1.3,0,2.4,0,4,0.1c0.2-0.1,0.2-0.7,0.1-0.8l-0.8-0.1c-1.9-0.2-2-0.6-2-4.1V24.7c0-3.5,0.1-4,2-4.2l0.7-0.1
		c0.2-0.2,0.2-0.7-0.1-0.8c-1.5,0.1-2.6,0.1-3.9,0.1c-1.3,0-2.5,0-4-0.1c-0.2,0.1-0.2,0.7-0.1,0.8l0.6,0.1c2,0.2,2,0.7,2,4.2v3.8
		c0,1-0.1,1-1.7,1h-9.4c-1.6,0-1.7,0-1.7-1v-3.8c0-3.5,0.1-4,2-4.2L83.2,20.4z M81.9,9.7L81.9,9.7c-0.1-0.2-0.2-0.3-0.3-0.3
		c-0.1,0-0.2,0-0.2,0l0,0c-0.4,0.8-0.8,1.2-1,1.3C80.1,11,79.6,11,78.6,11c-1.2,0-1.4-0.2-1.6-0.3c-0.2-0.2-0.2-0.6-0.2-1.4v-2
		c0-0.2,0-0.2,0.4-0.2H78c0.5,0,0.8,0,1,0.1c0.2,0,0.3,0.2,0.4,0.4l0.1,0.6l0,0c0,0.1,0.2,0.1,0.2,0.1c0.1,0,0.2,0,0.3-0.1v0V8.1
		c0-0.2,0-0.3,0-0.5c0-0.2,0-0.6,0-0.8c0-0.3,0-0.6,0-0.8c0-0.2,0-0.4,0-0.6v0v0c0-0.1-0.2-0.2-0.3-0.2s-0.2,0-0.2,0.1l-0.2,0.6
		c-0.1,0.3-0.2,0.4-0.2,0.4c-0.2,0-0.6,0.1-1.1,0.1h-0.8c-0.4,0-0.4,0-0.4-0.3V3.4c0-0.4,0-0.4,0.3-0.4h1c0.6,0,1,0,1.3,0.1
		c0.6,0.2,0.8,0.6,1,1.2l0,0.1l0,0c0,0.1,0.1,0.1,0.2,0.1c0.1,0,0.2,0,0.3-0.1l0,0V4c-0.1-0.8-0.2-1.5-0.2-1.7l0-0.1l-0.1,0
		c-0.2,0-1,0-1.8,0h-2.6c-0.6,0-1,0-1.6,0h0h0c-0.1,0.1-0.2,0.2-0.2,0.2c0,0.1,0,0.2,0.1,0.2l0.2,0c0.7,0.1,0.8,0.2,0.8,1.6v5
		c0,1.5-0.1,1.6-0.8,1.6l-0.5,0l0,0C74,11.2,74,11.3,74,11.4c0,0.1,0.1,0.2,0.2,0.2h0h0c0.8,0,1.3,0,1.9,0h1.2c1.2,0,2.4,0,3.7,0
		h0.1l0-0.1C81.5,11.2,81.8,10.2,81.9,9.7z M70.4,9.4v-5c0-1.5,0-1.6,0.7-1.6l0.3,0h0c0.1,0,0.1-0.2,0.1-0.2c0,0,0-0.2-0.2-0.2h0h0
		c-0.6,0-1.1,0-1.6,0c-0.6,0-1.1,0-1.7,0h0h0c-0.1,0.1-0.2,0.2-0.2,0.2c0,0.1,0,0.2,0.1,0.2l0.3,0C68.9,2.9,69,3,69,4.5v1.6
		c0,0.3,0,0.3-0.6,0.3h-4c-0.6,0-0.6,0-0.6-0.3V4.5c0-1.5,0-1.6,0.7-1.6l0.2,0h0C65,2.8,65,2.6,65,2.6c0,0,0-0.2-0.2-0.2h0
		c-0.6,0-1.1,0-1.6,0c-0.4,0-0.7,0-1,0c-0.2,0-0.5,0-0.7,0h0h0c-0.1,0.1-0.2,0.2-0.2,0.2c0,0.1,0,0.2,0.1,0.2h0l0.4,0
		c0.6,0,0.7,0.2,0.7,1.6v5c0,1.4,0,1.5-0.7,1.6l-0.2,0l0,0c-0.1,0.1-0.1,0.2-0.1,0.3c0,0.1,0.1,0.2,0.2,0.2h0h0c0.2,0,0.4,0,0.6,0
		c0.3,0,0.6,0,1,0c0.5,0,1,0,1.7,0h0h0c0.1,0,0.2-0.2,0.2-0.2c0-0.1,0-0.2-0.1-0.2L64.7,11c-0.6-0.1-0.8-0.2-0.8-1.6V7.5
		c0-0.3,0-0.3,0.6-0.3h4c0.6,0,0.6,0,0.6,0.3v2c0,1.5,0,1.5-0.8,1.6l-0.3,0l0,0c-0.1,0.1-0.1,0.2-0.1,0.3c0,0.1,0.1,0.2,0.2,0.2h0h0
		c0.6,0,1.1,0,1.7,0c0.6,0,1,0,1.7,0h0h0c0.1-0.1,0.2-0.2,0.2-0.2c0-0.1,0-0.2-0.1-0.2l-0.4-0.1C70.4,11,70.4,10.9,70.4,9.4z
		 M59.1,2.1L59.1,2.1c-0.1-0.2-0.2-0.2-0.3-0.2c0,0-0.1,0-0.2,0h0l0,0c-0.2,0.3-0.2,0.3-1,0.3h-5.7c-0.6,0-0.9,0-1-0.3v0v0
		c0,0-0.1-0.1-0.2-0.1c0,0-0.2,0-0.2,0l0,0v0c-0.1,0.6-0.3,1.4-0.5,2v0l0,0c0.1,0.2,0.4,0.2,0.5,0.2h0v0c0.2-0.3,0.2-0.6,0.6-0.9
		C51.4,3,52.1,3,52.8,3h0.8c0.3,0,0.3,0,0.3,0.3v6.2c0,1.5-0.1,1.6-0.8,1.6l-0.5,0h0c-0.1,0-0.2,0.2-0.1,0.3c0,0.1,0,0.2,0.2,0.2h0
		h0c0.8,0,1.3,0,1.9,0c0.6,0,1,0,1.8,0h0h0c0.1,0,0.2-0.2,0.2-0.2c0-0.1,0-0.2-0.1-0.2l-0.5-0.1c-0.7-0.1-0.7-0.2-0.7-1.6V3.3
		c0-0.2,0-0.3,0-0.3c0,0,0.2,0,0.3,0h1c0.7,0,1.2,0.1,1.5,0.3c0.2,0.1,0.2,0.4,0.3,1v0l0,0c0,0.1,0.2,0.1,0.2,0.1
		c0.2,0,0.2-0.1,0.3-0.2v0v0C58.8,3.8,58.9,2.6,59.1,2.1z M49.7,30.7c0,4.3,2.1,7.3,4.7,9.1c2.4,1.6,5.2,2.2,8.2,2.2
		c2.1,0,4.5-0.5,5.2-0.8c0.4-0.2,0.8-0.2,1.2-0.3c0.5-0.6,1.3-2.8,1.6-4.5c-0.2-0.2-0.6-0.3-0.9-0.2c-0.8,2-2.6,4.8-6.9,4.8
		c-5.4,0-9.8-3.8-9.8-10.8c0-6.8,4.3-10.1,9.4-10.1c4.8,0,6.3,2.6,6.8,4.8c0.2,0.2,0.7,0.2,0.9-0.1c-0.2-2-0.4-4.1-0.5-4.8
		c-0.3,0-0.6,0-1-0.2c-1.6-0.4-4-0.8-5.9-0.8c-3.4,0-6.5,1-9,2.8C51.3,23.9,49.7,27.1,49.7,30.7z M13.8,30.9c0.3,0.2,0.6,0.3,1,0.4
		c0.4,1,0,2.1-0.2,1.6C14.2,32.3,14,31.6,13.8,30.9z M13.8,19.6c0,0-2.1,1.3-3.4,0.6c1-0.6,4.4-2.7,5.3-3.3c0.4,0.1,0.6-0.1,0.8-0.2
		c-0.4,0-1.5,0.2-1-0.8c0.2,1,1.9,0.1,2.5-0.1c1.7-0.4,1.6,1.4,1.5,2.1c0,0.3,0.5,0.5,0.8,0.4c-0.5,1.2-1.3,0.1-1.4,0.5
		c0,0.2-0.6,0.3-0.6,0.8c0,0.6,0.2,0.3,0.2,0.8c0,0.5-0.2,0.1-0.2,0.6c0.1,0.8,1.4-0.1,1.9,0.1c0.2,0.1,0.4,0.4,0.7,0.3
		c0.1-0.1,0-0.4,0-0.5c0-0.2-0.5-0.3-0.7-0.6c-0.2-0.3,0.2-1.2,0.4-1.4c0.3,1.5,1.7,1,1.9,2.6c0.2,0.4-0.5,1,0,1.7
		c-0.4,0.4-0.8,2.1,0,2.8c-0.2,0.4-0.3,1.2,0.4,1.7c-0.2,0.5-0.2,1.1,0,1.7c-0.4,0-0.3-2.4-2.9-2.5c-0.1,0-0.1,0.2,0,0.4
		c0.3,0.6,0.7,0.5,0.6,1.8c0,0.4-0.3-0.1-0.4-0.2c-0.3-0.3-0.6-0.3-0.7-1.2c-1,0.8-1,1.8-0.9,2.3c0,0-0.2-0.6-0.5-1.3
		c0,0,1-1.3,1.2-1.6c2.1-3.9-1.4,1.3-1.4,1.2c-0.2-0.4-0.4-0.8-0.5-1c0,0,0.6-0.7,0.9-1.3c1.7-3.5-1,1.2-1.1,1.1
		c-0.2-0.2-0.4-0.4-0.5-0.3c0,0.6-0.2,0.5-0.1,1c-0.3,0.4-0.9,1-1.3,1.2c0,0-0.1-1-0.1-1c0.2-0.2,1-1.1,1.2-1.4c2.7-4.3-1.3,1-1.3,1
		c0-0.2-0.2-0.4-0.5-0.7c0,0,0.9-1.2,1.1-1.7c1.7-3.4-1.3,1.5-1.4,1.5c-0.1,0-0.1,0-0.2-0.1c-0.1,0,0.1-1,0.2-1.6
		c0.2-1.1-0.4-0.2-0.6,1.6c-0.2,0-0.6,0.1-0.6,0.2c0.1,0.5,0.2,0.1,0.4,0.6c0.2,0.6-0.3,1.4,0.2,2.1c0.2,0.2,0.2,0.2,0.2,0.4
		c-0.3,0-0.5,0-0.7,0.2c-0.4-1.7-0.4-2.6-0.3-4.3c0-0.8,0.3-2,0.2-2c-0.1,0-1.9,4.6-2.4,5.6c-0.7-0.3,0.6-4.3,2.1-6.3
		c0.2-0.6-0.8,0.6-1.4,1.1c-0.6,0.5-1.2,1-2,0.8c1-1,3.1-2.9,3.3-3.3c0.2-0.4-1.5,1.2-3.2,0.6C11.2,21.9,13.8,20.6,13.8,19.6z
		 M17,28.3c0,0.4,0,0.7,0.1,1.2c0.2,0.6,0.1,0.4-0.2,0.2c-0.2-0.2-0.4-0.4-0.6-0.7C16.4,28.8,16.6,28.8,17,28.3z M21.3,17.8
		c-0.2-0.4,0.3-0.9,0.3-0.9c0,1.2,1.6,0.4,2.4,0.8c0.2,0.1,0.3,0.2,0.4,0.4C23.5,17.6,21.9,18.9,21.3,17.8z M12,8
		c-1.4,0-1.4-2.1,0-2.1C13.4,5.9,13.4,8,12,8z M12,12.2c-1.4,0-1.4-2.1,0-2.1C13.4,10.1,13.4,12.2,12,12.2z M14.7,7.6h-1.2V6.4h1.2
		V7.6z M14.7,11.9h-1.2v-1.2h1.2V11.9z M24.6,14c0,0-1.3-0.7-2.8-0.8c-1.4-0.1-4.4,1.1-6.7,0.9v-10c0,0,2.6,0.4,3.6-0.1
		c3.6-1.4,5.8,0.2,5.8,0.2V14z M27.1,15.6c0.1,0.4-0.3,0.5-0.3,0.5c0.6,0.2,0.8-0.2,0.9-0.4c0.2,0.9-0.6,0.9-1,1
		c0,0,0.4,0.2,0.5,0.4c0.1,0.7,0.6,0.7,0.6,0.6c0,0.1-0.2,0.6-0.7,0.2c-0.1,0.1,0.2,0.2,0.2,0.6c0.1,0.5,0,0.9,0.6,1.2
		c-0.3,0.2-0.7-0.4-0.8-0.3c0,0.1,0.5,0.3-0.1,1.6c-0.2-0.2-0.1-0.1-0.4-0.5c-0.2-0.2-0.3-0.2-0.1,0.1c0.3,0.4,0.4,1.3,0.3,1.6
		c-0.2-0.1-0.2-0.3-0.5-0.6c0,0.1,0.1,0.7,0.4,1c0.6,0.5,0.8,1.1,0.8,1.2c0,0.5-0.1,1-0.2,1.6c-0.2,0-0.5-0.8-0.6-0.8
		c-0.1,0,0,0.7,0.6,1.2c0.2,0.7,0.2,1.1,0.1,1.1c-0.1,0-0.4-0.7-0.5-0.6c0.7,1.8,0.2,2.4,0,3c-0.2-0.6-0.2-1-0.4-1.7
		c-0.4,0.3-0.5,0.8-1,1.2c0-0.7-0.4-2.5-0.8-2.9c0,0-0.6,1.6-0.9,2.3c-0.4,1-0.4,2.1,0,3c-0.9-1.3-1-3.6-0.2-3.9
		c0.1-0.2,0-0.7-0.2-0.6c0,0.2,0,0.5-0.2,0.8c-0.6-0.2-0.3-0.9-0.2-1.1c0.8-0.9,0.3-1.1,0.2-1.1c-0.1,0.2-0.2,0.5-0.4,0.6
		c-0.5-0.8-0.2-2.1,0.8-3.1c0-0.4-0.4,0.3-0.7,0.2c-0.1-0.7,0.2-1.9,1.5-2c-0.2-0.1-0.4-0.1-0.4-0.3c0.4-0.1,1.6-0.2,1.4-1.1
		c-0.1,0.1-0.2,0.3-0.5,0.5c-0.2,0.2-0.4,0.2-0.6,0c0.6-0.2,0.4-0.9-0.4-0.7c-0.3,0.1-0.6-0.2-0.6-0.4c0.2,0.2,0.5,0,0.7-0.1
		c0.8-0.6,1.3,0.2,1.4,0.4c0,0,0.4-0.8-0.8-1c-0.1-0.3-0.4-0.8-1.2-0.7c-0.2-1-1.1-0.5-1,0c-0.9-0.6,0-1.4,0.4-1.6
		c0.2,0,0.2,0.8,0.6,0.6c0.1,0-0.3-0.5-0.2-0.8c0.4-0.2,0.4,0.3,0.6,0.1c0.1-0.3,0.5-0.5,0.8-0.6C25.6,15.1,26.3,16,27.1,15.6z
		 M35,14.1c-1.9,0.2-5.8-1-6.8-1c-2.1,0-3.1,0.8-3.1,0.8s0-9.4,0-9.8c0,0,2.7-1.3,4.7-0.6C32.2,4.5,35,4.1,35,4.1V14.1z M37.5,10.2
		c1-0.2,1.2,1.1,1.2,1.1c-0.2-0.2-0.8-0.3-1.1-0.1C36.4,12,35.4,12,35.4,12v-1.9C35.3,10.2,35.6,10.6,37.5,10.2z M38.7,7.7l0-0.2
		c0-0.2-0.6-0.3-1-0.2c-0.6,0.2-1.9,1-2.4,0.9V6.3c1.2,0.5,1.7,0,2.1,0c1.2,0,1.3,1.1,1.3,1.1C38.7,7.5,38.7,7.6,38.7,7.7z
		 M37.4,27.3c-0.4,0.1-1.3,0.5-1.5,0.8c0.1-2-0.6-4-0.7-4.4c-0.4-1,0.2,2.2,0.2,2.9c0,0-3.3-4.3-1.3-1c0.5,0.9,1.3,1.4,1.3,1.4
		c0,0.6,0,1-0.2,1.4c-0.2,0.2-4.5-5.8-2.1-1.7c0.3,0.5,2,2.1,2,2.1c-0.1,0.2-0.3,0.6-0.6,0.8c0,0-1-0.8-1-0.8
		c-0.1-0.5-0.1-0.9-0.6-0.6c0,0-2.1-2.5-1.2-0.8c0.4,0.8,0.7,0.8,0.8,1c0,0-0.3,0.4-0.4,1c0,0.2-1.8-2-1.2-0.6c0.2,0.4,1,1,1,1
		c-0.1,0.3-0.2,0.6-0.2,0.8c-0.1,0.2-1.7,1.5-1.7,1.5s0.3-1,1-1.5c0.4-0.3,0.4-0.2,0.6-0.4c0-0.2-0.2-0.4-0.3-0.5
		c-0.2-0.1-1,0.1-1,0.1c0.1-0.4-0.2-1.2-0.2-2.1c-0.3,0-0.8,0.5-0.9,0.7c-0.1,1.5-0.4,1-0.7,2.1c-0.3-0.4,0-1.1-0.3-1.5
		c-0.4-0.6-0.5-1-0.6-1.7c0.1-0.1,0.6-0.6,0.2-1.6c-0.1-1.6,0.6-2.3-0.6-3.4c0.1,0,0.2-0.9,0.2-0.9c1,0.5,0.8-0.6,1.2-0.8
		c0.6-0.4,0.5-0.7,0.2-1.2c1.7,0.5-0.1,1.7,0.7,1.7c0.6,0,1-0.1,1.2-0.5c0.2-0.4,0-0.6,0.7-1.3c0.1-0.1,0.2-0.5-0.3-0.6
		c-0.1,0,0-0.5,0-0.5c-0.4,0.4-0.6,1-1.3,0.6c-0.4-0.2-0.6,0-0.8,0.1c0,0-0.1-0.3,0.2-0.4c0.8-0.3,1-0.6,1-0.8
		c-0.1-0.4-0.2,0-0.1-0.4c0-0.2,0.2-0.4,0.4-0.6c0.6-0.6,1-0.4,1.1-0.4c0.3-0.2,0.4-0.2,0.7-0.4c0.5-0.2,1.6,0.2,2.2,0.4
		c0.3,0.2,0.6,0.2,1,0.2c0,0.2-0.2,0.3-0.2,0.3c-0.2,0.1-0.4,0-0.4,0.2c0,0.1,0.2,0.1,0.4,0.2c0.9,0.2,2.1,1,1.3,0.9
		c-0.1,0,0.6,0.5,1,1.2l1.7,1.7c-0.1,0.1-0.7,0-2.6-1.8c-0.3,0.2,2.4,2.2,3.4,4.3c-0.1,0.1-1.4-0.4-1.9-1c-0.8-0.8-1.6-2.8-2-2.5
		c0,0,1.4,2.3,2.1,3.6c0.4,0.7,0.6,1.7,0.7,2.4c0.1,3.6-0.4,3.4-0.4,3.4c-0.8-3-1.2-6.3-2.5-7.8C35.5,21,37.3,24.3,37.4,27.3z
		 M33.6,30.5C33.2,30.8,33,31,33,30.8c0.1-0.2,0.2-0.4,0.2-0.5C33.3,30.3,33.6,30.5,33.6,30.5z M33.4,30.1c0.1-0.3,0.1-0.5,0.1-0.8
		c0-0.1,0-0.1,0-0.2c0,0,0.8,0.7,0.9,0.7c-0.2,0.2-0.4,0.4-0.6,0.6C33.7,30.2,33.4,30.1,33.4,30.1z M36,31c-1.2,1.2-2.9,0.7-4.3,1.3
		c-1.2,0.5-2.1,1.6-3.4,1.9c-0.4,0.1-0.4,0.3-0.2,0.3c0.2,0,1,0.8,2.2,0.2c0.4-0.2,1.7-1,2-1c-0.7,0.7-1.1,1.3-1.7,1.6
		c-0.4,0.2-2,0.8-3.6,0.5c-0.7-0.1-1.2,0.6-1,0.6c0.4-0.1,0.8,0,1,0.3c0.5,0.4,1.1,0.8,1.7,0.2c0.2-0.2,1.1-0.7,2,0.2
		c-0.9,0-0.8,1.6-2.5,1.4c-0.6,0-2.1-1.4-2.5-1C25,38.2,27.2,39,26.2,40c-0.9,0.9-1.9-0.7-1.9-0.7c0.6,0.2,1.6,0.4,1.1-0.5
		c-0.2-0.4-0.5-0.7-0.5-1.3c-0.1-0.3-2.1,2.6-3.4,1.3C21,38.2,19.9,37,19,36.6c2.5-0.2,2.9,0.8,3,1c0.8,1.1,1.6,0,1.7-0.2
		c0.2-0.3,0.6-0.7,0.5-0.8c-1-0.5-2.1-0.6-2.9-0.2c1.8-2.5,3.2-0.2,3.2-0.2c0.2,0.1,0-1.4-1.8-1.6c-1.1-0.1-2.1,1-2.9,1
		c-0.6,0-2.5-1.3-3-2.4c1.1,0.8,2.5,1.3,3.4,0.8c1.6-1,3.7,0.5,3.8,0.3c-0.5-0.4-1.5-1.8-4.3-1c-1.1,0.6-1.6-0.5-2.2-0.5
		c1.1-1,1.9-0.5,2.3-0.5c0.1,0-0.5-0.5-0.9-0.5c-3.1-0.3-5.1-1.2-5.1-1.2s0.2-0.6,1.6-0.2c0,0-1.2-0.7-1.2-1.7
		c0-0.6,0.3-1.2-0.1-1.7c1.8-0.1,0.5,2.5,1.8,3.1c0,0-0.4-0.6,0.2-1.1c0.2,0.7,0.9,1.1,1.4,1.2c0.1-0.1,0.2-0.3,0.2-0.3
		c-0.5-0.8-0.6-1.7-0.4-2.8h0c0.1,0,0.3,0.4,0.4,0.6c0.2,0.6,0.2,1.4,0.8,2.1c0.3,0.4,0.5,0.7,0.7,0.9c0.1-0.2,0-0.7,0-0.8
		c-0.1-0.4-0.3-1.2,0.4-1.8c0.3,1,0.8,0.7,0.9,1.2c0.1,0.6,0.1,0.6,0,1c0,0.7,0.7,0.9,1.2,1.3c1.3,0.7,2.1,1.1,2.7,2
		c0.3-1.5-3.8-1.8-3.2-4.7c-0.1-1.2,0.2-1.3-0.7-2c1.6,0,2.5,2.7,2.6,3.2c0.2,0.9,0.7,1,1.4,2.1c0.1,0-1.3-3.1,0.4-5.8
		c0,0,0.6,1.4,0.3,2.3c-0.2,0.6,0,1.2,0,1.5c0,0.4-0.1-1.3,1.2-2.1c0.1,0.6,0.6,1.6,0.1,2.6c-0.7,1.2-0.7,0.8-0.8,2.3
		c0.1,0,0.2-1,0.7-1.6c1-1.2,0.3-1.9,1.2-3c0.1,0.6,0.2,0.3,0.2,0.8c0.2,1.1-1,2.2-0.7,2.2c0.3,0,0.7-0.3,0.9-1.1c0,0,0.4,0.8,0,1
		c-0.7,0.4-0.8,1-0.7,1.5c0.6-0.6,1.3-1.4,1.2-2.3c0.1-0.6,0.7-0.8,0.8-2.1c0-0.2,0.2-0.5,0.4-0.6c-0.1,0.7,0.5,1.5-0.2,2.4
		c0.2,0.1,0.7-0.7,1.5-0.4c-1.6,0.3-1.2,2.1-2.4,2.9c-0.4,0.2-0.3,0.5-0.4,0.6c1.1-0.1,2-1.4,2.1-1.5c1.1-0.8,1.3-0.9,1.8-2.1
		c0.2-0.5,0-0.6,0.6-1.3c0.2,0.6-0.1,1.9-0.2,2.1c-0.2,0.6-0.9,1.1-0.8,1.1c3-1.3,2.9-2.2,3.6-3.1c0.2-0.4,1.3-1,1.7-1
		c-0.1,0.2-0.5,0.5-0.6,0.9c0,0.6-0.2,1-0.6,1.6c0.2,0.2,0.6-0.4,0.9-0.1C36.6,30.1,36.4,30.7,36,31z M36.6,30.8
		c-0.2,0.9-0.5,1.7-1,2.4c-0.4,0.6-0.5-0.5-0.2-1.5C35.8,31.6,36.2,31.2,36.6,30.8z M34.3,9c-0.1,0-0.2,0-0.3,0
		c-0.1,0-0.2,0.2,0,0.2c0.1,0,0.2,0,0.3,0C34.4,9.1,34.4,9,34.3,9z M34,9.4c0.1,0,0.2,0,0.3,0c0.1,0,0.1-0.2,0-0.2
		c-0.1,0-0.2,0-0.3,0C33.9,9.2,33.8,9.4,34,9.4z M34,11.3c-0.1-0.1-0.2-0.2-0.4-0.3c-0.1,0.1-0.3,0.2-0.4,0.3
		c-0.1-0.1-0.2-0.2-0.4-0.4c-0.1,0.1-0.4,0.4-0.6,0.4c0.2,0,0.5,0.1,0.5,0.2s0,1,0,1.2c0.1,0,0.2,0,0.4,0c0-0.1,0-1.2,0-1.3
		c0.1,0,0.1-0.1,0.2-0.1c0.1,0,0.2,0.3,0.4,0.3C33.7,11.6,33.9,11.4,34,11.3C34.1,11.2,34.1,11.2,34,11.3z M33.4,9.8
		c0.1-0.2,0.2-0.5,0.2-0.8c0-0.3-0.2-0.7-0.6-0.9c-0.6,0.2-0.9,0.6-0.9,1.2c0,0.3,0.2,0.9,0.8,1C33.1,10,33.3,9.8,33.4,9.8z
		 M33.1,9.9c-0.1,0-0.5-0.3-0.6-0.6c-0.1-0.2-0.1-0.6,0.2-0.8c0.2,0.1,0.6,0.3,0.6,0.6C33.4,9.4,33.3,9.7,33.1,9.9z M33.1,7.6
		l0.4-0.4c0,0-0.2-0.2-0.3-0.2c0-0.1,0-1,0-1c-0.3-0.2-0.5-0.3-0.6-0.3C32.4,5.6,32.1,6,32,6c-0.1,0.1,0,0.2,0,0.2
		c0,0,0.1,0.1,0.2,0.1l0,0c-0.1,0.1-0.3,0.4-0.3,0.6c0,0.2,0.2,0.5,0.3,0.6c0.2-0.1,0.4-0.3,0.6-0.4C32.9,7.4,33,7.5,33.1,7.6z
		 M32.9,6.6c-0.2-0.1-0.6-0.2-0.7-0.4c0,0,0,0,0-0.1c0.1-0.2,0.2-0.2,0.2-0.2c0.1,0,0.4,0.2,0.4,0.3C32.9,6.3,32.9,6.4,32.9,6.6z
		 M32.9,7.2c-0.1,0-0.2,0-0.3,0.1c-0.1-0.1-0.4-0.4-0.2-0.8c0,0-0.1,0-0.1,0c0.2,0.1,0.4,0.2,0.6,0.2c0,0.2,0,0.3,0,0.3
		C32.8,7.1,32.9,7.1,32.9,7.2z M31.7,5.4c-0.1,0-0.7,0-0.7,0c0-0.2-0.1-0.3,0-0.5c0-0.1,0-0.2-0.1,0c0,0.1-0.4,0.6-0.7,0.7
		c-0.2,0.1,0.2,0.2,0.2,0.2c0,0.4,0.1,1,0.2,1.3c0.1,0.2,0.2,0.4,0.3,0.3C31,7.3,31.2,7,31.2,7c0.1-0.1,0-0.2-0.1-0.1
		c-0.1,0.1-0.2,0-0.2-0.1c0-0.1-0.1-1-0.1-1c0,0,0.7-0.1,0.8-0.1C31.8,5.6,31.8,5.4,31.7,5.4z M29.7,7.1L30,6.7
		c-0.2,0-0.3-0.1-0.5-0.2v-1l-0.3-0.3H29l-0.5,0.4c0,0.1,0.1,0.1,0.2,0L29,5.8v1c0,0.1,0.1,0.2,0.2,0.4C29.3,7.1,29.7,7.1,29.7,7.1z
		 M29.4,4.9l0.2-0.2V4.5l-0.2-0.2l-0.2,0.2v0.3L29.4,4.9C29.3,4.9,29.4,4.9,29.4,4.9z M28.6,4.6c-0.2,0-0.6,0-0.7,0
		c-0.2,0-0.2,0.1,0,0.1c0.2,0,0.2,0,0.2,0.2c0.1,0.2-0.2,1-0.3,1.2c-0.1-0.2-0.4-0.9-0.4-1S27.5,5,27.5,5c0.1,0,0.1-0.1,0-0.2
		c-0.2,0-1.2-0.1-1.3-0.2c-0.1,0-0.2,0.1,0,0.1c0.2,0,0.3,0,0.5,0.2c0.2,0.2,0.8,1.5,0.9,2c0.1-0.1,0.6-1.8,0.7-2
		C28.3,4.8,28.4,4.7,28.6,4.6C28.8,4.7,28.8,4.6,28.6,4.6z M25.9,8.7c0,0.7,0.3,0.8,0.6,1c0.3,0.2,0.8,0.2,1.2,0
		c0.2,0,0.2,0,0.2,0.1c0,0.1,0.1,0.1,0.1,0c0-0.1,0-0.6,0-0.7C28,9,27.9,9,27.9,9c0,0.1,0,0.2-0.1,0.2c-0.2,0.4-0.9,0.4-1.3-0.1
		c-0.1-0.2-0.2-0.4-0.1-0.4c0.2,0,0.6,0,0.8,0.1c0.2,0,0.6,0,0.6,0.1S28,9,28,8.9s0-0.4,0-0.4c0-0.1-0.1,0-0.1,0s-0.4,0.1-0.6,0.1
		c-0.2,0-0.7,0.1-0.8,0c-0.2,0-0.1-0.3,0-0.5c0.4-0.5,1.1-0.4,1.3,0c0.1,0.2,0.1,0.2,0.1,0.2c0,0,0.1,0.1,0.1,0c0-0.1,0-0.8,0-0.8
		c0-0.1-0.1-0.1-0.1,0c0,0-0.1,0.1-0.2,0c-0.2-0.1-0.9,0-1.2,0.2C26.3,7.9,25.9,8.2,25.9,8.7z M26,9.9c0,0.2,0.1,1.9,0.1,2.1
		c0,0.2,0.2,0.3,0.3,0.4c0.1-0.1,0.2-0.4,0.4-0.5c0.1-0.1,0-0.1,0-0.1c-0.2,0.1-0.2,0-0.3-0.2c0-0.2,0-1.6,0-1.8
		C26.4,9.9,26.1,9.9,26,9.9z M27.4,11.3c-0.1,0.1-0.3,0.4-0.3,0.6c0,0.2,0.1,0.4,0.2,0.6c0.2-0.2,0.3-0.4,0.7-0.5
		c0,0.2,0.2,0.2,0.3,0.3c0.1-0.1,0.4-0.4,0.4-0.5c0.1-0.1,0-0.1-0.1-0.1c-0.1,0.1-0.2,0-0.3-0.2c0-0.1,0-0.8,0-0.9
		c-0.2-0.2-0.2-0.4-0.4-0.3c-0.2,0-0.6,0.4-0.6,0.6C27.2,10.9,27.3,11.2,27.4,11.3C27.4,11.3,27.4,11.3,27.4,11.3z M27.6,11.4
		c0.2,0.1,0.2,0,0.4,0c0,0.2,0,0.2,0,0.3c-0.1,0.1-0.2,0.1-0.3,0.2C27.6,11.8,27.4,11.8,27.6,11.4z M27.5,10.8
		c0.1-0.2,0.2-0.2,0.2-0.2c0,0,0.3,0.2,0.3,0.3c0,0.1,0,0.2,0,0.4c-0.2,0-0.3,0-0.5-0.2C27.4,11.2,27.4,10.9,27.5,10.8z M29,10.6
		c-0.2,0.1,0.2,0.2,0.2,0.2c0,0.4-0.1,1.1,0,1.3c0.1,0.2,0.3,0.2,0.4,0.2c0.2,0,0.3-0.3,0.3-0.4c0.1-0.1,0-0.2-0.1-0.1
		c-0.1,0.1-0.3,0-0.3,0c0-0.1,0-1,0-1c0,0,0.2,0,0.3,0c0,0,0.1-0.2,0-0.2c-0.1,0-0.3,0-0.3-0.1c0-0.1,0-0.4,0.1-0.5
		c0.1-0.1,0-0.2-0.1,0C29.5,10.1,29.2,10.4,29,10.6z M29,8.7c0,0.4-0.2,0.8-0.4,1C29,9.5,29.1,9.3,29.3,9c0.1,0.2,0.3,0.4,0.5,0.5
		c0.1-0.1,0.4-0.4,0.5-0.5c-0.2-0.1-0.6-0.3-0.8-0.6c-0.1-0.2-0.1-0.2,0-0.4c0.1,0.1,0.6,0.3,0.8-0.1c-0.2-0.1-0.5-0.2-0.6-0.4
		c-0.1,0.1-0.3,0.3-0.4,0.4c0-0.2-0.2-0.3-0.4-0.3c-0.1,0.1-0.5,0.4-0.6,0.5c-0.1,0,0,0.2,0,0.1c0.1,0,0.2-0.2,0.4-0.2
		C28.8,8.1,29,8.3,29,8.7z M30.9,8.7c0-0.2,0.2-0.3,0.3-0.4c0.1,0.1,0.2,0.2,0.4,0.2c0.2,0,0.3-0.1,0.4-0.2
		c-0.2-0.1-0.4-0.4-0.5-0.5c-0.2,0.1-0.8,0.4-0.9,0.8c-0.1,0.6,0.1,0.7,0.4,1c0.2,0.2,0.4,0.2,0.5,0.2c0.1-0.1,0.6-0.5,0.6-0.6
		c0,0,0-0.1-0.1,0c0,0,0,0.1-0.1,0.1c-0.1,0-0.4,0.1-0.6,0C31.1,9.3,30.8,9,30.9,8.7z M30.6,10.6c-0.1,0.1-0.2,0.2-0.4,0.4
		c0.2,0,0.2,0,0.3,0.2c0.1,0.1,0,0.6,0,0.9c0,0.2,0.2,0.2,0.3,0.4c0.2,0,0.6-0.2,0.7-0.3c0,0.2,0.2,0.3,0.3,0.4
		c0.1-0.1,0.2-0.2,0.3-0.2c-0.1-0.1-0.1-0.1-0.2-0.2c0-0.2,0-0.7,0-1c-0.1-0.2-0.2-0.3-0.4-0.4c-0.1,0.1-0.2,0.2-0.4,0.4
		c0.2,0,0.4,0,0.4,0.2c0,0.2,0,0.4,0,0.7c0,0.2-0.7,0.2-0.7,0c0-0.2,0-0.6,0-0.9C30.8,10.8,30.7,10.7,30.6,10.6z M26.3,16.3
		c-0.4-0.1-0.6-0.3-1-0.5c-0.5-0.2-1,0.2-1,0.2c0,0.2,0.2,0.2,0.5,0c-0.3,0.4,0,0.6,0,0.6c-0.1,0-0.3-0.1-0.4-0.1
		c0,0.1,0.2,0.2,0.2,0.2C25.3,17.1,25.7,16.4,26.3,16.3z M25.2,16.7c0,0,0.2-0.2,0.2-0.3c0-0.2-0.2-0.3-0.2-0.3
		c0.2,0,0.5,0.2,0.6,0.3L25.2,16.7z M21.8,11.9l0.2-0.2c-0.2,0-0.1,0-0.2-0.2v-0.8l-0.2-0.4h-0.1L21,10.7c-0.1,0.1,0,0.2,0.1,0
		l0.3,0.2v0.9c0,0.1,0.1,0.2,0.2,0.2L21.8,11.9z M21.9,9c0.2,0.4,0.5,0.6,0.7,0.6c0.1-0.2,0.2-0.4,0.3-0.4C23,9,22.9,8.9,22.8,9
		c-0.1,0.2-0.4,0-0.5-0.1c-0.2-0.2-0.2-0.6-0.2-0.6c0.1-0.2,0.3-0.1,0.6-0.1c0.2,0,0.2-0.2,0.2-0.2c-0.1,0-0.2-0.1-0.3-0.2
		c-0.2,0.1-0.4,0.3-0.5,0.4C22,8.3,21.7,8.6,21.9,9z M22.4,11.2c-0.2,0.2-0.2,0.3-0.2,0.6c0,0.2,0.1,0.4,0.3,0.5
		c0.2-0.2,0.4-0.3,0.6-0.4c0.1,0.2,0.3,0.2,0.4,0.3c0.1-0.1,0.3-0.3,0.4-0.3c0.1-0.1,0-0.2-0.1-0.1c0,0.1-0.2,0-0.2-0.1
		c0-0.1-0.1-1,0-1c-0.2-0.2-0.4-0.5-0.5-0.5c-0.2,0-0.6,0.3-0.6,0.4C22.3,10.8,22.4,11.1,22.4,11.2z M23,11.3c-0.2,0-0.3,0-0.5-0.2
		c0,0-0.1-0.2,0-0.3c0.1-0.2,0.1-0.2,0.2-0.2c0.1,0,0.4,0.2,0.4,0.3C23,11,23,11.1,23,11.3z M22.6,11.3c0.2,0.1,0.2,0.1,0.4,0.1
		c0,0.1,0,0.2,0,0.2c0,0,0,0.1,0,0.1c-0.1,0-0.2,0.1-0.3,0.1C22.6,11.8,22.3,11.6,22.6,11.3z M23.8,9.6L24,9.4c-0.2,0-0.2,0-0.3-0.1
		v-1l-0.2-0.2h-0.1L23,8.5c-0.1,0.1,0,0.2,0.1,0l0.2,0.2v0.9c0,0.1,0.1,0.2,0.2,0.3L23.8,9.6z M23.5,6.2c-0.1,0-0.2,0.2,0.3,0.2
		C23.9,6.4,24,6.3,23.5,6.2z M23.5,6c-0.1,0-0.2,0.2,0.3,0.2C23.9,6.1,24,6,23.5,6z M23.6,7.4l-0.2-0.2l-0.2,0.2v0.2l0.2,0.2h0.2
		l0.2-0.2C23.6,7.6,23.6,7.4,23.6,7.4z M23.2,5.4C23,5.3,22.9,5.1,22.6,5c-0.4,0-0.8,0.3-0.9,0.5c-0.2,0.2,0,0.5,0.2,0.7
		c-0.2,0.1-0.4,0.3-0.6,0.5C21.4,6.8,21.8,7,22,7c0.4,0,0.6-0.2,0.9-0.3c0.4-0.3,0.2-0.6-0.2-0.8c0,0-0.1,0-0.1,0
		C23,5.6,23.2,5.4,23.2,5.4z M22.3,6.1c0.1,0.1,0.2,0.1,0.4,0.2c0.2,0.1,0.1,0.3-0.1,0.4c-0.2,0.1-0.6-0.2-0.6-0.3
		C22,6.4,22.2,6.3,22.3,6.1z M22.7,5.6c0,0-0.1,0.1-0.2,0.2c-0.1,0-0.1,0-0.2,0c-0.2,0-0.2-0.2-0.4-0.2c-0.1-0.1,0.2-0.2,0.2-0.2
		C22.3,5.4,22.6,5.5,22.7,5.6z M21.2,6.4c-0.6,0.2-0.8-0.3-0.8-0.4c0.2-0.2,0.6-0.6,0.8-0.8C21,5.1,21,4.9,20.7,4.9
		c-0.2,0-0.8,0.2-0.8,1c-0.1,0.6,0.5,1,1,1c0.2,0,0.4-0.2,0.5-0.2C21.5,6.4,21.4,6.4,21.2,6.4z M20.4,5.9c-0.2-0.4-0.1-0.6,0.2-0.8
		c0.1,0.2,0.2,0.2,0.3,0.3C20.7,5.6,20.4,5.8,20.4,5.9z M19.7,5.5C19.8,5.4,19.7,5.4,19.7,5.5c-0.2-0.2-0.3-0.3-0.4-0.4
		c-0.1,0.1-0.3,0.2-0.4,0.2c-0.1-0.1-0.2-0.1-0.4-0.2c-0.1,0.1-0.3,0.2-0.4,0.4c0.2,0.1,0.4,0.1,0.4,0.2c0,0.2,0,1,0,1.2
		c0.1,0,0.2,0,0.4,0c0-0.1,0-1.2,0-1.3c0.1,0,0.1-0.1,0.2-0.1c0.1,0,0.2,0.2,0.3,0.3C19.4,5.7,19.6,5.6,19.7,5.5z M18,7.8
		c-0.2,0-0.6,0.3-0.6,0.5c0,0.1,0,0.4,0.1,0.5c0,0,0,0,0.1,0.1c-0.2,0.2-0.3,0.2-0.3,0.5c0,0.2,0.2,0.4,0.4,0.5
		c0.1-0.2,0.3-0.2,0.5-0.3c0,0.2,0,0.3,0.2,0.4c0.1-0.1,0.4-0.3,0.4-0.4c0.1-0.1,0-0.2-0.1-0.1c0,0-0.2,0-0.2-0.1c0-0.1,0-1,0-1
		C18.4,8,18.2,7.7,18,7.8z M18.1,8.7c-0.2,0.2-0.3,0.2-0.5,0c-0.1-0.1-0.1-0.3,0-0.4C17.6,8.2,17.7,8,17.8,8C17.9,8,18,8.3,18,8.4
		C18,8.4,18,8.6,18.1,8.7z M18.1,9.1c0,0,0,0.1,0,0.2c0,0-0.1,0-0.2,0.1c-0.1-0.1-0.6-0.2-0.2-0.5c0.2,0.1,0.2,0,0.4-0.1
		C18.1,9,18.1,9.1,18.1,9.1z M17.9,7.2c0,0-0.1-0.1-0.1-0.2c0,0,0-0.6,0-0.7c0-0.1-0.2-0.1-0.2,0c0,0.1,0,0.2-0.1,0.4
		c-0.2,0.4-0.7,0.6-1,0.1c-0.1-0.2-0.2-0.4-0.2-0.6c0-0.2,0.2-0.5,0.2-0.6c0.4-0.6,1-0.2,1,0.1c0,0.2,0.1,0.3,0.1,0.4
		c0,0.1,0.2,0.1,0.2,0c0-0.1,0-0.9,0-1s-0.1-0.1-0.1,0c0,0.2-0.1,0.2-0.2,0.1c-0.2-0.1-0.7-0.2-1,0c-0.2,0.2-0.6,0.5-0.6,0.9
		c0,0.7,0.2,0.7,0.6,0.9c0.3,0.2,0.6,0.1,1,0c0.2,0,0.2,0,0.2,0.2C17.9,7.4,18,7.3,17.9,7.2z M16,8.2c-0.2,0.4-0.4,1,0,1.3
		c0.2,0.2,0.4,0.3,0.7,0.2c0.1-0.2,0.1-0.2,0.2-0.4c-0.2,0-0.5,0-0.7-0.2c-0.4-0.3-0.3-0.8-0.2-1c0.2-0.3,0.6,0.2,0.6,0.2
		C16.8,8.2,16.9,8.1,17,8c-0.1-0.2-0.2-0.3-0.3-0.4C16.5,7.7,16.2,7.9,16,8.2z M16.2,11.2c-0.1,0.6,0.5,1,0.8,1.2
		c0.1-0.2,0.2-0.4,0.4-0.6c0.1-0.2,0-0.2-0.1-0.1c-0.2,0.2-0.6,0-0.6-0.2c0.2-0.2,0.7-0.6,0.9-0.8c-0.2-0.2-0.4-0.5-0.4-0.7
		C16.9,10.3,16.3,10.6,16.2,11.2z M16.8,10.6c0.1,0.2,0.2,0.4,0.3,0.5c-0.2,0.2-0.5,0.4-0.6,0.5C16.4,11.3,16.2,10.9,16.8,10.6z
		 M18.1,10.3c-0.2,0.1-0.2,0.2-0.4,0.4c0.1,0.1,0.2,0.2,0.2,0.4c0,0.2,0,1,0,1.2c0.2,0,0.1,0,0.3,0c0-0.2,0-1.2,0-1.3
		c0.1-0.1,0.1-0.1,0.2-0.2c0.1,0.1,0.2,0.1,0.2,0.2c0,0.1,0,0.6,0,0.8c0,0.2,0,0.4,0.1,0.6c0.1-0.1,0.4-0.3,0.5-0.4
		c0.1-0.1,0-0.1-0.1-0.1c-0.1,0-0.1,0-0.1,0c0-0.1,0-0.6-0.1-1c0-0.3-0.2-0.4-0.3-0.5c-0.1,0.1-0.3,0.2-0.4,0.4
		C18.3,10.6,18.2,10.5,18.1,10.3z M19.5,9.5c0.1-0.1,0.2-0.2,0.2-0.3c0.1-0.1,0-0.2-0.1-0.1C19.6,9.2,19.5,9,19.5,9
		c0-0.1-0.1-0.8-0.1-0.9c0,0,0.5-0.1,0.6-0.1c0,0,0.1-0.2,0-0.2c-0.1,0-0.5,0-0.5,0c0-0.1-0.1-0.4,0-0.6c0.1-0.1,0-0.2,0-0.1
		c0,0.1-0.4,0.6-0.6,0.7C18.7,8,18.8,8,18.9,8C19,8,19.1,8.2,19,8.2c0,0.4-0.1,0.9,0.1,1.1C19.2,9.4,19.4,9.6,19.5,9.5z M21.2,9.7
		c-0.1,0.1-0.2,0.2-0.3,0.3c0.1,0.1,0.2,0.2,0.4,0.3c0.1-0.1,0.2-0.2,0.3-0.4C21.5,9.9,21.3,9.8,21.2,9.7z M20.4,9.2
		c0.2,0,0.4,0.1,0.7,0.1c0.3,0,0.6-0.6,0.5-1C21.4,7.9,21,8,20.7,7.9c-0.2-0.1-0.4-0.2-0.1-0.4c0.3-0.2,0.8,0.2,0.8,0.2
		c0.1,0.1,0.1,0.1,0.1,0c0-0.3,0-0.2,0-0.4c0-0.1-0.1-0.1-0.1,0c0,0.1-0.2,0.1-0.2,0.1c-0.1,0-0.4,0-0.6,0.1
		c-0.2,0.1-0.5,0.4-0.3,0.7c0.1,0.2,0.8,0.4,1,0.5c0.2,0.1,0.2,0.4,0,0.6c-0.2,0.2-0.8,0-0.8-0.1c-0.1-0.1-0.2-0.2-0.2-0.4
		c0-0.2-0.2-0.2-0.2,0s0,0.6,0.1,0.7c0,0.1,0.2,0.1,0.2,0C20.3,9.2,20.4,9.2,20.4,9.2z M19.7,10.6c-0.2,0.1,0.2,0.2,0.2,0.2
		c0,0.4,0,0.8,0.1,1C20,12,20.3,12,20.4,12c0-0.1,0.2-0.4,0.3-0.4c0.1-0.1,0-0.2-0.1-0.1c-0.2,0.2-0.2,0.1-0.3,0
		c0-0.1-0.1-0.6,0-0.6c0,0,0.3,0,0.3,0c0,0,0-0.2,0-0.2c-0.1,0-0.3,0-0.3,0c0-0.1,0-0.5,0.1-0.6c0-0.1-0.1-0.2-0.1,0
		C20.1,10.1,19.9,10.6,19.7,10.6z"/>
	<path class="st0" d="M24.9,43c-0.5,0-4.4-0.6-8.2-3.1c-3.4-2.2-7.7-6.6-8.5-14.6V1.8l0.3,0c0.2,0,14.2-1.8,32.5,0l0.3,0v23.4
		C40.2,38.8,29.4,42.1,24.9,43z M9,2.5v22.7c1.4,15.1,15.1,16.9,15.8,17c4.4-0.8,14.7-4,15.9-17.1V2.5C24.2,0.9,11.1,2.2,9,2.5z"/>
</g>
</svg>
