<?xml version="1.0" encoding="UTF-8"?>
<svg id="Capa_2" data-name="Capa 2" xmlns="http://www.w3.org/2000/svg" viewBox="0 0 176.39 70">
  <defs>
    <style>
      .cls-1 {
        fill: none;
      }

      .cls-1, .cls-2 {
        stroke-width: 0px;
      }

      .cls-2 {
        fill: #fff;
      }
    </style>
  </defs>
  <g id="Capa_1-2" data-name="Capa 1">
    <g id="Logotipo">
      <rect id="_70" data-name="70" class="cls-1" width="176.39" height="70"/>
      <g id="Logo_50" data-name="Logo 50">
        <rect id="_50" data-name="50" class="cls-1" x="13.57" y="10" width="162.82" height="50"/>
        <g id="Logo">
          <g>
            <path class="cls-2" d="m49.54,59.54h11.01V26.51h-11.01v33.03Zm16.51-38.53h27.52v-11.01h-27.52v11.01Zm-16.51-11.01h11.01v11.01h-11.01v-11.01Zm-16.51,49.54h11.01V10h-11.01v49.54Zm-16.51-11.01h11.01V10h-11.01v38.53ZM0,59.54h11.01V10H0v49.54Zm66.05,0h11.01V26.51h-11.01v33.03Z"/>
            <g>
              <path class="cls-2" d="m108.7,51.69l-4.82-6.96h4.47l2.63,4.24h.06l2.48-4.24h4.07l-4.59,6.93,5.28,7.88h-4.68l-2.74-4.91h-.06l-3.2,4.91h-4.3l5.4-7.85Z"/>
              <path class="cls-2" d="m120.1,38.9h9.06c2.4,0,4.19.69,5.4,1.93,1.15,1.18,1.85,2.8,1.85,4.71,0,3.9-2.57,6.52-6.9,6.52h-5.08v7.48h-4.33v-20.64h0Zm4.33,9.76h4.33c2.19,0,3.35-1.21,3.35-3.09s-1.21-3.03-3.29-3.03h-4.39v6.12Z"/>
              <path class="cls-2" d="m146.22,51.57h-3.41v7.97h-4.33v-20.64h9.06c2.4,0,4.19.69,5.4,1.93,1.15,1.18,1.85,2.63,1.85,4.47,0,2.89-1.5,4.91-4.1,5.77l5.17,8.46h-4.85l-4.79-7.97Zm-3.41-3.41h4.33c2.19,0,3.35-1.01,3.35-2.83s-1.21-2.8-3.29-2.8h-4.39v5.63h0Z"/>
              <path class="cls-2" d="m156.5,49.26c0-6.18,3.87-10.77,9.96-10.77s9.93,4.59,9.93,10.77-3.84,10.74-9.93,10.74c-6.09,0-9.96-4.56-9.96-10.74Zm15.62,0c0-4.13-1.85-7.33-5.63-7.33s-5.72,3.2-5.72,7.33,1.93,7.3,5.72,7.3,5.63-3.2,5.63-7.3Z"/>
            </g>
          </g>
        </g>
      </g>
    </g>
  </g>
</svg>