<svg width="301" height="60" viewBox="0 0 301 60" fill="none" xmlns="http://www.w3.org/2000/svg">
<g clip-path="url(#clip0_336_1066)">
<path d="M158.851 0H0.5V59.953H158.851V0Z" fill="#006853"/>
<path d="M24.2714 13.2417H16.1577V46.7218H24.2714V13.2417Z" fill="white"/>
<path d="M57.3155 13.252H27.1691V20.4189H38.1855V46.7166H46.2991V20.4189H57.3155V13.252Z" fill="white"/>
<path d="M119.327 13.2312H89.2155C88.443 13.2312 87.7022 13.5477 87.1559 14.111C86.6097 14.6743 86.3028 15.4384 86.3028 16.235V46.7216H94.4264V21.5677C94.4258 21.4153 94.4544 21.2643 94.5107 21.1233C94.5669 20.9823 94.6497 20.8543 94.7542 20.7465C94.8587 20.6387 94.9829 20.5533 95.1196 20.4953C95.2563 20.4373 95.4027 20.4078 95.5505 20.4085H100.222V46.7113H108.336V20.4342H113.007C113.155 20.4335 113.301 20.4631 113.438 20.5211C113.575 20.5791 113.699 20.6645 113.803 20.7722C113.908 20.88 113.991 21.0081 114.047 21.1491C114.103 21.29 114.132 21.4411 114.131 21.5935V46.7371H122.25V16.2402C122.25 15.8453 122.175 15.4541 122.029 15.0891C121.883 14.7241 121.669 14.3923 121.398 14.1128C121.128 13.8333 120.806 13.6116 120.453 13.4603C120.099 13.3091 119.72 13.2312 119.337 13.2312" fill="white"/>
<path d="M79.8978 13.2417H60.2132V20.4087H73.5728C73.7202 20.4087 73.8661 20.4387 74.0022 20.497C74.1383 20.5553 74.2619 20.6408 74.3659 20.7485C74.4699 20.8562 74.5522 20.9841 74.6081 21.1247C74.6641 21.2653 74.6926 21.4159 74.6919 21.5679V25.2055H57.8001C56.442 25.2055 55.1394 25.7619 54.179 26.7523C53.2187 27.7428 52.6791 29.086 52.6791 30.4867V41.4406C52.6791 42.1339 52.8116 42.8204 53.069 43.4609C53.3265 44.1013 53.7038 44.6832 54.1793 45.1732C54.6549 45.6632 55.2195 46.0517 55.8408 46.3166C56.4621 46.5814 57.1279 46.7174 57.8001 46.7167H79.8978C80.6703 46.7167 81.4112 46.4002 81.9574 45.8369C82.5037 45.2735 82.8105 44.5095 82.8105 43.7128V16.2455C82.8105 15.4489 82.5037 14.6848 81.9574 14.1215C81.4112 13.5582 80.6703 13.2417 79.8978 13.2417ZM72.8234 39.5652H63.081C62.4737 39.5638 61.8917 39.3141 61.4627 38.8707C61.0337 38.4273 60.7928 37.8266 60.7928 37.2002V34.7323C60.7941 34.1068 61.0356 33.5074 61.4644 33.0651C61.8933 32.6229 62.4745 32.3738 63.081 32.3725H74.6919V37.6124C74.6919 38.124 74.4952 38.6146 74.1449 38.9768C73.7946 39.339 73.3194 39.5432 72.8234 39.5446" fill="white"/>
<path d="M24.2714 13.2417H16.1577V46.7218H24.2714V13.2417Z" fill="white"/>
<path d="M158.851 0H156.208H153.565V2.72561V5.45121H150.917H148.274V8.17682V10.9024H150.917H153.565V13.628V16.3485H156.208H158.851V21.7997H156.208H153.565V24.5253V27.2509H156.208H158.851V32.7021H156.208H153.565V35.4277V38.1533H150.917H148.274V40.8789V43.6046V46.3302V49.0506H150.917H153.565V46.3302V43.6046H156.208H158.851V49.0506H156.208H153.565V51.7762V54.5018H150.917H148.274V57.2274V59.953H150.917H153.565H156.208H158.851H300.5V0H158.851Z" fill="#AA6C10"/>
<path d="M148.274 0H145.631H142.988V2.72561V5.45121H145.631H148.274V2.72561V0Z" fill="#AA6C10"/>
<path d="M137.703 16.3484V13.628V10.9023H135.055H132.412V13.628V16.3484H135.055H137.703Z" fill="#AA6C10"/>
<path d="M137.703 21.7998V24.5254V27.251H140.345H142.988V24.5254V21.7998H140.345H137.703Z" fill="#AA6C10"/>
<path d="M137.703 54.5017V57.2273V59.9529H140.345H142.988V57.2273V54.5017H140.345H137.703Z" fill="#AA6C10"/>
<path d="M148.274 32.7021H145.631H142.988V35.4278V38.1534H145.631H148.274V35.4278V32.7021Z" fill="#AA6C10"/>
<path d="M137.703 38.1533V40.8789V43.6045H140.345H142.988V40.8789V38.1533H140.345H137.703Z" fill="#AA6C10"/>
<path d="M148.274 49.0505H145.631H142.988V51.7761V54.5018H145.631H148.274V51.7761V49.0505Z" fill="#AA6C10"/>
<path d="M132.412 43.6045V46.3301V49.0506H135.055H137.703V46.3301V43.6045H135.055H132.412Z" fill="#AA6C10"/>
<path d="M153.565 16.3484H150.917H148.274V13.628V10.9023H145.631H142.988V13.628V16.3484V19.074V21.7996H145.631H148.274H150.917H153.565V19.074V16.3484Z" fill="#AA6C10"/>
<path d="M153.565 32.7022V29.9766V27.251H150.917H148.274V29.9766V32.7022H150.917H153.565Z" fill="#AA6C10"/>
<path d="M178.586 37.262C177.996 37.8217 177.305 38.2548 176.552 38.5361C175.799 38.8174 174.999 38.9412 174.199 38.9005H168.204V21.7637H174.199C174.999 21.7229 175.799 21.8468 176.552 22.1281C177.305 22.4094 177.996 22.8425 178.586 23.4021C180.454 25.3291 180.264 27.6838 180.264 30.2599C180.264 32.8361 180.454 35.3402 178.586 37.262ZM176.322 25.8083C176.03 25.4424 175.657 25.1539 175.235 24.9666C174.812 24.7793 174.353 24.6987 173.894 24.7315H171.446V35.9173H173.894C174.352 35.9519 174.81 35.8737 175.233 35.6891C175.655 35.5045 176.028 35.2189 176.322 34.8559C176.932 34.0882 177.022 32.8619 177.022 30.2599C177.022 27.658 176.932 26.576 176.322 25.8083Z" fill="white"/>
<path d="M183.302 24.2162V21.6709H186.404V24.2162H183.302ZM183.357 38.9004V26.3596H186.389V38.9004H183.357Z" fill="white"/>
<path d="M193.963 43.6405C192.1 43.6405 190.816 43.2541 189.557 42.0021L191.445 40.0287C191.755 40.3584 192.13 40.6152 192.545 40.7815C192.96 40.9478 193.404 41.0197 193.849 40.9922C195.672 40.9922 196.302 39.668 196.302 38.416V37.097C195.944 37.5199 195.498 37.8526 194.996 38.0696C194.495 38.2867 193.952 38.3823 193.409 38.349C192.339 38.3902 191.297 37.9918 190.511 37.2413C189.352 36.0665 189.252 34.4693 189.252 32.2795C189.252 30.0898 189.347 28.5028 190.486 27.3229C191.281 26.575 192.328 26.1775 193.404 26.2152C193.965 26.1797 194.526 26.2811 195.041 26.5111C195.557 26.7412 196.013 27.0935 196.372 27.5393V26.3594H199.309V38.4418C199.309 41.4508 197.231 43.6405 193.963 43.6405ZM194.268 29.0335C192.475 29.0335 192.27 30.6205 192.27 32.2795C192.27 33.9386 192.46 35.5564 194.268 35.5564C196.077 35.5564 196.267 33.9437 196.267 32.2795C196.267 30.6153 196.067 29.0335 194.268 29.0335Z" fill="white"/>
<path d="M202.672 24.2162V21.6709H205.774V24.2162H202.672ZM202.717 38.8953V26.3596H205.749V38.9004L202.717 38.8953Z" fill="white"/>
<path d="M212.939 38.9004C210.466 38.9004 209.441 37.0971 209.441 35.2937V29.1057H208.157V26.7202H209.441V23.0156H212.474V26.7202H214.622V29.1057H212.474V35.1237C212.474 35.845 212.799 36.2521 213.523 36.2521H214.622V38.9004H212.939Z" fill="white"/>
<path d="M223.51 38.9003V37.8183C223.13 38.238 222.663 38.5639 222.144 38.7717C221.625 38.9796 221.068 39.0641 220.513 39.0188C219.139 39.0188 218.135 38.6582 217.41 37.9111C216.737 37.142 216.378 36.1336 216.411 35.0979C216.411 33.0987 217.74 31.4654 220.563 31.4654H223.435V30.8368C223.435 29.4663 222.781 28.8635 221.172 28.8635C220.73 28.8126 220.282 28.8797 219.872 29.0583C219.461 29.2369 219.102 29.5211 218.829 29.8837L216.891 27.9361C218.08 26.5861 219.249 26.1997 221.277 26.1997C224.684 26.1997 226.458 27.6939 226.458 30.6308V38.8745L223.51 38.9003ZM223.44 33.6037H221.037C219.938 33.6037 219.334 34.1189 219.334 35.0257C219.334 35.9325 219.893 36.4684 221.082 36.4684C221.922 36.4684 222.461 36.3963 222.996 35.8656C223.325 35.5564 223.44 35.0515 223.44 34.2786V33.6037Z" fill="white"/>
<path d="M233.173 38.9005C230.675 38.9005 229.626 37.0971 229.626 35.2938V21.7637H232.658V35.1238C232.658 35.8657 232.963 36.2522 233.732 36.2522H234.901V38.9005H233.173Z" fill="white"/>
<path d="M242.975 38.9005V21.7637H253.917V24.7314H246.218V28.7503H252.802V31.7387H246.218V35.9018H253.917V38.9005H242.975Z" fill="white"/>
<path d="M263.534 38.9005L261.296 35.1444L259.082 38.9005H255.44L259.642 32.4961L255.6 26.3596H259.237L261.291 29.9663L263.369 26.3596H267.011L262.974 32.4961L267.176 38.9005H263.534Z" fill="white"/>
<path d="M269.389 38.9005V21.7637H280.336V24.7314H272.637V28.7503H279.192V31.7387H272.637V35.9018H280.336V38.9005H269.389Z" fill="white"/>
<path d="M289.998 38.9005V37.7206C289.632 38.1657 289.171 38.5171 288.651 38.7469C288.13 38.9767 287.566 39.0786 287.001 39.0447C285.897 39.0785 284.824 38.6726 284.003 37.9112C282.779 36.6643 282.779 34.521 282.779 32.6197C282.779 30.7185 282.779 28.6009 284.013 27.3488C284.823 26.5903 285.887 26.1842 286.981 26.2153C287.534 26.1783 288.089 26.2717 288.602 26.4887C289.115 26.7056 289.574 27.0403 289.943 27.4674V21.7637H292.976V38.9005H289.998ZM287.85 29.0337C286.031 29.0337 285.797 30.5794 285.797 32.6403C285.797 34.7013 286.031 36.247 287.85 36.247C289.669 36.247 289.928 34.7013 289.928 32.6403C289.928 30.5794 289.674 29.0337 287.85 29.0337Z" fill="white"/>
<path d="M171.441 21.3154H167.704V24.7521H171.441V21.3154Z" fill="#AA6C10"/>
<path d="M170.252 19.342H165.711V23.5206H170.252V19.342Z" fill="black"/>
</g>
<defs>
<clipPath id="clip0_336_1066">
<rect width="300" height="59.953" fill="white" transform="translate(0.5)"/>
</clipPath>
</defs>
</svg>
